<?xml version="1.0" encoding="utf-8"?>
<!-- Generator: Adobe Illustrator 16.0.0, SVG Export Plug-In . SVG Version: 6.00 Build 0)  -->
<!DOCTYPE svg PUBLIC "-//W3C//DTD SVG 1.1//EN" "http://www.w3.org/Graphics/SVG/1.1/DTD/svg11.dtd">
<svg version="1.1" id="Layer_1" xmlns="http://www.w3.org/2000/svg" xmlns:xlink="http://www.w3.org/1999/xlink" x="0px" y="0px"
	 width="3995.123px" height="484px" viewBox="0 0 3995.123 484" enable-background="new 0 0 3995.123 484" xml:space="preserve">
<path fill="#1C5486" d="M596.789,127.262h23.843h71.995c26.073,0,45.918,6.109,59.528,18.313c13.607,12.203,20.415,30,20.415,53.375
	c0,24.727-6.808,43.508-20.415,56.328c-13.61,12.836-33.455,19.242-59.528,19.242c-18.495-0.094-34.493,0-47.997,0.32v81.5h-23.842
	h-23.999V127.262z M644.63,235.098h39.894c13.402,0,23.451-2.961,30.156-8.875c6.696-5.93,10.049-14.859,10.049-26.805
	c0-10.914-3.353-19.094-10.049-24.547c-6.705-5.453-16.754-8.188-30.156-8.188H644.63V235.098z"/>
<path fill="#1C5486" d="M846.747,360.699c-15.69,0-28.313-4.484-37.868-13.477c-9.559-8.984-14.336-20.805-14.336-35.453
	c0-15.477,4.31-27.859,12.934-37.164c8.62-9.297,21.193-15.141,37.712-17.539l29.452-4.039c7.686-1.047,14.074-2.813,19.168-5.305
	c2.182-1.039,3.869-2.906,5.066-5.617c1.189-2.695,1.635-5.445,1.323-8.25c-0.624-4.773-3.068-8.516-7.324-11.219
	c-5.094-3.219-12.418-4.836-21.973-4.836c-8.522,0-15.17,2.078-19.947,6.234c-4.782,4.156-7.324,10.031-7.636,17.609h-42.854
	c0.936-19.836,7.685-34.695,20.259-44.57c12.569-9.867,31.011-14.805,55.321-14.805c21.086,0,37.733,4.453,49.946,13.336
	c12.205,8.898,18.309,21.039,18.309,36.422v94.836c0,7.594,0.623,12.922,1.87,15.984c1.247,3.07,3.74,5.484,7.479,7.258v0.164v6.07
	h-24.154H905.34v-0.164c-1.977-6.852-3.271-13.547-3.896-20.094l-0.155-0.313C887.264,352.395,869.08,360.699,846.747,360.699z
	 M900.51,293.691v-19.469c-5.196,2.898-12.053,5.242-20.57,7.008l-16.519,3.117c-7.792,1.461-13.713,4.125-17.765,8.023
	s-6.078,8.805-6.078,14.727c0,6.758,1.816,12.055,5.455,15.891c3.633,3.852,8.727,5.766,15.271,5.766
	c14.336,0,25.762-5.031,34.283-15.109c1.66-1.969,3.063-4.883,4.207-8.727C899.936,301.074,900.51,297.34,900.51,293.691z"/>
<path fill="#1C5486" d="M984.816,125.543h45.503v41.461h-45.503V125.543z M985.283,186.793h22.284h22.44V356.34h-22.285h-22.439
	V186.793z"/>
<path fill="#1C5486" d="M1072.238,186.793h21.193h21.35v25.094c1.764-3.016,3.687-5.867,5.766-8.578
	c11.012-14.023,27.009-21.039,47.997-21.039c17.868,0,31.866,5.305,41.999,15.906c10.125,10.594,15.192,25.297,15.192,44.094v114.07
	h-22.284h-22.44V250.371c0-10.492-2.257-18.25-6.78-23.297c-4.516-5.039-11.452-7.555-20.803-7.555
	c-11.74,0-20.752,3.531-27.035,10.594c-6.291,7.07-9.43,17.25-9.43,30.547v95.68h-22.284h-22.44V186.793z"/>
<path fill="#1C5486" d="M1334.352,360.699c-25.766,0-45.637-7.938-59.609-23.844c-13.971-15.883-20.957-38.539-20.957-67.945
	c0-27.102,7.115-48.328,21.35-63.648c14.229-15.328,33.972-22.992,59.217-22.992c25.868,0,45.789,7.828,59.76,23.453
	c13.972,15.641,20.962,37.898,20.962,66.781c0.205,3.328-0.054,6.703-0.778,10.125h-115.474c1.038,13.406,3.998,23.438,8.882,30.078
	c6.234,8.313,16.621,12.469,31.168,12.469c6.75,0,13.014-1.93,18.775-5.773c5.77-3.836,9.221-8.461,10.365-13.867h45.504
	c-3.848,17.25-12.757,30.758-26.724,40.516C1372.816,355.824,1355.336,360.699,1334.352,360.699z M1368.479,254.113
	c-1.041-10.18-3.739-18.133-8.103-23.852c-5.718-7.578-14.6-11.367-26.647-11.367c-11.532,0-20.313,4.414-26.336,13.242
	c-3.74,5.609-6.443,12.938-8.104,21.977H1368.479z"/>
<path fill="#1C5486" d="M1445.929,127.262h22.284h22.439V356.34h-22.283h-22.44V127.262z"/>
<path fill="#819D3C" d="M1684.354,360.699c-21.612,0-39.034-8.414-52.284-25.242c-13.242-16.828-19.867-39.008-19.867-66.547
	c0-25.961,6.594-46.898,19.791-62.797c13.193-15.891,30.544-23.844,52.049-23.844c19.217,0,34.697,8.102,46.438,24.313l1.87,2.492
	v-81.813h22.284h22.44V356.34h-21.661h-21.661v-21.656l-0.779,1.086C1720.61,352.395,1704.404,360.699,1684.354,360.699z
	 M1696.354,220.918c-11.949,0-21.3,4.602-28.05,13.789c-6.755,9.203-10.13,21.953-10.13,38.266c0,15.992,3.354,28.484,10.05,37.469
	c6.705,9,16.024,13.484,27.975,13.484c12.048,0,21.452-4.727,28.206-14.18c6.75-9.453,10.129-22.594,10.129-39.43
	c0-15.477-3.379-27.586-10.129-36.313C1717.65,225.277,1708.3,220.918,1696.354,220.918z"/>
<path fill="#819D3C" d="M1830.607,336.855c-15.642-15.883-23.455-37.336-23.455-64.352c0-27.633,7.813-49.586,23.455-65.844
	c15.632-16.25,36.696-24.391,63.188-24.391c26.697,0,47.842,8.141,63.426,24.391c15.582,16.258,23.375,38.211,23.375,65.844
	c0,27.016-7.793,48.469-23.375,64.352c-15.584,15.906-36.729,23.844-63.426,23.844
	C1867.304,360.699,1846.239,352.762,1830.607,336.855z M1924.184,310.215c6.959-8.727,10.44-21.453,10.44-38.188
	c0-17.133-3.481-30.148-10.44-39.031c-6.964-8.883-17.094-13.328-30.389-13.328c-13.299,0-23.401,4.445-30.312,13.328
	c-6.909,8.883-10.36,21.898-10.36,39.031c0,16.734,3.451,29.461,10.36,38.188c6.91,8.727,17.013,13.086,30.312,13.086
	C1907.09,323.301,1917.22,318.941,1924.184,310.215z"/>
<path fill="#1C5486" d="M2298.186,276.09c-2.912,26.484-13.273,47.523-31.092,63.109s-40.49,23.375-68.02,23.375
	c-32.209,0-57.792-10.758-76.746-32.258c-18.963-21.508-28.441-50.594-28.441-87.266c0-37.398,9.479-67.086,28.441-89.063
	c18.954-21.969,44.537-32.961,76.746-32.961c27.218,0,49.76,7.359,67.633,22.055c17.867,14.695,28.361,34.617,31.479,59.758h-47.842
	c-1.563-12.359-6.893-22.172-15.998-29.453c-9.104-7.266-20.676-10.906-34.719-10.906c-17.793,0-31.737,7.094-41.826,21.273
	c-10.094,14.18-15.139,33.844-15.139,58.977c0,24.523,5.018,43.719,15.059,57.586c10.04,13.867,24.008,20.805,41.906,20.805
	c14.043,0,25.614-4.055,34.719-12.156c9.105-8.102,14.436-19.063,15.998-32.875H2298.186z"/>
<path fill="#1C5486" d="M2344.703,336.855c-15.637-15.883-23.455-37.336-23.455-64.352c0-27.633,7.818-49.586,23.455-65.844
	c15.629-16.25,36.697-24.391,63.189-24.391c26.695,0,47.845,8.141,63.428,24.391c15.584,16.258,23.367,38.211,23.367,65.844
	c0,27.016-7.783,48.469-23.367,64.352c-15.583,15.906-36.732,23.844-63.428,23.844
	C2381.4,360.699,2360.332,352.762,2344.703,336.855z M2438.284,310.215c6.954-8.727,10.437-21.453,10.437-38.188
	c0-17.133-3.482-30.148-10.437-39.031c-6.964-8.883-17.097-13.328-30.392-13.328c-13.305,0-23.402,4.445-30.313,13.328
	s-10.356,21.898-10.356,39.031c0,16.734,3.446,29.461,10.356,38.188s17.008,13.086,30.313,13.086
	C2421.188,323.301,2431.32,318.941,2438.284,310.215z"/>
<path fill="#1C5486" d="M2527.261,127.262h22.28h22.439V356.34h-22.279h-22.44V127.262z"/>
<path fill="#1C5486" d="M2655.356,360.699c-15.69,0-28.309-4.484-37.872-13.477c-9.555-8.984-14.337-20.805-14.337-35.453
	c0-15.477,4.31-27.859,12.938-37.164c8.62-9.297,21.193-15.141,37.712-17.539l29.458-4.039c7.684-1.047,14.068-2.813,19.162-5.305
	c2.182-1.039,3.865-2.906,5.066-5.617c1.193-2.695,1.631-5.445,1.328-8.25c-0.624-4.773-3.072-8.516-7.329-11.219
	c-5.094-3.219-12.413-4.836-21.968-4.836c-8.522,0-15.174,2.078-19.947,6.234c-4.781,4.156-7.328,10.031-7.641,17.609h-42.85
	c0.926-19.836,7.686-34.695,20.25-44.57c12.573-9.867,31.016-14.805,55.325-14.805c21.087,0,37.738,4.453,49.946,13.336
	c12.2,8.898,18.309,21.039,18.309,36.422v94.836c0,7.594,0.623,12.922,1.87,15.984c1.247,3.07,3.74,5.484,7.479,7.258v0.164v6.07
	h-24.148h-24.159v-0.164c-1.978-6.852-3.269-13.547-3.892-20.094l-0.16-0.313C2695.873,352.395,2677.689,360.699,2655.356,360.699z
	 M2709.115,293.691v-19.469c-5.191,2.898-12.049,5.242-20.57,7.008l-16.51,3.117c-7.801,1.461-13.713,4.125-17.773,8.023
	c-4.043,3.898-6.074,8.805-6.074,14.727c0,6.758,1.816,12.055,5.45,15.891c3.642,3.852,8.727,5.766,15.28,5.766
	c14.338,0,25.762-5.031,34.283-15.109c1.657-1.969,3.055-4.883,4.203-8.727C2708.545,301.074,2709.115,297.34,2709.115,293.691z"/>
<path fill="#1C5486" d="M2790.932,127.262h22.28h22.44v81.656l0.935-1.242c12.048-16.93,27.943-25.406,47.685-25.406
	c21.506,0,38.808,7.953,51.898,23.844c13.09,15.898,19.625,36.836,19.625,62.797c0,27.539-6.535,49.719-19.625,66.547
	c-13.091,16.828-30.393,25.242-51.898,25.242c-19.635,0-35.529-7.883-47.685-23.68l-1.87-2.5v21.82h-43.785V127.262z
	 M2871.494,323.926c12.048,0,21.451-4.484,28.201-13.484c6.759-8.984,10.134-21.477,10.134-37.469
	c0-16.313-3.375-29.063-10.134-38.266c-6.75-9.188-16.1-13.789-28.051-13.789c-11.941,0-21.291,4.734-28.049,14.18
	c-6.75,9.461-10.125,22.594-10.125,39.422c0,15.484,3.375,27.594,10.125,36.32C2850.247,319.566,2859.543,323.926,2871.494,323.926z
	"/>
<path fill="#1C5486" d="M3000.756,336.855c-15.637-15.883-23.455-37.336-23.455-64.352c0-27.633,7.818-49.586,23.455-65.844
	c15.628-16.25,36.697-24.391,63.188-24.391c26.696,0,47.845,8.141,63.429,24.391c15.584,16.258,23.366,38.211,23.366,65.844
	c0,27.016-7.782,48.469-23.366,64.352c-15.584,15.906-36.732,23.844-63.429,23.844
	C3037.453,360.699,3016.384,352.762,3000.756,336.855z M3094.336,310.215c6.955-8.727,10.438-21.453,10.438-38.188
	c0-17.133-3.482-30.148-10.438-39.031c-6.963-8.883-17.097-13.328-30.392-13.328c-13.304,0-23.401,4.445-30.312,13.328
	s-10.357,21.898-10.357,39.031c0,16.734,3.447,29.461,10.357,38.188s17.008,13.086,30.312,13.086
	C3077.239,323.301,3087.373,318.941,3094.336,310.215z"/>
<path fill="#1C5486" d="M3181.746,186.793h21.193h21.354v30.383c1.559-3.32,3.322-6.539,5.299-9.656
	c10.489-16.828,24.051-25.25,40.668-25.25l10.133,0.156v45.664c-3.953-0.414-8.414-0.617-13.4-0.617
	c-13.616,0-23.768,3.375-30.464,10.125c-6.706,6.758-10.054,16.977-10.054,30.688v88.055h-22.289h-22.439V186.793z"/>
<path fill="#1C5486" d="M3346.939,360.699c-15.691,0-28.309-4.484-37.873-13.477c-9.555-8.984-14.336-20.805-14.336-35.453
	c0-15.477,4.31-27.859,12.938-37.164c8.621-9.297,21.194-15.141,37.713-17.539l29.457-4.039c7.685-1.047,14.069-2.813,19.162-5.305
	c2.183-1.039,3.865-2.906,5.067-5.617c1.193-2.695,1.63-5.445,1.327-8.25c-0.623-4.773-3.072-8.516-7.328-11.219
	c-5.094-3.219-12.414-4.836-21.969-4.836c-8.521,0-15.174,2.078-19.947,6.234c-4.781,4.156-7.328,10.031-7.641,17.609h-42.85
	c0.927-19.836,7.686-34.695,20.25-44.57c12.574-9.867,31.016-14.805,55.326-14.805c21.086,0,37.738,4.453,49.946,13.336
	c12.2,8.898,18.308,21.039,18.308,36.422v94.836c0,7.594,0.624,12.922,1.871,15.984c1.246,3.07,3.74,5.484,7.479,7.258v0.164v6.07
	h-24.149h-24.159v-0.164c-1.977-6.852-3.269-13.547-3.892-20.094l-0.16-0.313C3387.455,352.395,3369.271,360.699,3346.939,360.699z
	 M3400.697,293.691v-19.469c-5.191,2.898-12.049,5.242-20.57,7.008l-16.51,3.117c-7.801,1.461-13.713,4.125-17.773,8.023
	c-4.043,3.898-6.073,8.805-6.073,14.727c0,6.758,1.816,12.055,5.45,15.891c3.642,3.852,8.727,5.766,15.28,5.766
	c14.337,0,25.761-5.031,34.283-15.109c1.656-1.969,3.055-4.883,4.203-8.727C3400.127,301.074,3400.697,297.34,3400.697,293.691z"/>
<path fill="#1C5486" d="M3546.095,360.699c-21.612,0-39.038-8.414-52.289-25.242c-13.241-16.828-19.866-39.008-19.866-66.547
	c0-25.961,6.598-46.898,19.795-62.797c13.188-15.891,30.543-23.844,52.039-23.844c19.227,0,34.703,8.102,46.448,24.313l1.87,2.492
	v-81.813h22.279h22.44V356.34h-21.657h-21.664v-21.656l-0.775,1.086C3582.346,352.395,3566.14,360.699,3546.095,360.699z
	 M3558.09,220.918c-11.951,0-21.301,4.602-28.051,13.789c-6.758,9.203-10.125,21.953-10.125,38.266
	c0,15.992,3.349,28.484,10.045,37.469c6.705,9,16.029,13.484,27.979,13.484c12.049,0,21.443-4.727,28.202-14.18
	c6.75-9.453,10.124-22.594,10.124-39.43c0-15.477-3.374-27.586-10.124-36.313C3579.381,225.277,3570.031,220.918,3558.09,220.918z"
	/>
<path fill="#1C5486" d="M3692.338,336.855c-15.637-15.883-23.455-37.336-23.455-64.352c0-27.633,7.818-49.586,23.455-65.844
	c15.629-16.25,36.697-24.391,63.189-24.391c26.695,0,47.845,8.141,63.428,24.391c15.584,16.258,23.367,38.211,23.367,65.844
	c0,27.016-7.783,48.469-23.367,64.352c-15.583,15.906-36.732,23.844-63.428,23.844
	C3729.035,360.699,3707.967,352.762,3692.338,336.855z M3785.919,310.215c6.954-8.727,10.437-21.453,10.437-38.188
	c0-17.133-3.482-30.148-10.437-39.031c-6.964-8.883-17.097-13.328-30.392-13.328c-13.305,0-23.402,4.445-30.313,13.328
	s-10.356,21.898-10.356,39.031c0,16.734,3.446,29.461,10.356,38.188s17.008,13.086,30.313,13.086
	C3768.822,323.301,3778.955,318.941,3785.919,310.215z"/>
<path fill="#1C5486" d="M3873.328,186.793h21.193h21.354v30.383c1.559-3.32,3.322-6.539,5.299-9.656
	c10.49-16.828,24.052-25.25,40.668-25.25l10.134,0.156v45.664c-3.954-0.414-8.415-0.617-13.401-0.617
	c-13.615,0-23.768,3.375-30.463,10.125c-6.706,6.758-10.055,16.977-10.055,30.688v88.055h-22.288h-22.44V186.793z"/>
<g>
	<path fill="#1C5486" d="M250.411,300.595c12.08,0,21.798-9.832,21.798-21.889c0-12.063-9.718-21.896-21.798-21.896l-98.895-72.688
		l77.021,95.867C229.224,291.465,238.84,300.595,250.411,300.595L250.411,300.595z M250.411,300.595"/>
	<path fill="#819D3C" d="M241.997,18.676C108.3,18.676,0,126.983,0,260.676c0,49.753,15.106,96,40.864,134.517h30.2l0.718,0.705
		l0.805-0.705h1.172c-0.118-0.23-0.229-0.469-0.48-0.584l41.927-36.644L94.953,334.78L55.834,368.97
		c-18.604-31.847-29.37-68.842-29.37-108.294c0-1.874,0.244-3.634,0.244-5.505l48.104-0.115v-30.66H29.738
		c6.438-37.583,22.229-71.783,45.313-99.984l33.717,33.715l21.761-21.789l-34.172-34.174c33.599-30.92,76.922-51.395,124.921-55.974
		v55.261h30.792V45.616c53.621,2.46,102.207,24.455,138.499,59.137l-35.002,35.098l21.773,21.789l34.072-34.084
		c21.655,27.631,36.644,60.664,42.85,96.84h-46.834v30.775h49.879c0,1.871,0.235,3.631,0.235,5.505
		c0,39.337-10.658,76.099-29.158,107.825l-36.76-36.764l-21.661,21.775l40.864,40.863c-0.118,0.232-0.356,0.586-0.586,0.816h32.895
		C468.894,356.676,484,310.429,484,260.676C484,126.983,375.7,18.676,241.997,18.676L241.997,18.676z M241.997,18.676"/>
	<rect x="131.932" y="408.544" fill="#1C5486" width="218.104" height="56.781"/>
</g>
</svg>
