<?xml version="1.0" encoding="utf-8"?>
<!-- Generator: Adobe Illustrator 16.0.0, SVG Export Plug-In . SVG Version: 6.00 Build 0)  -->
<!DOCTYPE svg PUBLIC "-//W3C//DTD SVG 1.1//EN" "http://www.w3.org/Graphics/SVG/1.1/DTD/svg11.dtd">
<svg version="1.1" id="Layer_1" xmlns="http://www.w3.org/2000/svg" xmlns:xlink="http://www.w3.org/1999/xlink" x="0px" y="0px"
	 width="484px" height="484px" viewBox="0 0 484 484" enable-background="new 0 0 484 484" xml:space="preserve">
<path fill="#1C5486" d="M253.813,305.355c12.08,0,21.798-9.832,21.798-21.889c0-12.063-9.718-21.896-21.798-21.896l-98.896-72.688
	l77.021,95.867C232.626,296.224,242.242,305.355,253.813,305.355L253.813,305.355z M253.813,305.355"/>
<path fill="#819D3C" d="M245.399,23.435c-133.697,0-241.997,108.309-241.997,242c0,49.754,15.106,96,40.864,134.518h30.2
	l0.718,0.705l0.806-0.705h1.171c-0.118-0.23-0.229-0.469-0.48-0.584l41.927-36.645l-20.252-23.184L59.236,373.73
	c-18.604-31.847-29.37-68.842-29.37-108.295c0-1.873,0.244-3.633,0.244-5.504l48.104-0.115v-30.66H33.141
	c6.438-37.583,22.229-71.783,45.313-99.984l33.717,33.715l21.761-21.789l-34.172-34.174c33.599-30.92,76.922-51.395,124.921-55.974
	v55.261h30.791V50.376c53.622,2.46,102.208,24.455,138.5,59.137l-35.002,35.098l21.773,21.789l34.072-34.084
	c21.655,27.631,36.644,60.664,42.85,96.84H410.83v30.775h49.879c0,1.871,0.235,3.631,0.235,5.504
	c0,39.338-10.659,76.1-29.159,107.826l-36.759-36.764l-21.661,21.775l40.864,40.863c-0.118,0.232-0.356,0.586-0.586,0.816h32.894
	c25.759-38.518,40.865-84.764,40.865-134.518C487.402,131.744,379.103,23.435,245.399,23.435L245.399,23.435z M245.399,23.435"/>
<rect x="135.334" y="413.304" fill="#1C5486" width="218.104" height="56.781"/>
</svg>
