<?xml version="1.0" encoding="utf-8"?>
<!-- Generator: Adobe Illustrator 16.0.0, SVG Export Plug-In . SVG Version: 6.00 Build 0)  -->
<!DOCTYPE svg PUBLIC "-//W3C//DTD SVG 1.1//EN" "http://www.w3.org/Graphics/SVG/1.1/DTD/svg11.dtd">
<svg version="1.1" id="Layer_1" xmlns="http://www.w3.org/2000/svg" xmlns:xlink="http://www.w3.org/1999/xlink" x="0px" y="0px"
	 width="484px" height="484px" viewBox="0 0 484 484" enable-background="new 0 0 484 484" xml:space="preserve">
<path fill="#DBAC27" d="M182.385,184.812c9.808,7.064,20.888,12.449,32.831,15.752c8.797,2.439,18.061,3.76,27.621,3.76
	c22.549,0,43.432-7.242,60.453-19.512v-23.674c0-21.768-11.744-41.883-30.684-52.623c-8.43,5.938-18.697,9.436-29.77,9.436
	c-5.549,0-10.902-0.875-15.924-2.508c-4.975-1.609-9.635-3.967-13.846-6.928c-18.941,10.74-30.683,30.846-30.683,52.623V184.812z"/>
<path fill="#DBAC27" d="M281.31,76.166c0,21.156-17.15,38.307-38.311,38.307c-21.156,0-38.307-17.15-38.307-38.307
	s17.15-38.309,38.307-38.309C264.159,37.857,281.31,55.009,281.31,76.166z"/>
<path fill="#59595A" d="M386.688,272.523V242c0-4.174-3.387-7.566-7.561-7.566H250.563v-22.957
	c54.865-3.891,98.311-49.766,98.311-105.604C348.874,47.496,301.384,0,242.999,0c-58.376,0-105.87,47.496-105.87,105.873
	c0,55.838,43.449,101.713,98.31,105.604v22.957H106.875c-4.176,0-7.557,3.393-7.557,7.566v30.523
	C44.452,276.412,1,322.287,1,378.128c0,58.377,47.499,105.873,105.875,105.873c58.381,0,105.882-47.496,105.882-105.873
	c0-55.842-43.452-101.717-98.317-105.605v-22.959h257.12v22.959c-54.859,3.889-98.305,49.764-98.305,105.605
	c0,58.377,47.492,105.873,105.873,105.873s105.871-47.496,105.871-105.873C484.999,322.287,441.55,276.412,386.688,272.523
	L386.688,272.523z M53.941,451.787v-20.725c0-19.066,10.283-36.678,26.868-46.082c3.585,2.533,7.557,4.549,11.799,5.961
	c4.488,1.492,9.279,2.309,14.268,2.309c9.699,0,18.688-3.064,26.068-8.27c16.584,9.404,26.873,27.016,26.873,46.082v20.725
	c-14.914,10.748-33.197,17.086-52.941,17.086c-8.861,0-17.432-1.291-25.535-3.668C71.397,462.281,62.152,457.71,53.941,451.787
	L53.941,451.787z M76.63,347.873c0-16.104,12.644-29.301,28.524-30.199c0.568-0.029,1.143-0.051,1.721-0.051
	c16.684,0,30.254,13.566,30.254,30.25c0,16.676-13.57,30.256-30.254,30.256c-8.676,0-16.504-3.684-22.021-9.553
	C79.758,363.164,76.63,355.884,76.63,347.873L76.63,347.873z M143.953,373.98c5.219-7.391,8.297-16.395,8.297-26.107
	c0-24.779-19.979-44.977-44.662-45.357c-0.238-0.004-0.475-0.016-0.713-0.016c-25.017,0-45.377,20.355-45.377,45.373
	c0,9.713,3.084,18.717,8.296,26.107c-19.221,12.508-30.978,33.961-30.978,57.082v7.02c-14.115-16.006-22.688-36.998-22.688-59.953
	c0-50.045,40.71-90.754,90.747-90.754c0.244,0,0.475,0.006,0.713,0.01c49.711,0.383,90.042,40.941,90.042,90.744
	c0,22.955-8.578,43.947-22.692,59.953v-7.02C174.938,407.941,163.178,386.482,143.953,373.98L143.953,373.98z M174.938,165.832
	c-14.111-15.998-22.688-36.992-22.688-59.959c0-50.037,40.716-90.748,90.749-90.748c0.475,0,0.949,0.014,1.42,0.018
	c49.387,0.766,89.334,41.168,89.334,90.73c0,22.967-8.58,43.961-22.686,59.959v-7.018c0-23.127-11.766-44.582-30.986-57.084
	c5.215-7.387,8.295-16.391,8.295-26.107c0-24.541-19.594-44.584-43.957-45.336c-0.471-0.018-0.939-0.033-1.42-0.033
	c-25.016,0-45.369,20.354-45.369,45.373c0,9.713,3.076,18.717,8.295,26.104c-19.229,12.502-30.987,33.961-30.987,57.084V165.832z
	 M218.813,193.335c-10.459-2.893-20.162-7.607-28.748-13.793v-20.729c0-19.07,10.281-36.676,26.867-46.08
	c3.686,2.594,7.768,4.658,12.125,6.066c4.396,1.432,9.082,2.197,13.941,2.197c9.695,0,18.686-3.064,26.066-8.264
	c16.586,9.404,26.869,27.018,26.869,46.08v20.729c-14.904,10.744-33.191,17.084-52.936,17.084
	C234.63,196.626,226.515,195.47,218.813,193.335L218.813,193.335z M242.999,45.376c1.396,0,2.773,0.1,4.121,0.289
	c14.734,2.014,26.135,14.68,26.135,29.961c0,16.678-13.574,30.246-30.256,30.246c-10.777,0-20.252-5.664-25.613-14.18
	c-2.936-4.66-4.635-10.166-4.635-16.066C212.751,58.943,226.319,45.376,242.999,45.376L242.999,45.376z M326.19,451.787v-20.725
	c0-19.066,10.285-36.678,26.869-46.082c3.617,2.549,7.621,4.578,11.906,5.996c4.453,1.471,9.211,2.273,14.162,2.273
	c9.695,0,18.68-3.064,26.066-8.27c16.584,9.404,26.867,27.016,26.867,46.082v20.725c-14.904,10.748-33.197,17.086-52.934,17.086
	c-8.82,0-17.348-1.268-25.418-3.633C343.724,462.322,334.438,457.73,326.19,451.787L326.19,451.787z M348.874,347.873
	c0-16.135,12.709-29.361,28.637-30.209c0.531-0.027,1.07-0.041,1.617-0.041c16.678,0,30.248,13.566,30.248,30.25
	c0,16.676-13.57,30.256-30.248,30.256c-8.713,0-16.578-3.719-22.1-9.629C351.979,363.095,348.874,355.843,348.874,347.873
	L348.874,347.873z M416.206,373.98c5.219-7.391,8.295-16.395,8.295-26.107c0-24.98-20.285-45.307-45.248-45.373
	c-0.045,0-0.082,0-0.125,0c-25.021,0-45.375,20.355-45.375,45.373c0,9.713,3.078,18.717,8.291,26.107
	c-19.219,12.502-30.977,33.953-30.977,57.082v7.02c-14.113-16.006-22.691-36.998-22.691-59.953
	c0-50.047,40.711-90.754,90.752-90.754c0.043,0,0.08,0,0.125,0c49.979,0.066,90.625,40.75,90.625,90.754
	c0,22.955-8.576,43.947-22.686,59.953v-7.02C447.192,407.941,435.427,386.482,416.206,373.98L416.206,373.98z M416.206,373.98"/>
</svg>
