<?xml version="1.0" encoding="utf-8"?>
<!-- Generator: Adobe Illustrator 16.0.0, SVG Export Plug-In . SVG Version: 6.00 Build 0)  -->
<!DOCTYPE svg PUBLIC "-//W3C//DTD SVG 1.1//EN" "http://www.w3.org/Graphics/SVG/1.1/DTD/svg11.dtd">
<svg version="1.1" id="Layer_1" xmlns="http://www.w3.org/2000/svg" xmlns:xlink="http://www.w3.org/1999/xlink" x="0px" y="0px"
	 width="4328.746px" height="484px" viewBox="0 0 4328.746 484" enable-background="new 0 0 4328.746 484" xml:space="preserve">
<path fill="#F7CC3D" d="M184.384,184.812c9.809,7.064,20.889,12.449,32.832,15.752c8.797,2.439,18.061,3.76,27.621,3.76
	c22.549,0,43.432-7.242,60.453-19.512v-23.674c0-21.768-11.744-41.883-30.684-52.623c-8.43,5.938-18.697,9.436-29.77,9.436
	c-5.549,0-10.902-0.875-15.924-2.508c-4.975-1.609-9.635-3.967-13.846-6.928c-18.941,10.74-30.684,30.846-30.684,52.623V184.812z"/>
<path fill="#DBAC27" d="M177.045,184.812c9.809,7.064,20.889,12.449,32.832,15.752c8.797,2.439,18.061,3.76,27.621,3.76
	c22.549,0,43.432-7.242,60.453-19.512v-23.674c0-21.768-11.744-41.883-30.684-52.623c-8.43,5.938-18.697,9.436-29.77,9.436
	c-5.549,0-10.902-0.875-15.924-2.508c-4.975-1.609-9.635-3.967-13.846-6.928c-18.941,10.74-30.684,30.846-30.684,52.623V184.812z"/>
<path fill="#DBAC27" d="M283.31,76.165c0,21.156-17.15,38.307-38.311,38.307c-21.156,0-38.307-17.15-38.307-38.307
	S223.843,37.856,245,37.856C266.16,37.856,283.31,55.009,283.31,76.165z"/>
<path fill="#59595A" d="M388.689,272.522v-30.523c0-4.174-3.387-7.566-7.561-7.566H252.564v-22.957
	c54.865-3.891,98.311-49.766,98.311-105.604c0-58.377-47.49-105.873-105.875-105.873c-58.377,0-105.871,47.496-105.871,105.873
	c0,55.838,43.449,101.713,98.311,105.604v22.957H108.875c-4.176,0-7.557,3.393-7.557,7.566v30.523
	C46.452,276.411,3,322.286,3,378.128c0,58.377,47.499,105.873,105.875,105.873c58.38,0,105.882-47.496,105.882-105.873
	c0-55.842-43.452-101.717-98.318-105.605v-22.959H373.56v22.959c-54.859,3.889-98.305,49.764-98.305,105.605
	c0,58.377,47.492,105.873,105.873,105.873c58.381,0,105.871-47.496,105.871-105.873
	C486.999,322.286,443.551,276.411,388.689,272.522L388.689,272.522z M55.941,451.786v-20.725c0-19.066,10.283-36.678,26.868-46.082
	c3.585,2.533,7.557,4.549,11.799,5.961c4.488,1.492,9.279,2.309,14.268,2.309c9.698,0,18.687-3.064,26.067-8.27
	c16.584,9.404,26.873,27.016,26.873,46.082v20.725c-14.914,10.748-33.196,17.086-52.94,17.086c-8.861,0-17.433-1.291-25.535-3.668
	C73.397,462.28,64.152,457.71,55.941,451.786L55.941,451.786z M78.63,347.872c0-16.104,12.644-29.301,28.524-30.199
	c0.569-0.029,1.143-0.051,1.722-0.051c16.684,0,30.253,13.566,30.253,30.25c0,16.676-13.569,30.256-30.253,30.256
	c-8.676,0-16.504-3.684-22.021-9.553C81.757,363.163,78.63,355.884,78.63,347.872L78.63,347.872z M145.953,373.979
	c5.219-7.391,8.297-16.395,8.297-26.107c0-24.779-19.979-44.977-44.662-45.357c-0.238-0.004-0.475-0.016-0.712-0.016
	c-25.017,0-45.377,20.355-45.377,45.373c0,9.713,3.084,18.717,8.296,26.107c-19.221,12.508-30.978,33.961-30.978,57.082v7.02
	c-14.115-16.006-22.688-36.998-22.688-59.953c0-50.045,40.71-90.754,90.748-90.754c0.243,0,0.474,0.006,0.712,0.01
	c49.711,0.383,90.043,40.941,90.043,90.744c0,22.955-8.578,43.947-22.693,59.953v-7.02
	C176.937,407.94,165.178,386.481,145.953,373.979L145.953,373.979z M176.937,165.831c-14.111-15.998-22.688-36.992-22.688-59.959
	c0-50.037,40.717-90.748,90.75-90.748c0.475,0,0.949,0.014,1.42,0.018c49.387,0.766,89.334,41.168,89.334,90.73
	c0,22.967-8.58,43.961-22.686,59.959v-7.018c0-23.127-11.766-44.582-30.986-57.084c5.215-7.387,8.295-16.391,8.295-26.107
	c0-24.541-19.594-44.584-43.957-45.336c-0.471-0.018-0.939-0.033-1.42-0.033c-25.016,0-45.369,20.354-45.369,45.373
	c0,9.713,3.076,18.717,8.295,26.104c-19.229,12.502-30.988,33.961-30.988,57.084V165.831z M220.814,193.335
	c-10.459-2.893-20.162-7.607-28.748-13.793v-20.729c0-19.07,10.281-36.676,26.867-46.08c3.686,2.594,7.768,4.658,12.125,6.066
	c4.396,1.432,9.082,2.197,13.941,2.197c9.695,0,18.686-3.064,26.066-8.264c16.586,9.404,26.869,27.018,26.869,46.08v20.729
	c-14.904,10.744-33.191,17.084-52.936,17.084C236.63,196.626,228.515,195.47,220.814,193.335L220.814,193.335z M245,45.376
	c1.396,0,2.773,0.1,4.121,0.289c14.734,2.014,26.135,14.68,26.135,29.961c0,16.678-13.574,30.246-30.256,30.246
	c-10.777,0-20.252-5.664-25.613-14.18c-2.936-4.66-4.635-10.166-4.635-16.066C214.751,58.942,228.32,45.376,245,45.376L245,45.376z
	 M328.191,451.786v-20.725c0-19.066,10.285-36.678,26.869-46.082c3.617,2.549,7.621,4.578,11.906,5.996
	c4.453,1.471,9.211,2.273,14.162,2.273c9.695,0,18.68-3.064,26.067-8.27c16.584,9.404,26.867,27.016,26.867,46.082v20.725
	c-14.904,10.748-33.197,17.086-52.934,17.086c-8.82,0-17.348-1.268-25.418-3.633C345.724,462.321,336.439,457.729,328.191,451.786
	L328.191,451.786z M350.875,347.872c0-16.135,12.709-29.361,28.637-30.209c0.531-0.027,1.07-0.041,1.617-0.041
	c16.678,0,30.249,13.566,30.249,30.25c0,16.676-13.57,30.256-30.249,30.256c-8.713,0-16.578-3.719-22.1-9.629
	C353.98,363.095,350.875,355.843,350.875,347.872L350.875,347.872z M418.207,373.979c5.219-7.391,8.295-16.395,8.295-26.107
	c0-24.98-20.285-45.307-45.249-45.373c-0.045,0-0.082,0-0.125,0c-25.021,0-45.375,20.355-45.375,45.373
	c0,9.713,3.078,18.717,8.291,26.107c-19.219,12.502-30.977,33.953-30.977,57.082v7.02c-14.113-16.006-22.691-36.998-22.691-59.953
	c0-50.047,40.711-90.754,90.752-90.754c0.043,0,0.08,0,0.125,0c49.979,0.066,90.625,40.75,90.625,90.754
	c0,22.955-8.576,43.947-22.685,59.953v-7.02C449.193,407.94,437.428,386.481,418.207,373.979L418.207,373.979z M418.207,373.979"/>
<g>
	<path fill="#DBAC27" d="M587.259,357.118V129.016h167.897v20.171v20.325H634.898v48.41h111.57v19.564v19.701h-111.57v59.426
		h125.534v20.182v20.323H587.259z"/>
	<path fill="#DBAC27" d="M891.221,238.877c0-6.519-2.696-11.742-8.077-15.667c-5.383-3.939-12.524-5.908-21.427-5.908
		c-8.594,0-15.295,1.48-20.11,4.427c-4.815,2.951-7.219,7.066-7.219,12.333c0,3.725,2.739,6.934,8.224,9.63
		c5.378,2.579,14.95,5.424,28.712,8.53c27.32,6.106,45.585,12.774,54.793,20.019c9.233,7.237,13.853,18.625,13.853,34.142
		c0,16.546-6.704,29.867-20.102,39.955c-13.4,10.082-31.066,15.127-53,15.127c-25.972,0-45.966-4.965-59.986-14.896
		c-14.017-9.934-21.493-24.413-22.425-43.45h45.312c0.31,7.759,3.75,13.844,10.32,18.234c6.571,4.395,15.495,6.595,26.774,6.595
		c8.899,0,15.858-1.525,20.878-4.573c5.02-3.051,7.528-7.318,7.528-12.807c0-3.82-2.43-7.084-7.289-9.773
		c-4.865-2.589-13.403-5.223-25.607-7.914c-28.558-6.412-47.647-13.19-57.27-20.332c-9.611-7.031-14.413-17.938-14.413-32.74
		c0-16.757,6.23-30.282,18.692-40.575c12.463-10.294,28.885-15.444,49.262-15.444c22.96,0,41.474,5.041,55.543,15.133
		c14.066,10.082,21.103,23.411,21.103,39.957H891.221z"/>
	<path fill="#DBAC27" d="M1049.986,358.05c-7.449,0.62-16.604,0.93-27.466,0.93c-15.727,0-27.027-2.819-33.908-8.458
		c-6.881-5.629-10.317-14.872-10.317-27.7V219.482h-23.431v-31.194h23.431v-45.471h44.535v45.471h27.156v31.194h-27.156v95.891
		c0,3.936,1.161,6.525,3.494,7.766c2.322,1.24,7.161,1.864,14.507,1.864h9.155V358.05z"/>
	<path fill="#DBAC27" d="M1077.917,188.288h21.104h21.26v30.257c1.55-3.308,3.307-6.511,5.274-9.611
		c10.446-16.76,23.945-25.146,40.5-25.146l10.088,0.156v45.472c-3.933-0.415-8.381-0.62-13.348-0.62
		c-13.551,0-23.664,3.359-30.332,10.082c-6.676,6.729-10.01,16.91-10.01,30.563v87.679h-22.191h-22.345V188.288z"/>
	<path fill="#DBAC27" d="M1246.745,293.965c0,10.342,2.22,18.005,6.672,22.966c4.449,4.968,11.275,7.448,20.483,7.448
		c11.585,0,20.482-3.516,26.689-10.549c6.209-7.041,9.312-17.176,9.312-30.414v-95.128h22.188h22.346v168.83h-21.104h-21.258
		v-25.291c-1.553,3.106-3.415,5.997-5.587,8.692c-10.968,13.959-26.846,20.944-47.638,20.944c-17.797,0-31.683-5.249-41.667-15.747
		c-9.985-10.498-14.971-25.059-14.971-43.684V188.288h22.188h22.346V293.965z"/>
	<path fill="#DBAC27" d="M1473.608,358.05c-7.449,0.62-16.601,0.93-27.462,0.93c-15.729,0-27.029-2.819-33.91-8.458
		c-6.882-5.629-10.318-14.872-10.318-27.7V219.482h-23.431v-31.194h23.431v-45.471h44.533v45.471h27.157v31.194h-27.157v95.891
		c0,3.936,1.164,6.525,3.495,7.766c2.323,1.24,7.159,1.864,14.51,1.864h9.152V358.05z"/>
	<path fill="#DBAC27" d="M1546.694,293.965c0,10.342,2.22,18.005,6.675,22.966c4.446,4.968,11.274,7.448,20.48,7.448
		c11.585,0,20.484-3.516,26.689-10.549c6.208-7.041,9.313-17.176,9.313-30.414v-95.128h22.188h22.345v168.83h-21.102h-21.258
		v-25.291c-1.555,3.106-3.413,5.997-5.588,8.692c-10.969,13.959-26.846,20.944-47.637,20.944c-17.796,0-31.684-5.249-41.667-15.747
		c-9.986-10.498-14.973-25.059-14.973-43.684V188.288h22.188h22.345V293.965z"/>
	<path fill="#DBAC27" d="M1695.664,188.288h21.102h21.258v30.257c1.553-3.308,3.308-6.511,5.277-9.611
		c10.447-16.76,23.947-25.146,40.498-25.146l10.086,0.156v45.472c-3.932-0.415-8.377-0.62-13.343-0.62
		c-13.554,0-23.665,3.359-30.333,10.082c-6.679,6.729-10.012,16.91-10.012,30.563v87.679h-22.188h-22.345V188.288z"/>
	<path fill="#DBAC27" d="M1860.147,361.464c-15.627,0-28.196-4.468-37.709-13.428c-9.521-8.942-14.276-20.71-14.276-35.297
		c0-15.411,4.293-27.747,12.879-37.012c8.583-9.257,21.106-15.071,37.553-17.457l29.329-4.026
		c7.652-1.037,14.013-2.803,19.084-5.285c2.174-1.029,3.855-2.893,5.046-5.585c1.184-2.688,1.629-5.428,1.319-8.222
		c-0.624-4.753-3.056-8.478-7.295-11.173c-5.07-3.198-12.365-4.814-21.879-4.814c-8.487,0-15.107,2.075-19.863,6.206
		c-4.761,4.142-7.292,9.992-7.603,17.54h-42.673c0.931-19.755,7.652-34.547,20.171-44.381c12.515-9.826,30.881-14.743,55.089-14.743
		c20.997,0,37.574,4.432,49.735,13.281c12.149,8.86,18.23,20.943,18.23,36.268v94.436c0,7.561,0.62,12.86,1.859,15.914
		c1.244,3.061,3.725,5.461,7.448,7.225v0.162v6.046h-24.052h-24.051v-0.159c-1.967-6.828-3.258-13.496-3.879-20.011l-0.155-0.314
		C1900.489,353.191,1882.382,361.464,1860.147,361.464z M1913.682,294.739v-19.391c-5.176,2.889-12.004,5.222-20.483,6.974
		l-16.447,3.107c-7.759,1.452-13.657,4.115-17.691,7.989c-4.033,3.881-6.051,8.769-6.051,14.661c0,6.735,1.809,12.01,5.431,15.832
		c3.619,3.83,8.688,5.733,15.207,5.733c14.276,0,25.652-5.007,34.137-15.042c1.653-1.962,3.049-4.861,4.191-8.691
		C1913.108,302.088,1913.682,298.363,1913.682,294.739z"/>
	<path fill="#DBAC27" d="M2107.648,331.207c-19.763-21.419-29.641-50.38-29.641-86.896c0-37.24,9.878-66.805,29.641-88.689
		c19.755-21.871,46.396-32.813,79.914-32.813c33.722,0,60.437,10.942,80.148,32.813c19.703,21.885,29.553,51.449,29.553,88.689
		c0,36.517-9.85,65.478-29.553,86.896c-19.712,21.408-46.427,32.121-80.148,32.121
		C2154.045,363.328,2127.403,352.615,2107.648,331.207z M2233.182,301.958c10.965-13.916,16.447-33.233,16.447-57.964
		c0-25.238-5.482-44.993-16.447-59.27c-10.968-14.272-26.174-21.423-45.619-21.423c-19.351,0-34.502,7.15-45.467,21.423
		c-10.968,14.276-16.447,34.031-16.447,59.27c0,24.73,5.453,44.048,16.371,57.964c10.913,13.912,26.09,20.863,45.543,20.863
		C2207.008,322.821,2222.214,315.87,2233.182,301.958z"/>
	<path fill="#DBAC27" d="M2331.553,188.288h21.105h21.262v30.257c1.554-3.308,3.309-6.511,5.273-9.611
		c10.447-16.76,23.95-25.146,40.5-25.146l10.09,0.156v45.472c-3.938-0.415-8.379-0.62-13.348-0.62
		c-13.555,0-23.666,3.359-30.333,10.082c-6.676,6.729-10.01,16.91-10.01,30.563v87.679h-22.194h-22.346V188.288z"/>
	<path fill="#DBAC27" d="M2531.742,392.188c12.5,0,21.51-3.024,26.988-9.08c5.482-6.047,8.229-16.059,8.229-30.022V332.29
		l-3.563,5.428c-9.842,13.558-23.957,20.332-42.367,20.332c-21.937,0-39.652-7.883-53.145-23.665
		c-13.504-15.775-20.251-36.597-20.251-62.462c0-26.477,6.569-47.793,19.711-63.931c13.127-16.137,30.417-24.205,51.82-24.205
		c18.942,0,33.624,6.887,44.069,20.639c1.971,2.59,3.78,5.427,5.43,8.536v-24.674h41.905v159.829
		c0,26.692-6.599,46.368-19.791,59.046c-13.193,12.672-33.751,19.012-61.681,19.012c-22.965,0-41.232-4.479-54.778-13.424
		c-13.555-8.957-20.792-21.337-21.722-37.171h48.411c0.407,5.799,3.085,10.012,7.994,12.653
		C2513.917,390.866,2521.489,392.188,2531.742,392.188z M2530.338,222.27c-11.581,0-20.641,4.424-27.148,13.272
		c-6.525,8.838-9.771,21.132-9.771,36.853c0,15.421,3.246,27.443,9.771,36.081c6.508,8.637,15.517,12.952,26.992,12.952
		c11.687,0,20.819-4.395,27.396-13.186c6.562-8.794,9.845-20.951,9.845-36.468s-3.283-27.649-9.845-36.392
		C2551.001,226.646,2541.919,222.27,2530.338,222.27z"/>
	<path fill="#DBAC27" d="M2690.158,361.464c-15.621,0-28.181-4.468-37.704-13.428c-9.52-8.942-14.272-20.71-14.272-35.297
		c0-15.411,4.289-27.747,12.871-37.012c8.588-9.257,21.105-15.071,37.563-17.457l29.335-4.026c7.642-1.037,14.007-2.803,19.08-5.285
		c2.164-1.029,3.848-2.893,5.036-5.585c1.19-2.688,1.633-5.428,1.328-8.222c-0.619-4.753-3.066-8.478-7.305-11.173
		c-5.07-3.198-12.362-4.814-21.867-4.814c-8.492,0-15.108,2.075-19.861,6.206c-4.771,4.142-7.306,9.992-7.609,17.54h-42.665
		c0.92-19.755,7.642-34.547,20.165-44.381c12.518-9.826,30.872-14.743,55.081-14.743c20.995,0,37.576,4.432,49.741,13.281
		c12.149,8.86,18.23,20.943,18.23,36.268v94.436c0,7.561,0.624,12.86,1.864,15.914c1.24,3.061,3.724,5.461,7.448,7.225v0.162v6.046
		h-24.049h-24.063v-0.159c-1.969-6.828-3.245-13.496-3.866-20.011l-0.16-0.314C2730.506,353.191,2712.398,361.464,2690.158,361.464z
		 M2743.699,294.739v-19.391c-5.181,2.889-12.005,5.222-20.481,6.974l-16.443,3.107c-7.766,1.452-13.653,4.115-17.698,7.989
		c-4.023,3.881-6.049,8.769-6.049,14.661c0,6.735,1.811,12.01,5.43,15.832c3.617,3.83,8.688,5.733,15.217,5.733
		c14.276,0,25.642-5.007,34.137-15.042c1.649-1.962,3.031-4.861,4.184-8.691C2743.129,302.088,2743.699,298.363,2743.699,294.739z"
		/>
	<path fill="#DBAC27" d="M2826.41,188.288h21.105h21.243v24.989c1.755-3.009,3.673-5.844,5.744-8.537
		c10.961-13.967,26.904-20.953,47.794-20.953c17.79,0,31.727,5.281,41.819,15.834c10.089,10.553,15.126,25.194,15.126,43.91v113.587
		h-22.184h-22.346V251.604c0-10.448-2.253-18.18-6.758-23.199c-4.487-5.02-11.402-7.529-20.711-7.529
		c-11.688,0-20.664,3.521-26.924,10.554c-6.258,7.039-9.381,17.177-9.381,30.413v95.276h-22.184h-22.346V188.288z"/>
	<path fill="#DBAC27" d="M3021.77,127.302h45.311v41.287h-45.311V127.302z M3022.229,188.288h22.185h22.345v168.83h-22.185h-22.345
		V188.288z"/>
	<path fill="#DBAC27" d="M3094.551,322.519l85.636-97.77l1.102-1.239h-80.39v-17.53v-17.691h135.932v18.161v18.3l-84.344,95.909
		h88.228v18.15v18.31h-146.163v-17.219V322.519z"/>
	<path fill="#DBAC27" d="M3308.209,361.464c-15.623,0-28.178-4.468-37.703-13.428c-9.523-8.942-14.273-20.71-14.273-35.297
		c0-15.411,4.292-27.747,12.874-37.012c8.583-9.257,21.101-15.071,37.56-17.457l29.334-4.026c7.645-1.037,14.01-2.803,19.08-5.285
		c2.162-1.029,3.848-2.893,5.037-5.585c1.188-2.688,1.634-5.428,1.332-8.222c-0.62-4.753-3.068-8.478-7.308-11.173
		c-5.073-3.198-12.36-4.814-21.866-4.814c-8.494,0-15.107,2.075-19.862,6.206c-4.769,4.142-7.308,9.992-7.608,17.54h-42.668
		c0.923-19.755,7.645-34.547,20.163-44.381c12.522-9.826,30.878-14.743,55.082-14.743c20.999,0,37.58,4.432,49.746,13.281
		c12.146,8.86,18.229,20.943,18.229,36.268v94.436c0,7.561,0.62,12.86,1.861,15.914c1.243,3.061,3.723,5.461,7.446,7.225v0.162
		v6.046h-24.043h-24.067v-0.159c-1.97-6.828-3.246-13.496-3.866-20.011l-0.16-0.314
		C3348.555,353.191,3330.448,361.464,3308.209,361.464z M3361.751,294.739v-19.391c-5.18,2.889-12.007,5.222-20.485,6.974
		l-16.439,3.107c-7.766,1.452-13.655,4.115-17.697,7.989c-4.027,3.881-6.048,8.769-6.048,14.661c0,6.735,1.809,12.01,5.428,15.832
		c3.615,3.83,8.688,5.733,15.214,5.733c14.277,0,25.644-5.007,34.137-15.042c1.654-1.962,3.037-4.861,4.188-8.691
		C3361.182,302.088,3361.751,298.363,3361.751,294.739z"/>
	<path fill="#DBAC27" d="M3590.326,294.585c-2.292,21-10.094,37.395-23.447,49.188c-13.336,11.791-30.717,17.69-52.138,17.69
		c-25.556,0-45.273-7.608-59.196-22.809c-13.92-15.214-20.871-36.877-20.871-65.021c0-27.513,7.214-49.374,21.651-65.562
		c14.437-16.181,33.907-24.285,58.416-24.285c21.725,0,39.514,6,53.382,17.997c13.868,12.008,21.262,27.78,22.203,47.331h-45.314
		c-0.423-8.375-3.402-15.152-8.937-20.32c-5.533-5.176-12.643-7.766-21.334-7.766c-11.173,0-19.687,4.475-25.519,13.424
		c-5.855,8.954-8.762,22.017-8.762,39.181c0,16.761,2.906,29.509,8.762,38.255c5.832,8.74,14.346,13.114,25.519,13.114
		c8.067,0,14.896-2.806,20.484-8.39c5.585-5.585,8.849-12.927,9.786-22.028H3590.326z"/>
	<path fill="#DBAC27" d="M3622.442,127.302h45.31v41.287h-45.31V127.302z M3622.9,188.288h22.186h22.346v168.83h-22.186H3622.9
		V188.288z"/>
	<path fill="#DBAC27" d="M3723.063,337.718c-15.571-15.819-23.354-37.179-23.354-64.084c0-27.513,7.783-49.374,23.354-65.562
		c15.571-16.181,36.549-24.285,62.921-24.285c26.584,0,47.651,8.104,63.168,24.285c15.516,16.188,23.269,38.049,23.269,65.562
		c0,26.905-7.753,48.265-23.269,64.084c-15.517,15.835-36.584,23.746-63.168,23.746
		C3759.612,361.464,3738.635,353.553,3723.063,337.718z M3816.256,311.189c6.918-8.692,10.391-21.364,10.391-38.022
		c0-17.063-3.473-30.027-10.391-38.868c-6.936-8.849-17.023-13.27-30.271-13.27s-23.302,4.421-30.184,13.27
		c-6.88,8.841-10.305,21.805-10.305,38.868c0,16.658,3.425,29.33,10.305,38.022c6.882,8.689,16.936,13.032,30.184,13.032
		S3809.32,319.879,3816.256,311.189z"/>
	<path fill="#DBAC27" d="M3903.613,188.288h21.105h21.244v24.989c1.758-3.009,3.673-5.844,5.748-8.537
		c10.957-13.967,26.899-20.953,47.793-20.953c17.787,0,31.724,5.281,41.815,15.834c10.091,10.553,15.128,25.194,15.128,43.91
		v113.587h-22.186h-22.345V251.604c0-10.448-2.254-18.18-6.759-23.199c-4.486-5.02-11.401-7.529-20.711-7.529
		c-11.688,0-20.66,3.521-26.923,10.554c-6.259,7.039-9.381,17.177-9.381,30.413v95.276h-22.185h-22.346V188.288z"/>
	<path fill="#DBAC27" d="M4138.218,361.464c-15.622,0-28.178-4.468-37.701-13.428c-9.524-8.942-14.276-20.71-14.276-35.297
		c0-15.411,4.293-27.747,12.875-37.012c8.584-9.257,21.102-15.071,37.56-17.457l29.334-4.026c7.642-1.037,14.01-2.803,19.079-5.285
		c2.164-1.029,3.85-2.893,5.038-5.585c1.188-2.688,1.634-5.428,1.332-8.222c-0.621-4.753-3.068-8.478-7.308-11.173
		c-5.073-3.198-12.36-4.814-21.866-4.814c-8.495,0-15.107,2.075-19.86,6.206c-4.771,4.142-7.31,9.992-7.609,17.54h-42.669
		c0.923-19.755,7.645-34.547,20.163-44.381c12.522-9.826,30.877-14.743,55.082-14.743c20.999,0,37.58,4.432,49.746,13.281
		c12.146,8.86,18.229,20.943,18.229,36.268v94.436c0,7.561,0.62,12.86,1.86,15.914c1.243,3.061,3.725,5.461,7.448,7.225v0.162v6.046
		h-24.044h-24.068v-0.159c-1.969-6.828-3.244-13.496-3.865-20.011l-0.16-0.314C4178.563,353.191,4160.457,361.464,4138.218,361.464z
		 M4191.76,294.739v-19.391c-5.179,2.889-12.007,5.222-20.484,6.974l-16.439,3.107c-7.77,1.452-13.656,4.115-17.698,7.989
		c-4.026,3.881-6.048,8.769-6.048,14.661c0,6.735,1.809,12.01,5.428,15.832c3.615,3.83,8.688,5.733,15.214,5.733
		c14.277,0,25.643-5.007,34.138-15.042c1.652-1.962,3.036-4.861,4.188-8.691C4191.191,302.088,4191.76,298.363,4191.76,294.739z"/>
	<path fill="#DBAC27" d="M4275.712,129.016h22.185h22.346v228.103h-22.185h-22.346V129.016z"/>
</g>
</svg>
