<?xml version="1.0" encoding="utf-8"?>
<!-- Generator: Adobe Illustrator 16.0.0, SVG Export Plug-In . SVG Version: 6.00 Build 0)  -->
<!DOCTYPE svg PUBLIC "-//W3C//DTD SVG 1.1//EN" "http://www.w3.org/Graphics/SVG/1.1/DTD/svg11.dtd">
<svg version="1.1" id="Layer_1" xmlns="http://www.w3.org/2000/svg" xmlns:xlink="http://www.w3.org/1999/xlink" x="0px" y="0px"
	 width="484px" height="484px" viewBox="0 0 484 484" enable-background="new 0 0 484 484" xml:space="preserve">
<g>
	<g>
		<g>
			<defs>
				<rect id="SVGID_9_" x="30.608" width="422.783" height="484"/>
			</defs>
			<use xlink:href="#SVGID_9_"  display="none" overflow="visible" fill="#6E3B76"/>
			<clipPath id="SVGID_2_">
				<use xlink:href="#SVGID_9_"  display="none" overflow="visible"/>
			</clipPath>
		</g>
		<path fill="#6E3B76" d="M86.469,141.245l-1.207,6.359c-3.771,19.54-4.121,39.626-1.037,59.652l-52.883,94.269l58.4,13.35v97.705
			h77.523v69.77h186.06V374.32c54.263-38.395,85.262-100.116,85.215-165.965l0.014-28.284c0-10.656-0.983-21.608-2.971-32.399
			l-1.146-6.426H85.56 M421.391,156.75c1.118,7.753,1.684,15.614,1.684,23.26l0.02,28.331
			c0.047,62.104-30.602,120.262-81.86,155.558l-3.415,2.324v100.613H182.772v-69.77h-77.53v-94.558l-50.237-11.464l45.379-80.919
			l-0.444-2.762c-2.876-16.967-3.044-35.114-0.539-50.613H421.391z"/>
	</g>
	<path fill="#59595A" d="M434.23,140.533h-15.218l34.879-83.572V1.142l-45.063,33.732L363.51,140.533h-36.44l-14.313-31.006h9.348
		c17.11,0,31.013-13.761,31.013-30.855V47.504h15.507V1h-46.52v46.504h15.513v31.168c0,8.541-6.958,15.351-15.513,15.351h-16.503
		l-19.817-42.868l23.739-11.828l-77.72-33.289l-18.273,63.951c-0.498-38.051-31.558-68.847-69.724-68.847
		c-38.481,0-69.778,31.294-69.778,69.771c0,23.238,11.781,45.055,31.013,57.947v11.674H86.26 M337.616,32.146v-15.5h15.5v15.5
		H337.616z M309.994,140.533h-29.403l-14.098-31.006h29.192L309.994,140.533z M241.86,27.236l30.816,13.202l-7.275,3.569
		l23.117,50.015H259.44l-18.887-41.466l-6.939,3.502L241.86,27.236z M263.555,140.533h-34.479v-15.352
		c0-8.547,6.957-15.646,15.512-15.646h4.871v-0.008L263.555,140.533z M233.109,73.693l9.403,20.686
		c-16.125,1.085-28.937,14.408-28.937,30.797v15.357h-31.013v-11.674c15.513-10.399,26.048-26.619,29.592-44.698L233.109,73.693z
		 M89.541,70.918c0-29.921,24.344-54.271,54.265-54.271c29.913,0,54.265,24.351,54.265,54.271c0,19.251-10.4,37.249-27.141,46.941
		l-3.866,2.237v20.437h-15.506V92.735c9.001-3.206,15.506-11.741,15.506-21.823c0-12.826-10.434-23.268-23.258-23.268
		c-12.818,0-23.259,10.441-23.259,23.268c0,10.082,6.5,18.617,15.499,21.823v47.798h-15.499v-20.437l-3.873-2.243
		C99.94,108.16,89.541,90.169,89.541,70.918L89.541,70.918z M143.806,78.672c-4.284,0-7.76-3.482-7.76-7.754
		c0-4.283,3.476-7.76,7.76-7.76c4.276,0,7.752,3.477,7.752,7.76C151.558,75.195,148.082,78.672,143.806,78.672L143.806,78.672z
		 M402.208,140.533H380.37l38.649-90.092l17.191,8.561L402.208,140.533z M438.392,42.856l-8.574-4.284l8.574-6.426V42.856z
		 M438.392,42.856"/>
</g>
</svg>
