<?xml version="1.0" encoding="utf-8"?>
<!-- Generator: Adobe Illustrator 16.0.0, SVG Export Plug-In . SVG Version: 6.00 Build 0)  -->
<!DOCTYPE svg PUBLIC "-//W3C//DTD SVG 1.1//EN" "http://www.w3.org/Graphics/SVG/1.1/DTD/svg11.dtd">
<svg version="1.1" id="Layer_1" xmlns="http://www.w3.org/2000/svg" xmlns:xlink="http://www.w3.org/1999/xlink" x="0px" y="0px"
	 width="2663.895px" height="484px" viewBox="0 0 2663.895 484" enable-background="new 0 0 2663.895 484" xml:space="preserve">
<g>
	<g>
		<path fill="#6E3B76" d="M780.49,281.637c-2.795,25.447-12.75,45.653-29.876,60.625c-17.11,14.977-38.897,22.473-65.35,22.473
			c-30.949,0-55.532-10.34-73.735-30.985c-18.224-20.679-27.33-48.62-27.33-83.858c0-35.931,9.106-64.457,27.33-85.576
			c18.203-21.114,42.786-31.67,73.735-31.67c26.148,0,47.808,7.067,64.982,21.183c17.167,14.14,27.249,33.264,30.245,57.43h-45.965
			c-1.502-11.881-6.619-21.311-15.373-28.306c-8.753-6.984-19.866-10.472-33.36-10.472c-17.095,0-30.493,6.815-40.191,20.43
			c-9.69,13.623-14.54,32.516-14.54,56.677c0,23.562,4.813,41.993,14.463,55.324c9.654,13.326,23.069,19.985,40.268,19.985
			c13.494,0,24.606-3.881,33.36-11.669s13.871-18.327,15.373-31.59H780.49z"/>
		<path fill="#6E3B76" d="M825.189,340.023c-15.028-15.265-22.54-35.883-22.54-61.839c0-26.548,7.512-47.643,22.54-63.268
			c15.021-15.608,35.254-23.421,60.705-23.421c25.652,0,45.966,7.813,60.938,23.421c14.977,15.625,22.469,36.72,22.469,63.268
			c0,25.956-7.492,46.574-22.469,61.839c-14.972,15.284-35.285,22.917-60.938,22.917C860.443,362.94,840.21,355.308,825.189,340.023
			z M915.091,314.42c6.694-8.385,10.038-20.618,10.038-36.688c0-16.458-3.344-28.971-10.038-37.504
			c-6.691-8.541-16.418-12.802-29.196-12.802c-12.781,0-22.479,4.261-29.119,12.802c-6.639,8.533-9.958,21.046-9.958,37.504
			c0,16.069,3.319,28.303,9.958,36.688c6.64,8.389,16.338,12.577,29.119,12.577C898.673,326.997,908.399,322.809,915.091,314.42z"/>
		<path fill="#6E3B76" d="M999.093,195.841h20.365h20.519v26.196c1.882-4.589,4.276-8.682,7.172-12.27
			c9.458-12.182,23.217-18.271,41.256-18.271c14.355,0,26.112,4.841,35.282,14.527c3.588,3.688,6.423,7.78,8.518,12.27l5.253-8.525
			c8.882-12.182,21.84-18.271,38.83-18.271c17.695,0,31.542,5.237,41.536,15.721c9.995,10.467,15.001,24.999,15.001,43.563v107.96
			h-21.415h-21.563v-95.671c0-12.185-1.998-21.202-6.003-27.032c-4.016-5.839-10.207-8.762-18.62-8.762
			c-9.005,0-15.896,2.771-20.642,8.321c-4.753,5.533-7.132,13.498-7.132,23.881v99.263h-21.411h-21.559V256.018
			c0-9.774-2.103-17.011-6.283-21.695c-4.177-4.701-10.592-7.048-19.253-7.048s-15.32,2.771-19.934,8.321
			c-4.629,5.533-6.951,13.498-6.951,23.881v99.263h-21.403h-21.563V195.841z"/>
		<path fill="#6E3B76" d="M1271.157,195.841h20.365h20.507v24.105l2.847-4.057c11.568-16.253,26.853-24.394,45.81-24.394
			c20.67,0,37.264,7.62,49.789,22.908c12.525,15.265,18.8,35.386,18.8,60.341c0,26.453-6.274,47.76-18.8,63.929
			c-12.525,16.17-29.119,24.267-49.789,24.267c-18.856,0-34.085-7.584-45.661-22.769l-0.901-1.193v83.538h-21.403h-21.563V195.841z
			 M1348.416,327.594c11.473,0,20.466-4.309,26.953-12.949c6.486-8.642,9.727-20.635,9.727-36.003
			c0-15.677-3.212-27.93-9.658-36.775c-6.432-8.834-15.405-13.246-26.873-13.246c-11.484,0-20.442,4.557-26.877,13.622
			c-6.443,9.09-9.658,21.72-9.658,37.885c0,14.876,3.215,26.509,9.658,34.894C1328.122,323.401,1337.036,327.594,1348.416,327.594z"
			/>
		<path fill="#6E3B76" d="M1523.902,362.94c-24.761,0-43.861-7.633-57.275-22.917c-13.431-15.265-20.138-37.027-20.138-65.278
			c0-26.048,6.831-46.445,20.515-61.157c13.67-14.736,32.631-22.092,56.898-22.092c24.843,0,43.991,7.508,57.406,22.532
			c13.43,15.016,20.142,36.415,20.142,64.156c0.208,3.2-0.048,6.443-0.737,9.735h-110.949c0.989,12.882,3.836,22.516,8.529,28.898
			c5.988,7.989,15.976,11.981,29.95,11.981c6.479,0,12.502-1.851,18.044-5.551c5.541-3.699,8.849-8.128,9.954-13.33h43.719
			c-3.699,16.586-12.261,29.556-25.684,38.934C1560.854,358.247,1544.061,362.94,1523.902,362.94z M1556.682,260.518
			c-0.993-9.786-3.588-17.418-7.784-22.912c-5.486-7.288-14.031-10.932-25.596-10.932c-11.092,0-19.524,4.244-25.305,12.729
			c-3.596,5.394-6.199,12.426-7.789,21.114H1556.682z"/>
		<path fill="#6E3B76" d="M1704.769,359.637c-7.184,0.597-16.024,0.909-26.5,0.909c-15.185,0-26.084-2.728-32.724-8.169
			c-6.639-5.438-9.954-14.355-9.954-26.725v-99.72h-22.608v-30.092h22.608v-43.888h42.974v43.888h26.204v30.092h-26.204v92.531
			c0,3.797,1.121,6.295,3.372,7.496c2.242,1.193,6.903,1.794,13.999,1.794h8.833V359.637z"/>
		<path fill="#6E3B76" d="M1796.548,362.94c-24.747,0-43.848-7.633-57.262-22.917c-13.431-15.265-20.142-37.027-20.142-65.278
			c0-26.048,6.831-46.445,20.51-61.157c13.671-14.736,32.644-22.092,56.894-22.092c24.858,0,43.999,7.508,57.422,22.532
			c13.422,15.016,20.149,36.415,20.149,64.156c0.192,3.2-0.057,6.443-0.761,9.735h-110.943c0.993,12.882,3.836,22.516,8.529,28.898
			c5.99,7.989,15.969,11.981,29.944,11.981c6.486,0,12.509-1.851,18.043-5.551c5.55-3.699,8.857-8.128,9.963-13.33h43.727
			c-3.7,16.586-12.269,29.556-25.676,38.934C1833.507,358.247,1816.722,362.94,1796.548,362.94z M1818.859,128.913l34.733,44.455
			h-34.429l-19.469-25.003l-19.461,25.003h-34.445l34.741-44.455h19.165H1818.859z M1829.351,260.518
			c-1.009-9.786-3.596-17.418-7.792-22.912c-5.486-7.288-14.031-10.932-25.604-10.932c-11.084,0-19.518,4.244-25.308,12.729
			c-3.588,5.394-6.19,12.426-7.776,21.114H1829.351z"/>
		<path fill="#6E3B76" d="M1902.558,195.841h20.366h20.51v24.105c1.689-2.907,3.54-5.646,5.542-8.249
			c10.571-13.466,25.956-20.201,46.113-20.201c17.171,0,30.617,5.098,40.355,15.276c9.73,10.179,14.6,24.302,14.6,42.369v109.598
			h-21.407h-21.566V256.931c0-10.079-2.171-17.539-6.512-22.389c-4.341-4.841-11.012-7.268-19.997-7.268
			c-11.269,0-19.934,3.403-25.972,10.179c-6.039,6.796-9.059,16.582-9.059,29.344v91.942h-21.406h-21.567V195.841z"/>
		<path fill="#6E3B76" d="M2230.622,298.407c-2.211,20.262-9.738,36.074-22.616,47.45c-12.878,11.381-29.647,17.083-50.302,17.083
			c-24.667,0-43.703-7.344-57.126-22.016c-13.422-14.672-20.142-35.587-20.142-62.74c0-26.548,6.968-47.643,20.887-63.268
			c13.927-15.608,32.723-23.421,56.381-23.421c20.958,0,38.129,5.778,51.503,17.362c13.374,11.585,20.502,26.801,21.415,45.669
			h-43.727c-0.409-8.093-3.268-14.628-8.618-19.604c-5.333-4.998-12.188-7.496-20.573-7.496c-10.788,0-18.997,4.316-24.635,12.954
			c-5.638,8.637-8.457,21.238-8.457,37.804c0,16.166,2.819,28.467,8.457,36.904c5.638,8.437,13.847,12.665,24.635,12.665
			c7.776,0,14.367-2.702,19.757-8.097c5.39-5.386,8.537-12.473,9.435-21.25H2230.622z"/>
		<path fill="#6E3B76" d="M2261.607,136.993h43.728v39.827h-43.728V136.993z M2262.056,195.841h21.415h21.56v162.898h-21.415h-21.56
			V195.841z"/>
		<path fill="#6E3B76" d="M2384.7,362.94c-15.072,0-27.214-4.317-36.399-12.958c-9.17-8.642-13.774-19.981-13.774-34.068
			c0-14.868,4.14-26.766,12.437-35.719c8.289-8.934,20.366-14.536,36.231-16.834l28.303-3.885
			c7.383-1.009,13.518-2.702,18.411-5.097c2.099-0.989,3.708-2.796,4.878-5.395c1.145-2.599,1.545-5.237,1.265-7.937
			c-0.601-4.581-2.938-8.181-7.031-10.779c-4.901-3.079-11.933-4.637-21.119-4.637c-8.177,0-14.575,1.998-19.165,5.982
			c-4.588,3.992-7.031,9.638-7.344,16.93h-41.164c0.889-19.068,7.393-33.34,19.445-42.83c12.085-9.486,29.816-14.219,53.178-14.219
			c20.262,0,36.254,4.276,47.979,12.81c11.725,8.541,17.588,20.214,17.588,35.002v91.113c0,7.292,0.592,12.409,1.801,15.353
			c1.201,2.959,3.596,5.273,7.184,6.979v0.148v5.838h-23.2h-23.209v-0.147c-1.897-6.592-3.147-13.022-3.748-19.325l-0.144-0.288
			C2423.63,354.943,2406.155,362.94,2384.7,362.94z M2436.331,298.543v-18.708c-4.973,2.795-11.557,5.033-19.749,6.731
			l-15.865,2.987c-7.496,1.413-13.183,3.976-17.082,7.724c-3.884,3.748-5.839,8.453-5.839,14.155c0,6.483,1.754,11.581,5.246,15.257
			c3.508,3.699,8.385,5.546,14.672,5.546c13.783,0,24.771-4.838,32.939-14.528c1.602-1.882,2.947-4.685,4.044-8.385
			C2435.794,305.643,2436.331,302.051,2436.331,298.543z"/>
		<path fill="#6E3B76" d="M2608.364,244.641c0-6.278-2.596-11.332-7.801-15.116c-5.182-3.796-12.076-5.689-20.67-5.689
			c-8.281,0-14.768,1.413-19.404,4.26c-4.646,2.863-6.969,6.828-6.969,11.913c0,3.592,2.635,6.684,7.945,9.29
			c5.182,2.482,14.424,5.229,27.701,8.233c26.349,5.878,43.976,12.316,52.85,19.316c8.922,6.979,13.374,17.963,13.374,32.936
			c0,15.969-6.455,28.823-19.381,38.549c-12.926,9.719-29.984,14.608-51.135,14.608c-25.075,0-44.36-4.798-57.895-14.384
			c-13.534-9.578-20.734-23.558-21.64-41.921h43.72c0.304,7.484,3.628,13.351,9.971,17.595c6.335,4.24,14.944,6.367,25.819,6.367
			c8.594,0,15.305-1.474,20.142-4.417c4.845-2.947,7.272-7.071,7.272-12.357c0-3.7-2.339-6.844-7.031-9.426
			c-4.686-2.499-12.935-5.05-24.707-7.652c-27.55-6.179-45.986-12.714-55.252-19.605c-9.273-6.799-13.91-17.318-13.91-31.598
			c0-16.169,5.998-29.224,18.027-39.146c12.037-9.938,27.877-14.899,47.547-14.899c22.151,0,40.019,4.857,53.586,14.596
			c13.574,9.73,20.365,22.584,20.365,38.549H2608.364z"/>
	</g>
</g>
<g>
	<g>
		<g>
			<g>
				<defs>
					<rect id="SVGID_11_" x="30.608" width="422.783" height="484"/>
				</defs>
				<clipPath id="SVGID_2_">
					<use xlink:href="#SVGID_11_"  display="none" overflow="visible"/>
				</clipPath>
			</g>
		</g>
		<g>
			<g>
				<defs>
					<rect id="SVGID_13_" x="30.608" width="422.783" height="484"/>
				</defs>
				<use xlink:href="#SVGID_13_"  display="none" overflow="visible" fill="#6E3B76"/>
				<clipPath id="SVGID_4_">
					<use xlink:href="#SVGID_13_"  display="none" overflow="visible"/>
				</clipPath>
			</g>
			<path fill="#6E3B76" d="M86.469,141.245l-1.207,6.358c-3.771,19.541-4.121,39.627-1.037,59.652l-52.883,94.27l58.4,13.35v97.705
				h77.523v69.77h186.06V374.32c54.263-38.396,85.262-100.116,85.215-165.966l0.014-28.284c0-10.656-0.983-21.608-2.971-32.399
				l-1.146-6.426H85.56 M421.391,156.75c1.118,7.754,1.684,15.614,1.684,23.26l0.02,28.332
				c0.047,62.104-30.602,120.262-81.86,155.558l-3.415,2.324v100.612H182.772v-69.77h-77.53v-94.559l-50.237-11.463l45.379-80.92
				l-0.444-2.762c-2.876-16.967-3.044-35.113-0.539-50.613H421.391z"/>
		</g>
		<g>
			<g>
				<defs>
					<rect id="SVGID_15_" x="30.608" width="422.783" height="484"/>
				</defs>
				<clipPath id="SVGID_6_">
					<use xlink:href="#SVGID_15_"  display="none" overflow="visible"/>
				</clipPath>
			</g>
		</g>
	</g>
	<path fill="#59595A" d="M435.682,141.533h-15.218l34.879-83.572V2.142l-45.063,33.732l-45.319,105.659h-36.44l-14.313-31.006h9.348
		c17.11,0,31.013-13.761,31.013-30.855V48.504h15.507V2h-46.52v46.504h15.513v31.168c0,8.541-6.958,15.351-15.513,15.351h-16.503
		l-19.817-42.868l23.739-11.828l-77.72-33.289l-18.273,63.951c-0.498-38.051-31.558-68.847-69.724-68.847
		c-38.481,0-69.778,31.294-69.778,69.771c0,23.238,11.781,45.055,31.013,57.947v11.674h-18.78 M339.068,33.146v-15.5h15.5v15.5
		H339.068z M311.446,141.533h-29.403l-14.098-31.006h29.192L311.446,141.533z M243.312,28.236l30.816,13.202l-7.275,3.569
		l23.117,50.015h-29.078l-18.887-41.466l-6.939,3.502L243.312,28.236z M265.006,141.533h-34.479v-15.352
		c0-8.547,6.957-15.646,15.512-15.646h4.871v-0.008L265.006,141.533z M234.561,74.693l9.403,20.686
		c-16.125,1.085-28.937,14.408-28.937,30.797v15.357h-31.013v-11.674c15.513-10.399,26.048-26.619,29.592-44.698L234.561,74.693z
		 M90.993,71.918c0-29.921,24.344-54.271,54.265-54.271c29.913,0,54.265,24.351,54.265,54.271c0,19.251-10.4,37.249-27.141,46.941
		l-3.866,2.237v20.437h-15.506V93.735c9.001-3.206,15.506-11.741,15.506-21.823c0-12.826-10.434-23.268-23.258-23.268
		c-12.818,0-23.259,10.441-23.259,23.268c0,10.082,6.5,18.617,15.499,21.823v47.798h-15.499v-20.437l-3.873-2.243
		C101.392,109.16,90.993,91.169,90.993,71.918L90.993,71.918z M145.257,79.672c-4.284,0-7.76-3.482-7.76-7.754
		c0-4.283,3.476-7.76,7.76-7.76c4.276,0,7.752,3.477,7.752,7.76C153.009,76.195,149.534,79.672,145.257,79.672L145.257,79.672z
		 M403.66,141.533h-21.838l38.649-90.092l17.191,8.561L403.66,141.533z M439.843,43.856l-8.574-4.284l8.574-6.426V43.856z
		 M439.843,43.856"/>
</g>
</svg>
