<?xml version="1.0" encoding="utf-8"?>
<!-- Generator: Adobe Illustrator 16.0.0, SVG Export Plug-In . SVG Version: 6.00 Build 0)  -->
<!DOCTYPE svg PUBLIC "-//W3C//DTD SVG 1.1//EN" "http://www.w3.org/Graphics/SVG/1.1/DTD/svg11.dtd">
<svg version="1.1" id="Layer_1" xmlns="http://www.w3.org/2000/svg" xmlns:xlink="http://www.w3.org/1999/xlink" x="0px" y="0px"
	 width="2634.95px" height="484px" viewBox="0 0 2634.95 484" enable-background="new 0 0 2634.95 484" xml:space="preserve">
<g>
	<path fill="#1C5486" d="M586.668,121.444h24.663h76.729c32.562,0,57.308,9.57,74.229,28.695
		c16.931,19.129,25.391,47.121,25.391,83.984c0,40.621-8.783,71.488-26.357,92.602c-17.566,21.121-43.334,31.676-77.291,31.676
		h-72.699h-24.663V121.444z M636.155,317.616h41.749c20.095,0,35.164-6.789,45.218-20.387c10.045-13.594,15.07-33.988,15.07-61.168
		c0-24.613-4.675-43.074-14.024-55.379c-9.35-12.297-23.429-18.461-42.233-18.461h-45.779V317.616z"/>
	<path fill="#1C5486" d="M890.844,362.917c-26.652,0-47.207-8.219-61.659-24.668c-14.452-16.434-21.679-39.867-21.679-70.281
		c0-28.039,7.359-49.988,22.084-65.844c14.72-15.852,35.141-23.781,61.254-23.781c26.759,0,47.364,8.098,61.816,24.262
		c14.452,16.176,21.684,39.203,21.684,69.074c0.212,3.445-0.056,6.938-0.807,10.473H854.092c1.072,13.875,4.136,24.246,9.188,31.117
		c6.448,8.602,17.193,12.895,32.239,12.895c6.982,0,13.462-1.988,19.422-5.969c5.969-3.969,9.538-8.75,10.722-14.34h47.069
		c-3.979,17.84-13.195,31.813-27.643,41.91C930.632,357.87,912.55,362.917,890.844,362.917z M926.146,252.659
		c-1.077-10.527-3.868-18.754-8.382-24.668c-5.913-7.84-15.102-11.762-27.564-11.762c-11.929,0-21.011,4.566-27.242,13.695
		c-3.868,5.805-6.664,13.383-8.382,22.734H926.146z"/>
	<path fill="#1C5486" d="M1104.244,235.573c0-6.773-2.8-12.199-8.392-16.277c-5.591-4.09-13.011-6.137-22.259-6.137
		c-8.926,0-15.89,1.539-20.891,4.598c-5.002,3.066-7.498,7.34-7.498,12.813c0,3.871,2.846,7.203,8.543,10.004
		c5.587,2.68,15.53,5.637,29.826,8.859c28.38,6.348,47.354,13.273,56.921,20.801c9.589,7.516,14.388,19.344,14.388,35.461
		c0,17.191-6.964,31.023-20.882,41.508c-13.918,10.473-32.271,15.715-55.056,15.715c-26.979,0-47.751-5.16-62.313-15.477
		s-22.328-25.359-23.295-45.133h47.069c0.322,8.059,3.896,14.379,10.722,18.938c6.825,4.57,16.097,6.852,27.813,6.852
		c9.243,0,16.474-1.582,21.688-4.75c5.213-3.172,7.82-7.602,7.82-13.301c0-3.973-2.524-7.363-7.572-10.152
		c-5.052-2.691-13.922-5.426-26.602-8.227c-29.664-6.66-49.496-13.695-59.49-21.121c-9.985-7.305-14.973-18.633-14.973-34.008
		c0-17.41,6.471-31.457,19.417-42.148c12.946-10.695,30.006-16.047,51.173-16.047c23.853,0,43.085,5.242,57.698,15.723
		c14.614,10.473,21.923,24.316,21.923,41.508H1104.244z"/>
	<path fill="#1C5486" d="M1258.048,362.917c-26.652,0-47.207-8.219-61.66-24.668c-14.452-16.434-21.678-39.867-21.678-70.281
		c0-28.039,7.359-49.988,22.083-65.844c14.72-15.852,35.141-23.781,61.255-23.781c26.759,0,47.364,8.098,61.816,24.262
		c14.452,16.176,21.683,39.203,21.683,69.074c0.212,3.445-0.055,6.938-0.806,10.473h-119.446
		c1.073,13.875,4.136,24.246,9.188,31.117c6.447,8.602,17.192,12.895,32.239,12.895c6.981,0,13.462-1.988,19.422-5.969
		c5.969-3.969,9.538-8.75,10.722-14.34h47.069c-3.979,17.84-13.195,31.813-27.644,41.91
		C1297.835,357.87,1279.754,362.917,1258.048,362.917z M1293.35,252.659c-1.078-10.527-3.869-18.754-8.382-24.668
		c-5.914-7.84-15.103-11.762-27.564-11.762c-11.929,0-21.011,4.566-27.242,13.695c-3.869,5.805-6.664,13.383-8.383,22.734H1293.35z"
		/>
	<path fill="#1C5486" d="M1371.852,183.022h21.923h22.084v28.203c2.035-4.938,4.61-9.34,7.724-13.207
		c10.192-13.117,24.999-19.676,44.416-19.676c15.452,0,28.112,5.223,37.982,15.641c3.864,3.98,6.922,8.383,9.175,13.219l5.65-9.184
		c9.575-13.117,23.517-19.676,41.81-19.676c19.049,0,33.957,5.645,44.721,16.93c10.759,11.285,16.143,26.914,16.143,46.902v116.227
		h-23.051h-23.213v-103c0-13.113-2.155-22.813-6.466-29.098c-4.315-6.289-10.994-9.43-20.044-9.43
		c-9.704,0-17.114,2.984-22.23,8.941c-5.117,5.969-7.678,14.535-7.678,25.719v106.867h-23.051h-23.213V247.823
		c0-10.527-2.252-18.32-6.752-23.371c-4.499-5.055-11.412-7.578-20.734-7.578c-9.326,0-16.479,2.984-21.457,8.941
		c-4.983,5.969-7.475,14.535-7.475,25.719v106.867h-23.051h-23.213V183.022z"/>
	<path fill="#1C5486" d="M1664.744,183.022h21.923h22.084v25.957l3.063-4.359c12.463-17.508,28.904-26.277,49.326-26.277
		c22.245,0,40.109,8.227,53.595,24.668s20.232,38.098,20.232,64.957c0,28.48-6.747,51.426-20.232,68.836
		c-13.485,17.406-31.35,26.113-53.595,26.113c-20.311,0-36.702-8.16-49.165-24.504l-0.967-1.289v89.949h-23.052h-23.212V183.022z
		 M1747.921,324.874c12.357,0,22.029-4.641,29.016-13.945c6.982-9.293,10.478-22.219,10.478-38.762
		c0-16.875-3.463-30.066-10.399-39.578c-6.927-9.508-16.575-14.27-28.933-14.27c-12.361,0-22.005,4.898-28.932,14.672
		c-6.937,9.785-10.399,23.371-10.399,40.777c0,16.02,3.463,28.539,10.399,37.566
		C1726.077,320.362,1735.671,324.874,1747.921,324.874z"/>
	<path fill="#1C5486" d="M1936.843,362.917c-26.652,0-47.207-8.219-61.66-24.668c-14.452-16.434-21.678-39.867-21.678-70.281
		c0-28.039,7.359-49.988,22.083-65.844c14.72-15.852,35.141-23.781,61.255-23.781c26.759,0,47.363,8.098,61.816,24.262
		c14.452,16.176,21.683,39.203,21.683,69.074c0.212,3.445-0.055,6.938-0.806,10.473H1900.09c1.073,13.875,4.136,24.246,9.188,31.117
		c6.447,8.602,17.192,12.895,32.239,12.895c6.981,0,13.462-1.988,19.422-5.969c5.969-3.969,9.538-8.75,10.722-14.34h47.069
		c-3.979,17.84-13.195,31.813-27.644,41.91C1976.63,357.87,1958.549,362.917,1936.843,362.917z M1972.145,252.659
		c-1.078-10.527-3.869-18.754-8.382-24.668c-5.914-7.84-15.103-11.762-27.564-11.762c-11.929,0-21.011,4.566-27.242,13.695
		c-3.869,5.805-6.665,13.383-8.383,22.734H1972.145z"/>
	<path fill="#1C5486" d="M2050.969,183.022h21.923h22.084v25.957c1.824-3.125,3.813-6.07,5.964-8.871
		c11.39-14.508,27.938-21.766,49.648-21.766c18.482,0,32.962,5.488,43.444,16.449c10.474,10.965,15.715,26.172,15.715,45.617
		v117.992h-23.051h-23.213V248.788c0-10.848-2.335-18.883-7.014-24.094c-4.671-5.215-11.846-7.82-21.518-7.82
		c-12.146,0-21.467,3.656-27.965,10.961c-6.508,7.313-9.755,17.84-9.755,31.594v98.973h-23.051h-23.213V183.022z"/>
	<path fill="#1C5486" d="M2252.625,121.444h23.051h23.212v83.824l3.708-5.16c11.39-14.508,27.938-21.766,49.648-21.766
		c18.481,0,32.962,5.488,43.444,16.449c10.473,10.965,15.714,26.172,15.714,45.617v117.992h-23.056h-23.212V248.788
		c0-10.848-2.33-18.883-7.01-24.094c-4.67-5.215-11.846-7.82-21.518-7.82c-12.145,0-21.466,3.656-27.965,10.961
		c-6.508,7.313-9.755,17.84-9.755,31.594v98.973h-23.051h-23.212V121.444z"/>
	<path fill="#1C5486" d="M2468.393,338.249c-16.175-16.434-24.263-38.621-24.263-66.57c0-28.582,8.088-51.289,24.263-68.105
		c16.165-16.813,37.959-25.23,65.362-25.23c27.615,0,49.491,8.418,65.611,25.23c16.119,16.816,24.17,39.523,24.17,68.105
		c0,27.949-8.051,50.137-24.17,66.57c-16.12,16.449-37.996,24.668-65.611,24.668
		C2506.352,362.917,2484.558,354.698,2468.393,338.249z M2565.192,310.69c7.194-9.027,10.796-22.191,10.796-39.5
		c0-17.723-3.602-31.188-10.796-40.371c-7.203-9.195-17.686-13.789-31.438-13.789c-13.762,0-24.207,4.594-31.355,13.789
		c-7.147,9.184-10.712,22.648-10.712,40.371c0,17.309,3.564,30.473,10.712,39.5c7.148,9.023,17.594,13.539,31.355,13.539
		C2547.507,324.229,2557.989,319.714,2565.192,310.69z"/>
</g>
<g>
	<path fill="#59595A" d="M205.105,301.834c-11.717,0-20.511,9.521-20.511,20.509c0,11.716,9.522,20.509,20.511,20.509
		c10.987,0,20.507-9.521,20.507-20.509C226.348,311.354,216.821,301.834,205.105,301.834L205.105,301.834z M205.105,328.938
		c-3.662,0-5.864-2.931-5.864-5.862c0-3.664,2.934-5.857,5.864-5.857c3.662,0,5.854,2.924,5.854,5.857
		C211.694,326.008,208.768,328.938,205.105,328.938L205.105,328.938z M205.105,328.938"/>
	<path fill="#59595A" d="M351.604,202.211c0-4.399-3.662-7.323-7.324-7.323H204.373c-4.401,0-7.325,2.931-7.325,7.323
		c0,4.396,2.924,7.33,7.325,7.33h139.906C348.673,209.541,351.604,206.607,351.604,202.211L351.604,202.211z M351.604,202.211"/>
	<path fill="#59595A" d="M209.497,186.83c4.395,0,7.324-2.932,7.324-7.323v-40.289c0-4.399-2.93-7.323-7.324-7.323
		c-4.392,0-7.322,2.924-7.322,7.323v40.289C202.175,183.168,205.105,186.83,209.497,186.83L209.497,186.83z M209.497,186.83"/>
	<path fill="#59595A" d="M235.136,186.83c4.397,0,7.324-2.932,7.324-7.323v-22.712c0-4.393-2.927-7.324-7.324-7.324
		c-4.396,0-7.326,2.932-7.326,7.324v22.712C227.81,183.168,231.472,186.83,235.136,186.83L235.136,186.83z M235.136,186.83"/>
	<path fill="#59595A" d="M261.506,186.83c4.4,0,7.324-2.932,7.324-7.323v-70.323c0-4.396-2.931-7.327-7.324-7.327
		c-4.396,0-7.323,2.931-7.323,7.327v70.323C254.183,183.168,257.11,186.83,261.506,186.83L261.506,186.83z M261.506,186.83"/>
	<path fill="#59595A" d="M287.142,186.83c4.399,0,7.326-2.932,7.326-7.323v-52.743c0-4.396-2.934-7.326-7.326-7.326
		c-4.394,0-7.324,2.931-7.324,7.326v52.743C279.817,183.168,282.748,186.83,287.142,186.83L287.142,186.83z M287.142,186.83"/>
	<path fill="#59595A" d="M312.78,186.83c4.398,0,7.322-2.932,7.322-7.323v-61.532c0-4.398-2.924-7.323-7.322-7.323
		c-4.395,0-7.328,2.932-7.328,7.323v61.532C305.452,183.168,309.118,186.83,312.78,186.83L312.78,186.83z M312.78,186.83"/>
	<g>
		<defs>
			<rect id="SVGID_3_" y="14.594" width="484" height="454.813"/>
		</defs>
		<clipPath id="SVGID_2_">
			<use xlink:href="#SVGID_3_"  overflow="visible"/>
		</clipPath>
		<path clip-path="url(#SVGID_2_)" fill="#59595A" d="M339.157,186.83c4.392,0,7.322-2.932,7.322-7.323v-78.382
			c0-4.393-2.931-7.322-7.322-7.322c-4.397,0-7.331,2.93-7.331,7.322v78.382C331.826,183.168,334.753,186.83,339.157,186.83
			L339.157,186.83z M339.157,186.83"/>
		<path clip-path="url(#SVGID_2_)" fill="#59595A" d="M476.865,401.451l-61.53-98.889c-1.466-2.197-2.931-2.924-5.131-3.662V39.595
			c0-12.454-10.252-23.442-22.708-23.442H22.708C10.258,16.889,0,27.141,0,39.595v301.06c0,12.453,10.258,23.439,22.708,23.439
			h120.128l-16.112,50.542h-31.5c-4.393,0-7.322,2.931-7.322,7.324c0,4.396,2.93,7.323,7.322,7.323h219.025
			c4.392,0,7.325-2.928,7.325-7.323c0-4.394-2.934-7.324-7.325-7.324h-31.501l-16.112-50.542h82.768l52.011,84.242
			c11.724,18.313,35.893,27.832,61.531,12.451C483.458,448.336,489.315,421.967,476.865,401.451L476.865,401.451z M14.65,39.595
			c0-4.394,3.662-8.059,8.058-8.059h364.788c4.398,0,8.058,3.665,8.058,8.79v240.996h-21.978l-25.635-41.753
			c40.288-35.894,50.543-97.421,21.242-145.036c-33.692-55.674-104.016-70.32-156.756-38.089
			c-53.474,32.964-70.321,104.013-37.361,157.485c29.307,47.616,87.904,66.655,139.183,46.15l12.449,20.505H14.65V39.595z
			 M395.554,295.245v10.985l-4.396,2.928l-8.055-13.913H395.554z M337.683,249.096l41.759,67.393
			c-3.662,2.189-5.865,3.658-9.525,5.854l-41.749-67.386L337.683,249.096z M324.503,238.838
			c-46.15,28.569-107.682,15.381-136.979-32.23c-28.57-46.881-14.649-108.412,32.23-136.981
			c46.145-28.566,107.676-15.378,136.976,32.23C386.034,148.006,371.388,209.541,324.503,238.838L324.503,238.838z M268.102,415.371
			H142.843l16.111-50.543h93.764L268.102,415.371z M343.549,338.458c-1.469,0.733-2.934,2.931-2.934,4.396
			c-0.729,2.196,0,3.665,0.733,5.858v0.737H22.708c-4.396,0-8.058-3.665-8.058-8.796v-46.144h320.841l21.976,35.155L343.549,338.458
			z M455.623,447.602c-17.584,10.988-33.692,4.396-41.023-7.324l-57.133-93.027c0,0,19.045-11.719,50.543-30.77l57.133,93.032
			C472.474,422.701,468.805,439.544,455.623,447.602L455.623,447.602z M455.623,447.602"/>
	</g>
	<g>
		<path fill="#59595A" stroke="#586167" stroke-miterlimit="10" d="M105.204,164.238H79.718c-19.931,0-36.405,16.307-36.405,36.239
			V229.5c0,2.491,2.037,4.531,4.53,4.531h89.162c2.263,0,4.172-1.689,4.491-3.869v-29.685
			C141.496,180.545,125.134,164.238,105.204,164.238z"/>
		<path fill="#59595A" stroke="#59595A" stroke-miterlimit="10" d="M92.407,159.475c17.36,0,31.442-14.078,31.442-31.443
			c0-17.367-14.082-31.443-31.442-31.443c-17.366,0-31.445,14.076-31.445,31.443C60.962,145.396,75.041,159.475,92.407,159.475z"/>
		<path fill="#1C5486" d="M92.407,151.014c12.768,0,23.116-10.354,23.116-23.119c0-12.764-10.349-23.117-23.116-23.117
			c-12.771,0-23.122,10.354-23.122,23.117C69.285,140.66,79.637,151.014,92.407,151.014z"/>
		<path fill="#1C5486" d="M102.843,170.674H82.057c-16.256,0-29.688,13.301-29.688,29.559v23.664c0,2.035,1.659,3.698,3.691,3.698
			h72.72c1.843,0,3.402-1.376,3.666-3.155v-24.207C132.446,183.975,119.097,170.674,102.843,170.674z"/>
	</g>
</g>
</svg>
