<?xml version="1.0" encoding="utf-8"?>
<!-- Generator: Adobe Illustrator 16.0.0, SVG Export Plug-In . SVG Version: 6.00 Build 0)  -->
<!DOCTYPE svg PUBLIC "-//W3C//DTD SVG 1.1//EN" "http://www.w3.org/Graphics/SVG/1.1/DTD/svg11.dtd">
<svg version="1.1" id="Layer_1" xmlns="http://www.w3.org/2000/svg" xmlns:xlink="http://www.w3.org/1999/xlink" x="0px" y="0px"
	 width="3557.494px" height="484px" viewBox="0 0 3557.494 484" enable-background="new 0 0 3557.494 484" xml:space="preserve">
<path fill="#38AAC4" d="M476.804,455.712h-34.19v-23.218c0-1.335-1.078-2.409-2.412-2.409c-1.313,0-2.394,1.074-2.394,2.409v23.218
	h-43.215v-23.218c0-1.335-1.078-2.409-2.416-2.409c-1.313,0-2.391,1.074-2.391,2.409v23.218h-43.217v-23.218
	c0-1.335-1.078-2.409-2.416-2.409c-1.313,0-2.391,1.074-2.391,2.409v23.218h-43.215v-23.218c0-1.335-1.08-2.409-2.416-2.409
	c-1.313,0-2.392,1.074-2.392,2.409v23.218h-43.219v-23.218c0-1.335-1.071-2.409-2.412-2.409c-1.315,0-2.391,1.074-2.391,2.409
	v23.218h-43.22v-23.218c0-1.335-1.075-2.409-2.413-2.409c-1.316,0-2.391,1.074-2.391,2.409v23.218h-43.221v-23.218
	c0-1.335-1.071-2.409-2.41-2.409c-1.315,0-2.39,1.074-2.39,2.409v23.218h-43.221v-23.218c0-1.335-1.074-2.409-2.412-2.409
	c-1.315,0-2.391,1.074-2.391,2.409v23.218H14.394v-54.423h19.299c1.315,0,2.394-1.083,2.394-2.416c0-1.315-1.078-2.391-2.394-2.391
	H14.394v-43.219h19.299c1.315,0,2.394-1.076,2.394-2.409c0-1.316-1.078-2.398-2.394-2.398H14.394v-43.215h19.299
	c1.315,0,2.394-1.076,2.394-2.417c0-1.308-1.078-2.39-2.394-2.39H14.394v-43.217h19.299c1.315,0,2.394-1.074,2.394-2.416
	c0-1.308-1.078-2.39-2.394-2.39H14.394v-43.216h19.299c1.315,0,2.394-1.082,2.394-2.416c0-1.309-1.078-2.391-2.394-2.391H14.394
	v-43.216h19.299c1.315,0,2.394-1.082,2.394-2.416c0-1.31-1.078-2.39-2.394-2.39H14.394v-43.217h19.299
	c1.315,0,2.394-1.082,2.394-2.416c0-1.309-1.078-2.391-2.394-2.391H14.394V65.13h19.299c1.315,0,2.394-1.082,2.394-2.417
	c0-1.308-1.078-2.391-2.394-2.391H14.394V21.091c0-3.959-3.212-7.197-7.197-7.197C3.236,13.894,0,17.132,0,21.091v441.818
	c0,3.965,3.236,7.197,7.196,7.197h469.607c3.986,0,7.196-3.232,7.196-7.197C484,458.925,480.79,455.712,476.804,455.712
	L476.804,455.712z M476.804,455.712"/>
<path fill="#59595A" d="M370.904,141.89l-19.128-21.471l3.699-3.291l15.513,17.416l32.788-35.135l3.622,3.375L370.904,141.89z
	 M370.904,141.89"/>
<path fill="#59595A" d="M171.123,399.241h-59.39c-4.81,0-9.895-5.084-9.895-9.892v-59.395c0-4.807,5.085-9.893,9.895-9.893h59.39
	c4.81,0,9.896,5.086,9.896,9.893v59.395C181.019,394.157,175.933,399.241,171.123,399.241L171.123,399.241z M111.733,325.013
	c-2.03,0-4.948,2.915-4.948,4.942v59.395c0,2.034,2.918,4.942,4.948,4.942h59.39c2.036,0,4.946-2.908,4.946-4.942v-59.395
	c0-2.027-2.91-4.942-4.946-4.942H111.733z M111.733,325.013"/>
<path fill="#59595A" d="M288.656,399.241h-59.39c-4.81,0-9.895-5.084-9.895-9.892v-59.395c0-4.807,5.085-9.893,9.895-9.893h59.39
	c4.81,0,9.896,5.086,9.896,9.893v59.395C298.552,394.157,293.466,399.241,288.656,399.241L288.656,399.241z M229.267,325.013
	c-2.029,0-4.948,2.915-4.948,4.942v59.395c0,2.034,2.919,4.942,4.948,4.942h59.39c2.036,0,4.948-2.908,4.948-4.942v-59.395
	c0-2.027-2.912-4.942-4.948-4.942H229.267z M229.267,325.013"/>
<path fill="#59595A" d="M409.281,399.241h-59.389c-4.81,0-9.896-5.084-9.896-9.892v-59.395c0-4.807,5.086-9.893,9.896-9.893h59.389
	c4.81,0,9.896,5.086,9.896,9.893v59.395C419.177,394.157,414.091,399.241,409.281,399.241L409.281,399.241z M349.893,325.013
	c-2.03,0-4.945,2.915-4.945,4.942v59.395c0,2.034,2.915,4.942,4.945,4.942h59.389c2.037,0,4.948-2.908,4.948-4.942v-59.395
	c0-2.027-2.911-4.942-4.948-4.942H349.893z M349.893,325.013"/>
<path fill="#59595A" d="M171.123,278.499h-59.39c-4.81,0-9.895-5.085-9.895-9.898v-59.385c0-4.813,5.085-9.898,9.895-9.898h59.39
	c4.81,0,9.896,5.086,9.896,9.898v59.385C181.019,273.414,175.933,278.499,171.123,278.499L171.123,278.499z M111.733,204.267
	c-2.03,0-4.948,2.916-4.948,4.949v59.385c0,2.041,2.918,4.95,4.948,4.95h59.39c2.036,0,4.946-2.909,4.946-4.95v-59.385
	c0-2.033-2.91-4.949-4.946-4.949H111.733z M111.733,204.267"/>
<path fill="#59595A" d="M288.656,278.499h-59.39c-4.81,0-9.895-5.085-9.895-9.898v-59.385c0-4.813,5.085-9.898,9.895-9.898h59.39
	c4.81,0,9.896,5.086,9.896,9.898v59.385C298.552,273.414,293.466,278.499,288.656,278.499L288.656,278.499z M229.267,204.267
	c-2.029,0-4.948,2.916-4.948,4.949v59.385c0,2.041,2.919,4.95,4.948,4.95h59.39c2.036,0,4.948-2.909,4.948-4.95v-59.385
	c0-2.033-2.912-4.949-4.948-4.949H229.267z M229.267,204.267"/>
<path fill="#59595A" d="M409.281,278.499h-59.389c-4.81,0-9.896-5.085-9.896-9.898v-59.385c0-4.813,5.086-9.898,9.896-9.898h59.389
	c4.81,0,9.896,5.086,9.896,9.898v59.385C419.177,273.414,414.091,278.499,409.281,278.499L409.281,278.499z M349.893,204.267
	c-2.03,0-4.945,2.916-4.945,4.949v59.385c0,2.041,2.915,4.95,4.945,4.95h59.389c2.037,0,4.948-2.909,4.948-4.95v-59.385
	c0-2.033-2.911-4.949-4.948-4.949H349.893z M349.893,204.267"/>
<path fill="#59595A" d="M171.123,160.967h-59.39c-4.81,0-9.895-5.091-9.895-9.899V91.677c0-4.807,5.085-9.893,9.895-9.893h59.39
	c4.81,0,9.896,5.086,9.896,9.893v59.391C181.019,155.876,175.933,160.967,171.123,160.967L171.123,160.967z M111.733,86.733
	c-2.03,0-4.948,2.916-4.948,4.943v59.391c0,2.035,2.918,4.95,4.948,4.95h59.39c2.036,0,4.946-2.915,4.946-4.95V91.677
	c0-2.027-2.91-4.943-4.946-4.943H111.733z M111.733,86.733"/>
<path fill="#59595A" d="M288.656,160.967h-59.39c-4.81,0-9.895-5.091-9.895-9.899V91.677c0-4.807,5.085-9.893,9.895-9.893h59.39
	c4.81,0,9.896,5.086,9.896,9.893v59.391C298.552,155.876,293.466,160.967,288.656,160.967L288.656,160.967z M229.267,86.733
	c-2.029,0-4.948,2.916-4.948,4.943v59.391c0,2.035,2.919,4.95,4.948,4.95h59.39c2.036,0,4.948-2.915,4.948-4.95V91.677
	c0-2.027-2.912-4.943-4.948-4.943H229.267z M229.267,86.733"/>
<path fill="#59595A" d="M409.281,160.967h-59.389c-4.81,0-9.896-5.091-9.896-9.899V91.677c0-4.807,5.086-9.893,9.896-9.893h59.389
	c4.81,0,9.896,5.086,9.896,9.893v59.391C419.177,155.876,414.091,160.967,409.281,160.967L409.281,160.967z M349.893,86.733
	c-2.03,0-4.945,2.916-4.945,4.943v59.391c0,2.035,2.915,4.95,4.945,4.95h59.389c2.037,0,4.948-2.915,4.948-4.95V91.677
	c0-2.027-2.911-4.943-4.948-4.943H349.893z M349.893,86.733"/>
<g>
	<path fill="#38AAC4" d="M630.091,359.22h-22.548h-22.706V127.423h35.477h35.478l42.213,183.699h0.009l41.663-183.699h35.004h35.004
		V359.22h-22.547h-22.706V164.329h0.022L721.07,359.22h-23.809h-23.809l-43.321-199.145h-0.041V359.22z"/>
	<path fill="#38AAC4" d="M893.727,363.634c-15.875,0-28.647-4.543-38.315-13.641c-9.672-9.102-14.506-21.051-14.506-35.879
		c0-15.66,4.36-28.184,13.087-37.609c8.722-9.406,21.443-15.316,38.158-17.73l29.801-4.09c7.775-1.066,14.24-2.848,19.395-5.371
		c2.207-1.047,3.914-2.938,5.127-5.676c1.202-2.742,1.652-5.516,1.338-8.363c-0.631-4.828-3.104-8.613-7.411-11.352
		c-5.153-3.246-12.565-4.883-22.233-4.883c-8.622,0-15.348,2.105-20.182,6.305c-4.839,4.199-7.411,10.148-7.727,17.824h-43.361
		c0.946-20.074,7.775-35.105,20.498-45.105c12.718-9.984,31.378-14.977,55.976-14.977c21.336,0,38.181,4.508,50.538,13.5
		c12.348,8.992,18.524,21.281,18.524,36.852v95.957c0,7.676,0.631,13.063,1.892,16.164c1.262,3.117,3.785,5.551,7.568,7.352v0.164
		v6.145h-24.439h-24.439v-0.164c-2-6.938-3.312-13.715-3.942-20.344l-0.157-0.309C934.723,355.216,916.324,363.634,893.727,363.634z
		 M948.125,295.821v-19.695c-5.257,2.938-12.195,5.297-20.813,7.082l-16.715,3.156c-7.883,1.477-13.875,4.18-17.975,8.125
		s-6.149,8.902-6.149,14.902c0,6.832,1.838,12.199,5.519,16.074c3.676,3.895,8.83,5.84,15.453,5.84
		c14.506,0,26.065-5.102,34.688-15.301c1.681-1.98,3.099-4.938,4.257-8.828C947.545,303.302,948.125,299.517,948.125,295.821z"/>
	<path fill="#38AAC4" d="M1111.006,360.153c-7.568,0.633-16.871,0.957-27.908,0.957c-15.98,0-27.463-2.867-34.455-8.598
		c-6.992-5.727-10.483-15.117-10.483-28.145V219.364h-23.81v-31.699h23.81v-46.203h45.253v46.203h27.594v31.699h-27.594v97.434
		c0,4,1.181,6.633,3.551,7.895c2.359,1.262,7.275,1.891,14.74,1.891h9.303V360.153z"/>
	<path fill="#38AAC4" d="M1139.388,187.665h21.444h21.602v30.742c1.576-3.367,3.361-6.613,5.361-9.766
		c10.613-17.031,24.332-25.555,41.153-25.555l10.249,0.164v46.203c-3.996-0.434-8.515-0.629-13.561-0.629
		c-13.771,0-24.048,3.406-30.823,10.234c-6.784,6.848-10.173,17.191-10.173,31.066v89.094h-22.547h-22.706V187.665z"/>
	<path fill="#38AAC4" d="M1266.633,125.692h46.042v41.953h-46.042V125.692z M1267.105,187.665h22.549h22.705V359.22h-22.548h-22.706
		V187.665z"/>
	<path fill="#38AAC4" d="M1340.584,324.06l87.033-99.344l1.107-1.262h-81.676V205.63v-17.965h138.125v18.453v18.598l-85.7,97.453
		h89.642v18.434v18.617h-148.531v-17.5V324.06z"/>
	<path fill="#38AAC4" d="M1669.34,363.634c-21.867,0-39.496-8.523-52.902-25.555c-13.398-17.027-20.102-39.465-20.102-67.324
		c0-26.273,6.672-47.465,20.025-63.539c13.348-16.09,30.904-24.129,52.664-24.129c19.443,0,35.107,8.199,46.987,24.598l1.892,2.523
		v-82.785h22.549h22.705V359.22h-21.917h-21.917v-21.914l-0.789,1.098C1706.025,355.216,1689.627,363.634,1669.34,363.634z
		 M1681.481,222.192c-12.092,0-21.552,4.648-28.382,13.949c-6.834,9.316-10.249,22.219-10.249,38.723
		c0,16.184,3.392,28.816,10.168,37.914c6.784,9.102,16.214,13.645,28.306,13.645c12.189,0,21.705-4.793,28.539-14.344
		c6.83-9.57,10.249-22.871,10.249-39.898c0-15.66-3.419-27.914-10.249-36.742C1703.029,226.606,1693.568,222.192,1681.481,222.192z"
		/>
	<path fill="#38AAC4" d="M1871.482,363.634c-26.07,0-46.178-8.039-60.314-24.129c-14.137-16.074-21.205-38.996-21.205-68.75
		c0-27.426,7.199-48.906,21.602-64.402c14.398-15.516,34.374-23.266,59.918-23.266c26.174,0,46.33,7.914,60.467,23.734
		s21.21,38.348,21.21,67.559c0.207,3.367-0.054,6.793-0.788,10.254h-116.84c1.051,13.566,4.047,23.715,8.988,30.434
		c6.307,8.418,16.817,12.617,31.535,12.617c6.83,0,13.168-1.949,18.998-5.84c5.838-3.895,9.33-8.559,10.488-14.039h46.041
		c-3.893,17.461-12.906,31.121-27.039,40.996C1910.401,358.696,1892.715,363.634,1871.482,363.634z M1906.014,255.782
		c-1.055-10.309-3.785-18.344-8.199-24.129c-5.785-7.676-14.772-11.516-26.963-11.516c-11.668,0-20.553,4.469-26.647,13.406
		c-3.784,5.676-6.519,13.082-8.199,22.238H1906.014z"/>
	<path fill="#38AAC4" d="M2140.322,127.423h28.066h28.066l81.992,231.797h-25.67h-25.675l-15.678-47.141h-87.911l-15.174,47.141
		h-24.926h-25.084L2140.322,127.423z M2136.951,272.181h61.535l-30.792-93.184h0.05L2136.951,272.181z"/>
	<path fill="#38AAC4" d="M2289.326,187.665h24.9h25.057l36.5,128h0.18l36.834-128h23.805h23.805l-61.972,171.555h-23.489h-23.652
		L2289.326,187.665z"/>
	<path fill="#38AAC4" d="M2526.783,363.634c-15.875,0-28.643-4.543-38.32-13.641c-9.667-9.102-14.506-21.051-14.506-35.879
		c0-15.66,4.361-28.184,13.092-37.609c8.722-9.406,21.444-15.316,38.158-17.73l29.805-4.09c7.776-1.066,14.236-2.848,19.391-5.371
		c2.207-1.047,3.91-2.938,5.127-5.676c1.207-2.742,1.648-5.516,1.342-8.363c-0.631-4.828-3.108-8.613-7.415-11.352
		c-5.153-3.246-12.56-4.883-22.228-4.883c-8.623,0-15.354,2.105-20.184,6.305c-4.838,4.199-7.415,10.148-7.73,17.824h-43.356
		c0.937-20.074,7.776-35.105,20.489-45.105c12.723-9.984,31.382-14.977,55.979-14.977c21.336,0,38.185,4.508,50.538,13.5
		c12.344,8.992,18.524,21.281,18.524,36.852v95.957c0,7.676,0.631,13.063,1.892,16.164c1.262,3.117,3.785,5.551,7.569,7.352v0.164
		v6.145h-24.436h-24.444v-0.164c-2-6.938-3.307-13.715-3.938-20.344l-0.162-0.309
		C2567.779,355.216,2549.381,363.634,2526.783,363.634z M2581.178,295.821v-19.695c-5.253,2.938-12.191,5.297-20.813,7.082
		l-16.704,3.156c-7.894,1.477-13.877,4.18-17.984,8.125c-4.091,3.945-6.146,8.902-6.146,14.902c0,6.832,1.839,12.199,5.515,16.074
		c3.686,3.895,8.83,5.84,15.461,5.84c14.506,0,26.066-5.102,34.689-15.301c1.676-1.98,3.09-4.938,4.252-8.828
		C2580.602,303.302,2581.178,299.517,2581.178,295.821z"/>
	<path fill="#38AAC4" d="M2666.485,127.423h22.544h22.705V359.22h-22.543h-22.706V127.423z"/>
	<path fill="#38AAC4" d="M2756.208,125.692h46.042v41.953h-46.042V125.692z M2756.677,187.665h22.544h22.705V359.22h-22.543h-22.706
		V187.665z"/>
	<path fill="#38AAC4" d="M2885.818,363.634c-15.875,0-28.643-4.543-38.32-13.641c-9.667-9.102-14.506-21.051-14.506-35.879
		c0-15.66,4.361-28.184,13.092-37.609c8.722-9.406,21.444-15.316,38.158-17.73l29.805-4.09c7.776-1.066,14.236-2.848,19.391-5.371
		c2.207-1.047,3.91-2.938,5.127-5.676c1.207-2.742,1.648-5.516,1.342-8.363c-0.631-4.828-3.108-8.613-7.415-11.352
		c-5.153-3.246-12.56-4.883-22.228-4.883c-8.623,0-15.354,2.105-20.184,6.305c-4.838,4.199-7.415,10.148-7.73,17.824h-43.356
		c0.937-20.074,7.776-35.105,20.489-45.105c12.723-9.984,31.382-14.977,55.979-14.977c21.336,0,38.185,4.508,50.538,13.5
		c12.344,8.992,18.524,21.281,18.524,36.852v95.957c0,7.676,0.631,13.063,1.892,16.164c1.262,3.117,3.785,5.551,7.569,7.352v0.164
		v6.145h-24.436h-24.444v-0.164c-2-6.938-3.307-13.715-3.938-20.344l-0.162-0.309
		C2926.814,355.216,2908.416,363.634,2885.818,363.634z M2940.213,295.821v-19.695c-5.253,2.938-12.191,5.297-20.813,7.082
		l-16.704,3.156c-7.894,1.477-13.876,4.18-17.984,8.125c-4.091,3.945-6.146,8.902-6.146,14.902c0,6.832,1.839,12.199,5.515,16.074
		c3.686,3.895,8.83,5.84,15.461,5.84c14.506,0,26.066-5.102,34.689-15.301c1.676-1.98,3.09-4.938,4.252-8.828
		C2939.637,303.302,2940.213,299.517,2940.213,295.821z"/>
	<path fill="#38AAC4" d="M3172.476,295.681c-2.315,21.336-10.253,37.984-23.813,49.969s-31.221,17.984-52.979,17.984
		c-25.968,0-46.015-7.73-60.151-23.176c-14.146-15.461-21.211-37.48-21.211-66.078c0-27.949,7.335-50.168,21.994-66.621
		c14.669-16.434,34.455-24.672,59.368-24.672c22.075,0,40.149,6.094,54.241,18.293c14.082,12.199,21.597,28.219,22.552,48.094
		h-46.042c-0.424-8.523-3.451-15.406-9.072-20.648c-5.623-5.262-12.85-7.895-21.679-7.895c-11.353,0-20.003,4.543-25.94,13.641
		c-5.938,9.102-8.902,22.363-8.902,39.809c0,17.027,2.965,29.984,8.902,38.867c5.938,8.887,14.588,13.336,25.94,13.336
		c8.198,0,15.137-2.848,20.813-8.523c5.676-5.676,8.982-13.137,9.938-22.379H3172.476z M3099.782,359.22l-11.353,17.191l8.992-0.957
		c8.505,0,15.371,2.309,20.569,6.938c5.208,4.633,7.812,10.723,7.812,18.293c0,9.781-3.631,17.551-10.884,23.336
		c-7.253,5.781-17.029,8.668-29.328,8.668c-5.893,0-12.173-0.758-18.84-2.289c-6.677-1.516-12.749-3.605-18.219-6.219l7.101-15.137
		c5.252,1.676,10.091,2.957,14.506,3.855c4.415,0.902,7.884,1.352,10.406,1.352c4.199,0,7.776-1.223,10.723-3.641
		c2.938-2.414,4.415-5.406,4.415-8.973c0-3.477-1.181-6.289-3.55-8.453c-2.361-2.145-5.389-3.223-9.064-3.223
		c-1.686,0-3.658,0.234-5.91,0.703c-2.262,0.484-4.605,1.133-7.02,1.98l-6.775-6.633l17.66-26.793H3099.782z"/>
	<path fill="#38AAC4" d="M3244.998,363.634c-15.876,0-28.643-4.543-38.32-13.641c-9.668-9.102-14.506-21.051-14.506-35.879
		c0-15.66,4.361-28.184,13.092-37.609c8.722-9.406,21.443-15.316,38.158-17.73l29.805-4.09c7.775-1.066,14.236-2.848,19.391-5.371
		c2.207-1.047,3.91-2.938,5.126-5.676c1.208-2.742,1.649-5.516,1.343-8.363c-0.631-4.828-3.109-8.613-7.416-11.352
		c-5.153-3.246-12.56-4.883-22.228-4.883c-8.622,0-15.353,2.105-20.183,6.305c-4.838,4.199-7.415,10.148-7.73,17.824h-43.357
		c0.938-20.074,7.776-35.105,20.49-45.105c12.722-9.984,31.382-14.977,55.979-14.977c21.336,0,38.186,4.508,50.539,13.5
		c12.344,8.992,18.524,21.281,18.524,36.852v95.957c0,7.676,0.63,13.063,1.892,16.164c1.262,3.117,3.785,5.551,7.568,7.352v0.164
		v6.145h-24.436h-24.443v-0.164c-2.001-6.938-3.307-13.715-3.938-20.344l-0.162-0.309
		C3285.994,355.216,3267.596,363.634,3244.998,363.634z M3213.31,161.97c1.784-12.199,6.172-21.879,13.163-29.012
		c6.983-7.156,15.633-10.723,25.941-10.723c2.197,0,5.721,0.684,10.559,2.035c4.83,1.371,9.668,3.063,14.507,5.047
		c3.153,1.367,6.649,2.504,10.487,3.387c3.83,0.902,6.911,1.352,9.227,1.352c2.938,0,5.775-1.297,8.506-3.875
		c2.739-2.559,4.631-5.75,5.676-9.531h20.184c-1.469,12.199-5.416,21.855-11.822,29.012c-6.414,7.152-14.299,10.723-23.65,10.723
		c-2.208,0-6.101-0.688-11.668-2.055c-5.578-1.352-11.254-3.047-17.029-5.047c-3.893-1.352-7.73-2.484-11.516-3.387
		c-3.784-0.883-6.514-1.332-8.199-1.332c-3.153,0-6.091,1.277-8.83,3.855c-2.729,2.574-4.514,5.766-5.352,9.551H3213.31z
		 M3299.393,295.821v-19.695c-5.254,2.938-12.191,5.297-20.814,7.082l-16.704,3.156c-7.894,1.477-13.876,4.18-17.984,8.125
		c-4.091,3.945-6.145,8.902-6.145,14.902c0,6.832,1.838,12.199,5.515,16.074c3.685,3.895,8.829,5.84,15.461,5.84
		c14.506,0,26.066-5.102,34.688-15.301c1.677-1.98,3.091-4.938,4.253-8.828C3298.815,303.302,3299.393,299.517,3299.393,295.821z"/>
	<path fill="#38AAC4" d="M3397.232,339.505c-15.821-16.074-23.732-37.789-23.732-65.125c0-27.949,7.911-50.168,23.732-66.621
		c15.813-16.434,37.131-24.672,63.937-24.672c27.013,0,48.411,8.238,64.179,24.672c15.768,16.453,23.643,38.672,23.643,66.621
		c0,27.336-7.875,49.051-23.643,65.125c-15.768,16.09-37.166,24.129-64.179,24.129
		C3434.363,363.634,3413.046,355.595,3397.232,339.505z M3491.92,312.544c7.037-8.828,10.561-21.711,10.561-38.633
		c0-17.336-3.523-30.508-10.561-39.5c-7.045-8.992-17.299-13.48-30.751-13.48c-13.462,0-23.679,4.488-30.671,13.48
		s-10.479,22.164-10.479,39.5c0,16.922,3.486,29.805,10.479,38.633c6.992,8.832,17.209,13.246,30.671,13.246
		C3474.621,325.79,3484.875,321.376,3491.92,312.544z"/>
</g>
</svg>
