<?xml version="1.0" encoding="utf-8"?>
<!-- Generator: Adobe Illustrator 16.0.0, SVG Export Plug-In . SVG Version: 6.00 Build 0)  -->
<!DOCTYPE svg PUBLIC "-//W3C//DTD SVG 1.1//EN" "http://www.w3.org/Graphics/SVG/1.1/DTD/svg11.dtd">
<svg version="1.1" id="Layer_1" xmlns="http://www.w3.org/2000/svg" xmlns:xlink="http://www.w3.org/1999/xlink" x="0px" y="0px"
	 width="484px" height="484px" viewBox="0 0 484 484" enable-background="new 0 0 484 484" xml:space="preserve">
<path fill="#38AAC4" d="M478.804,455.712h-34.19v-23.218c0-1.335-1.078-2.409-2.412-2.409c-1.313,0-2.394,1.074-2.394,2.409v23.218
	h-43.215v-23.218c0-1.335-1.078-2.409-2.416-2.409c-1.313,0-2.391,1.074-2.391,2.409v23.218h-43.217v-23.218
	c0-1.335-1.078-2.409-2.416-2.409c-1.313,0-2.391,1.074-2.391,2.409v23.218h-43.215v-23.218c0-1.335-1.08-2.409-2.416-2.409
	c-1.313,0-2.392,1.074-2.392,2.409v23.218h-43.219v-23.218c0-1.335-1.071-2.409-2.412-2.409c-1.315,0-2.391,1.074-2.391,2.409
	v23.218h-43.22v-23.218c0-1.335-1.075-2.409-2.413-2.409c-1.316,0-2.391,1.074-2.391,2.409v23.218h-43.221v-23.218
	c0-1.335-1.071-2.409-2.41-2.409c-1.315,0-2.39,1.074-2.39,2.409v23.218h-43.221v-23.218c0-1.335-1.074-2.409-2.412-2.409
	c-1.315,0-2.391,1.074-2.391,2.409v23.218H16.394v-54.423h19.299c1.315,0,2.394-1.083,2.394-2.416c0-1.315-1.078-2.391-2.394-2.391
	H16.394v-43.219h19.299c1.315,0,2.394-1.076,2.394-2.409c0-1.316-1.078-2.398-2.394-2.398H16.394v-43.215h19.299
	c1.315,0,2.394-1.076,2.394-2.417c0-1.308-1.078-2.39-2.394-2.39H16.394v-43.217h19.299c1.315,0,2.394-1.074,2.394-2.416
	c0-1.308-1.078-2.39-2.394-2.39H16.394v-43.216h19.299c1.315,0,2.394-1.082,2.394-2.416c0-1.309-1.078-2.391-2.394-2.391H16.394
	v-43.216h19.299c1.315,0,2.394-1.082,2.394-2.416c0-1.31-1.078-2.39-2.394-2.39H16.394v-43.217h19.299
	c1.315,0,2.394-1.082,2.394-2.416c0-1.309-1.078-2.391-2.394-2.391H16.394V65.13h19.299c1.315,0,2.394-1.082,2.394-2.417
	c0-1.308-1.078-2.391-2.394-2.391H16.394V21.091c0-3.959-3.212-7.197-7.197-7.197C5.236,13.894,2,17.132,2,21.091v441.818
	c0,3.965,3.236,7.197,7.196,7.197h469.607c3.986,0,7.196-3.232,7.196-7.197C486,458.925,482.79,455.712,478.804,455.712
	L478.804,455.712z M478.804,455.712"/>
<path fill="#59595A" d="M370.904,142.616l-19.128-21.471l3.699-3.291l15.513,17.416l32.788-35.135l3.622,3.375L370.904,142.616z
	 M370.904,142.616"/>
<path fill="#59595A" d="M171.123,399.241h-59.39c-4.81,0-9.895-5.084-9.895-9.892v-59.395c0-4.807,5.085-9.893,9.895-9.893h59.39
	c4.81,0,9.896,5.086,9.896,9.893v59.395C181.019,394.157,175.933,399.241,171.123,399.241L171.123,399.241z M111.733,325.013
	c-2.03,0-4.948,2.915-4.948,4.942v59.395c0,2.034,2.918,4.942,4.948,4.942h59.39c2.036,0,4.946-2.908,4.946-4.942v-59.395
	c0-2.027-2.91-4.942-4.946-4.942H111.733z M111.733,325.013"/>
<path fill="#59595A" d="M288.656,399.241h-59.39c-4.81,0-9.895-5.084-9.895-9.892v-59.395c0-4.807,5.085-9.893,9.895-9.893h59.39
	c4.81,0,9.896,5.086,9.896,9.893v59.395C298.552,394.157,293.466,399.241,288.656,399.241L288.656,399.241z M229.267,325.013
	c-2.029,0-4.948,2.915-4.948,4.942v59.395c0,2.034,2.919,4.942,4.948,4.942h59.39c2.036,0,4.948-2.908,4.948-4.942v-59.395
	c0-2.027-2.912-4.942-4.948-4.942H229.267z M229.267,325.013"/>
<path fill="#59595A" d="M409.281,399.241h-59.389c-4.81,0-9.896-5.084-9.896-9.892v-59.395c0-4.807,5.086-9.893,9.896-9.893h59.389
	c4.81,0,9.896,5.086,9.896,9.893v59.395C419.177,394.157,414.091,399.241,409.281,399.241L409.281,399.241z M349.893,325.013
	c-2.03,0-4.945,2.915-4.945,4.942v59.395c0,2.034,2.915,4.942,4.945,4.942h59.389c2.037,0,4.948-2.908,4.948-4.942v-59.395
	c0-2.027-2.911-4.942-4.948-4.942H349.893z M349.893,325.013"/>
<path fill="#59595A" d="M171.123,278.499h-59.39c-4.81,0-9.895-5.085-9.895-9.898v-59.385c0-4.813,5.085-9.898,9.895-9.898h59.39
	c4.81,0,9.896,5.086,9.896,9.898v59.385C181.019,273.414,175.933,278.499,171.123,278.499L171.123,278.499z M111.733,204.267
	c-2.03,0-4.948,2.916-4.948,4.949v59.385c0,2.041,2.918,4.95,4.948,4.95h59.39c2.036,0,4.946-2.909,4.946-4.95v-59.385
	c0-2.033-2.91-4.949-4.946-4.949H111.733z M111.733,204.267"/>
<path fill="#59595A" d="M288.656,278.499h-59.39c-4.81,0-9.895-5.085-9.895-9.898v-59.385c0-4.813,5.085-9.898,9.895-9.898h59.39
	c4.81,0,9.896,5.086,9.896,9.898v59.385C298.552,273.414,293.466,278.499,288.656,278.499L288.656,278.499z M229.267,204.267
	c-2.029,0-4.948,2.916-4.948,4.949v59.385c0,2.041,2.919,4.95,4.948,4.95h59.39c2.036,0,4.948-2.909,4.948-4.95v-59.385
	c0-2.033-2.912-4.949-4.948-4.949H229.267z M229.267,204.267"/>
<path fill="#59595A" d="M409.281,278.499h-59.389c-4.81,0-9.896-5.085-9.896-9.898v-59.385c0-4.813,5.086-9.898,9.896-9.898h59.389
	c4.81,0,9.896,5.086,9.896,9.898v59.385C419.177,273.414,414.091,278.499,409.281,278.499L409.281,278.499z M349.893,204.267
	c-2.03,0-4.945,2.916-4.945,4.949v59.385c0,2.041,2.915,4.95,4.945,4.95h59.389c2.037,0,4.948-2.909,4.948-4.95v-59.385
	c0-2.033-2.911-4.949-4.948-4.949H349.893z M349.893,204.267"/>
<path fill="#59595A" d="M171.123,160.967h-59.39c-4.81,0-9.895-5.091-9.895-9.899V91.677c0-4.807,5.085-9.893,9.895-9.893h59.39
	c4.81,0,9.896,5.086,9.896,9.893v59.391C181.019,155.876,175.933,160.967,171.123,160.967L171.123,160.967z M111.733,86.733
	c-2.03,0-4.948,2.916-4.948,4.943v59.391c0,2.035,2.918,4.95,4.948,4.95h59.39c2.036,0,4.946-2.915,4.946-4.95V91.677
	c0-2.027-2.91-4.943-4.946-4.943H111.733z M111.733,86.733"/>
<path fill="#59595A" d="M288.656,160.967h-59.39c-4.81,0-9.895-5.091-9.895-9.899V91.677c0-4.807,5.085-9.893,9.895-9.893h59.39
	c4.81,0,9.896,5.086,9.896,9.893v59.391C298.552,155.876,293.466,160.967,288.656,160.967L288.656,160.967z M229.267,86.733
	c-2.029,0-4.948,2.916-4.948,4.943v59.391c0,2.035,2.919,4.95,4.948,4.95h59.39c2.036,0,4.948-2.915,4.948-4.95V91.677
	c0-2.027-2.912-4.943-4.948-4.943H229.267z M229.267,86.733"/>
<path fill="#59595A" d="M409.281,160.967h-59.389c-4.81,0-9.896-5.091-9.896-9.899V91.677c0-4.807,5.086-9.893,9.896-9.893h59.389
	c4.81,0,9.896,5.086,9.896,9.893v59.391C419.177,155.876,414.091,160.967,409.281,160.967L409.281,160.967z M349.893,86.733
	c-2.03,0-4.945,2.916-4.945,4.943v59.391c0,2.035,2.915,4.95,4.945,4.95h59.389c2.037,0,4.948-2.915,4.948-4.95V91.677
	c0-2.027-2.911-4.943-4.948-4.943H349.893z M349.893,86.733"/>
</svg>
