<?xml version="1.0" encoding="utf-8"?>
<!-- Generator: Adobe Illustrator 16.0.0, SVG Export Plug-In . SVG Version: 6.00 Build 0)  -->
<!DOCTYPE svg PUBLIC "-//W3C//DTD SVG 1.1//EN" "http://www.w3.org/Graphics/SVG/1.1/DTD/svg11.dtd">
<svg version="1.1" id="Layer_1" xmlns="http://www.w3.org/2000/svg" xmlns:xlink="http://www.w3.org/1999/xlink" x="0px" y="0px"
	 width="484px" height="484px" viewBox="0 0 484 484" enable-background="new 0 0 484 484" xml:space="preserve">
<g>
	<defs>
		<rect id="SVGID_5_" x="4.401" y="0" width="475.197" height="484.004"/>
	</defs>
	<clipPath id="SVGID_2_">
		<use xlink:href="#SVGID_5_"  overflow="visible"/>
	</clipPath>
	<path clip-path="url(#SVGID_2_)" fill="#59595A" d="M451.74,225.867V13.21c0-2.439-1.216-4.73-3.223-6.09
		c-2.003-1.359-4.586-1.648-6.837-0.717l-73.336,29.33c-2.791,1.111-4.616,3.791-4.616,6.799s1.825,5.693,4.616,6.799l68.714,27.502
		v149.033h-7.339c-1.933,0-3.795,0.789-5.155,2.15l-130.481,130.48l-27.821-27.816c-2.868-2.873-7.521-2.873-10.384,0
		l-86.475,86.469l-53.496-53.461c-2.861-2.859-7.48-2.859-10.348,0l-99.011,99.01c-1.356,1.359-2.147,3.223-2.147,5.152v7.342H19.09
		v-4.301l91.662-91.668l53.463,53.5c2.861,2.861,7.514,2.861,10.374,0l86.48-86.473l27.822,27.781c2.863,2.875,7.482,2.875,10.347,0
		l133.522-133.475h40.963v-14.691H451.74z M390.797,42.533l46.262-18.518V61.05L390.797,42.533z M390.797,42.533"/>
	<path clip-path="url(#SVGID_2_)" fill="#26214A" d="M17.043,326.234c17.793-18.799,54.72-6.98,76.807,0.066
		c9.128,2.9,17.9,4.381,26.244,4.381c8.451,0,16.326-1.693,23.635-4.662v46.514c0,4.045,3.296,7.342,7.339,7.342h36.669
		c4.039,0,7.339-3.297,7.339-7.342v-71.246c1.614-2.445,4.622-4.309,9.168-6.566c1.504-0.703,3.008-1.393,4.512-2.037
		c4.188-1.902,8.525-3.832,12.604-6.84c4.794-3.543,8.341-9.666,9.731-15.971h15.297v44.014c0,4.041,3.293,7.297,7.34,7.297h36.668
		c4.046,0,7.339-3.256,7.339-7.297v-58.697c0-20.191-16.437-36.666-36.665-36.666h-44.007v-21.98h36.665
		c20.231,0,36.668-16.467,36.668-36.666V93.882c0-4.086-3.296-7.342-7.343-7.342h-29.325c-4.047,0-7.34,3.256-7.34,7.342v58.652
		H210.54c3.762-6.484,5.949-14.002,5.949-21.988c0-24.277-19.736-44.006-44.007-44.006c-24.245,0-43.971,19.729-43.971,44.006
		c0,7.336,1.825,14.25,5.011,20.34c-24.777,7.303-47.086,23.736-64.846,48.049c-7.915,10.818-13.75,23.1-19.404,34.99
		c-1.514,3.189-3.015,6.371-4.555,9.453c-3.438,6.98-6.656,14.604-9.808,21.992c-7.835,18.463-15.972,37.551-28.499,50.773v0.035
		c-2.797,2.926-2.649,7.549,0.281,10.342C9.627,329.308,14.286,329.175,17.043,326.234L17.043,326.234z M143.729,231.312
		l-8.518-8.527l8.518-8.563V231.312z M212.62,274.027c-2.793,2.076-6.229,3.617-9.841,5.225c-1.688,0.758-3.34,1.508-4.978,2.291
		c-0.901,0.436-1.799,0.979-2.727,1.434v-13.104h20.59C214.841,271.587,213.803,273.169,212.62,274.027L212.62,274.027z
		 M253.728,167.218c4.046,0,7.342-3.303,7.342-7.342v-58.691h14.682v58.691c0,12.135-9.885,21.982-22.023,21.982h-44.011
		c-4.043,0-7.296,3.295-7.296,7.342v36.666c0,4.045,3.253,7.342,7.296,7.342h51.353c12.139,0,21.983,9.848,21.983,21.98v51.35
		h-21.983v-44.008c0-4.033-3.296-7.342-7.342-7.342h-65.991c-4.043,0-7.339,3.309-7.339,7.342v102.658H158.41V196.542
		c0-2.967-1.795-5.654-4.545-6.771c-2.727-1.146-5.876-0.529-7.982,1.574l-26.258,26.254c-1.354,1.354-2.144,3.215-2.144,5.186
		c0,1.936,0.79,3.799,2.144,5.164l20.489,20.473l-11.64,11.637l-21.735-21.732c-8.562-8.555-8.562-22.521,0-31.111l40.645-40.611
		c7.124,4.979,15.783,7.912,25.099,7.912c0.211,0,0.392,0,0.565,0v44.008h14.688v-46.76c3.192-1.18,6.233-2.721,9.017-4.545H253.728
		z M172.482,101.185c16.188,0,29.325,13.178,29.325,29.361c0,16.146-13.137,29.33-29.325,29.33
		c-16.189,0-29.326-13.184-29.326-29.33C143.156,114.363,156.33,101.185,172.482,101.185L172.482,101.185z M48.409,271.126
		c3.219-7.557,6.227-14.645,9.489-21.271c1.541-3.148,3.081-6.371,4.619-9.633c5.372-11.275,10.92-22.959,17.978-32.611
		c8.983-12.326,22.808-27.105,41.779-36.672l-25.883,25.926c-14.319,14.289-14.319,37.563,0,51.846l26.892,26.938
		c2.863,2.854,7.52,2.854,10.387,0l10.059-10.076v44.129c-15.392,9.051-33.01,6.578-45.438,2.646
		c-17.264-5.521-42.437-13.541-64.306-10.104C39.418,292.25,43.931,281.583,48.409,271.126L48.409,271.126z M48.409,271.126"/>
</g>
</svg>
