<?xml version="1.0" encoding="utf-8"?>
<!-- Generator: Adobe Illustrator 16.0.0, SVG Export Plug-In . SVG Version: 6.00 Build 0)  -->
<!DOCTYPE svg PUBLIC "-//W3C//DTD SVG 1.1//EN" "http://www.w3.org/Graphics/SVG/1.1/DTD/svg11.dtd">
<svg version="1.1" id="Layer_1" xmlns="http://www.w3.org/2000/svg" xmlns:xlink="http://www.w3.org/1999/xlink" x="0px" y="0px"
	 width="2071.35px" height="484px" viewBox="0 0 2071.35 484" enable-background="new 0 0 2071.35 484" xml:space="preserve">
<g>
	<g>
		<path fill="#26214A" d="M724.481,196.098c-0.837-10.957-5.64-19.66-14.405-26.07c-8.769-6.426-20.202-9.648-34.293-9.648
			c-12.216,0-21.769,2.703-28.658,8.074c-6.889,5.391-10.331,12.875-10.331,22.488c0,6.895,3.604,12.211,10.811,15.973
			c7.1,3.758,22.189,8.199,45.274,13.32c33.524,7.52,55.923,16.188,67.204,26c11.294,9.723,16.943,25.336,16.943,46.859
			c0,21.609-8.51,38.766-25.533,51.461c-17.019,12.695-40.046,19.031-69.075,19.031c-29.137,0-51.903-6.73-68.296-20.215
			c-16.397-13.465-25.167-32.625-26.317-57.492h46.375c0.523,12.227,4.96,21.629,13.313,28.199c8.353,6.59,19.996,9.867,34.93,9.867
			c15.345,0,27.328-2.473,35.94-7.434c8.617-4.957,12.924-11.832,12.924-20.609c0-8.664-3.107-15.039-9.315-19.102
			c-6.057-4.086-18.998-8.309-38.828-12.695c-36.537-8.148-60.96-16.977-73.274-26.484c-12.229-9.398-18.344-24.066-18.344-44.027
			c0-22.348,8.089-40.074,24.275-53.18c16.187-13.109,38.063-19.66,65.624-19.66c25.793,0,46.778,6.785,62.965,20.355
			c16.182,13.59,25.162,31.91,26.939,54.988H724.481z"/>
		<path fill="#26214A" d="M855.362,293.559c0,10.438,2.243,18.176,6.737,23.188c4.489,5.016,11.383,7.52,20.681,7.52
			c11.696,0,20.681-3.543,26.948-10.652c6.267-7.109,9.4-17.332,9.4-30.707v-96.047h22.404h22.561V357.32h-21.308h-21.464v-25.535
			c-1.567,3.137-3.447,6.055-5.641,8.777c-11.074,14.09-27.104,21.145-48.099,21.145c-17.968,0-31.988-5.301-42.069-15.898
			c-10.081-10.602-15.117-25.301-15.117-44.102V186.859h22.404h22.562V293.559z"/>
		<path fill="#26214A" d="M1153.355,294.184c-2.301,21.203-10.184,37.766-23.658,49.672c-13.474,11.906-31.021,17.852-52.642,17.852
			c-25.802,0-45.727-7.68-59.769-23.027c-14.052-15.363-21.075-37.227-21.075-65.641c0-27.789,7.287-49.848,21.854-66.195
			c14.575-16.348,34.235-24.531,58.99-24.531c21.934,0,39.897,6.07,53.896,18.172c13.993,12.125,21.464,28.059,22.404,47.793
			h-45.749c-0.421-8.453-3.424-15.293-9.011-20.523c-5.587-5.227-12.767-7.84-21.54-7.84c-11.281,0-19.875,4.527-25.775,13.555
			c-5.899,9.043-8.85,22.238-8.85,39.57c0,16.922,2.95,29.793,8.85,38.621c5.9,8.828,14.494,13.234,25.775,13.234
			c8.146,0,15.04-2.832,20.681-8.469c5.641-5.641,8.931-13.055,9.87-22.242H1153.355z"/>
		<path fill="#26214A" d="M1252.06,361.707c-25.904,0-45.883-7.984-59.93-23.977c-14.047-15.969-21.07-38.746-21.07-68.309
			c0-27.254,7.153-48.578,21.464-63.996c14.307-15.398,34.155-23.113,59.536-23.113c26.008,0,46.035,7.879,60.082,23.582
			c14.047,15.719,21.075,38.102,21.075,67.145c0.206,3.348-0.054,6.73-0.783,10.172h-116.096c1.043,13.48,4.021,23.563,8.931,30.242
			c6.267,8.359,16.71,12.531,31.335,12.531c6.786,0,13.084-1.934,18.877-5.801c5.801-3.848,9.271-8.504,10.421-13.93h45.748
			c-3.867,17.332-12.824,30.922-26.867,40.734C1290.731,356.801,1273.157,361.707,1252.06,361.707z M1286.371,254.543
			c-1.047-10.227-3.76-18.227-8.146-23.977c-5.748-7.609-14.679-11.422-26.792-11.422c-11.594,0-20.421,4.438-26.478,13.301
			c-3.76,5.641-6.478,13.02-8.146,22.098H1286.371z"/>
		<path fill="#26214A" d="M1459.473,237.945c0-6.59-2.722-11.855-8.155-15.828c-5.435-3.977-12.646-5.965-21.635-5.965
			c-8.675,0-15.443,1.504-20.305,4.477s-7.288,7.125-7.288,12.445c0,3.758,2.767,7,8.304,9.723
			c5.431,2.613,15.095,5.48,28.989,8.613c27.584,6.176,46.026,12.91,55.324,20.215c9.319,7.305,13.984,18.801,13.984,34.469
			c0,16.703-6.769,30.152-20.296,40.34c-13.528,10.188-31.366,15.273-53.511,15.273c-26.223,0-46.412-5.012-60.566-15.039
			s-21.701-24.641-22.642-43.871h45.749c0.313,7.844,3.787,13.984,10.421,18.406c6.634,4.441,15.646,6.664,27.033,6.664
			c8.984,0,16.012-1.543,21.079-4.621s7.601-7.379,7.601-12.93c0-3.848-2.452-7.141-7.358-9.863
			c-4.911-2.613-13.532-5.266-25.855-7.988c-28.833-6.48-48.108-13.32-57.822-20.535c-9.704-7.09-14.553-18.105-14.553-33.055
			c0-16.922,6.29-30.566,18.873-40.969c12.583-10.383,29.163-15.594,49.737-15.594c23.183,0,41.876,5.102,56.08,15.289
			c14.203,10.172,21.308,23.637,21.308,40.344H1459.473z"/>
		<path fill="#26214A" d="M1637.924,237.945c0-6.59-2.722-11.855-8.155-15.828c-5.435-3.977-12.646-5.965-21.635-5.965
			c-8.675,0-15.443,1.504-20.305,4.477s-7.288,7.125-7.288,12.445c0,3.758,2.767,7,8.304,9.723
			c5.431,2.613,15.095,5.48,28.989,8.613c27.584,6.176,46.026,12.91,55.324,20.215c9.319,7.305,13.984,18.801,13.984,34.469
			c0,16.703-6.769,30.152-20.297,40.34c-13.527,10.188-31.365,15.273-53.511,15.273c-26.223,0-46.411-5.012-60.565-15.039
			s-21.701-24.641-22.642-43.871h45.749c0.313,7.844,3.787,13.984,10.421,18.406c6.634,4.441,15.646,6.664,27.033,6.664
			c8.984,0,16.012-1.543,21.079-4.621s7.601-7.379,7.601-12.93c0-3.848-2.452-7.141-7.358-9.863
			c-4.911-2.613-13.532-5.266-25.855-7.988c-28.833-6.48-48.108-13.32-57.822-20.535c-9.704-7.09-14.553-18.105-14.553-33.055
			c0-16.922,6.29-30.566,18.873-40.969c12.583-10.383,29.163-15.594,49.737-15.594c23.183,0,41.876,5.102,56.08,15.289
			c14.203,10.172,21.308,23.637,21.308,40.344H1637.924z"/>
		<path fill="#26214A" d="M1760.778,361.707c-15.774,0-28.465-4.512-38.071-13.555c-9.61-9.023-14.414-20.914-14.414-35.633
			c0-15.559,4.333-28.02,13.004-37.367c8.666-9.348,21.308-15.219,37.915-17.637l29.611-4.066
			c7.727-1.039,14.149-2.828,19.271-5.336c2.193-1.039,3.891-2.918,5.095-5.641c1.195-2.703,1.643-5.477,1.329-8.289
			c-0.627-4.797-3.084-8.559-7.363-11.281c-5.121-3.238-12.485-4.871-22.091-4.871c-8.568,0-15.251,2.098-20.055,6.27
			c-4.808,4.188-7.363,10.098-7.677,17.707h-43.085c0.939-19.945,7.726-34.879,20.367-44.801
			c12.637-9.918,31.178-14.895,55.619-14.895c21.2,0,37.938,4.477,50.216,13.41c12.27,8.953,18.407,21.145,18.407,36.617v95.348
			c0,7.645,0.627,13,1.88,16.078c1.254,3.078,3.76,5.516,7.521,7.289v0.16v6.105h-24.284h-24.285v-0.16
			c-1.987-6.895-3.29-13.629-3.916-20.199l-0.157-0.32C1801.514,353.363,1783.232,361.707,1760.778,361.707z M1729.287,161.324
			c1.772-12.121,6.133-21.719,13.085-28.824c6.942-7.109,15.533-10.656,25.771-10.656c2.193,0,5.689,0.68,10.497,2.043
			c4.803,1.359,9.606,3.023,14.414,5.012c3.133,1.363,6.603,2.473,10.421,3.367c3.81,0.895,6.862,1.324,9.163,1.324
			c2.923,0,5.743-1.27,8.46-3.832c2.713-2.559,4.593-5.73,5.641-9.488h20.054c-1.463,12.121-5.38,21.738-11.75,28.828
			c-6.374,7.109-14.208,10.652-23.501,10.652c-2.193,0-6.062-0.66-11.594-2.023c-5.537-1.359-11.178-3.027-16.921-5.012
			c-3.867-1.363-7.677-2.488-11.438-3.367c-3.76-0.895-6.478-1.344-8.146-1.344c-3.134,0-6.062,1.289-8.774,3.852
			c-2.717,2.559-4.494,5.711-5.326,9.469H1729.287z M1814.831,294.348v-19.59c-5.224,2.918-12.117,5.281-20.681,7.055l-16.607,3.133
			c-7.834,1.469-13.787,4.156-17.861,8.059c-4.073,3.922-6.11,8.863-6.11,14.809c0,6.805,1.827,12.121,5.484,15.988
			c3.652,3.867,8.773,5.785,15.354,5.785c14.414,0,25.9-5.051,34.469-15.184c1.669-1.988,3.079-4.906,4.229-8.777
			C1814.254,301.758,1814.831,298,1814.831,294.348z"/>
		<path fill="#26214A" d="M1912.049,337.73c-15.726-15.969-23.581-37.527-23.581-64.691c0-27.789,7.855-49.848,23.581-66.195
			c15.717-16.348,36.895-24.531,63.529-24.531c26.841,0,48.099,8.184,63.766,24.531c15.668,16.348,23.502,38.406,23.502,66.195
			c0,27.164-7.834,48.723-23.502,64.691c-15.667,15.992-36.925,23.977-63.766,23.977
			C1948.943,361.707,1927.766,353.723,1912.049,337.73z M2006.13,310.945c6.996-8.773,10.497-21.559,10.497-38.391
			c0-17.223-3.501-30.313-10.497-39.23c-7.002-8.934-17.186-13.41-30.552-13.41c-13.371,0-23.528,4.477-30.476,13.41
			c-6.947,8.918-10.416,22.008-10.416,39.23c0,16.832,3.469,29.617,10.416,38.391s17.104,13.16,30.476,13.16
			C1988.944,324.105,1999.128,319.719,2006.13,310.945z"/>
	</g>
</g>
<g>
	<defs>
		<rect id="SVGID_7_" x="4.402" width="475.197" height="484.004"/>
	</defs>
	<clipPath id="SVGID_2_">
		<use xlink:href="#SVGID_7_"  overflow="visible"/>
	</clipPath>
	<path clip-path="url(#SVGID_2_)" fill="#59595A" d="M451.739,225.867V13.211c0-2.439-1.215-4.73-3.223-6.09
		c-2.002-1.359-4.586-1.648-6.836-0.717l-73.336,29.33c-2.791,1.111-4.617,3.791-4.617,6.799s1.826,5.693,4.617,6.799l68.713,27.502
		v149.033h-7.338c-1.934,0-3.795,0.789-5.156,2.15l-130.48,130.48l-27.822-27.816c-2.867-2.873-7.52-2.873-10.383,0l-86.475,86.469
		l-53.496-53.461c-2.861-2.859-7.48-2.859-10.348,0l-99.012,99.01c-1.355,1.359-2.146,3.223-2.146,5.152v7.342h14.688v-4.301
		l91.662-91.668l53.462,53.5c2.861,2.861,7.514,2.861,10.375,0l86.48-86.473l27.822,27.781c2.863,2.875,7.482,2.875,10.346,0
		l133.523-133.475h40.963v-14.691H451.739z M390.796,42.533l46.262-18.518v37.035L390.796,42.533z M390.796,42.533"/>
	<path clip-path="url(#SVGID_2_)" fill="#26214A" d="M17.042,326.234c17.793-18.799,54.721-6.98,76.807,0.066
		c9.129,2.9,17.9,4.381,26.244,4.381c8.451,0,16.326-1.693,23.635-4.662v46.514c0,4.045,3.296,7.342,7.339,7.342h36.668
		c4.039,0,7.34-3.297,7.34-7.342v-71.246c1.613-2.445,4.621-4.309,9.168-6.566c1.504-0.703,3.008-1.393,4.512-2.037
		c4.188-1.902,8.525-3.832,12.604-6.84c4.795-3.543,8.342-9.666,9.732-15.971h15.297v44.014c0,4.041,3.293,7.297,7.34,7.297h36.668
		c4.045,0,7.338-3.256,7.338-7.297v-58.697c0-20.191-16.436-36.666-36.664-36.666h-44.008v-21.98h36.666
		c20.23,0,36.668-16.467,36.668-36.666V93.883c0-4.086-3.297-7.342-7.344-7.342h-29.324c-4.047,0-7.34,3.256-7.34,7.342v58.652
		H210.54c3.762-6.484,5.949-14.002,5.949-21.988c0-24.277-19.736-44.006-44.008-44.006c-24.244,0-43.97,19.729-43.97,44.006
		c0,7.336,1.826,14.25,5.012,20.34c-24.777,7.303-47.086,23.736-64.846,48.049c-7.916,10.818-13.75,23.1-19.404,34.99
		c-1.514,3.189-3.016,6.371-4.555,9.453c-3.438,6.98-6.656,14.604-9.809,21.992c-7.834,18.463-15.971,37.551-28.498,50.773v0.035
		c-2.797,2.926-2.65,7.549,0.281,10.342C9.626,329.309,14.287,329.176,17.042,326.234L17.042,326.234z M143.728,231.313
		l-8.518-8.527l8.518-8.563V231.313z M212.62,274.027c-2.793,2.076-6.23,3.617-9.842,5.225c-1.688,0.758-3.34,1.508-4.977,2.291
		c-0.902,0.436-1.799,0.979-2.727,1.434v-13.104h20.59C214.841,271.588,213.802,273.17,212.62,274.027L212.62,274.027z
		 M253.728,167.219c4.045,0,7.342-3.303,7.342-7.342v-58.691h14.682v58.691c0,12.135-9.885,21.982-22.023,21.982h-44.012
		c-4.043,0-7.295,3.295-7.295,7.342v36.666c0,4.045,3.252,7.342,7.295,7.342h51.354c12.139,0,21.982,9.848,21.982,21.98v51.35
		h-21.982v-44.008c0-4.033-3.297-7.342-7.342-7.342h-65.992c-4.043,0-7.338,3.309-7.338,7.342v102.658h-21.988V196.543
		c0-2.967-1.795-5.654-4.545-6.771c-2.727-1.146-5.875-0.529-7.982,1.574L119.625,217.6c-1.354,1.354-2.143,3.215-2.143,5.186
		c0,1.936,0.789,3.799,2.143,5.164l20.49,20.473l-11.641,11.637l-21.734-21.732c-8.563-8.555-8.563-22.521,0-31.111l40.644-40.611
		c7.123,4.979,15.783,7.912,25.098,7.912c0.211,0,0.393,0,0.566,0v44.008h14.688v-46.76c3.193-1.18,6.234-2.721,9.018-4.545H253.728
		z M172.481,101.186c16.189,0,29.326,13.178,29.326,29.361c0,16.146-13.137,29.33-29.326,29.33s-29.326-13.184-29.326-29.33
		C143.156,114.363,156.329,101.186,172.481,101.186L172.481,101.186z M48.41,271.127c3.219-7.557,6.227-14.645,9.488-21.271
		c1.541-3.148,3.082-6.371,4.619-9.633c5.373-11.275,10.92-22.959,17.979-32.611c8.982-12.326,22.807-27.105,41.779-36.672
		l-25.883,25.926c-14.32,14.289-14.32,37.563,0,51.846l26.891,26.938c2.863,2.854,7.52,2.854,10.387,0l10.059-10.076v44.129
		c-15.391,9.051-33.01,6.578-45.438,2.646c-17.264-5.521-42.436-13.541-64.305-10.104C39.417,292.25,43.931,281.584,48.41,271.127
		L48.41,271.127z M48.41,271.127"/>
</g>
</svg>
