<?xml version="1.0" encoding="utf-8"?>
<!-- Generator: Adobe Illustrator 16.0.0, SVG Export Plug-In . SVG Version: 6.00 Build 0)  -->
<!DOCTYPE svg PUBLIC "-//W3C//DTD SVG 1.1//EN" "http://www.w3.org/Graphics/SVG/1.1/DTD/svg11.dtd">
<svg version="1.1" id="Layer_1" xmlns="http://www.w3.org/2000/svg" xmlns:xlink="http://www.w3.org/1999/xlink" x="0px" y="0px"
	 width="2958.112px" height="484px" viewBox="0 0 2958.112 484" enable-background="new 0 0 2958.112 484" xml:space="preserve">
<path fill="#59595A" d="M446.188,43.443H294.937c-4.178,0-7.563,3.393-7.563,7.57c0,4.184,3.386,7.556,7.563,7.556h151.251
	c12.51,0,22.686,10.179,22.686,22.689v105.876c0,12.511-10.176,22.689-22.686,22.689H287.373c-4.177,0-7.557,3.379-7.557,7.563
	v19.547l-24.906-24.896c-2.955-2.951-7.737-2.951-10.691,0c-2.956,2.959-2.956,7.742,0,10.692l37.809,37.815
	c1.446,1.443,3.376,2.215,5.349,2.215c0.972,0,1.96-0.191,2.896-0.574c2.826-1.173,4.665-3.926,4.665-6.99v-30.252h151.251
	c20.848,0,37.813-16.957,37.813-37.809V81.259C484,60.414,467.035,43.443,446.188,43.443L446.188,43.443z M446.188,43.443"/>
<path fill="#819D3C" d="M272.247,156.883V51.014c0-20.852-16.958-37.81-37.815-37.81H37.814C16.964,13.204,0,30.162,0,51.014
	v105.869c0,20.852,16.964,37.814,37.814,37.814h105.877v30.246c0,3.064,1.845,5.816,4.664,6.996
	c0.939,0.383,1.917,0.567,2.896,0.567c1.963,0,3.896-0.771,5.349-2.207l35.594-35.603h42.238
	C255.289,194.697,272.247,177.734,272.247,156.883L272.247,156.883z M257.124,156.883c0,12.518-10.18,22.695-22.692,22.695h-45.369
	c-2.005,0-3.926,0.791-5.345,2.207l-24.903,24.91v-19.561c0-4.17-3.39-7.557-7.563-7.557H37.814
	c-12.51,0-22.683-10.178-22.683-22.695V51.014c0-12.505,10.173-22.689,22.683-22.689h196.617c12.513,0,22.692,10.185,22.692,22.689
	V156.883z M257.124,156.883"/>
<path fill="#819D3C" d="M45.378,66.139h22.689c4.17,0,7.56-3.393,7.56-7.569c0-4.171-3.39-7.556-7.56-7.556H45.378
	c-4.177,0-7.563,3.385-7.563,7.556C37.814,62.746,41.201,66.139,45.378,66.139L45.378,66.139z M45.378,66.139"/>
<path fill="#819D3C" d="M226.875,51.014H98.316c-4.181,0-7.563,3.385-7.563,7.556c0,4.177,3.383,7.569,7.563,7.569h128.559
	c4.177,0,7.557-3.393,7.557-7.569C234.432,54.398,231.052,51.014,226.875,51.014L226.875,51.014z M226.875,51.014"/>
<path fill="#819D3C" d="M226.875,81.259H45.378c-4.177,0-7.563,3.392-7.563,7.569s3.387,7.557,7.563,7.557h181.497
	c4.177,0,7.557-3.379,7.557-7.557S231.052,81.259,226.875,81.259L226.875,81.259z M226.875,81.259"/>
<path fill="#819D3C" d="M226.875,111.518h-22.683c-4.184,0-7.569,3.379-7.569,7.557c0,4.177,3.386,7.563,7.569,7.563h22.683
	c4.177,0,7.557-3.386,7.557-7.563C234.432,114.896,231.052,111.518,226.875,111.518L226.875,111.518z M226.875,111.518"/>
<path fill="#819D3C" d="M45.378,126.637h128.565c4.174,0,7.56-3.386,7.56-7.563c0-4.178-3.386-7.557-7.56-7.557H45.378
	c-4.177,0-7.563,3.379-7.563,7.557C37.814,123.251,41.201,126.637,45.378,126.637L45.378,126.637z M45.378,126.637"/>
<path fill="#819D3C" d="M226.875,141.764H45.378c-4.177,0-7.563,3.385-7.563,7.557c0,4.184,3.387,7.563,7.563,7.563h181.497
	c4.177,0,7.557-3.379,7.557-7.563C234.432,145.148,231.052,141.764,226.875,141.764L226.875,141.764z M226.875,141.764"/>
<path fill="#59595A" d="M294.937,96.385h22.688c4.181,0,7.557-3.379,7.557-7.557s-3.376-7.569-7.557-7.569h-22.688
	c-4.178,0-7.563,3.392-7.563,7.569S290.759,96.385,294.937,96.385L294.937,96.385z M294.937,96.385"/>
<path fill="#59595A" d="M438.621,96.385c4.177,0,7.566-3.379,7.566-7.557s-3.39-7.569-7.566-7.569h-90.75
	c-4.171,0-7.557,3.392-7.557,7.569s3.386,7.557,7.557,7.557H438.621z M438.621,96.385"/>
<path fill="#59595A" d="M294.937,126.637h143.685c4.177,0,7.566-3.386,7.566-7.563c0-4.178-3.39-7.557-7.566-7.557H294.937
	c-4.178,0-7.563,3.379-7.563,7.557C287.373,123.251,290.759,126.637,294.937,126.637L294.937,126.637z M294.937,126.637"/>
<path fill="#59595A" d="M294.937,156.883h90.75c4.177,0,7.563-3.379,7.563-7.563c0-4.172-3.386-7.557-7.563-7.557h-90.75
	c-4.178,0-7.563,3.385-7.563,7.557C287.373,153.504,290.759,156.883,294.937,156.883L294.937,156.883z M294.937,156.883"/>
<path fill="#59595A" d="M294.937,187.135h143.685c4.177,0,7.566-3.386,7.566-7.557c0-4.177-3.39-7.569-7.566-7.569H294.937
	c-4.178,0-7.563,3.393-7.563,7.569C287.373,183.749,290.759,187.135,294.937,187.135L294.937,187.135z M294.937,187.135"/>
<g>
	<path fill="#59595A" d="M133.727,348.721c-7.576,0-13.735,6.159-13.735,13.735c0,7.563,6.159,13.723,13.735,13.723
		c7.573,0,13.729-6.159,13.729-13.723C147.456,354.88,141.3,348.721,133.727,348.721L133.727,348.721z M133.727,367.424
		c-2.74,0-4.972-2.234-4.972-4.968c0-2.741,2.231-4.974,4.972-4.974c2.731,0,4.964,2.232,4.964,4.974
		C138.69,365.189,136.458,367.424,133.727,367.424L133.727,367.424z M133.727,367.424"/>
	<path fill="#59595A" d="M109.497,450.723c0,6.766-2.999,12.246-6.677,12.246H51.649c-3.684,0-6.674-5.48-6.674-12.246v-93.88
		c0-6.767,2.99-12.247,6.674-12.247h51.171c3.678,0,6.677,5.48,6.677,12.247V450.723z"/>
	<path fill="#59595A" d="M358.59,348.646c0-10.744-8.746-19.486-19.495-19.486h-56.756c-2.038,0-3.7,1.653-3.7,3.702
		c0,2.042,1.662,3.696,3.7,3.696h56.756c6.661,0,12.093,5.422,12.093,12.088c0,6.668-5.432,12.09-12.093,12.09h-27.636
		c-2.045,0-3.703,1.66-3.703,3.709c0,2.043,1.658,3.695,3.703,3.695h19.738c6.667,0,12.095,5.43,12.095,12.096
		c0,6.668-5.428,12.09-12.095,12.09h-19.738c-2.045,0-3.703,1.66-3.703,3.702c0,2.048,1.658,3.702,3.703,3.702h11.845
		c6.667,0,12.087,5.422,12.087,12.096c0,6.661-5.42,12.083-12.087,12.083h-11.845c-2.045,0-3.703,1.66-3.703,3.702
		c0,2.043,1.658,3.703,3.703,3.703h3.949c6.666,0,12.093,5.422,12.093,12.088c0,6.674-5.427,12.09-12.093,12.09H195.576
		c-1.299,0-2.591-0.204-3.821-0.613l-30.572-10.191v-86.561c4.128-4.019,18.384-18.32,32.834-37.875
		c21.896-29.619,33.398-56.334,34.229-79.457c3.209-0.871,9.336-1.865,14.485,1.159c5.342,3.142,8.633,9.954,9.775,20.252
		c3.771,33.888-15.159,68.515-15.35,68.858c-1.328,2.417,0.458,5.494,3.235,5.494h24.184c2.042,0,3.703-1.654,3.703-3.696
		c0-2.049-1.661-3.702-3.703-3.702h-18.177c5.436-11.543,16.617-39.416,13.463-67.778c-1.416-12.774-5.942-21.47-13.447-25.845
		c-10.569-6.16-22.761-1.061-23.268-0.837c-1.364,0.587-2.247,1.924-2.247,3.399c0,27.519-17.816,57.414-32.762,77.653
		c-10.255,13.888-20.605,25.245-26.955,31.841v-6.839c0-2.042-1.657-3.702-3.7-3.702h-47.377c-2.045,0-3.699,1.66-3.699,3.702
		v126.338c0,2.043,1.654,3.703,3.699,3.703h47.377c2.043,0,3.7-1.66,3.7-3.703v-14.604l28.23,9.407
		c1.992,0.665,4.063,1.001,6.163,1.001h119.832c10.748,0,19.492-8.742,19.492-19.494c0-5.078-1.962-9.711-5.159-13.183
		c7.596-2.675,13.06-9.907,13.06-18.399c0-5.08-1.963-9.718-5.162-13.189c7.593-2.668,13.056-9.908,13.056-18.395
		c0-5.08-1.96-9.717-5.155-13.189C353.131,364.373,358.59,357.139,358.59,348.646L358.59,348.646z M153.78,463.398h-39.979V344.457
		h39.979V463.398z M153.78,463.398"/>
</g>
<g>
	<path fill="#819D3C" d="M586.255,128.04h23.874h74.285c31.534,0,55.487,9.259,71.873,27.774
		c16.393,18.53,24.587,45.625,24.587,81.314c0,39.328-8.507,69.221-25.522,89.663c-17.007,20.442-41.953,30.663-74.834,30.663
		h-70.388h-23.874V128.04z M634.17,317.964h40.415c19.462,0,34.053-6.568,43.778-19.729c9.733-13.16,14.591-32.904,14.591-59.235
		c0-23.824-4.522-41.702-13.58-53.618c-9.045-11.893-22.683-17.865-40.881-17.865H634.17V317.964z"/>
	<path fill="#819D3C" d="M814.735,126.314h45.567v41.522h-45.567V126.314z M815.208,187.653h22.313h22.474v169.802h-22.313h-22.474
		V187.653z"/>
	<path fill="#819D3C" d="M943.022,361.821c-15.714,0-28.362-4.496-37.923-13.503c-9.576-8.985-14.358-20.832-14.358-35.492
		c0-15.5,4.316-27.915,12.954-37.225c8.629-9.313,21.221-15.163,37.763-17.564l29.491-4.053c7.706-1.031,14.104-2.817,19.202-5.313
		c2.187-1.038,3.878-2.908,5.072-5.618c1.194-2.694,1.646-5.458,1.324-8.259c-0.626-4.779-3.068-8.527-7.331-11.237
		c-5.104-3.229-12.432-4.854-22.012-4.854c-8.526,0-15.19,2.092-19.973,6.244c-4.782,4.172-7.332,10.061-7.645,17.641h-42.923
		c0.946-19.869,7.706-34.739,20.297-44.625c12.584-9.885,31.053-14.839,55.396-14.839c21.122,0,37.797,4.458,50.022,13.358
		c12.229,8.916,18.335,21.061,18.335,36.477v94.979c0,7.61,0.626,12.946,1.878,16.016c1.245,3.068,3.741,5.488,7.489,7.259v0.16
		v6.084h-24.195h-24.186v-0.16c-1.978-6.87-3.283-13.576-3.908-20.122l-0.153-0.32C983.602,353.509,965.389,361.821,943.022,361.821
		z M996.869,294.724v-19.511c-5.21,2.9-12.076,5.259-20.6,7.022l-16.553,3.122c-7.798,1.466-13.736,4.138-17.782,8.03
		c-4.068,3.9-6.095,8.824-6.095,14.748c0,6.778,1.82,12.076,5.469,15.927c3.642,3.852,8.736,5.764,15.286,5.764
		c14.354,0,25.809-5.034,34.335-15.126c1.664-1.98,3.065-4.889,4.218-8.74C996.289,302.105,996.869,298.361,996.869,294.724z
		 M951.137,164.253l30.122-46.357h48.999l-46.824,46.357H951.137z"/>
	<path fill="#819D3C" d="M1079.737,187.653h21.221h21.39v30.427c1.549-3.316,3.313-6.546,5.297-9.668
		c10.5-16.854,24.084-25.289,40.732-25.289l10.152,0.156v45.731c-3.962-0.408-8.438-0.622-13.432-0.622
		c-13.629,0-23.797,3.39-30.499,10.153c-6.725,6.755-10.076,16.991-10.076,30.728v88.186h-22.316h-22.469V187.653z"/>
	<path fill="#819D3C" d="M1205.678,126.314h45.567v41.522h-45.567V126.314z M1206.146,187.653h22.324h22.473v169.802h-22.323
		h-22.474V187.653z"/>
	<path fill="#819D3C" d="M1306.896,337.937c-15.671-15.908-23.491-37.381-23.491-64.441c0-27.683,7.82-49.651,23.491-65.938
		c15.648-16.286,36.74-24.435,63.277-24.435c26.74,0,47.908,8.148,63.519,24.435c15.603,16.286,23.407,38.255,23.407,65.938
		c0,27.061-7.805,48.533-23.407,64.441c-15.61,15.931-36.778,23.885-63.519,23.885
		C1343.637,361.821,1322.545,353.867,1306.896,337.937z M1400.609,311.254c6.969-8.736,10.449-21.473,10.449-38.24
		c0-17.151-3.48-30.193-10.449-39.075c-6.978-8.9-17.126-13.358-30.436-13.358c-13.32,0-23.434,4.458-30.354,13.358
		c-6.924,8.882-10.382,21.924-10.382,39.075c0,16.768,3.458,29.504,10.382,38.24c6.92,8.744,17.033,13.11,30.354,13.11
		C1383.483,324.364,1393.632,319.998,1400.609,311.254z"/>
	<path fill="#819D3C" d="M1639.703,361.821c-21.648,0-39.099-8.419-52.365-25.274c-13.26-16.854-19.893-39.079-19.893-66.651
		c0-26.003,6.603-46.964,19.816-62.888c13.213-15.916,30.587-23.885,52.129-23.885c19.244,0,34.755,8.114,46.502,24.343l1.879,2.496
		V128.04h22.313h22.473v229.415h-21.694h-21.679v-21.694l-0.794,1.092C1676.008,353.509,1659.779,361.821,1639.703,361.821z
		 M1651.726,221.824c-11.969,0-21.335,4.618-28.091,13.824c-6.771,9.206-10.16,21.977-10.16,38.313
		c0,16.015,3.359,28.537,10.061,37.525c6.733,9.012,16.062,13.504,28.022,13.504c12.069,0,21.488-4.726,28.259-14.198
		c6.756-9.473,10.138-22.633,10.138-39.487c0-15.504-3.382-27.634-10.138-36.37C1673.046,226.198,1663.68,221.824,1651.726,221.824z
		"/>
	<path fill="#819D3C" d="M1839.775,361.821c-25.801,0-45.701-7.954-59.693-23.885c-14-15.908-20.992-38.595-20.992-68.041
		c0-27.147,7.122-48.392,21.382-63.75c14.251-15.336,34.022-23.022,59.304-23.022c25.908,0,45.854,7.847,59.847,23.488
		c13.991,15.659,20.999,37.957,20.999,66.884c0.199,3.34-0.061,6.71-0.786,10.134h-115.639c1.038,13.431,4,23.473,8.886,30.125
		c6.244,8.328,16.648,12.484,31.213,12.484c6.763,0,13.037-1.928,18.809-5.774c5.778-3.84,9.229-8.478,10.381-13.882h45.572
		c-3.855,17.263-12.778,30.805-26.763,40.575C1878.294,356.937,1860.798,361.821,1839.775,361.821z M1873.958,255.068
		c-1.054-10.18-3.748-18.152-8.114-23.882c-5.725-7.576-14.626-11.377-26.694-11.377c-11.549,0-20.335,4.427-26.366,13.255
		c-3.748,5.614-6.457,12.966-8.121,22.004H1873.958z"/>
	<path fill="#819D3C" d="M2042.664,128.04h22.947h88.174c22.159,0,39.479,5.122,51.96,15.381
		c12.488,10.237,18.732,24.47,18.732,42.679c0,19.03-7.022,33.496-21.068,43.377c-2.29,1.676-4.831,3.176-7.648,4.534
		c5.412,2.08,10.198,4.584,14.358,7.485c14.672,10.099,22.008,24.815,22.008,44.167c0,23.415-7.26,41.235-21.771,53.453
		c-14.519,12.236-35.717,18.339-63.594,18.339h-81.15h-22.947V128.04z M2088.549,217.938h54.771c11.969,0,20.923-2.248,26.847-6.725
		c5.932-4.458,8.9-11.24,8.9-20.282c0-7.809-3.122-13.66-9.366-17.549c-6.244-3.904-15.664-5.866-28.251-5.866h-52.9V217.938z
		 M2088.549,317.662h58.213c12.488,0,21.847-2.714,28.091-8.118c6.244-5.408,9.366-13.572,9.366-24.507
		c0-9.562-3.206-16.714-9.603-21.458c-6.396-4.725-15.992-7.099-28.801-7.099h-57.267V317.662z"/>
	<path fill="#819D3C" d="M2283.545,337.937c-15.663-15.908-23.488-37.381-23.488-64.441c0-27.683,7.825-49.651,23.488-65.938
		c15.656-16.286,36.756-24.435,63.289-24.435c26.74,0,47.907,8.148,63.518,24.435c15.604,16.286,23.404,38.255,23.404,65.938
		c0,27.061-7.801,48.533-23.404,64.441c-15.61,15.931-36.777,23.885-63.518,23.885
		C2320.301,361.821,2299.201,353.867,2283.545,337.937z M2377.269,311.254c6.978-8.736,10.45-21.473,10.45-38.24
		c0-17.151-3.473-30.193-10.45-39.075c-6.977-8.9-17.122-13.358-30.435-13.358c-13.32,0-23.435,4.458-30.351,13.358
		c-6.923,8.882-10.382,21.924-10.382,39.075c0,16.768,3.459,29.504,10.382,38.24c6.916,8.744,17.03,13.11,30.351,13.11
		C2360.146,324.364,2370.292,319.998,2377.269,311.254z"/>
	<path fill="#819D3C" d="M2464.816,187.653h21.221h21.389v30.427c1.565-3.316,3.329-6.546,5.306-9.668
		c10.504-16.854,24.084-25.289,40.732-25.289l10.145,0.156v45.731c-3.962-0.408-8.427-0.622-13.419-0.622
		c-13.642,0-23.802,3.39-30.512,10.153c-6.717,6.755-10.068,16.991-10.068,30.728v88.186h-22.32h-22.473V187.653z"/>
	<path fill="#819D3C" d="M2651.942,361.821c-21.641,0-39.099-8.419-52.365-25.274c-13.259-16.854-19.9-39.079-19.9-66.651
		c0-26.003,6.61-46.964,19.824-62.888c13.214-15.916,30.595-23.885,52.121-23.885c19.251,0,34.755,8.114,46.519,24.343l1.869,2.496
		V128.04h22.313h22.474v229.415h-21.687h-21.702v-21.694l-0.771,1.092C2688.247,353.509,2672.019,361.821,2651.942,361.821z
		 M2663.95,221.824c-11.962,0-21.328,4.618-28.091,13.824c-6.764,9.206-10.138,21.977-10.138,38.313
		c0,16.015,3.358,28.537,10.061,37.525c6.718,9.012,16.054,13.504,28.022,13.504c12.068,0,21.473-4.726,28.244-14.198
		c6.756-9.473,10.137-22.633,10.137-39.487c0-15.504-3.381-27.634-10.137-36.37C2685.277,226.198,2675.912,221.824,2663.95,221.824z
		"/>
	<path fill="#819D3C" d="M2798.405,337.937c-15.664-15.908-23.488-37.381-23.488-64.441c0-27.683,7.824-49.651,23.488-65.938
		c15.648-16.286,36.747-24.435,63.281-24.435c26.739,0,47.915,8.148,63.518,24.435c15.61,16.286,23.404,38.255,23.404,65.938
		c0,27.061-7.794,48.533-23.404,64.441c-15.603,15.931-36.778,23.885-63.518,23.885
		C2835.152,361.821,2814.054,353.867,2798.405,337.937z M2892.121,311.254c6.969-8.736,10.458-21.473,10.458-38.24
		c0-17.151-3.489-30.193-10.458-39.075c-6.97-8.9-17.122-13.358-30.435-13.358c-13.328,0-23.435,4.458-30.358,13.358
		c-6.924,8.882-10.366,21.924-10.366,39.075c0,16.768,3.442,29.504,10.366,38.24c6.924,8.744,17.03,13.11,30.358,13.11
		C2874.999,324.364,2885.151,319.998,2892.121,311.254z"/>
</g>
</svg>
