<?xml version="1.0" encoding="utf-8"?>
<!-- Generator: Adobe Illustrator 16.0.0, SVG Export Plug-In . SVG Version: 6.00 Build 0)  -->
<!DOCTYPE svg PUBLIC "-//W3C//DTD SVG 1.1//EN" "http://www.w3.org/Graphics/SVG/1.1/DTD/svg11.dtd">
<svg version="1.1" id="Layer_1" xmlns="http://www.w3.org/2000/svg" xmlns:xlink="http://www.w3.org/1999/xlink" x="0px" y="0px"
	 width="484px" height="484px" viewBox="0 0 484 484" enable-background="new 0 0 484 484" xml:space="preserve">
<path fill="#59595A" d="M447.188,43.443H295.937c-4.178,0-7.563,3.393-7.563,7.57c0,4.184,3.386,7.556,7.563,7.556h151.251
	c12.51,0,22.686,10.179,22.686,22.689v105.876c0,12.511-10.176,22.689-22.686,22.689H288.373c-4.177,0-7.557,3.379-7.557,7.563
	v19.547l-24.906-24.896c-2.955-2.951-7.737-2.951-10.691,0c-2.956,2.959-2.956,7.742,0,10.692l37.809,37.815
	c1.446,1.443,3.376,2.215,5.349,2.215c0.972,0,1.96-0.191,2.896-0.574c2.826-1.173,4.665-3.926,4.665-6.99v-30.252h151.251
	c20.848,0,37.813-16.957,37.813-37.809V81.259C485,60.414,468.035,43.443,447.188,43.443L447.188,43.443z M447.188,43.443"/>
<path fill="#819D3C" d="M273.247,156.883V51.014c0-20.852-16.958-37.81-37.815-37.81H38.814C17.964,13.204,1,30.162,1,51.014
	v105.869c0,20.852,16.964,37.814,37.814,37.814h105.877v30.246c0,3.064,1.845,5.816,4.664,6.996
	c0.939,0.383,1.917,0.567,2.896,0.567c1.963,0,3.896-0.771,5.349-2.207l35.594-35.603h42.238
	C256.289,194.697,273.247,177.734,273.247,156.883L273.247,156.883z M258.124,156.883c0,12.518-10.18,22.695-22.692,22.695h-45.369
	c-2.005,0-3.926,0.791-5.345,2.207l-24.903,24.91v-19.561c0-4.17-3.39-7.557-7.563-7.557H38.814
	c-12.51,0-22.683-10.178-22.683-22.695V51.014c0-12.505,10.173-22.689,22.683-22.689h196.617c12.513,0,22.692,10.185,22.692,22.689
	V156.883z M258.124,156.883"/>
<path fill="#819D3C" d="M46.378,66.139h22.689c4.17,0,7.56-3.393,7.56-7.569c0-4.171-3.39-7.556-7.56-7.556H46.378
	c-4.177,0-7.563,3.385-7.563,7.556C38.814,62.746,42.201,66.139,46.378,66.139L46.378,66.139z M46.378,66.139"/>
<path fill="#819D3C" d="M227.875,51.014H99.316c-4.181,0-7.563,3.385-7.563,7.556c0,4.177,3.383,7.569,7.563,7.569h128.559
	c4.177,0,7.557-3.393,7.557-7.569C235.432,54.398,232.052,51.014,227.875,51.014L227.875,51.014z M227.875,51.014"/>
<path fill="#819D3C" d="M227.875,81.259H46.378c-4.177,0-7.563,3.392-7.563,7.569s3.387,7.557,7.563,7.557h181.497
	c4.177,0,7.557-3.379,7.557-7.557S232.052,81.259,227.875,81.259L227.875,81.259z M227.875,81.259"/>
<path fill="#819D3C" d="M227.875,111.518h-22.683c-4.184,0-7.569,3.379-7.569,7.557c0,4.177,3.386,7.563,7.569,7.563h22.683
	c4.177,0,7.557-3.386,7.557-7.563C235.432,114.896,232.052,111.518,227.875,111.518L227.875,111.518z M227.875,111.518"/>
<path fill="#819D3C" d="M46.378,126.637h128.565c4.174,0,7.56-3.386,7.56-7.563c0-4.178-3.386-7.557-7.56-7.557H46.378
	c-4.177,0-7.563,3.379-7.563,7.557C38.814,123.251,42.201,126.637,46.378,126.637L46.378,126.637z M46.378,126.637"/>
<path fill="#819D3C" d="M227.875,141.764H46.378c-4.177,0-7.563,3.385-7.563,7.557c0,4.184,3.387,7.563,7.563,7.563h181.497
	c4.177,0,7.557-3.379,7.557-7.563C235.432,145.148,232.052,141.764,227.875,141.764L227.875,141.764z M227.875,141.764"/>
<path fill="#59595A" d="M295.937,96.385h22.688c4.181,0,7.557-3.379,7.557-7.557s-3.376-7.569-7.557-7.569h-22.688
	c-4.178,0-7.563,3.392-7.563,7.569S291.759,96.385,295.937,96.385L295.937,96.385z M295.937,96.385"/>
<path fill="#59595A" d="M439.621,96.385c4.177,0,7.566-3.379,7.566-7.557s-3.39-7.569-7.566-7.569h-90.75
	c-4.171,0-7.557,3.392-7.557,7.569s3.386,7.557,7.557,7.557H439.621z M439.621,96.385"/>
<path fill="#59595A" d="M295.937,126.637h143.685c4.177,0,7.566-3.386,7.566-7.563c0-4.178-3.39-7.557-7.566-7.557H295.937
	c-4.178,0-7.563,3.379-7.563,7.557C288.373,123.251,291.759,126.637,295.937,126.637L295.937,126.637z M295.937,126.637"/>
<path fill="#59595A" d="M295.937,156.883h90.75c4.177,0,7.563-3.379,7.563-7.563c0-4.172-3.386-7.557-7.563-7.557h-90.75
	c-4.178,0-7.563,3.385-7.563,7.557C288.373,153.504,291.759,156.883,295.937,156.883L295.937,156.883z M295.937,156.883"/>
<path fill="#59595A" d="M295.937,187.135h143.685c4.177,0,7.566-3.386,7.566-7.557c0-4.177-3.39-7.569-7.566-7.569H295.937
	c-4.178,0-7.563,3.393-7.563,7.569C288.373,183.749,291.759,187.135,295.937,187.135L295.937,187.135z M295.937,187.135"/>
<g>
	<path fill="#59595A" d="M134.727,348.721c-7.576,0-13.735,6.159-13.735,13.735c0,7.563,6.159,13.723,13.735,13.723
		c7.573,0,13.729-6.159,13.729-13.723C148.456,354.88,142.3,348.721,134.727,348.721L134.727,348.721z M134.727,367.424
		c-2.74,0-4.972-2.234-4.972-4.968c0-2.741,2.231-4.974,4.972-4.974c2.731,0,4.964,2.232,4.964,4.974
		C139.69,365.189,137.458,367.424,134.727,367.424L134.727,367.424z M134.727,367.424"/>
	<path fill="#59595A" d="M110.497,450.723c0,6.766-2.999,12.246-6.677,12.246H52.649c-3.684,0-6.674-5.48-6.674-12.246v-93.88
		c0-6.767,2.99-12.247,6.674-12.247h51.171c3.678,0,6.677,5.48,6.677,12.247V450.723z"/>
	<path fill="#59595A" d="M359.59,348.646c0-10.744-8.746-19.486-19.495-19.486h-56.756c-2.038,0-3.7,1.653-3.7,3.702
		c0,2.042,1.662,3.696,3.7,3.696h56.756c6.661,0,12.093,5.422,12.093,12.088c0,6.668-5.432,12.09-12.093,12.09h-27.636
		c-2.045,0-3.703,1.66-3.703,3.709c0,2.043,1.658,3.695,3.703,3.695h19.738c6.667,0,12.095,5.43,12.095,12.096
		c0,6.668-5.428,12.09-12.095,12.09h-19.738c-2.045,0-3.703,1.66-3.703,3.702c0,2.048,1.658,3.702,3.703,3.702h11.845
		c6.667,0,12.087,5.422,12.087,12.096c0,6.661-5.42,12.083-12.087,12.083h-11.845c-2.045,0-3.703,1.66-3.703,3.702
		c0,2.043,1.658,3.703,3.703,3.703h3.949c6.666,0,12.093,5.422,12.093,12.088c0,6.674-5.427,12.09-12.093,12.09H196.576
		c-1.299,0-2.591-0.204-3.821-0.613l-30.572-10.191v-86.561c4.128-4.019,18.384-18.32,32.834-37.875
		c21.896-29.619,33.398-56.334,34.229-79.457c3.209-0.871,9.336-1.865,14.485,1.159c5.342,3.142,8.633,9.954,9.775,20.252
		c3.771,33.888-15.159,68.515-15.35,68.858c-1.328,2.417,0.458,5.494,3.235,5.494h24.184c2.042,0,3.703-1.654,3.703-3.696
		c0-2.049-1.661-3.702-3.703-3.702h-18.177c5.436-11.543,16.617-39.416,13.463-67.778c-1.416-12.774-5.942-21.47-13.447-25.845
		c-10.569-6.16-22.761-1.061-23.268-0.837c-1.364,0.587-2.247,1.924-2.247,3.399c0,27.519-17.816,57.414-32.762,77.653
		c-10.255,13.888-20.605,25.245-26.955,31.841v-6.839c0-2.042-1.657-3.702-3.7-3.702h-47.377c-2.045,0-3.699,1.66-3.699,3.702
		v126.338c0,2.043,1.654,3.703,3.699,3.703h47.377c2.043,0,3.7-1.66,3.7-3.703v-14.604l28.23,9.407
		c1.992,0.665,4.063,1.001,6.163,1.001h119.832c10.748,0,19.492-8.742,19.492-19.494c0-5.078-1.962-9.711-5.159-13.183
		c7.596-2.675,13.06-9.907,13.06-18.399c0-5.08-1.963-9.718-5.162-13.189c7.593-2.668,13.056-9.908,13.056-18.395
		c0-5.08-1.96-9.717-5.155-13.189C354.131,364.373,359.59,357.139,359.59,348.646L359.59,348.646z M154.78,463.398h-39.979V344.457
		h39.979V463.398z M154.78,463.398"/>
</g>
</svg>
