<?xml version="1.0" encoding="utf-8"?>
<!-- Generator: Adobe Illustrator 16.0.0, SVG Export Plug-In . SVG Version: 6.00 Build 0)  -->
<!DOCTYPE svg PUBLIC "-//W3C//DTD SVG 1.1//EN" "http://www.w3.org/Graphics/SVG/1.1/DTD/svg11.dtd">
<svg version="1.1" id="Layer_1" xmlns="http://www.w3.org/2000/svg" xmlns:xlink="http://www.w3.org/1999/xlink" x="0px" y="0px"
	 width="484px" height="484px" viewBox="0 0 484 484" enable-background="new 0 0 484 484" xml:space="preserve">
<g>
	<path fill="#59595A" d="M96.82,108.685c-31.18,0-56.449,25.27-56.449,56.443c0,31.172,25.27,56.449,56.449,56.449
		c31.167,0,56.443-25.277,56.443-56.449C153.263,133.954,127.987,108.685,96.82,108.685z M96.82,211.401
		c-25.69,0-46.519-20.824-46.519-46.512s20.828-46.518,46.519-46.518c25.682,0,46.509,20.83,46.509,46.518
		S122.501,211.401,96.82,211.401z"/>
	<path fill="#59595A" d="M119.784,228.784H74.036c-35.775,0-65.347,29.275-65.347,65.055v52.094c0,4.475,3.656,8.137,8.129,8.137
		H176.87c4.066,0,7.489-3.027,8.072-6.941v-53.289C184.942,258.06,155.557,228.784,119.784,228.784z M174.37,340.442
		c-0.514,3.439-3.528,6.111-7.102,6.111H26.421c-3.937,0-7.153-3.223-7.153-7.16v-45.842c0-31.486,26.022-57.244,57.504-57.244
		h40.258c31.486,0,57.34,25.758,57.34,57.244V340.442z"/>
	<path fill="#59595A" d="M410.725,228.784h-45.75c-35.773,0-65.346,29.275-65.346,65.055v52.094c0,4.475,3.656,8.137,8.129,8.137
		h160.059c4.061,0,7.48-3.027,8.066-6.941v-53.289C475.883,258.06,446.504,228.784,410.725,228.784z M465.303,340.442
		c-0.516,3.439-3.523,6.111-7.098,6.111H317.36c-3.936,0-7.152-3.223-7.152-7.16v-45.842c0-31.486,26.021-57.244,57.502-57.244
		h40.26c31.48,0,57.334,25.758,57.334,57.244V340.442z"/>
	<path fill="#59595A" d="M273.963,178.806h-63.658c-49.778,0-90.93,40.732-90.93,90.518v72.484c0,6.227,5.095,11.313,11.317,11.313
		h222.704c5.652,0,10.412-4.215,11.229-9.656v-74.141C364.625,219.538,323.739,178.806,273.963,178.806z"/>
	<path fill="#59595A" d="M242.406,167.136c42.275,0,76.554-34.277,76.554-76.553c0-42.283-34.278-76.563-76.554-76.563
		c-42.282,0-76.562,34.279-76.562,76.563C165.844,132.858,200.124,167.136,242.406,167.136z"/>
	<path fill="#D25451" d="M242.406,156.284c36.282,0,65.694-29.42,65.694-65.701c0-36.289-29.412-65.703-65.694-65.703
		c-36.288,0-65.706,29.414-65.706,65.703C176.7,126.864,206.118,156.284,242.406,156.284z"/>
	<path fill="#D25451" d="M270.955,190.821H214.09c-44.471,0-81.23,36.393-81.23,80.867v64.754c0,5.563,4.546,10.111,10.108,10.111
		h198.948c5.053,0,9.303-3.768,10.029-8.631v-66.234C351.946,227.214,315.428,190.821,270.955,190.821z"/>
	<path fill="#59595A" d="M484,349.296c0,3.734-2.98,6.771-6.65,6.771H6.654C2.98,356.067,0,353.03,0,349.296l0,0
		c0-3.74,2.979-6.768,6.653-6.768H477.35C481.02,342.528,484,345.556,484,349.296L484,349.296z"/>
	<g>
		<path fill="#59595A" d="M386.2,320.075h-35.039c-3.107-55.115-47.535-99.541-102.649-102.652v-35.047h-12.269v35.047
			c-55.054,3.111-99.485,47.537-102.592,102.652H98.604v12.262h35.047c3.106,55.064,47.538,99.496,102.647,102.602v35.041h12.268
			v-35.041c55.116-3.105,99.544-47.48,102.595-102.602H386.2V320.075z M338.899,320.075h-28.232
			c-2.875-33.041-29.112-59.219-62.155-62.156V229.69C296.932,232.741,335.842,271.653,338.899,320.075L338.899,320.075z
			 M298.342,332.288c-2.875,26.232-24.006,46.949-49.831,49.824v-18.602h-12.269v18.664c-26.296-2.82-47.015-23.535-49.834-49.838
			h18.668v-12.262h-18.605c2.875-26.23,24.007-46.957,49.827-49.826v18.605h12.268v-18.605
			c25.828,2.869,46.958,23.596,49.833,49.826h-18.604v12.262h18.548V332.288z M236.298,229.628v28.234
			c-33.044,2.875-59.213,29.113-62.15,62.158h-28.236C148.961,271.597,187.881,232.679,236.298,229.628L236.298,229.628z
			 M145.912,332.226h28.236c2.875,33.047,29.106,59.223,62.15,62.154v28.234C187.881,419.558,148.961,380.647,145.912,332.226
			L145.912,332.226z M248.511,422.614V394.38c33.043-2.875,59.218-29.107,62.155-62.154h28.232
			C335.842,380.647,296.932,419.558,248.511,422.614L248.511,422.614z M248.511,422.614"/>
	</g>
	<path fill="#59595A" d="M387.752,107.339c-31.174,0-56.449,25.275-56.449,56.447c0,31.174,25.275,56.449,56.449,56.449
		c31.172,0,56.441-25.275,56.441-56.449C444.194,132.614,418.924,107.339,387.752,107.339z M387.758,210.3
		c-25.693,0-46.518-20.824-46.518-46.514c0-25.688,20.824-46.512,46.518-46.512c25.682,0,46.506,20.824,46.506,46.512
		C434.264,189.476,413.44,210.3,387.758,210.3z"/>
</g>
</svg>
