<?xml version="1.0" encoding="utf-8"?>
<!-- Generator: Adobe Illustrator 16.0.0, SVG Export Plug-In . SVG Version: 6.00 Build 0)  -->
<!DOCTYPE svg PUBLIC "-//W3C//DTD SVG 1.1//EN" "http://www.w3.org/Graphics/SVG/1.1/DTD/svg11.dtd">
<svg version="1.1" id="Layer_1" xmlns="http://www.w3.org/2000/svg" xmlns:xlink="http://www.w3.org/1999/xlink" x="0px" y="0px"
	 width="4286.014px" height="484px" viewBox="0 0 4286.014 484" enable-background="new 0 0 4286.014 484" xml:space="preserve">
<g>
	<path fill="#D25451" d="M586.787,127.442h23.963h92.063c21.921,0,39.585,5.87,52.997,17.625
		c13.412,11.738,20.12,27.221,20.12,46.42c0,22.132-7.463,38.313-22.386,48.547c-3.969,2.703-8.464,5.008-13.476,6.888
		c2.83,1.149,5.381,2.396,7.678,3.759c13.153,7.817,19.988,20.972,20.505,39.457l1.105,37.721c0.203,7.52,0.989,12.848,2.353,15.979
		c1.351,3.132,3.954,5.64,7.82,7.514v6.105h-53.115c-1.247-2.399-2.34-7.535-3.29-15.427c-0.93-7.872-1.459-16.356-1.558-25.446
		l-0.302-21.295c-0.215-10.323-3.267-17.677-9.164-22.063c-5.886-4.379-15.674-6.58-29.328-6.58h-47.921v90.971H610.9h-24.114
		V127.442z M634.852,227.972h55.742c12.418,0,21.741-2.541,27.948-7.604c6.211-5.047,9.323-12.705,9.323-22.925
		c0-10.125-2.953-17.732-8.85-22.795c-5.894-5.047-14.751-7.591-26.546-7.591h-57.617V227.972z"/>
	<path fill="#D25451" d="M882.239,362.002c-25.881,0-45.843-7.979-59.891-23.962c-14.028-15.958-21.053-38.723-21.053-68.264
		c0-27.236,7.149-48.569,21.446-63.957c14.299-15.407,34.146-23.105,59.498-23.105c26.002,0,46.01,7.863,60.055,23.572
		c14.032,15.707,21.062,38.077,21.062,67.084c0.198,3.345-0.052,6.744-0.787,10.18H846.542c1.045,13.479,4.026,23.549,8.93,30.227
		c6.263,8.356,16.693,12.525,31.314,12.525c6.783,0,13.082-1.932,18.86-5.795c5.798-3.869,9.271-8.503,10.415-13.939h45.72
		c-3.862,17.338-12.811,30.9-26.84,40.707C920.894,357.101,903.329,362.002,882.239,362.002z M916.534,254.906
		c-1.045-10.237-3.755-18.218-8.138-23.962c-5.747-7.623-14.668-11.439-26.78-11.439c-11.58,0-20.398,4.443-26.459,13.318
		c-3.755,5.639-6.47,12.99-8.142,22.083H916.534z"/>
	<path fill="#D25451" d="M1140.279,294.522c-2.29,21.184-10.175,37.724-23.639,49.621c-13.466,11.898-31.003,17.858-52.61,17.858
		c-25.786,0-45.7-7.679-59.731-23.011c-14.048-15.353-21.063-37.227-21.063-65.621c0-27.756,7.284-49.818,21.842-66.154
		c14.564-16.321,34.215-24.502,58.952-24.502c21.921,0,39.867,6.049,53.863,18.166c13.983,12.115,21.454,28.021,22.386,47.762
		h-45.721c-0.413-8.463-3.417-15.297-9.001-20.51c-5.584-5.223-12.761-7.834-21.527-7.834c-11.273,0-19.861,4.51-25.759,13.547
		c-5.897,9.036-8.85,22.205-8.85,39.525c0,16.911,2.952,29.779,8.85,38.603c5.897,8.821,14.485,13.239,25.759,13.239
		c8.144,0,15.029-2.828,20.668-8.463c5.636-5.635,8.93-13.047,9.86-22.227H1140.279z"/>
	<path fill="#D25451" d="M1171.129,187.261h21.295h21.456v30.529c1.558-3.348,3.325-6.566,5.312-9.695
		c10.543-16.914,24.166-25.381,40.873-25.381l10.18,0.166v45.876c-3.972-0.427-8.464-0.624-13.47-0.624
		c-13.676,0-23.876,3.385-30.604,10.163c-6.743,6.804-10.109,17.071-10.109,30.854v88.468h-22.386h-22.546V187.261z"/>
	<path fill="#D25451" d="M1341.481,293.899c0,10.426,2.237,18.159,6.733,23.171c4.489,5.012,11.379,7.514,20.664,7.514
		c11.695,0,20.667-3.562,26.93-10.647c6.265-7.104,9.396-17.336,9.396-30.688v-95.987h22.397h22.549v170.355h-21.298h-21.446
		v-25.514c-1.574,3.132-3.455,6.049-5.635,8.768c-11.076,14.083-27.092,21.132-48.073,21.132c-17.958,0-31.972-5.296-42.045-15.89
		c-10.072-10.592-15.1-25.287-15.1-44.076V187.261h22.384h22.544V293.899z"/>
	<path fill="#D25451" d="M1570.398,358.546c-7.52,0.629-16.754,0.954-27.707,0.954c-15.872,0-27.277-2.847-34.219-8.536
		c-6.94-5.69-10.415-15.014-10.415-27.953V218.739h-23.636v-31.479h23.636v-45.882h44.936v45.882h27.405v31.479h-27.405v96.753
		c0,3.974,1.185,6.59,3.521,7.841c2.345,1.251,7.233,1.879,14.639,1.879h9.245V358.546z"/>
	<path fill="#D25451" d="M1639.767,362.002c-15.769,0-28.454-4.51-38.054-13.546c-9.602-9.037-14.401-20.9-14.401-35.627
		c0-15.555,4.331-27.988,12.993-37.346c8.665-9.34,21.302-15.213,37.887-17.609l29.6-4.061c7.717-1.059,14.131-2.827,19.25-5.332
		c2.2-1.04,3.895-2.918,5.102-5.64c1.192-2.718,1.638-5.479,1.328-8.302c-0.628-4.796-3.085-8.557-7.361-11.273
		c-5.117-3.221-12.478-4.85-22.077-4.85c-8.561,0-15.245,2.094-20.044,6.263c-4.803,4.171-7.354,10.074-7.679,17.699h-43.054
		c0.945-19.937,7.726-34.857,20.354-44.794c12.629-9.91,31.163-14.871,55.594-14.871c21.182,0,37.905,4.475,50.177,13.41
		c12.263,8.925,18.39,21.133,18.39,36.593v95.286c0,7.619,0.63,12.971,1.884,16.051c1.25,3.094,3.751,5.51,7.512,7.298v0.165v6.1
		H1722.9h-24.264v-0.159c-1.988-6.89-3.29-13.619-3.92-20.203l-0.158-0.302C1680.475,353.646,1662.203,362.002,1639.767,362.002z
		 M1693.78,294.665v-19.556c-5.214,2.915-12.105,5.257-20.664,7.028l-16.604,3.134c-7.829,1.467-13.774,4.153-17.851,8.07
		c-4.07,3.917-6.104,8.839-6.104,14.8c0,6.777,1.819,12.111,5.482,15.958c3.648,3.866,8.768,5.802,15.341,5.802
		c14.409,0,25.885-5.066,34.445-15.195c1.669-1.969,3.084-4.904,4.228-8.769C1693.199,302.093,1693.78,298.334,1693.78,294.665z"/>
	<path fill="#D25451" d="M1776.93,187.261h21.293h21.443v27.398c1.979-4.793,4.483-9.07,7.511-12.828
		c9.894-12.74,24.282-19.117,43.14-19.117c15.008,0,27.309,5.067,36.887,15.198c3.751,3.862,6.724,8.139,8.918,12.829l5.484-8.91
		c9.307-12.74,22.85-19.117,40.621-19.117c18.502,0,32.976,5.479,43.426,16.451c10.453,10.947,15.683,26.145,15.683,45.559v112.893
		h-22.39h-22.549V257.569c0-12.741-2.098-22.166-6.277-28.271c-4.188-6.104-10.674-9.165-19.473-9.165
		c-9.427,0-16.626,2.901-21.595,8.696c-4.959,5.801-7.446,14.123-7.446,24.984v103.803h-22.397h-22.548v-107.42
		c0-10.217-2.194-17.781-6.557-22.688c-4.363-4.924-11.088-7.376-20.141-7.376c-9.061,0-16.006,2.901-20.839,8.696
		c-4.849,5.801-7.265,14.123-7.265,24.984v103.803h-22.389h-22.541V187.261z"/>
	<path fill="#D25451" d="M2129.838,362.002c-25.887,0-45.843-7.979-59.886-23.962c-14.036-15.958-21.054-38.723-21.054-68.264
		c0-27.236,7.145-48.569,21.442-63.957c14.298-15.407,34.144-23.105,59.497-23.105c26.006,0,46.011,7.863,60.055,23.572
		c14.027,15.707,21.063,38.077,21.063,67.084c0.198,3.345-0.057,6.744-0.788,10.18h-116.023c1.043,13.479,4.023,23.549,8.927,30.227
		c6.263,8.356,16.698,12.525,31.314,12.525c6.779,0,13.082-1.932,18.86-5.795c5.802-3.869,9.267-8.503,10.419-13.939h45.717
		c-3.863,17.338-12.812,30.9-26.84,40.707C2168.49,357.101,2150.932,362.002,2129.838,362.002z M2164.133,254.906
		c-1.049-10.237-3.758-18.218-8.139-23.962c-5.746-7.623-14.664-11.439-26.783-11.439c-11.572,0-20.394,4.443-26.452,13.318
		c-3.759,5.639-6.468,12.99-8.145,22.083H2164.133z"/>
	<path fill="#D25451" d="M2240.695,187.261h21.293h21.458v25.215c1.772-3.041,3.704-5.905,5.794-8.627
		c11.064-14.084,27.143-21.135,48.22-21.135c17.954,0,32.022,5.334,42.202,15.984c10.175,10.646,15.269,25.41,15.269,44.305v114.613
		h-22.397h-22.548V251.147c0-10.541-2.265-18.345-6.812-23.407c-4.529-5.063-11.5-7.607-20.894-7.607
		c-11.796,0-20.849,3.561-27.167,10.65c-6.318,7.103-9.473,17.339-9.473,30.688v96.146h-22.397h-22.548V187.261z"/>
	<path fill="#D25451" d="M2514.871,358.546c-7.51,0.629-16.754,0.954-27.715,0.954c-15.869,0-27.268-2.847-34.214-8.536
		c-6.947-5.69-10.411-15.014-10.411-27.953V218.739h-23.646v-31.479h23.646v-45.882h44.936v45.882h27.404v31.479h-27.404v96.753
		c0,3.974,1.176,6.59,3.529,7.841c2.345,1.251,7.217,1.879,14.633,1.879h9.242V358.546z"/>
	<path fill="#D25451" d="M2557.067,338.04c-15.705-15.958-23.565-37.521-23.565-64.67c0-27.756,7.86-49.818,23.565-66.154
		c15.704-16.321,36.878-24.502,63.494-24.502c26.824,0,48.069,8.181,63.728,24.502c15.656,16.336,23.477,38.398,23.477,66.154
		c0,27.148-7.82,48.712-23.477,64.67c-15.658,15.982-36.903,23.962-63.728,23.962
		C2593.945,362.002,2572.771,354.022,2557.067,338.04z M2651.098,311.271c6.986-8.764,10.484-21.561,10.484-38.363
		c0-17.215-3.498-30.297-10.484-39.227c-7.002-8.928-17.184-13.383-30.536-13.383c-13.368,0-23.517,4.455-30.456,13.383
		c-6.946,8.93-10.411,22.012-10.411,39.227c0,16.803,3.465,29.6,10.411,38.363c6.939,8.769,17.088,13.156,30.456,13.156
		C2633.914,324.427,2644.096,320.039,2651.098,311.271z"/>
	<path fill="#D25451" d="M2895.828,362.002c-25.894,0-45.852-7.979-59.896-23.962c-14.034-15.958-21.062-38.723-21.062-68.264
		c0-27.236,7.154-48.569,21.46-63.957c14.299-15.407,34.136-23.105,59.498-23.105c25.988,0,46.01,7.863,60.045,23.572
		c14.036,15.707,21.062,38.077,21.062,67.084c0.208,3.345-0.055,6.744-0.778,10.18h-116.029c1.039,13.479,4.02,23.549,8.934,30.227
		c6.262,8.356,16.697,12.525,31.314,12.525c6.777,0,13.074-1.932,18.859-5.795c5.802-3.869,9.259-8.503,10.412-13.939h45.724
		c-3.862,17.338-12.812,30.9-26.849,40.707C2934.47,357.101,2916.905,362.002,2895.828,362.002z M2930.115,254.906
		c-1.042-10.237-3.76-18.218-8.14-23.962c-5.737-7.623-14.672-11.439-26.775-11.439c-11.58,0-20.403,4.443-26.466,13.318
		c-3.752,5.639-6.462,12.99-8.141,22.083H2930.115z"/>
	<path fill="#D25451" d="M3224.113,196.499c-0.843-10.953-5.643-19.648-14.401-26.074c-8.767-6.428-20.188-9.629-34.271-9.629
		c-12.208,0-21.755,2.686-28.637,8.07c-6.892,5.37-10.333,12.868-10.333,22.456c0,6.892,3.61,12.226,10.81,15.983
		c7.098,3.757,22.184,8.195,45.247,13.313c33.501,7.513,55.883,16.174,67.16,25.981c11.286,9.715,16.937,25.322,16.937,46.813
		c0,21.618-8.513,38.763-25.521,51.446c-17.009,12.669-40.018,19.019-69.036,19.019c-29.113,0-51.867-6.723-68.246-20.203
		c-16.391-13.456-25.156-32.618-26.3-57.454h46.344c0.523,12.199,4.958,21.595,13.306,28.183c8.352,6.564,19.979,9.859,34.904,9.859
		c15.34,0,27.309-2.467,35.926-7.443c8.605-4.961,12.907-11.811,12.907-20.576c0-8.664-3.1-15.034-9.315-19.116
		c-6.049-4.062-18.972-8.28-38.8-12.667c-36.505-8.145-60.914-16.961-73.226-26.467c-12.223-9.395-18.336-24.066-18.336-44
		c0-22.333,8.092-40.051,24.266-53.168c16.174-13.097,38.038-19.646,65.586-19.646c25.768,0,46.749,6.8,62.915,20.362
		c16.182,13.563,25.154,31.891,26.927,54.957H3224.113z"/>
	<path fill="#D25451" d="M3377.142,362.002c-25.896,0-45.852-7.979-59.888-23.962c-14.043-15.958-21.061-38.723-21.061-68.264
		c0-27.236,7.145-48.569,21.45-63.957c14.298-15.407,34.136-23.105,59.498-23.105c25.997,0,46.01,7.863,60.047,23.572
		c14.042,15.707,21.06,38.077,21.06,67.084c0.208,3.345-0.055,6.744-0.778,10.18h-116.023c1.034,13.479,4.016,23.549,8.926,30.227
		c6.265,8.356,16.699,12.525,31.316,12.525c6.786,0,13.073-1.932,18.858-5.795c5.803-3.869,9.26-8.503,10.421-13.939h45.716
		c-3.863,17.338-12.813,30.9-26.848,40.707C3415.783,357.101,3398.227,362.002,3377.142,362.002z M3411.428,254.906
		c-1.033-10.237-3.76-18.218-8.139-23.962c-5.738-7.623-14.664-11.439-26.768-11.439c-11.59,0-20.41,4.443-26.467,13.318
		c-3.76,5.639-6.469,12.99-8.146,22.083H3411.428z"/>
	<path fill="#D25451" d="M3489.261,127.442h22.39h22.548v230.174h-22.39h-22.548V127.442z"/>
	<path fill="#D25451" d="M3644.586,362.002c-25.895,0-45.858-7.979-59.896-23.962c-14.034-15.958-21.062-38.723-21.062-68.264
		c0-27.236,7.154-48.569,21.46-63.957c14.297-15.407,34.128-23.105,59.497-23.105c25.99,0,46.003,7.863,60.045,23.572
		c14.037,15.707,21.063,38.077,21.063,67.084c0.207,3.345-0.055,6.744-0.778,10.18h-116.031c1.041,13.479,4.021,23.549,8.933,30.227
		c6.265,8.356,16.691,12.525,31.316,12.525c6.778,0,13.066-1.932,18.858-5.795c5.796-3.869,9.261-8.503,10.413-13.939h45.725
		c-3.871,17.338-12.813,30.9-26.856,40.707C3683.229,357.101,3665.664,362.002,3644.586,362.002z M3678.873,254.906
		c-1.041-10.237-3.761-18.218-8.146-23.962c-5.731-7.623-14.664-11.439-26.77-11.439c-11.588,0-20.409,4.443-26.466,13.318
		c-3.759,5.639-6.468,12.99-8.137,22.083H3678.873z"/>
	<path fill="#D25451" d="M3902.62,294.522c-2.296,21.184-10.181,37.724-23.645,49.621c-13.464,11.898-31.005,17.858-52.605,17.858
		c-25.792,0-45.7-7.679-59.737-23.011c-14.045-15.353-21.063-37.227-21.063-65.621c0-27.756,7.281-49.818,21.841-66.154
		c14.568-16.321,34.217-24.502,58.959-24.502c21.919,0,39.865,6.049,53.86,18.166c13.981,12.115,21.444,28.021,22.39,47.762h-45.716
		c-0.422-8.463-3.426-15.297-9.014-20.51c-5.578-5.223-12.754-7.834-21.521-7.834c-11.278,0-19.87,4.51-25.761,13.547
		c-5.897,9.036-8.846,22.205-8.846,39.525c0,16.911,2.948,29.779,8.846,38.603c5.891,8.821,14.482,13.239,25.761,13.239
		c8.137,0,15.028-2.828,20.663-8.463c5.636-5.635,8.918-13.047,9.871-22.227H3902.62z M3830.438,357.616l-11.278,17.072l8.934-0.945
		c8.448,0,15.26,2.287,20.426,6.89c5.175,4.594,7.757,10.643,7.757,18.16c0,9.718-3.607,17.431-10.81,23.171
		c-7.199,5.744-16.913,8.608-29.12,8.608c-5.849,0-12.09-0.749-18.709-2.272c-6.63-1.502-12.66-3.58-18.09-6.17l7.051-15.035
		c5.214,1.666,10.014,2.938,14.401,3.831c4.387,0.894,7.829,1.339,10.331,1.339c4.173,0,7.726-1.215,10.65-3.611
		c2.918-2.398,4.389-5.371,4.389-8.916c0-3.446-1.177-6.242-3.529-8.391c-2.345-2.13-5.349-3.205-8.998-3.205
		c-1.677,0-3.639,0.236-5.872,0.703c-2.251,0.482-4.57,1.127-6.971,1.969l-6.725-6.589l17.534-26.608H3830.438z"/>
	<path fill="#D25451" d="M3974.635,362.002c-15.76,0-28.437-4.51-38.046-13.546c-9.6-9.037-14.409-20.9-14.409-35.627
		c0-15.555,4.331-27.988,13.004-37.346c8.662-9.34,21.291-15.213,37.887-17.609l29.599-4.061c7.726-1.059,14.139-2.827,19.257-5.332
		c2.193-1.04,3.878-2.918,5.088-5.64c1.199-2.718,1.635-5.479,1.333-8.302c-0.628-4.796-3.082-8.557-7.358-11.273
		c-5.119-3.221-12.479-4.85-22.08-4.85c-8.561,0-15.242,2.094-20.036,6.263c-4.808,4.171-7.366,10.074-7.676,17.699h-43.056
		c0.932-19.937,7.718-34.857,20.347-44.794c12.631-9.91,31.163-14.871,55.588-14.871c21.189,0,37.918,4.475,50.183,13.41
		c12.264,8.925,18.399,21.133,18.399,36.593v95.286c0,7.619,0.627,12.971,1.876,16.051c1.255,3.094,3.759,5.51,7.518,7.298v0.165
		v6.1h-24.264h-24.274v-0.159c-1.985-6.89-3.282-13.619-3.909-20.203l-0.159-0.302
		C4015.345,353.646,3997.081,362.002,3974.635,362.002z M3943.169,161.745c1.773-12.115,6.13-21.725,13.076-28.807
		c6.93-7.105,15.521-10.648,25.758-10.648c2.187,0,5.683,0.678,10.484,2.021c4.8,1.357,9.602,3.041,14.409,5.009
		c3.131,1.36,6.596,2.49,10.411,3.364c3.8,0.898,6.858,1.342,9.165,1.342c2.917,0,5.729-1.287,8.44-3.848
		c2.726-2.541,4.602-5.705,5.643-9.464h20.037c-1.455,12.111-5.373,21.705-11.741,28.811c-6.364,7.101-14.193,10.646-23.485,10.646
		c-2.192,0-6.055-0.68-11.588-2.037c-5.531-1.344-11.174-3.029-16.905-5.016c-3.87-1.34-7.676-2.469-11.437-3.363
		c-3.759-0.875-6.469-1.321-8.139-1.321c-3.13,0-6.047,1.267-8.772,3.827c-2.712,2.557-4.484,5.729-5.31,9.484H3943.169z
		 M4028.648,294.665v-19.556c-5.213,2.915-12.104,5.257-20.664,7.028l-16.585,3.134c-7.837,1.467-13.782,4.153-17.86,8.07
		c-4.061,3.917-6.104,8.839-6.104,14.8c0,6.777,1.827,12.111,5.476,15.958c3.665,3.866,8.767,5.802,15.354,5.802
		c14.403,0,25.888-5.066,34.446-15.195c1.662-1.969,3.068-4.904,4.221-8.769C4028.078,302.093,4028.648,298.334,4028.648,294.665z"
		/>
	<path fill="#D25451" d="M4125.812,338.04c-15.713-15.958-23.565-37.521-23.565-64.67c0-27.756,7.853-49.818,23.565-66.154
		c15.705-16.321,36.871-24.502,63.488-24.502c26.824,0,48.076,8.181,63.732,24.502c15.658,16.336,23.478,38.398,23.478,66.154
		c0,27.148-7.819,48.712-23.478,64.67c-15.656,15.982-36.908,23.962-63.732,23.962
		C4162.683,362.002,4141.517,354.022,4125.812,338.04z M4219.836,311.271c6.985-8.764,10.489-21.561,10.489-38.363
		c0-17.215-3.504-30.297-10.489-39.227c-6.994-8.928-17.176-13.383-30.536-13.383c-13.368,0-23.511,4.455-30.456,13.383
		c-6.938,8.93-10.403,22.012-10.403,39.227c0,16.803,3.465,29.6,10.403,38.363c6.945,8.769,17.088,13.156,30.456,13.156
		C4202.66,324.427,4212.842,320.039,4219.836,311.271z"/>
</g>
<g>
	<path fill="#59595A" d="M99.819,108.685c-31.18,0-56.449,25.27-56.449,56.443c0,31.172,25.27,56.449,56.449,56.449
		c31.167,0,56.443-25.277,56.443-56.449C156.263,133.954,130.986,108.685,99.819,108.685z M99.819,211.401
		c-25.69,0-46.519-20.824-46.519-46.512s20.828-46.518,46.519-46.518c25.682,0,46.509,20.83,46.509,46.518
		S125.501,211.401,99.819,211.401z"/>
	<path fill="#59595A" d="M122.783,228.784H77.035c-35.775,0-65.347,29.275-65.347,65.055v52.094c0,4.475,3.656,8.137,8.129,8.137
		h160.052c4.066,0,7.489-3.027,8.072-6.941v-53.289C187.941,258.06,158.557,228.784,122.783,228.784z M177.369,340.442
		c-0.514,3.439-3.528,6.111-7.102,6.111H29.421c-3.937,0-7.153-3.223-7.153-7.16v-45.842c0-31.486,26.022-57.244,57.504-57.244
		h40.258c31.486,0,57.34,25.758,57.34,57.244V340.442z"/>
	<path fill="#59595A" d="M413.726,228.784h-45.751c-35.773,0-65.346,29.275-65.346,65.055v52.094c0,4.475,3.657,8.137,8.13,8.137
		h160.059c4.06,0,7.48-3.027,8.066-6.941v-53.289C478.884,258.06,449.505,228.784,413.726,228.784z M468.304,340.442
		c-0.517,3.439-3.523,6.111-7.098,6.111H320.36c-3.936,0-7.152-3.223-7.152-7.16v-45.842c0-31.486,26.021-57.244,57.502-57.244
		h40.259c31.48,0,57.335,25.758,57.335,57.244V340.442z"/>
	<path fill="#59595A" d="M276.963,178.806h-63.658c-49.778,0-90.93,40.732-90.93,90.518v72.484c0,6.227,5.095,11.313,11.317,11.313
		h222.704c5.653,0,10.412-4.215,11.229-9.656v-74.141C367.625,219.538,326.738,178.806,276.963,178.806z"/>
	<path fill="#59595A" d="M245.405,167.136c42.275,0,76.555-34.277,76.555-76.553c0-42.283-34.279-76.563-76.555-76.563
		c-42.282,0-76.562,34.279-76.562,76.563C168.844,132.858,203.123,167.136,245.405,167.136z"/>
	<path fill="#D25451" d="M245.405,156.284c36.282,0,65.695-29.42,65.695-65.701c0-36.289-29.413-65.703-65.695-65.703
		c-36.288,0-65.706,29.414-65.706,65.703C179.699,126.864,209.117,156.284,245.405,156.284z"/>
	<path fill="#D25451" d="M273.954,190.821H217.09c-44.471,0-81.23,36.393-81.23,80.867v64.754c0,5.563,4.546,10.111,10.108,10.111
		h198.948c5.053,0,9.303-3.768,10.029-8.631v-66.234C354.945,227.214,318.428,190.821,273.954,190.821z"/>
	<path fill="#59595A" d="M487,349.296c0,3.734-2.979,6.771-6.65,6.771H9.653c-3.674,0-6.653-3.037-6.653-6.771l0,0
		c0-3.74,2.979-6.768,6.653-6.768H480.35C484.021,342.528,487,345.556,487,349.296L487,349.296z"/>
	<g>
		<path fill="#59595A" d="M389.199,320.075H354.16c-3.106-55.115-47.535-99.541-102.649-102.652v-35.047h-12.269v35.047
			c-55.054,3.111-99.485,47.537-102.592,102.652h-35.047v12.262h35.047c3.106,55.064,47.538,99.496,102.647,102.602v35.041h12.268
			v-35.041c55.116-3.105,99.544-47.48,102.595-102.602h35.039V320.075z M341.898,320.075h-28.232
			c-2.875-33.041-29.112-59.219-62.155-62.156V229.69C299.933,232.741,338.843,271.653,341.898,320.075L341.898,320.075z
			 M301.343,332.288c-2.875,26.232-24.007,46.949-49.832,49.824v-18.602h-12.269v18.664c-26.296-2.82-47.015-23.535-49.834-49.838
			h18.668v-12.262h-18.605c2.875-26.23,24.007-46.957,49.827-49.826v18.605h12.268v-18.605
			c25.828,2.869,46.958,23.596,49.833,49.826h-18.604v12.262h18.549V332.288z M239.298,229.628v28.234
			c-33.044,2.875-59.213,29.113-62.15,62.158h-28.236C151.961,271.597,190.881,232.679,239.298,229.628L239.298,229.628z
			 M148.911,332.226h28.236c2.875,33.047,29.106,59.223,62.15,62.154v28.234C190.881,419.558,151.961,380.647,148.911,332.226
			L148.911,332.226z M251.511,422.614V394.38c33.043-2.875,59.218-29.107,62.155-62.154h28.232
			C338.843,380.647,299.933,419.558,251.511,422.614L251.511,422.614z M251.511,422.614"/>
	</g>
	<path fill="#59595A" d="M390.752,107.339c-31.174,0-56.449,25.275-56.449,56.447c0,31.174,25.275,56.449,56.449,56.449
		c31.173,0,56.442-25.275,56.442-56.449C447.194,132.614,421.925,107.339,390.752,107.339z M390.759,210.3
		c-25.694,0-46.519-20.824-46.519-46.514c0-25.688,20.824-46.512,46.519-46.512c25.682,0,46.506,20.824,46.506,46.512
		C437.265,189.476,416.44,210.3,390.759,210.3z"/>
</g>
</svg>
