<?xml version="1.0" encoding="utf-8"?>
<!-- Generator: Adobe Illustrator 16.0.0, SVG Export Plug-In . SVG Version: 6.00 Build 0)  -->
<!DOCTYPE svg PUBLIC "-//W3C//DTD SVG 1.1//EN" "http://www.w3.org/Graphics/SVG/1.1/DTD/svg11.dtd">
<svg version="1.1" id="Layer_1" xmlns="http://www.w3.org/2000/svg" xmlns:xlink="http://www.w3.org/1999/xlink" x="0px" y="0px"
	 width="3813.021px" height="484px" viewBox="0 0 3813.021 484" enable-background="new 0 0 3813.021 484" xml:space="preserve">
<g>
	<path fill="#59595A" d="M456.307,388.293c0,2.6-2.106,4.711-4.71,4.711H28.186c-2.601,0-4.707-2.111-4.707-4.711l0,0
		c0-2.6,2.106-4.709,4.707-4.709h423.411C454.2,383.584,456.307,385.693,456.307,388.293L456.307,388.293z"/>
	<path fill="#59595A" d="M445.259,382.566c0-54.818-21.34-106.18-60.092-144.92c-38.749-38.752-90.255-59.932-145.077-59.932l0,0
		c-54.814,0-106.356,21.363-145.111,60.111c-38.746,38.758-60.086,90.299-60.086,145.082 M47.688,382.752
		c-0.03-51.42,19.992-99.652,56.345-135.969c36.315-36.344,84.642-56.313,136.058-56.313c51.388,0,99.714,20.025,136.066,56.375
		c36.315,36.35,56.311,84.678,56.311,136.063"/>
	<path fill="#59595A" d="M240.09,235.963c-39.281,0-76.153,15.283-103.92,43.057c-27.772,27.73-43.057,64.637-43.057,103.889h12.793
		c0-35.82,13.944-69.514,39.28-94.885c25.358-25.326,59.057-39.299,94.903-39.299c35.821,0,69.517,13.973,94.881,39.299
		c25.333,25.371,39.28,59.064,39.28,94.885h12.793c0-39.252-15.29-76.158-43.06-103.889
		C316.249,251.246,279.343,235.963,240.09,235.963L240.09,235.963z M240.09,235.963"/>
	<path fill="#59595A" d="M232.133,344.342l-38.338-44.402l-9.669,8.369l38.808,44.957c-1.277,2.59-2.029,5.459-2.029,8.459
		c0.03,5.113,2.029,9.92,5.678,13.543c3.618,3.584,8.429,5.553,13.508,5.553c5.151,0,9.956-2.031,13.606-5.684
		c7.426-7.488,7.393-19.654-0.126-27.115C247.957,342.475,239.155,341.287,232.133,344.342L232.133,344.342z M244.617,366.152
		c-2.404,2.402-6.608,2.436-9.05,0.027c-1.184-1.188-1.868-2.801-1.868-4.518c0-1.689,0.657-3.309,1.835-4.525
		c1.216-1.221,2.813-1.873,4.556-1.873c1.684,0,3.28,0.652,4.492,1.834C247.081,359.602,247.081,363.66,244.617,366.152
		L244.617,366.152z M244.617,366.152"/>
	<path fill="#ECEDED" d="M296.814,142.838c0,37.059-30.037,67.096-67.095,67.096c-37.056,0-67.095-30.037-67.095-67.096
		c0-37.053,30.039-67.094,67.095-67.094C266.777,75.744,296.814,105.785,296.814,142.838z"/>
	<g>
		<path fill="#59595A" d="M220.946,122.498c0,3.342-2.711,6.055-6.059,6.055c-3.345,0-6.061-2.713-6.061-6.055
			c0-3.35,2.716-6.061,6.061-6.061C218.235,116.438,220.946,119.148,220.946,122.498z"/>
		<path fill="#59595A" d="M250.614,122.498c0,3.342-2.716,6.055-6.061,6.055c-3.348,0-6.059-2.713-6.059-6.055
			c0-3.35,2.711-6.061,6.059-6.061C247.898,116.438,250.614,119.148,250.614,122.498z"/>
	</g>
	<line fill="none" stroke="#59595A" stroke-miterlimit="10" x1="194.86" y1="164.209" x2="265.852" y2="164.209"/>
	<path fill="#ECEDED" d="M134.189,341.164c0,37.051-30.04,67.094-67.095,67.094S0,378.215,0,341.164
		c0-37.059,30.04-67.102,67.095-67.102S134.189,304.105,134.189,341.164z"/>
	<path fill="none" stroke="#59595A" stroke-miterlimit="10" d="M31.601,376.82c0-19.604,15.889-25.703,35.494-25.703
		c19.604,0,35.497,6.1,35.497,25.703"/>
	<g>
		<path fill="#59595A" d="M58.321,320.816c0,3.348-2.713,6.061-6.059,6.061c-3.35,0-6.061-2.713-6.061-6.061
			s2.711-6.061,6.061-6.061C55.608,314.756,58.321,317.469,58.321,320.816z"/>
		<circle fill="#59595A" cx="81.93" cy="320.816" r="6.059"/>
	</g>
	<path fill="#E66A38" d="M484,339.6c0,37.059-30.04,67.094-67.095,67.094s-67.095-30.035-67.095-67.094
		c0-37.055,30.04-67.096,67.095-67.096S484,302.545,484,339.6z"/>
	<path fill="none" stroke="#59595A" stroke-miterlimit="10" d="M452.402,349.553c0,19.604-15.893,35.494-35.494,35.494
		c-19.606,0-35.497-15.891-35.497-35.494"/>
	<g>
		<path fill="#59595A" d="M408.134,319.258c0,3.342-2.713,6.055-6.061,6.055s-6.061-2.713-6.061-6.055
			c0-3.348,2.713-6.061,6.061-6.061S408.134,315.91,408.134,319.258z"/>
		<path fill="#59595A" d="M437.8,319.258c0,3.342-2.713,6.055-6.061,6.055s-6.061-2.713-6.061-6.055
			c0-3.348,2.713-6.061,6.061-6.061S437.8,315.91,437.8,319.258z"/>
	</g>
</g>
<g>
	<path fill="#E66A38" d="M792.889,277.721c-2.917,26.541-13.3,47.619-31.156,63.234s-40.576,23.434-68.163,23.434
		c-32.278,0-57.916-10.779-76.909-32.322c-19.003-21.561-28.503-50.705-28.503-87.449c0-37.48,9.5-67.234,28.503-89.256
		c18.993-22.027,44.631-33.037,76.909-33.037c27.274,0,49.865,7.371,67.774,22.098c17.906,14.742,28.423,34.693,31.545,59.893
		h-47.941c-1.566-12.387-6.907-22.219-16.031-29.52c-9.125-7.279-20.722-10.92-34.794-10.92c-17.83,0-31.804,7.102-41.915,21.307
		c-10.114,14.209-15.17,33.91-15.17,59.111c0,24.576,5.028,43.799,15.09,57.699c10.062,13.904,24.059,20.85,41.995,20.85
		c14.072,0,25.669-4.051,34.794-12.174c9.124-8.121,14.465-19.113,16.031-32.947H792.889z"/>
	<path fill="#E66A38" d="M827.09,128.572h22.331h22.489v229.57h-22.333H827.09V128.572z"/>
	<path fill="#E66A38" d="M915.947,126.857h45.6v41.551h-45.6V126.857z M916.416,188.236h22.332h22.486v169.906h-22.33h-22.488
		V188.236z"/>
	<path fill="#E66A38" d="M1003.244,188.236h21.238h21.393v27.322c1.973-4.781,4.469-9.047,7.484-12.797
		c9.873-12.707,24.219-19.059,43.029-19.059c14.969,0,27.236,5.051,36.797,15.15c3.744,3.857,6.707,8.121,8.889,12.797l5.475-8.889
		c9.275-12.707,22.781-19.059,40.504-19.059c18.455,0,32.898,5.459,43.326,16.402c10.422,10.92,15.639,26.074,15.639,45.436v112.602
		h-22.332h-22.488v-99.783c0-12.711-2.088-22.113-6.264-28.201c-4.182-6.086-10.65-9.137-19.418-9.137
		c-9.402,0-16.582,2.889-21.537,8.672c-4.957,5.785-7.439,14.082-7.439,24.914v103.535h-22.33h-22.488V251.004
		c0-10.189-2.182-17.738-6.541-22.631c-4.359-4.904-11.057-7.352-20.088-7.352c-9.035,0-15.963,2.889-20.787,8.672
		c-4.828,5.785-7.24,14.082-7.24,24.914v103.535h-22.334h-22.486V188.236z"/>
	<path fill="#E66A38" d="M1328.691,362.516c-15.725,0-28.373-4.498-37.949-13.51c-9.578-9.016-14.367-20.85-14.367-35.535
		c0-15.51,4.32-27.912,12.963-37.248c8.637-9.314,21.238-15.172,37.791-17.563l29.516-4.053c7.701-1.051,14.104-2.816,19.207-5.314
		c2.188-1.037,3.879-2.91,5.08-5.625c1.189-2.711,1.637-5.463,1.322-8.279c-0.623-4.783-3.072-8.533-7.338-11.244
		c-5.105-3.215-12.445-4.838-22.02-4.838c-8.541,0-15.203,2.09-19.988,6.248c-4.793,4.158-7.34,10.047-7.652,17.65h-42.945
		c0.936-19.883,7.701-34.768,20.301-44.672c12.596-9.889,31.078-14.83,55.438-14.83c21.133,0,37.816,4.463,50.055,13.367
		c12.23,8.904,18.346,21.078,18.346,36.496v95.037c0,7.604,0.625,12.939,1.875,16.012c1.25,3.086,3.748,5.496,7.496,7.279v0.162
		v6.086h-24.205h-24.207v-0.162c-1.98-6.869-3.277-13.58-3.904-20.148l-0.156-0.305
		C1369.293,354.18,1351.07,362.516,1328.691,362.516z M1382.568,295.357v-19.51c-5.207,2.91-12.078,5.25-20.615,7.016l-16.553,3.123
		c-7.809,1.461-13.742,4.141-17.803,8.047c-4.061,3.908-6.09,8.816-6.09,14.762c0,6.762,1.82,12.082,5.465,15.92
		c3.641,3.854,8.746,5.781,15.305,5.781c14.367,0,25.816-5.051,34.355-15.152c1.666-1.965,3.07-4.889,4.217-8.746
		C1381.992,302.764,1382.568,299.012,1382.568,295.357z"/>
	<path fill="#E66A38" d="M1577.773,332.066c-19.887-21.561-29.826-50.705-29.826-87.449c0-37.48,9.939-67.234,29.826-89.256
		c19.883-22.027,46.693-33.037,80.426-33.037c33.936,0,60.824,11.01,80.66,33.037c19.83,22.021,29.748,51.775,29.748,89.256
		c0,36.744-9.918,65.889-29.748,87.449c-19.836,21.543-46.725,32.322-80.66,32.322
		C1624.467,364.389,1597.656,353.609,1577.773,332.066z M1704.111,302.617c11.035-13.992,16.555-33.445,16.555-58.324
		c0-25.398-5.52-45.277-16.555-59.645c-11.039-14.367-26.344-21.561-45.912-21.561c-19.473,0-34.723,7.193-45.756,21.561
		c-11.039,14.367-16.555,34.246-16.555,59.645c0,24.879,5.488,44.332,16.479,58.324c10.98,14.012,26.258,21.006,45.832,21.006
		C1677.768,323.623,1693.072,316.629,1704.111,302.617z"/>
	<path fill="#E66A38" d="M1803.119,188.236h21.24h21.393v30.445c1.563-3.336,3.33-6.549,5.311-9.672
		c10.512-16.863,24.098-25.307,40.758-25.307l10.152,0.158v45.76c-3.959-0.426-8.434-0.623-13.43-0.623
		c-13.641,0-23.82,3.375-30.529,10.137c-6.721,6.783-10.074,17.027-10.074,30.77v88.238h-22.332h-22.488V188.236z"/>
	<path fill="#E66A38" d="M2004.572,393.426c12.596,0,21.654-3.031,27.172-9.137c5.516-6.088,8.277-16.154,8.277-30.217v-20.916
		l-3.592,5.463c-9.893,13.635-24.102,20.453-42.633,20.453c-22.072,0-39.902-7.924-53.484-23.809
		c-13.59-15.885-20.381-36.84-20.381-62.861c0-26.643,6.605-48.096,19.832-64.34c13.221-16.24,30.607-24.359,52.16-24.359
		c19.051,0,33.834,6.924,44.35,20.773c1.977,2.605,3.797,5.463,5.465,8.584v-24.824h42.166v160.84
		c0,26.861-6.641,46.67-19.91,59.432c-13.277,12.742-33.967,19.133-62.078,19.133c-23.111,0-41.49-4.518-55.125-13.512
		c-13.641-9.012-20.926-21.471-21.863-37.406h48.725c0.414,5.834,3.096,10.063,8.039,12.723S1994.266,393.426,2004.572,393.426z
		 M2003.166,222.432c-11.662,0-20.77,4.443-27.328,13.348c-6.559,8.908-9.838,21.275-9.838,37.088
		c0,15.529,3.279,27.627,9.838,36.318s15.615,13.031,27.172,13.031c11.762,0,20.949-4.426,27.564-13.26
		c6.609-8.854,9.916-21.098,9.916-36.713c0-15.617-3.307-27.824-9.916-36.623C2023.959,226.84,2014.824,222.432,2003.166,222.432z"
		/>
	<path fill="#E66A38" d="M2164.016,362.516c-15.723,0-28.371-4.498-37.947-13.51c-9.58-9.016-14.367-20.85-14.367-35.535
		c0-15.51,4.32-27.912,12.961-37.248c8.639-9.314,21.238-15.172,37.793-17.563l29.514-4.053c7.701-1.051,14.105-2.816,19.209-5.314
		c2.188-1.037,3.877-2.91,5.078-5.625c1.191-2.711,1.637-5.463,1.324-8.279c-0.623-4.783-3.074-8.533-7.34-11.244
		c-5.104-3.215-12.443-4.838-22.018-4.838c-8.541,0-15.203,2.09-19.99,6.248c-4.791,4.158-7.34,10.047-7.65,17.65h-42.947
		c0.938-19.883,7.701-34.768,20.301-44.672c12.598-9.889,31.078-14.83,55.439-14.83c21.131,0,37.814,4.463,50.053,13.367
		c12.23,8.904,18.348,21.078,18.348,36.496v95.037c0,7.604,0.625,12.939,1.875,16.012c1.248,3.086,3.746,5.496,7.494,7.279v0.162
		v6.086h-24.205h-24.207v-0.162c-1.979-6.869-3.277-13.58-3.902-20.148l-0.156-0.305
		C2204.619,354.18,2186.396,362.516,2164.016,362.516z M2217.893,295.357v-19.51c-5.205,2.91-12.076,5.25-20.613,7.016
		l-16.553,3.123c-7.809,1.461-13.742,4.141-17.803,8.047c-4.061,3.908-6.092,8.816-6.092,14.762c0,6.762,1.82,12.082,5.467,15.92
		c3.641,3.854,8.744,5.781,15.303,5.781c14.367,0,25.816-5.051,34.357-15.152c1.664-1.965,3.07-4.889,4.215-8.746
		C2217.316,302.764,2217.893,299.012,2217.893,295.357z"/>
	<path fill="#E66A38" d="M2301.129,188.236h21.242h21.391v25.145c1.766-3.035,3.693-5.889,5.773-8.6
		c11.039-14.047,27.074-21.078,48.098-21.078c17.91,0,31.939,5.316,42.094,15.936c10.146,10.621,15.225,25.344,15.225,44.191
		v114.313h-22.336h-22.488V251.953c0-10.514-2.258-18.297-6.789-23.348c-4.525-5.051-11.477-7.584-20.848-7.584
		c-11.77,0-20.801,3.549-27.092,10.619c-6.301,7.084-9.451,17.293-9.451,30.607v95.895h-22.326h-22.492V188.236z"/>
	<path fill="#E66A38" d="M2497.75,126.857h45.6v41.551h-45.6V126.857z M2498.213,188.236h22.328h22.486v169.906h-22.326h-22.488
		V188.236z"/>
	<path fill="#E66A38" d="M2570.994,323.324l86.195-98.395l1.096-1.248h-80.891v-17.652v-17.793h136.799v18.275v18.418l-84.883,96.52
		h88.781v18.256v18.438h-147.098v-17.33V323.324z"/>
	<path fill="#E66A38" d="M2786.029,362.516c-15.723,0-28.367-4.498-37.953-13.51c-9.574-9.016-14.365-20.85-14.365-35.535
		c0-15.51,4.316-27.912,12.965-37.248c8.639-9.314,21.238-15.172,37.793-17.563l29.518-4.053c7.701-1.051,14.1-2.816,19.203-5.314
		c2.188-1.037,3.875-2.91,5.08-5.625c1.195-2.711,1.633-5.463,1.328-8.279c-0.625-4.783-3.078-8.533-7.344-11.244
		c-5.105-3.215-12.439-4.838-22.016-4.838c-8.539,0-15.205,2.09-19.988,6.248c-4.791,4.158-7.344,10.047-7.656,17.65h-42.941
		c0.93-19.883,7.701-34.768,20.293-44.672c12.6-9.889,31.082-14.83,55.443-14.83c21.131,0,37.818,4.463,50.053,13.367
		c12.225,8.904,18.346,21.078,18.346,36.496v95.037c0,7.604,0.625,12.939,1.875,16.012c1.25,3.086,3.748,5.496,7.496,7.279v0.162
		v6.086h-24.201h-24.211v-0.162c-1.98-6.869-3.273-13.58-3.898-20.148l-0.16-0.305
		C2826.631,354.18,2808.41,362.516,2786.029,362.516z M2839.902,295.357v-19.51c-5.203,2.91-12.076,5.25-20.615,7.016l-16.543,3.123
		c-7.818,1.461-13.742,4.141-17.813,8.047c-4.051,3.908-6.086,8.816-6.086,14.762c0,6.762,1.82,12.082,5.461,15.92
		c3.65,3.854,8.746,5.781,15.313,5.781c14.367,0,25.816-5.051,34.357-15.152c1.66-1.965,3.061-4.889,4.211-8.746
		C2839.33,302.764,2839.902,299.012,2839.902,295.357z"/>
	<path fill="#E66A38" d="M3069.938,295.211c-2.295,21.133-10.156,37.625-23.586,49.49c-13.43,11.869-30.922,17.814-52.471,17.814
		c-25.719,0-45.574-7.656-59.576-22.951c-14.01-15.316-21.006-37.125-21.006-65.447c0-27.682,7.264-49.689,21.783-65.98
		c14.527-16.279,34.123-24.434,58.799-24.434c21.861,0,39.764,6.031,53.719,18.113c13.949,12.082,21.391,27.951,22.338,47.635
		h-45.602c-0.42-8.443-3.418-15.26-8.986-20.453c-5.566-5.211-12.725-7.814-21.469-7.814c-11.244,0-19.813,4.494-25.693,13.51
		c-5.879,9.01-8.814,22.148-8.814,39.424c0,16.865,2.936,29.697,8.814,38.496c5.881,8.797,14.449,13.207,25.693,13.207
		c8.119,0,14.99-2.82,20.613-8.441c5.621-5.619,8.896-13.012,9.842-22.168H3069.938z"/>
	<path fill="#E66A38" d="M3102.26,126.857h45.6v41.551h-45.6V126.857z M3102.723,188.236h22.328h22.486v169.906h-22.326h-22.488
		V188.236z"/>
	<path fill="#E66A38" d="M3203.533,338.619c-15.67-15.92-23.504-37.43-23.504-64.502c0-27.682,7.834-49.689,23.504-65.98
		c15.662-16.279,36.775-24.434,63.322-24.434c26.754,0,47.947,8.154,63.564,24.434c15.615,16.291,23.414,38.299,23.414,65.98
		c0,27.072-7.799,48.582-23.414,64.502c-15.617,15.936-36.811,23.896-63.564,23.896
		C3240.309,362.516,3219.195,354.555,3203.533,338.619z M3297.313,311.916c6.971-8.746,10.459-21.504,10.459-38.262
		c0-17.172-3.488-30.215-10.459-39.123c-6.979-8.906-17.133-13.348-30.457-13.348c-13.33,0-23.451,4.441-30.375,13.348
		c-6.926,8.908-10.379,21.951-10.379,39.123c0,16.758,3.453,29.516,10.379,38.262c6.924,8.748,17.045,13.119,30.375,13.119
		C3280.18,325.035,3290.334,320.664,3297.313,311.916z"/>
	<path fill="#E66A38" d="M3385.229,188.236h21.24h21.389v25.145c1.768-3.035,3.693-5.889,5.773-8.6
		c11.039-14.047,27.074-21.078,48.1-21.078c17.91,0,31.938,5.316,42.092,15.936c10.146,10.621,15.225,25.344,15.225,44.191v114.313
		h-22.336h-22.488V251.953c0-10.514-2.258-18.297-6.791-23.348c-4.523-5.051-11.477-7.584-20.846-7.584
		c-11.77,0-20.801,3.549-27.092,10.619c-6.301,7.084-9.451,17.293-9.451,30.607v95.895h-22.326h-22.488V188.236z"/>
	<path fill="#E66A38" d="M3621.342,362.516c-15.725,0-28.369-4.498-37.953-13.51c-9.576-9.016-14.367-20.85-14.367-35.535
		c0-15.51,4.32-27.912,12.965-37.248c8.639-9.314,21.24-15.172,37.793-17.563l29.52-4.053c7.701-1.051,14.1-2.816,19.205-5.314
		c2.186-1.037,3.871-2.91,5.076-5.625c1.195-2.711,1.633-5.463,1.33-8.279c-0.625-4.783-3.078-8.533-7.344-11.244
		c-5.105-3.215-12.439-4.838-22.016-4.838c-8.539,0-15.205,2.09-19.99,6.248c-4.791,4.158-7.342,10.047-7.654,17.65h-42.941
		c0.928-19.883,7.701-34.768,20.291-44.672c12.602-9.889,31.082-14.83,55.443-14.83c21.133,0,37.818,4.463,50.053,13.367
		c12.227,8.904,18.348,21.078,18.348,36.496v95.037c0,7.604,0.625,12.939,1.875,16.012c1.248,3.086,3.748,5.496,7.496,7.279v0.162
		v6.086h-24.201h-24.211v-0.162c-1.98-6.869-3.275-13.58-3.9-20.148l-0.16-0.305C3661.945,354.18,3643.723,362.516,3621.342,362.516
		z M3675.213,295.357v-19.51c-5.201,2.91-12.072,5.25-20.613,7.016l-16.545,3.123c-7.816,1.461-13.742,4.141-17.811,8.047
		c-4.053,3.908-6.088,8.816-6.088,14.762c0,6.762,1.822,12.082,5.463,15.92c3.65,3.854,8.744,5.781,15.313,5.781
		c14.367,0,25.816-5.051,34.355-15.152c1.66-1.965,3.063-4.889,4.213-8.746C3674.643,302.764,3675.213,299.012,3675.213,295.357z"/>
	<path fill="#E66A38" d="M3759.703,128.572h22.326h22.488v229.57h-22.328h-22.486V128.572z"/>
</g>
</svg>
