<?xml version="1.0" encoding="utf-8"?>
<!-- Generator: Adobe Illustrator 16.0.0, SVG Export Plug-In . SVG Version: 6.00 Build 0)  -->
<!DOCTYPE svg PUBLIC "-//W3C//DTD SVG 1.1//EN" "http://www.w3.org/Graphics/SVG/1.1/DTD/svg11.dtd">
<svg version="1.1" id="Layer_1" xmlns="http://www.w3.org/2000/svg" xmlns:xlink="http://www.w3.org/1999/xlink" x="0px" y="0px"
	 width="484px" height="484px" viewBox="0 0 484 484" enable-background="new 0 0 484 484" xml:space="preserve">
<g>
	<path fill="#59595A" d="M456.307,388.292c0,2.6-2.106,4.711-4.71,4.711H28.186c-2.601,0-4.707-2.111-4.707-4.711l0,0
		c0-2.6,2.106-4.709,4.707-4.709h423.411C454.2,383.583,456.307,385.692,456.307,388.292L456.307,388.292z"/>
	<path fill="#59595A" d="M445.259,382.565c0-54.817-21.34-106.18-60.092-144.92c-38.75-38.752-90.255-59.932-145.077-59.932l0,0
		c-54.814,0-106.356,21.364-145.111,60.111c-38.746,38.758-60.086,90.299-60.086,145.082 M47.688,382.751
		c-0.03-51.419,19.992-99.652,56.345-135.969c36.315-36.344,84.642-56.313,136.058-56.313c51.388,0,99.714,20.025,136.066,56.375
		c36.315,36.35,56.31,84.679,56.31,136.063"/>
	<path fill="#59595A" d="M240.09,235.962c-39.281,0-76.153,15.283-103.921,43.058c-27.771,27.729-43.056,64.636-43.056,103.888
		h12.793c0-35.82,13.944-69.514,39.28-94.885c25.358-25.326,59.057-39.299,94.903-39.299c35.821,0,69.517,13.973,94.88,39.299
		c25.334,25.371,39.281,59.064,39.281,94.885h12.793c0-39.252-15.291-76.158-43.06-103.888
		C316.249,251.245,279.343,235.962,240.09,235.962L240.09,235.962z M240.09,235.962"/>
	<path fill="#59595A" d="M232.133,344.341l-38.338-44.401l-9.669,8.368l38.808,44.958c-1.277,2.589-2.029,5.458-2.029,8.458
		c0.03,5.113,2.029,9.92,5.678,13.543c3.618,3.584,8.429,5.553,13.508,5.553c5.151,0,9.956-2.03,13.606-5.683
		c7.426-7.489,7.393-19.654-0.127-27.115C247.957,342.474,239.155,341.286,232.133,344.341L232.133,344.341z M244.616,366.151
		c-2.403,2.402-6.607,2.437-9.049,0.028c-1.184-1.188-1.868-2.802-1.868-4.519c0-1.688,0.657-3.309,1.835-4.524
		c1.215-1.222,2.813-1.874,4.556-1.874c1.684,0,3.28,0.652,4.492,1.834C247.081,359.602,247.081,363.659,244.616,366.151
		L244.616,366.151z M244.616,366.151"/>
	<path fill="#ECEDED" d="M296.814,142.837c0,37.059-30.037,67.096-67.095,67.096c-37.056,0-67.095-30.037-67.095-67.096
		c0-37.052,30.039-67.094,67.095-67.094C266.777,75.743,296.814,105.785,296.814,142.837z"/>
	<g>
		<path fill="#59595A" d="M220.946,122.497c0,3.342-2.711,6.055-6.059,6.055c-3.345,0-6.061-2.713-6.061-6.055
			c0-3.349,2.716-6.061,6.061-6.061C218.235,116.437,220.946,119.148,220.946,122.497z"/>
		<path fill="#59595A" d="M250.614,122.497c0,3.342-2.716,6.055-6.061,6.055c-3.348,0-6.059-2.713-6.059-6.055
			c0-3.349,2.711-6.061,6.059-6.061C247.898,116.437,250.614,119.148,250.614,122.497z"/>
	</g>
	<line fill="none" stroke="#59595A" stroke-miterlimit="10" x1="194.86" y1="164.209" x2="265.851" y2="164.209"/>
	<path fill="#ECEDED" d="M134.189,341.163c0,37.052-30.04,67.094-67.095,67.094S0,378.215,0,341.163
		c0-37.059,30.04-67.102,67.095-67.102S134.189,304.104,134.189,341.163z"/>
	<path fill="none" stroke="#59595A" stroke-miterlimit="10" d="M31.601,376.819c0-19.604,15.889-25.703,35.494-25.703
		c19.604,0,35.497,6.1,35.497,25.703"/>
	<g>
		<path fill="#59595A" d="M58.321,320.815c0,3.348-2.713,6.061-6.059,6.061c-3.35,0-6.061-2.713-6.061-6.061
			s2.711-6.061,6.061-6.061C55.608,314.755,58.321,317.468,58.321,320.815z"/>
		<circle fill="#59595A" cx="81.93" cy="320.815" r="6.059"/>
	</g>
	<path fill="#E66A38" d="M484,339.599c0,37.059-30.04,67.094-67.095,67.094s-67.095-30.035-67.095-67.094
		c0-37.054,30.04-67.096,67.095-67.096S484,302.545,484,339.599z"/>
	<path fill="none" stroke="#59595A" stroke-miterlimit="10" d="M452.402,349.552c0,19.604-15.893,35.494-35.494,35.494
		c-19.606,0-35.497-15.891-35.497-35.494"/>
	<g>
		<path fill="#59595A" d="M408.134,319.257c0,3.342-2.713,6.055-6.061,6.055s-6.061-2.713-6.061-6.055
			c0-3.348,2.713-6.061,6.061-6.061S408.134,315.909,408.134,319.257z"/>
		<path fill="#59595A" d="M437.8,319.257c0,3.342-2.713,6.055-6.061,6.055s-6.061-2.713-6.061-6.055
			c0-3.348,2.713-6.061,6.061-6.061S437.8,315.909,437.8,319.257z"/>
	</g>
</g>
</svg>
