<?xml version="1.0" encoding="utf-8"?>
<!-- Generator: Adobe Illustrator 16.0.0, SVG Export Plug-In . SVG Version: 6.00 Build 0)  -->
<!DOCTYPE svg PUBLIC "-//W3C//DTD SVG 1.1//EN" "http://www.w3.org/Graphics/SVG/1.1/DTD/svg11.dtd">
<svg version="1.1" id="Layer_1" xmlns="http://www.w3.org/2000/svg" xmlns:xlink="http://www.w3.org/1999/xlink" x="0px" y="0px"
	 width="2085.08px" height="484px" viewBox="0 0 2085.08 484" enable-background="new 0 0 2085.08 484" xml:space="preserve">
<g>
	<path fill="#59595A" d="M205.104,301.833c-11.717,0-20.51,9.521-20.51,20.51c0,11.715,9.521,20.508,20.51,20.508
		s20.508-9.52,20.508-20.508C226.346,311.354,216.82,301.833,205.104,301.833L205.104,301.833z M205.104,328.938
		c-3.662,0-5.863-2.932-5.863-5.863c0-3.664,2.934-5.857,5.863-5.857c3.662,0,5.854,2.924,5.854,5.857
		C211.693,326.007,208.766,328.938,205.104,328.938L205.104,328.938z M205.104,328.938"/>
	<path fill="#59595A" d="M351.602,202.21c0-4.398-3.662-7.322-7.324-7.322H204.371c-4.4,0-7.324,2.93-7.324,7.322
		c0,4.396,2.924,7.33,7.324,7.33h139.906C348.672,209.54,351.602,206.606,351.602,202.21L351.602,202.21z M351.602,202.21"/>
	<path fill="#59595A" d="M209.496,186.829c4.395,0,7.324-2.932,7.324-7.322v-40.289c0-4.4-2.93-7.324-7.324-7.324
		c-4.393,0-7.322,2.924-7.322,7.324v40.289C202.174,183.167,205.104,186.829,209.496,186.829L209.496,186.829z M209.496,186.829"/>
	<path fill="#59595A" d="M235.135,186.829c4.396,0,7.324-2.932,7.324-7.322v-22.713c0-4.393-2.928-7.324-7.324-7.324
		s-7.326,2.932-7.326,7.324v22.713C227.809,183.167,231.471,186.829,235.135,186.829L235.135,186.829z M235.135,186.829"/>
	<path fill="#59595A" d="M261.504,186.829c4.4,0,7.324-2.932,7.324-7.322v-70.324c0-4.396-2.93-7.326-7.324-7.326
		s-7.322,2.93-7.322,7.326v70.324C254.182,183.167,257.109,186.829,261.504,186.829L261.504,186.829z M261.504,186.829"/>
	<path fill="#59595A" d="M287.141,186.829c4.398,0,7.326-2.932,7.326-7.322v-52.744c0-4.395-2.934-7.326-7.326-7.326
		c-4.395,0-7.324,2.932-7.324,7.326v52.744C279.816,183.167,282.746,186.829,287.141,186.829L287.141,186.829z M287.141,186.829"/>
	<path fill="#59595A" d="M312.779,186.829c4.398,0,7.322-2.932,7.322-7.322v-61.533c0-4.398-2.924-7.322-7.322-7.322
		c-4.395,0-7.328,2.932-7.328,7.322v61.533C305.451,183.167,309.117,186.829,312.779,186.829L312.779,186.829z M312.779,186.829"/>
	<g>
		<defs>
			<rect id="SVGID_5_" x="-0.002" y="14.593" width="484" height="454.813"/>
		</defs>
		<clipPath id="SVGID_2_">
			<use xlink:href="#SVGID_5_"  overflow="visible"/>
		</clipPath>
		<path clip-path="url(#SVGID_2_)" fill="#59595A" d="M339.156,186.829c4.391,0,7.322-2.932,7.322-7.322v-78.383
			c0-4.393-2.932-7.322-7.322-7.322c-4.398,0-7.332,2.93-7.332,7.322v78.383C331.824,183.167,334.752,186.829,339.156,186.829
			L339.156,186.829z M339.156,186.829"/>
		<path clip-path="url(#SVGID_2_)" fill="#59595A" d="M476.863,401.45l-61.529-98.889c-1.467-2.197-2.932-2.924-5.131-3.662V39.595
			c0-12.455-10.252-23.443-22.709-23.443H22.707C10.256,16.888-0.002,27.14-0.002,39.595v301.059
			c0,12.453,10.258,23.439,22.709,23.439h120.127l-16.111,50.543h-31.5c-4.393,0-7.322,2.93-7.322,7.324s2.93,7.322,7.322,7.322
			h219.025c4.391,0,7.324-2.928,7.324-7.322s-2.934-7.324-7.324-7.324h-31.502l-16.111-50.543h82.768l52.01,84.242
			c11.725,18.313,35.893,27.832,61.531,12.451C483.457,448.335,489.314,421.966,476.863,401.45L476.863,401.45z M14.648,39.595
			c0-4.395,3.662-8.059,8.059-8.059h364.787c4.398,0,8.059,3.664,8.059,8.789v240.996h-21.979l-25.635-41.752
			c40.289-35.895,50.543-97.422,21.242-145.037c-33.691-55.674-104.016-70.32-156.756-38.088
			c-53.473,32.963-70.32,104.012-37.361,157.484c29.307,47.617,87.904,66.656,139.184,46.15l12.449,20.506H14.648V39.595z
			 M395.553,295.245v10.984l-4.396,2.928l-8.055-13.912H395.553z M337.682,249.095l41.758,67.393
			c-3.662,2.189-5.865,3.658-9.525,5.855l-41.748-67.387L337.682,249.095z M324.502,238.837
			c-46.15,28.57-107.682,15.381-136.979-32.23c-28.57-46.881-14.65-108.412,32.23-136.98
			c46.145-28.566,107.676-15.379,136.975,32.23C386.033,148.005,371.387,209.54,324.502,238.837L324.502,238.837z M268.1,415.37
			H142.842l16.111-50.543h93.764L268.1,415.37z M343.547,338.458c-1.469,0.732-2.934,2.93-2.934,4.396
			c-0.729,2.195,0,3.664,0.734,5.857v0.738H22.707c-4.396,0-8.059-3.666-8.059-8.797v-46.143H335.49l21.975,35.154L343.547,338.458z
			 M455.621,447.601c-17.584,10.988-33.691,4.396-41.023-7.324l-57.133-93.027c0,0,19.045-11.719,50.543-30.77l57.133,93.033
			C472.473,422.7,468.803,439.544,455.621,447.601L455.621,447.601z M455.621,447.601"/>
	</g>
	<g>
		<path fill="#59595A" stroke="#586167" stroke-miterlimit="10" d="M105.203,164.237H79.717c-19.932,0-36.406,16.307-36.406,36.24
			v29.021c0,2.492,2.037,4.531,4.531,4.531h89.162c2.262,0,4.172-1.689,4.49-3.869v-29.684
			C141.494,180.544,125.133,164.237,105.203,164.237z"/>
		<path fill="#59595A" stroke="#59595A" stroke-miterlimit="10" d="M92.406,159.474c17.359,0,31.441-14.078,31.441-31.443
			c0-17.367-14.082-31.443-31.441-31.443c-17.367,0-31.445,14.076-31.445,31.443C60.961,145.396,75.039,159.474,92.406,159.474z"/>
		<path fill="#1C5486" d="M92.406,151.013c12.768,0,23.115-10.354,23.115-23.119c0-12.764-10.348-23.117-23.115-23.117
			c-12.771,0-23.123,10.354-23.123,23.117C69.283,140.659,79.635,151.013,92.406,151.013z"/>
		<path fill="#1C5486" d="M102.842,170.673H82.055c-16.256,0-29.688,13.301-29.688,29.559v23.664c0,2.035,1.66,3.699,3.691,3.699
			h72.721c1.842,0,3.402-1.377,3.666-3.156v-24.207C132.445,183.974,119.096,170.673,102.842,170.673z"/>
	</g>
</g>
<g>
	<path fill="#1C5486" d="M604.236,337.518c-20.148-21.836-30.222-51.369-30.222-88.603c0-37.973,10.073-68.114,30.222-90.425
		c20.146-22.308,47.307-33.463,81.482-33.463c34.386,0,61.625,11.155,81.722,33.463c20.092,22.311,30.139,52.452,30.139,90.425
		c0,37.233-10.047,66.767-30.139,88.603c-20.097,21.832-47.336,32.751-81.722,32.751
		C651.543,370.269,624.383,359.35,604.236,337.518z M732.235,307.693c11.179-14.187,16.771-33.886,16.771-59.098
		c0-25.735-5.593-45.881-16.771-60.437c-11.182-14.556-26.688-21.838-46.517-21.838c-19.727,0-35.179,7.282-46.36,21.838
		c-11.179,14.556-16.769,34.701-16.769,60.437c0,25.212,5.561,44.911,16.691,59.098c11.126,14.187,26.605,21.279,46.438,21.279
		C705.547,328.973,721.054,321.88,732.235,307.693z"/>
	<path fill="#1C5486" d="M831.6,131.356h22.625h22.783v82.907l0.949-1.266c12.234-17.191,28.373-25.791,48.416-25.791
		c21.834,0,39.397,8.07,52.688,24.209c13.29,16.139,19.933,37.394,19.933,63.761c0,27.953-6.643,50.474-19.933,67.563
		c-13.291,17.087-30.854,25.631-52.688,25.631c-19.937,0-36.074-8.015-48.416-24.049l-1.898-2.532v22.15H831.6V131.356z
		 M913.398,331.031c12.234,0,21.781-4.562,28.637-13.688c6.858-9.121,10.285-21.809,10.285-38.05
		c0-16.562-3.427-29.51-10.285-38.846c-6.855-9.333-16.348-14.003-28.479-14.003c-12.128,0-21.622,4.803-28.48,14.399
		c-6.854,9.6-10.282,22.94-10.282,40.028c0,15.718,3.428,28.007,10.282,36.867C891.828,326.601,901.268,331.031,913.398,331.031z"/>
	<path fill="#1C5486" d="M1031.745,191.797h22.627h22.783v190.97c0,18.673-4.034,31.751-12.104,39.239
		c-8.068,7.49-22.071,11.234-42.007,11.234l-12.342-0.156V396.85l5.54,0.16c6.115,0,10.229-0.979,12.338-2.929
		c2.111-1.954,3.165-5.722,3.165-11.314V191.797z M1031.431,129.614h46.2v42.09h-46.2V129.614z"/>
	<path fill="#1C5486" d="M1189.018,368.37c-26.16,0-46.332-8.067-60.52-24.208c-14.187-16.137-21.281-39.133-21.281-68.985
		c0-27.527,7.225-49.071,21.678-64.63c14.45-15.56,34.492-23.34,60.123-23.34c26.266,0,46.491,7.939,60.678,23.813
		c14.187,15.877,21.281,38.476,21.281,67.798c0.21,3.377-0.055,6.806-0.79,10.283h-117.242c1.053,13.609,4.061,23.788,9.02,30.537
		c6.329,8.44,16.875,12.659,31.644,12.659c6.855,0,13.211-1.952,19.064-5.855c5.855-3.901,9.359-8.596,10.521-14.082h46.201
		c-3.904,17.512-12.95,31.225-27.135,41.138C1228.071,363.413,1210.322,368.37,1189.018,368.37z M1223.667,260.148
		c-1.054-10.338-3.798-18.407-8.228-24.21c-5.799-7.698-14.819-11.549-27.055-11.549c-11.708,0-20.622,4.483-26.74,13.448
		c-3.798,5.695-6.539,13.133-8.228,22.311H1223.667z"/>
	<path fill="#1C5486" d="M1380.148,364.89c-7.595,0.632-16.932,0.949-28.006,0.949c-16.035,0-27.558-2.872-34.573-8.624
		c-7.015-5.746-10.521-15.162-10.521-28.242V223.601h-23.891v-31.804h23.891v-46.36h45.41v46.36h27.69v31.804h-27.69v97.776
		c0,4.011,1.187,6.648,3.562,7.914c2.371,1.266,7.301,1.899,14.792,1.899h9.337V364.89z"/>
	<path fill="#1C5486" d="M1410.209,129.614h46.201v42.09h-46.201V129.614z M1410.684,191.797h22.623h22.784v172.143h-22.624h-22.783
		V191.797z"/>
	<path fill="#1C5486" d="M1482.195,191.797h24.989h25.142l36.628,128.435h0.178l36.96-128.435h23.887h23.888l-62.182,172.143
		h-23.573h-23.733L1482.195,191.797z"/>
	<path fill="#1C5486" d="M1693.025,344.162c-15.878-16.137-23.813-37.918-23.813-65.345c0-28.057,7.936-50.338,23.813-66.849
		c15.872-16.505,37.26-24.762,64.158-24.762c27.105,0,48.574,8.257,64.396,24.762c15.822,16.511,23.731,38.792,23.731,66.849
		c0,27.427-7.909,49.208-23.731,65.345c-15.821,16.141-37.29,24.208-64.396,24.208
		C1730.285,368.37,1708.897,360.303,1693.025,344.162z M1788.037,317.106c7.064-8.86,10.599-21.781,10.599-38.765
		c0-17.402-3.534-30.614-10.599-39.632c-7.068-9.021-17.354-13.53-30.854-13.53c-13.504,0-23.762,4.51-30.775,13.53
		c-7.016,9.018-10.52,22.229-10.52,39.632c0,16.983,3.504,29.904,10.52,38.765c7.014,8.86,17.271,13.291,30.775,13.291
		C1770.684,330.397,1780.969,325.967,1788.037,317.106z"/>
	<path fill="#1C5486" d="M1974.551,243.376c0-6.645-2.747-11.971-8.236-15.979c-5.486-4.011-12.769-6.015-21.845-6.015
		c-8.762,0-15.599,1.505-20.504,4.509c-4.91,3.008-7.364,7.201-7.364,12.578c0,3.798,2.795,7.068,8.388,9.813
		c5.485,2.636,15.244,5.536,29.277,8.701c27.854,6.225,46.476,13.026,55.866,20.411c9.414,7.383,14.123,18.986,14.123,34.81
		c0,16.875-6.832,30.454-20.494,40.74c-13.66,10.282-31.677,15.426-54.04,15.426c-26.48,0-46.871-5.063-61.163-15.188
		c-14.296-10.127-21.917-24.894-22.867-44.302h46.201c0.316,7.91,3.826,14.108,10.525,18.589c6.698,4.486,15.801,6.726,27.298,6.726
		c9.073,0,16.171-1.555,21.287-4.667c5.12-3.11,7.677-7.461,7.677-13.054c0-3.9-2.479-7.225-7.433-9.967
		c-4.959-2.638-13.662-5.326-26.109-8.069c-29.118-6.539-48.583-13.448-58.394-20.729c-9.799-7.172-14.693-18.298-14.693-33.384
		c0-17.087,6.352-30.878,19.058-41.374c12.708-10.495,29.453-15.744,50.229-15.744c23.41,0,42.289,5.143,56.631,15.428
		c14.344,10.283,21.516,23.866,21.516,40.741H1974.551z"/>
</g>
</svg>
