<svg xmlns="http://www.w3.org/2000/svg" width="1925.464" height="405" viewBox="0 0 1925.464 405">
  <g id="Grupo_2" data-name="Grupo 2" transform="translate(0.464 -495.002)">
    <text id="PRO" transform="translate(441 817)" fill="#f18523" font-size="323" font-family="AvenirLTStd-Heavy, Avenir LT Std" font-weight="800"><tspan x="0" y="0">PRO</tspan></text>
    <text id="LEAD" transform="translate(1111 817)" fill="#474c52" font-size="323" font-family="AvenirLTStd-Light, Avenir LT Std" font-weight="300"><tspan x="0" y="0">LEAD</tspan></text>
    <g id="Grupo_1" data-name="Grupo 1">
      <rect id="Retângulo_4" data-name="Retângulo 4" width="90" height="90" transform="translate(-0.464 495.002)" fill="#f18523"/>
      <rect id="Retângulo_8" data-name="Retângulo 8" width="90" height="90" transform="translate(-0.464 600.002)" fill="#f18523"/>
      <rect id="Retângulo_9" data-name="Retângulo 9" width="90" height="90" transform="translate(-0.464 705.002)" fill="#f18523"/>
      <rect id="Retângulo_10" data-name="Retângulo 10" width="90" height="90" transform="translate(-0.464 810.002)" fill="#f18523"/>
      <rect id="Retângulo_11" data-name="Retângulo 11" width="90" height="90" transform="translate(104.536 495.002)" fill="#f18523"/>
      <rect id="Retângulo_12" data-name="Retângulo 12" width="90" height="90" transform="translate(104.536 600.002)" fill="#f18523"/>
      <rect id="Retângulo_13" data-name="Retângulo 13" width="90" height="90" transform="translate(104.536 705.002)" fill="#e2e3e5"/>
      <rect id="Retângulo_14" data-name="Retângulo 14" width="90" height="90" transform="translate(104.536 810.002)" fill="#e2e3e5"/>
      <rect id="Retângulo_15" data-name="Retângulo 15" width="90" height="90" transform="translate(209.536 495.002)" fill="#474c52"/>
      <rect id="Retângulo_16" data-name="Retângulo 16" width="90" height="90" transform="translate(209.536 600.002)" fill="#474c52"/>
      <rect id="Retângulo_17" data-name="Retângulo 17" width="90" height="90" transform="translate(209.536 705.002)" fill="#474c52"/>
      <rect id="Retângulo_18" data-name="Retângulo 18" width="90" height="90" transform="translate(209.536 810.002)" fill="#474c52"/>
      <rect id="Retângulo_19" data-name="Retângulo 19" width="90" height="90" transform="translate(314.536 810.002)" fill="#474c52"/>
      <rect id="Retângulo_20" data-name="Retângulo 20" width="90" height="90" transform="translate(314.536 705.002)" fill="#e2e3e5"/>
      <rect id="Retângulo_21" data-name="Retângulo 21" width="90" height="90" transform="translate(314.536 600.002)" fill="#e2e3e5"/>
      <rect id="Retângulo_22" data-name="Retângulo 22" width="90" height="90" transform="translate(314.536 495.002)" fill="#e2e3e5"/>
    </g>
  </g>
</svg>
