<svg xmlns="http://www.w3.org/2000/svg" width="211.7" height="35.28‬" viewBox="0 0 105.85 17.645"><defs><style>.a{fill:#f18522;}.b{fill:#474b51;}</style></defs><g transform="translate(-3378 -318.054)"><path class="a" d="M3403.641,318.5h3a4.032,4.032,0,0,1,2.48.684,2.81,2.81,0,0,1,0,4.138,4.008,4.008,0,0,1-2.48.69h-1.95V328.8h-1.047Zm1.047,4.553h1.687a4.2,4.2,0,0,0,1.186-.145,2.189,2.189,0,0,0,.778-.386,1.4,1.4,0,0,0,.422-.568,1.885,1.885,0,0,0,.13-.705,1.845,1.845,0,0,0-.13-.69,1.46,1.46,0,0,0-.422-.575,2.048,2.048,0,0,0-.778-.385,4.409,4.409,0,0,0-1.186-.139h-1.687Z" transform="translate(7.059 0.122)"/><path class="a" d="M3411.235,328.8h-1.047V318.5h3.171a4.029,4.029,0,0,1,2.48.684,2.418,2.418,0,0,1,.91,2.065,2.576,2.576,0,0,1-.676,1.811,2.907,2.907,0,0,1-1.957.852l2.967,4.887H3415.8l-2.823-4.786h-1.746Zm0-5.745h1.862a4.19,4.19,0,0,0,1.186-.145,2.2,2.2,0,0,0,.779-.386,1.411,1.411,0,0,0,.422-.568,1.9,1.9,0,0,0,.13-.705,1.854,1.854,0,0,0-.13-.69,1.469,1.469,0,0,0-.422-.575,2.058,2.058,0,0,0-.779-.385,4.4,4.4,0,0,0-1.186-.139h-1.862Z" transform="translate(8.862 0.122)"/><path class="a" d="M3427.138,323.7a5.641,5.641,0,0,1-.407,2.168,5.115,5.115,0,0,1-2.829,2.836,5.786,5.786,0,0,1-4.262,0,5.112,5.112,0,0,1-2.83-2.836,5.978,5.978,0,0,1,0-4.335,5.113,5.113,0,0,1,2.83-2.836,5.768,5.768,0,0,1,4.262,0,5.115,5.115,0,0,1,2.829,2.836A5.635,5.635,0,0,1,3427.138,323.7Zm-1.134,0a4.968,4.968,0,0,0-.29-1.695,4.336,4.336,0,0,0-.837-1.418,4.033,4.033,0,0,0-1.332-.974,4.515,4.515,0,0,0-3.549,0,4.051,4.051,0,0,0-1.331.974,4.3,4.3,0,0,0-.835,1.418,5.081,5.081,0,0,0,0,3.39,4.286,4.286,0,0,0,.835,1.418,4.052,4.052,0,0,0,1.331.974,4.515,4.515,0,0,0,3.549,0,4.034,4.034,0,0,0,1.332-.974,4.323,4.323,0,0,0,.837-1.418A4.963,4.963,0,0,0,3426,323.7Z" transform="translate(10.573 0.066)"/><path class="b" d="M3430.135,326.7h-4.378V324.97l4.145-6.472h1.978v6.633h1.5V326.7h-1.5V328.8h-1.745Zm0-5.731h-.029l-2.575,4.16h2.6Z" transform="translate(13.148 0.122)"/><path class="b" d="M3435.357,320.156H3432.2V318.5h8.146v1.658h-3.156v8.64h-1.833Z" transform="translate(14.922 0.122)"/><path class="b" d="M3439.569,318.5h6.821v1.658H3441.4v2.531h4.727v1.658H3441.4v2.793h5.25V328.8h-7.083Z" transform="translate(16.95 0.122)"/><path class="b" d="M3453.726,320.969a2.808,2.808,0,0,0-2.168-1.018,3.492,3.492,0,0,0-3.533,3.679,3.534,3.534,0,0,0,3.533,3.826,2.9,2.9,0,0,0,2.314-1.251l1.512,1.076a4.557,4.557,0,0,1-3.84,1.833,5.411,5.411,0,1,1,0-10.821,4.472,4.472,0,0,1,3.606,1.629Z" transform="translate(18.749 0.066)"/><path class="b" d="M3454.351,318.5h1.833v4.1H3461v-4.1h1.832v10.3H3461v-4.539h-4.814V328.8h-1.833Z" transform="translate(21.019 0.122)"/><g transform="translate(3410.607 331.938)"><path class="b" d="M3403.568,329.01h1.067a1.731,1.731,0,1,1,0,3.451h-1.067Zm.321,3.159h.663c.916,0,1.627-.444,1.627-1.433s-.712-1.433-1.627-1.433h-.663Z" transform="translate(-3403.568 -328.922)"/><path class="b" d="M3406.816,329.01h.322v3.451h-.322Z" transform="translate(-3402.673 -328.922)"/><path class="b" d="M3411.088,332.255a2.54,2.54,0,0,1-1.287.312,1.814,1.814,0,0,1,0-3.627,1.662,1.662,0,0,1,1.242.478l-.233.244a1.4,1.4,0,0,0-1.009-.428,1.522,1.522,0,0,0,0,3.042,1.883,1.883,0,0,0,.964-.205v-1.159h-.828v-.293h1.151Z" transform="translate(-3402.343 -328.941)"/><path class="b" d="M3411.548,329.01h.323v3.451h-.323Z" transform="translate(-3401.371 -328.922)"/><path class="b" d="M3413.78,329.3h-1.18v-.292h2.681v.292H3414.1v3.159h-.321Z" transform="translate(-3401.081 -328.922)"/><path class="b" d="M3416.4,329.01h.331l1.453,3.451h-.361l-.375-.916h-1.828l-.39.916h-.337Zm.151.351-.8,1.891h1.584Z" transform="translate(-3400.452 -328.922)"/><path class="b" d="M3418.241,329.01h.321v3.159h1.61v.292h-1.931Z" transform="translate(-3399.528 -328.922)"/><path class="b" d="M3422.766,329.3h-1.18v-.292h2.681v.292h-1.18v3.159h-.321Z" transform="translate(-3398.608 -328.922)"/><path class="b" d="M3424.487,329.01h.907c.273,0,1.228,0,1.228.907a.873.873,0,0,1-.882.888l1,1.657h-.365l-.97-1.638h-.6v1.638h-.321Zm.321,1.521h.682c.677,0,.808-.376.808-.615s-.131-.615-.808-.615h-.682Z" transform="translate(-3397.809 -328.922)"/><path class="b" d="M3428.29,329.01h.331l1.453,3.451h-.36l-.375-.916h-1.829l-.39.916h-.336Zm.15.351-.8,1.891h1.584Z" transform="translate(-3397.177 -328.922)"/><path class="b" d="M3430.136,329.01h.414l2.1,3.022h.01V329.01h.322v3.451h-.415l-2.1-3.021h-.011v3.021h-.321Z" transform="translate(-3396.254 -328.922)"/><path class="b" d="M3433.63,331.842a.874.874,0,0,0,.79.434.7.7,0,0,0,.775-.678c0-.964-1.779-.4-1.779-1.71a1,1,0,0,1,1.107-.946,1.12,1.12,0,0,1,.94.435l-.277.2a.776.776,0,0,0-.673-.341c-.415,0-.775.214-.775.653,0,1.038,1.779.414,1.779,1.71a.988.988,0,0,1-1.072.971,1.3,1.3,0,0,1-1.122-.522Z" transform="translate(-3395.376 -328.941)"/><path class="b" d="M3436,329.01h2.067v.292h-1.746v1.229h1.624v.292h-1.624v1.638H3436Z" transform="translate(-3394.639 -328.922)"/><path class="b" d="M3440.114,328.941a1.814,1.814,0,1,1-1.782,1.813A1.728,1.728,0,0,1,3440.114,328.941Zm0,3.335a1.522,1.522,0,1,0-1.461-1.521A1.425,1.425,0,0,0,3440.114,332.276Z" transform="translate(-3393.998 -328.941)"/><path class="b" d="M3442.076,329.01h.907c.273,0,1.228,0,1.228.907a.873.873,0,0,1-.882.888l1,1.657h-.366l-.969-1.638h-.6v1.638h-.323Zm.323,1.521h.682c.677,0,.809-.376.809-.615s-.132-.615-.809-.615h-.682Z" transform="translate(-3392.967 -328.922)"/><path class="b" d="M3444.7,329.01h.483l1.258,2.9,1.258-2.9h.458v3.451h-.321v-3.042h-.01l-1.316,3.042h-.14l-1.337-3.042h-.009v3.042h-.323Z" transform="translate(-3392.245 -328.922)"/><path class="b" d="M3449.66,329.01h.332l1.452,3.451h-.361l-.376-.916h-1.828l-.39.916h-.335Zm.15.351-.8,1.891h1.585Z" transform="translate(-3391.293 -328.922)"/><path class="b" d="M3452.1,329.3h-1.18v-.292h2.681v.292h-1.18v3.159h-.321Z" transform="translate(-3390.532 -328.922)"/><path class="b" d="M3453.822,329.01h.322v3.451h-.322Z" transform="translate(-3389.733 -328.922)"/><path class="b" d="M3456.806,328.941a1.814,1.814,0,1,1-1.784,1.813A1.729,1.729,0,0,1,3456.806,328.941Zm0,3.335a1.522,1.522,0,1,0-1.462-1.521A1.427,1.427,0,0,0,3456.806,332.276Z" transform="translate(-3389.403 -328.941)"/><path class="b" d="M3458.768,329.01h.415l2.1,3.022h.01V329.01h.321v3.451h-.415l-2.1-3.021h-.01v3.021h-.322Z" transform="translate(-3388.371 -328.922)"/></g><path class="b" d="M3390.5,320.791v-.868h1.411v1.016a5.555,5.555,0,0,0-1.278-.149Z" transform="translate(3.441 0.515)"/><path class="b" d="M3385.055,321.924l.368-.129-.035-.913-.376-.1-.262-.738.223-.326-.546-.718-.358.149-.631-.436,0-.4-.849-.249-.205.339-.757.031-.231-.321-.828.316.026.4-.6.486-.369-.119-.49.759.248.309-.205.756-.367.128.034.913.376.1.262.737-.223.328.546.717.359-.148.631.436,0,.4.85.249.205-.339.758-.032.231.323.828-.316-.026-.4.6-.486.369.119.49-.76-.248-.307Zm-2.85,1.885a2.339,2.339,0,1,1,2.164-2.428A2.289,2.289,0,0,1,3382.205,323.809Z" transform="translate(0.223 0.003)"/><path class="b" d="M3381.475,324.816l-.115-.421.139-.171-.273-.423-.206.066-.332-.27.015-.223-.459-.176-.129.179-.423-.017-.115-.19-.472.138,0,.223-.351.244-.2-.083-.3.4.125.181-.147.411-.209.055-.019.508.2.071.115.421-.139.171.273.423.205-.066.331.27-.015.223.461.176.128-.179.422.017.114.19.473-.139,0-.222.351-.244.2.083.3-.4-.125-.181.147-.411.209-.055.019-.508Zm-.381.3a1.256,1.256,0,1,1-1.2-1.35A1.276,1.276,0,0,1,3381.094,325.117Z" transform="translate(0 1.408)"/><g transform="translate(3385.287 318.054)"><path class="b" d="M3391.7,319.3l-.856-1.247-1.986.645.042,1.512-1.454,1.055-1.426-.506-1.227,1.69.922,1.2c-.236.728-.319.981-.555,1.709l-1.451.427v2.089l1.34.4v-.592a.967.967,0,0,1,.965-.965h1.061a5.524,5.524,0,0,1,5.363-5.4V319.3Z" transform="translate(-3383.714 -318.054)"/><path class="b" d="M3388.136,328.283h-2.351a.963.963,0,0,1-.765-.38l-.457.594,1.227,1.69,1.426-.506,1.454,1.055-.042,1.513,1.985.645.856-1.247h.74V329.64a5.5,5.5,0,0,1-3.605-1.479A.956.956,0,0,1,3388.136,328.283Z" transform="translate(-3383.48 -315.343)"/></g><path class="a" d="M3396.377,326.091a.565.565,0,0,0-.186-.032h-2.348a.567.567,0,0,0-.186.032l-1.051-1.051a.559.559,0,0,0,.057-.249v-2.348a.57.57,0,0,0-.568-.569h-2.35a.57.57,0,0,0-.568.569v2.348a.573.573,0,0,0,.057.249l-1.051,1.051a.565.565,0,0,0-.186-.032h-2.348a.571.571,0,0,0-.569.569v2.349a.571.571,0,0,0,.569.569H3388a.571.571,0,0,0,.57-.569v-2.349a.556.556,0,0,0-.045-.221l1.067-1.069a.537.537,0,0,0,.156.023h2.35a.529.529,0,0,0,.155-.023l1.069,1.069a.565.565,0,0,0-.046.221v2.349a.572.572,0,0,0,.57.569h2.348a.57.57,0,0,0,.568-.569v-2.349a.547.547,0,0,0-.044-.221l1.068-1.069a.528.528,0,0,0,.156.023h2.348a.571.571,0,0,0,.57-.57v-2.348a.57.57,0,0,0-.57-.569h-2.348a.57.57,0,0,0-.568.569v2.348a.559.559,0,0,0,.057.249Z" transform="translate(1.948 1.052)"/><path class="b" d="M.066,0H.453A.066.066,0,0,1,.52.066V.453A.067.067,0,0,1,.453.52H.067A.067.067,0,0,1,0,.453V.066A.066.066,0,0,1,.066,0Z" transform="translate(3399.109 330.423)"/><rect class="b" width="0.778" height="0.778" rx="0.1" transform="translate(3398.72 334.146)"/><rect class="b" width="0.618" height="0.618" rx="0.079" transform="translate(3399.588 327.195)"/><rect class="b" width="1.012" height="1.012" rx="0.129" transform="translate(3402.361 326.831)"/><rect class="b" width="0.817" height="0.817" rx="0.105" transform="translate(3395.115 331.745)"/><rect class="b" width="2.437" height="2.437" rx="0.312" transform="translate(3400.139 328.255)"/><rect class="b" width="2.036" height="2.036" rx="0.261" transform="translate(3397.183 331.47)"/><rect class="b" width="1.079" height="1.079" rx="0.138" transform="translate(3403.185 324.773)"/><rect class="b" width="0.704" height="0.704" rx="0.09" transform="translate(3403.021 321.929)"/><rect class="b" width="1.086" height="1.086" rx="0.139" transform="translate(3400.471 331.468)"/><rect class="b" width="1.411" height="1.411" rx="0.18" transform="translate(3394.042 334.288)"/><rect class="b" width="0.55" height="0.55" rx="0.07" transform="translate(3395.345 320.132)"/><rect class="b" width="1.385" height="1.385" rx="0.177" transform="translate(3400.002 320.896)"/><rect class="b" width="1.012" height="1.012" rx="0.129" transform="translate(3395.459 322.497)"/><rect class="b" width="2.726" height="2.726" rx="0.349" transform="translate(3396.474 319.004)"/><rect class="b" width="2.024" height="2.023" rx="0.259" transform="translate(3396.267 324.301)"/><rect class="b" width="0.506" height="0.506" rx="0.065" transform="translate(3397.625 322.878)"/></g></svg>