<svg xmlns="http://www.w3.org/2000/svg" xmlns:xlink="http://www.w3.org/1999/xlink" width="167.029" height="48.79" viewBox="0 0 167.029 48.79">
  <defs>
    <linearGradient id="linear-gradient" x1="0.873" y1="0.107" x2="0.188" y2="0.861" gradientUnits="objectBoundingBox">
      <stop offset="0" stop-color="#eea248"/>
      <stop offset="1" stop-color="#f36f45"/>
    </linearGradient>
    <linearGradient id="linear-gradient-2" x1="0.173" y1="1" x2="1.066" y2="-0.191" gradientUnits="objectBoundingBox">
      <stop offset="0" stop-color="#bdc5d0"/>
      <stop offset="1" stop-color="#fff"/>
    </linearGradient>
    <linearGradient id="linear-gradient-3" x1="0.364" y1="-0.318" x2="0.153" y2="0.874" gradientUnits="objectBoundingBox">
      <stop offset="0" stop-color="#6c6e70"/>
      <stop offset="1" stop-color="#383b3f"/>
    </linearGradient>
    <linearGradient id="linear-gradient-4" x1="1.576" y1="0.229" x2="0.155" y2="1" xlink:href="#linear-gradient"/>
  </defs>
  <g id="prolead_horizontal" transform="translate(-31.273 -168)">
    <g id="Grupo_13282" data-name="Grupo 13282" transform="translate(31.273 168)">
      <g id="prolead_square" transform="translate(0 0)">
        <path id="União_1" data-name="União 1" d="M2,48.79a2,2,0,0,1-2-2V40a2,2,0,0,1,2-2H8.753a2,2,0,0,1,2,2v6.788a2,2,0,0,1-2,2ZM2,36.122a2,2,0,0,1-2-2V27.335a2,2,0,0,1,2-2H8.753a2,2,0,0,1,2,2v6.788a2,2,0,0,1-2,2ZM14.627,23.455a2,2,0,0,1-2-2V14.667a2,2,0,0,1,2-2H21.38a2,2,0,0,1,2,2v6.788a2,2,0,0,1-2,2ZM2,23.455a2,2,0,0,1-2-2V14.667a2,2,0,0,1,2-2H8.753a2,2,0,0,1,2,2v6.788a2,2,0,0,1-2,2ZM14.627,10.788a2,2,0,0,1-2-2V2a2,2,0,0,1,2-2H21.38a2,2,0,0,1,2,2V8.788a2,2,0,0,1-2,2ZM2,10.788a2,2,0,0,1-2-2V2A2,2,0,0,1,2,0H8.753a2,2,0,0,1,2,2V8.788a2,2,0,0,1-2,2Z" transform="translate(0)" fill="url(#linear-gradient)"/>
        <path id="União_3" data-name="União 3" d="M2,48.79a2,2,0,0,1-2-2V40a2,2,0,0,1,2-2H8.8a2,2,0,0,1,2,2v6.788a2,2,0,0,1-2,2ZM27.363,36.122a2,2,0,0,1-2-2V27.335a2,2,0,0,1,2-2h6.8a2,2,0,0,1,2,2v6.788a2,2,0,0,1-2,2ZM2,36.122a2,2,0,0,1-2-2V27.335a2,2,0,0,1,2-2H8.8a2,2,0,0,1,2,2v6.788a2,2,0,0,1-2,2ZM27.363,23.455a2,2,0,0,1-2-2V14.667a2,2,0,0,1,2-2h6.8a2,2,0,0,1,2,2v6.788a2,2,0,0,1-2,2Zm0-12.667a2,2,0,0,1-2-2V2a2,2,0,0,1,2-2h6.8a2,2,0,0,1,2,2V8.788a2,2,0,0,1-2,2Z" transform="translate(12.627)" fill="url(#linear-gradient-2)"/>
        <path id="União_2" data-name="União 2" d="M14.627,48.79a2,2,0,0,1-2-2V40a2,2,0,0,1,2-2H21.38a2,2,0,0,1,2,2v6.788a2,2,0,0,1-2,2ZM2,48.79a2,2,0,0,1-2-2V40a2,2,0,0,1,2-2H8.753a2,2,0,0,1,2,2v6.788a2,2,0,0,1-2,2ZM2,36.122a2,2,0,0,1-2-2V27.335a2,2,0,0,1,2-2H8.753a2,2,0,0,1,2,2v6.788a2,2,0,0,1-2,2ZM2,23.455a2,2,0,0,1-2-2V14.667a2,2,0,0,1,2-2H8.753a2,2,0,0,1,2,2v6.788a2,2,0,0,1-2,2ZM2,10.788a2,2,0,0,1-2-2V2A2,2,0,0,1,2,0H8.753a2,2,0,0,1,2,2V8.788a2,2,0,0,1-2,2Z" transform="translate(25.409)" fill="url(#linear-gradient-3)"/>
      </g>
    </g>
    <g id="ProLead_logo_horizontal" data-name="ProLead logo horizontal" transform="translate(91.931 184.201)">
      <g id="PROLEAD" transform="translate(0 0)">
        <g id="Grupo_13283" data-name="Grupo 13283">
          <path id="Caminho_45634" data-name="Caminho 45634" d="M40.622,28.539v5.99H37.371V17.51h5.693a10.214,10.214,0,0,1,3.034.4,5.9,5.9,0,0,1,2.115,1.118,4.387,4.387,0,0,1,1.233,1.718,6.238,6.238,0,0,1-.024,4.456,4.7,4.7,0,0,1-1.269,1.771,5.964,5.964,0,0,1-2.116,1.153,9.644,9.644,0,0,1-2.974.412Zm0-2.472h2.442a5,5,0,0,0,1.56-.218,2.919,2.919,0,0,0,1.1-.623,2.555,2.555,0,0,0,.653-.99,3.689,3.689,0,0,0,.218-1.3,3.351,3.351,0,0,0-.218-1.235,2.439,2.439,0,0,0-.653-.942,2.928,2.928,0,0,0-1.1-.594,5.287,5.287,0,0,0-1.56-.206H40.622Z" transform="translate(-37.371 -17.317)" fill="url(#linear-gradient-4)"/>
          <path id="Caminho_45635" data-name="Caminho 45635" d="M56.247,27.879v6.651H53V17.51h5.33a11.392,11.392,0,0,1,3.064.36,5.9,5.9,0,0,1,2.091,1.006,3.893,3.893,0,0,1,1.2,1.548,5.283,5.283,0,0,1,.121,3.607,4.677,4.677,0,0,1-.749,1.389,5.01,5.01,0,0,1-1.209,1.094,6.37,6.37,0,0,1-1.638.753,3.19,3.19,0,0,1,1.064.977l4.376,6.285H63.717A1.468,1.468,0,0,1,63,34.365a1.448,1.448,0,0,1-.5-.471l-3.675-5.45a1.283,1.283,0,0,0-.454-.435,1.622,1.622,0,0,0-.732-.13Zm0-2.271h2.031a5.135,5.135,0,0,0,1.6-.224A3.115,3.115,0,0,0,61,24.766a2.481,2.481,0,0,0,.659-.935,3.166,3.166,0,0,0,.218-1.189A2.387,2.387,0,0,0,61,20.653a4.269,4.269,0,0,0-2.678-.695H56.247Z" transform="translate(-37.886 -17.317)" fill="url(#linear-gradient-4)"/>
          <path id="Caminho_45636" data-name="Caminho 45636" d="M85.392,26.014a9.219,9.219,0,0,1-.641,3.468,8.034,8.034,0,0,1-4.593,4.581,10.332,10.332,0,0,1-7.234,0,8.047,8.047,0,0,1-4.612-4.581,9.717,9.717,0,0,1,0-6.937,8.047,8.047,0,0,1,4.612-4.581,9.675,9.675,0,0,1,3.62-.654,9.556,9.556,0,0,1,3.614.66,8.293,8.293,0,0,1,2.793,1.819,8.122,8.122,0,0,1,1.8,2.756A9.221,9.221,0,0,1,85.392,26.014Zm-3.336,0a7.727,7.727,0,0,0-.381-2.515,5.28,5.28,0,0,0-1.094-1.891,4.708,4.708,0,0,0-1.735-1.189,6.663,6.663,0,0,0-4.612,0,4.751,4.751,0,0,0-1.746,1.189A5.317,5.317,0,0,0,71.381,23.5a8.364,8.364,0,0,0,0,5.028,5.239,5.239,0,0,0,1.106,1.884A4.8,4.8,0,0,0,74.234,31.6a6.663,6.663,0,0,0,4.612,0,4.753,4.753,0,0,0,1.735-1.184,5.2,5.2,0,0,0,1.094-1.884A7.725,7.725,0,0,0,82.055,26.014Z" transform="translate(-38.371 -17.31)" fill="url(#linear-gradient-4)"/>
        </g>
        <g id="Grupo_13284" data-name="Grupo 13284" transform="translate(48.447 0.351)">
          <path id="Caminho_45637" data-name="Caminho 45637" d="M91.341,32.617h7.494v1.918H89V17.673h2.345Z" transform="translate(-88.996 -17.673)" fill="#474c52"/>
          <path id="Caminho_45638" data-name="Caminho 45638" d="M112.519,17.673v1.858H104.2v5.6h6.733v1.788H104.2v5.755h8.316v1.859H101.846V17.673Z" transform="translate(-89.42 -17.673)" fill="#474c52"/>
          <path id="Caminho_45639" data-name="Caminho 45639" d="M130.554,34.535h-1.813a.8.8,0,0,1-.508-.153.943.943,0,0,1-.29-.389l-1.62-4.071h-7.773l-1.619,4.071a.935.935,0,0,1-.29.377.793.793,0,0,1-.509.165H114.32l6.927-16.862h2.381ZM119.2,28.275h6.467l-2.72-6.861a12.628,12.628,0,0,1-.519-1.588q-.133.483-.26.888t-.248.713Z" transform="translate(-89.831 -17.673)" fill="#474c52"/>
          <path id="Caminho_45640" data-name="Caminho 45640" d="M148.384,26.11a9.276,9.276,0,0,1-.617,3.448,7.626,7.626,0,0,1-1.741,2.658,7.774,7.774,0,0,1-2.7,1.712,9.613,9.613,0,0,1-3.482.606H133.37V17.673h6.479a9.613,9.613,0,0,1,3.482.605,7.572,7.572,0,0,1,4.436,4.384A9.264,9.264,0,0,1,148.384,26.11Zm-2.406,0a8.259,8.259,0,0,0-.435-2.777,5.816,5.816,0,0,0-1.233-2.071,5.271,5.271,0,0,0-1.934-1.294,6.845,6.845,0,0,0-2.527-.447h-4.121V32.687h4.121a6.845,6.845,0,0,0,2.527-.447,5.281,5.281,0,0,0,1.934-1.289,5.746,5.746,0,0,0,1.233-2.064A8.255,8.255,0,0,0,145.978,26.11Z" transform="translate(-90.46 -17.673)" fill="#474c52"/>
        </g>
      </g>
    </g>
  </g>
</svg>
