<svg xmlns="http://www.w3.org/2000/svg" width="80.436" height="124.733" viewBox="0 0 80.436 124.733">
  <g id="atribuidos_icon" transform="translate(-653.312 -204.606)" opacity="0.6">
    <g id="Grupo_12548" data-name="Grupo 12548" transform="translate(690.88 226.16)">
      <g id="Grupo_12547" data-name="Grupo 12547" transform="translate(0 17.179)">
        <path id="Caminho_26692" data-name="Caminho 26692" d="M727.534,250.6c1.809.659,1.346,4.008-1.017,7.052-2.333,3-6.414,9.825-7.6,10.752s-12.191-4.548-14.616-5.193c-6.581,1.976-7.9.739-4.724-.68l5.079-2.027,12.552,2.794c2.371-3.915,3.727-6.572,4.419-7.757C723.607,252.158,725.052,250.862,727.534,250.6Z" transform="translate(-697.924 -250.601)" fill="#fc6f51"/>
        <path id="Caminho_26693" data-name="Caminho 26693" d="M705.563,262.282c-.854-.467-2.577-1.346-3.274-1.2s1.917,1.824,1.917,1.824Z" transform="translate(-698.595 -252.253)" fill="#fc6f51"/>
        <path id="Caminho_26694" data-name="Caminho 26694" d="M728.824,250.6c-2.483.261-3.928,1.557-5.908,4.941-.692,1.185-2.049,3.842-4.419,7.757l-11.6-2.583-.8,3.03c3.224,2.03,13.064,5.478,14.113,4.659,1.188-.927,5.268-7.748,7.6-10.752C730.17,254.609,730.633,251.26,728.824,250.6Z" transform="translate(-699.214 -250.601)" fill="#cee398"/>
      </g>
      <path id="Caminho_26695" data-name="Caminho 26695" d="M734.407,230.276c2.483-.207,6.623-.2,8.131,2.97,1.187,2.492-1.467,7.657-1.467,7.657l-3.973-1.054Z" transform="translate(-703.685 -230.201)" fill="#042047"/>
      <path id="Caminho_26696" data-name="Caminho 26696" d="M726.788,336.2l15.582-57.854-15.315,1.383A268.376,268.376,0,0,0,721.9,336.2Z" transform="translate(-701.701 -237.803)" fill="#042244"/>
      <path id="Caminho_26697" data-name="Caminho 26697" d="M725.385,347.047V351.8h-1.961v-1.048l-1.633,1.075h-8.832a2.549,2.549,0,0,1,.563-1.619c.576-.573,7.93-3.162,7.93-3.162Z" transform="translate(-700.298 -248.65)" fill="#042244"/>
      <path id="Caminho_26698" data-name="Caminho 26698" d="M744.2,278.346c2.395,7.4-.478,46.436-1.173,57.854h-4.956c-3.3-12.526-4.391-35.719-4.637-56.471Z" transform="translate(-703.531 -237.803)" fill="#204164"/>
      <path id="Caminho_26699" data-name="Caminho 26699" d="M742.56,250.534a26.508,26.508,0,0,0-3.816-.362s-5.954-.17-6.232.282a4.435,4.435,0,0,0-3,1.519,8.109,8.109,0,0,0-2.28,5.76c.012.845-.139,3.837-.008,7.009.192,4.668.676,10.533.676,10.533s9.816,1.247,15.315-1.383a107.442,107.442,0,0,1,0-11.261A82.88,82.88,0,0,0,742.56,250.534Z" transform="translate(-702.541 -233.349)" fill="#b0c37d"/>
      <path id="Caminho_26700" data-name="Caminho 26700" d="M731.083,233.072c-1.277,4.277-1.411,7.654-.116,9.88a3.574,3.574,0,0,0,3.216,1.537l0,2.467s-1.864,2.143-.62,3.126,3.407.092,4.867-.987a5.269,5.269,0,0,0,1.517-1.9s-.619-.075-1.212-1.055c-.465-.77.152-3.816.152-3.816s1.334,1.1,2.37-.823c.591-1.1.144-3.114-1.242-2.7a5.258,5.258,0,0,0-3.036-6.237C732.684,230.611,731.083,233.072,731.083,233.072Z" transform="translate(-702.998 -230.455)" fill="#fc6f51"/>
      <path id="Caminho_26701" data-name="Caminho 26701" d="M741.139,250.684c1.871.693,3.1,2.5,2.247,6.406-.84,3.85-1.609,12.048-2.306,13.446S723.1,274.8,723.1,274.8c-3.471.547-6.629-.4-6.952-1.06-.622-1.273,4.386,0,6.564-.889l13.716-5.247c.732-5.565,1.188-9.118,1.439-10.3C738.7,253.367,739.36,250.026,741.139,250.684Z" transform="translate(-700.794 -233.422)" fill="#fc6f51"/>
      <path id="Caminho_26702" data-name="Caminho 26702" d="M734.857,232.416s2.315.239,2.312,1.622.173,4.456,2.72,4.811c0,0,1.665-4.3-.168-6.621a3.49,3.49,0,0,0-3.425-1.46,11.54,11.54,0,0,0-4.976-.415c-3.177.381-1.1,5.832-1.1,5.832C730.321,235.624,731.386,231.715,734.857,232.416Z" transform="translate(-702.918 -230.21)" fill="#042047"/>
      <path id="Caminho_26703" data-name="Caminho 26703" d="M741.584,240.375s-.211,2.2-.714,2.081c-.936-.224-.466-2.526-.466-2.526Z" transform="translate(-704.613 -231.737)" fill="#042047"/>
      <path id="Caminho_26704" data-name="Caminho 26704" d="M742.5,347.047V351.8h-1.961v-1.048l-1.633,1.075H730.07a2.551,2.551,0,0,1,.563-1.619c.577-.573,7.931-3.162,7.931-3.162Z" transform="translate(-703 -248.65)" fill="#042244"/>
      <path id="Caminho_26705" data-name="Caminho 26705" d="M735.716,253.091l3.761-4.915,1.979,1.729s-1.243,2.558-2.87,3.186C736.092,254.052,735.716,253.091,735.716,253.091Z" transform="translate(-703.891 -233.039)" fill="#fff"/>
      <path id="Caminho_26706" data-name="Caminho 26706" d="M735.3,253.142a32.56,32.56,0,0,1-.643-4.641l-1.212,1.694s-.78,1.726-.067,2.456A2.324,2.324,0,0,0,735.3,253.142Z" transform="translate(-703.475 -233.09)" fill="#fff"/>
      <path id="Caminho_26707" data-name="Caminho 26707" d="M725.21,271.973l.665,2.743c4.243-.505,16.037-2.963,16.643-4.179.7-1.4,1.465-9.6,2.306-13.446.851-3.9-.376-5.713-2.247-6.406-1.779-.659-2.435,2.683-3.268,6.616-.251,1.187-.707,4.739-1.439,10.3Z" transform="translate(-702.232 -233.422)" fill="#cee398"/>
      <path id="Caminho_26708" data-name="Caminho 26708" d="M723.627,276.925c-.854-.467-2.577-1.346-3.273-1.2s1.917,1.824,1.917,1.824Z" transform="translate(-701.447 -237.386)" fill="#fc6f51"/>
    </g>
    <g id="Grupo_12549" data-name="Grupo 12549" transform="translate(653.312 226.499)">
      <path id="Caminho_26709" data-name="Caminho 26709" d="M670.962,231.339a4.982,4.982,0,0,0-5.448.425c-2.907,2.052-2.526,3.587-2.792,4.743a3.884,3.884,0,0,1-3.323,3.035,4.046,4.046,0,0,0-3.345,4.771c.407,2.65-.5,3.528-1.208,4.9s-.424,4.248,2.055,6.264c4.2,3.412,8.7-.666,8.7-.666l4.442-5.683Z" transform="translate(-653.501 -230.624)" fill="#042047"/>
      <path id="Caminho_26710" data-name="Caminho 26710" d="M687.553,266.316l-1.322,13.871,8.192-4.4,1.534-13.821Z" transform="translate(-658.51 -235.556)" fill="#0073e9"/>
      <path id="Caminho_26711" data-name="Caminho 26711" d="M677.078,280.021s4.314,22.852,3.651,26.307c-.393,2.055-19.054,25.493-19.054,25.493l-2.307-3.186c5.322-10.084,8.034-18.355,12.67-21.726L666.4,280.021Z" transform="translate(-654.268 -238.407)" fill="#042244"/>
      <path id="Caminho_26712" data-name="Caminho 26712" d="M662.017,278.379c-.738,1.587-2.011,4.745.2,12.271,1.023,3.48,3.564,11.963,5.648,18.186-1.475,7.241.865,15.544,2.725,25.854h3.933a475.239,475.239,0,0,0-1.656-54.741Z" transform="translate(-654.522 -238.147)" fill="#204164"/>
      <path id="Caminho_26713" data-name="Caminho 26713" d="M664.189,250.642a7.011,7.011,0,0,1,2.49-.437s5.954-.17,6.232.282c2.462.281,3,1.519,3,1.519s3.04,3.723,2.988,7.34a33.847,33.847,0,0,1-.7,5.429,45.028,45.028,0,0,0-.677,10.533s-9.816,1.247-15.315-1.383c0,0,2.692-6.647,2.342-11.682C664.246,257.806,664.189,250.642,664.189,250.642Z" transform="translate(-654.717 -233.694)" fill="#fff"/>
      <path id="Caminho_26714" data-name="Caminho 26714" d="M678.01,234.174c.881,4.376.706,7.751-.786,9.848a3.574,3.574,0,0,1-3.343,1.237l-.222,2.458s2.36,2.52,1.031,3.384-3.526.429-5.455-1.642a7.968,7.968,0,0,1-1.336-2.036s.623-.018,1.3-.94c.533-.723.2-3.813.2-3.813s-1.428.973-2.284-1.036c-.489-1.147.141-3.115,1.483-2.577a5.258,5.258,0,0,1,3.592-5.934C676.64,231.578,678.01,234.174,678.01,234.174Z" transform="translate(-655.465 -230.924)" fill="#fc6f51"/>
      <path id="Caminho_26715" data-name="Caminho 26715" d="M664.1,250.715c-1.805.669-2.99,2.417-2.168,6.183.811,3.715,1.553,11.63,2.225,12.978s15.6,4.28,17.352,4.117c3.92-.365,6.544-4.924,4.438-4.389l-4.035,2.021-13.268-4.578c-.707-5.371-1.147-8.8-1.389-9.945C666.454,253.3,665.822,250.078,664.1,250.715Z" transform="translate(-654.632 -233.767)" fill="#fc6f51"/>
      <path id="Caminho_26716" data-name="Caminho 26716" d="M672.242,345.248s-.948,2.451-.789,3.168.789,3.128.789,3.128h2v-2.377l1.933,2.377h7.077s1.123-1.546-2.349-2.377a7.15,7.15,0,0,1-4.728-3.919Z" transform="translate(-656.173 -248.705)" fill="#042244"/>
      <path id="Caminho_26717" data-name="Caminho 26717" d="M658.412,337.75s-2.542.669-3.029,1.219-2.071,2.473-2.071,2.473l1.172,1.62,1.926-1.395-.792,2.96,4.15,5.732s1.912,0,.547-3.3a7.145,7.145,0,0,1,.4-6.127Z" transform="translate(-653.312 -247.521)" fill="#042244"/>
      <path id="Caminho_26718" data-name="Caminho 26718" d="M684.062,274.7c.725.277,2.719-1.218,2.719-1.218l-.2,1.24s-.583,2-1.433,1.747S684.062,274.7,684.062,274.7Z" transform="translate(-658.167 -237.374)" fill="#fc6f51"/>
      <path id="Caminho_26719" data-name="Caminho 26719" d="M674.448,233.092s-2.327.027-2.45,1.4-.578,4.422-3.148,4.542c0,0-1.266-4.429.771-6.577a3.49,3.49,0,0,1,3.544-1.141s3.03-1.922,5.081.533a5.115,5.115,0,0,1,.475,5.415C678.672,236.7,677.968,232.711,674.448,233.092Z" transform="translate(-655.704 -230.604)" fill="#042047"/>
      <path id="Caminho_26720" data-name="Caminho 26720" d="M668.923,240.556s.008,2.212.521,2.138c.952-.137.694-2.473.694-2.473Z" transform="translate(-655.777 -232.123)" fill="#042047"/>
    </g>
    <path id="Caminho_26721" data-name="Caminho 26721" d="M702.756,220.478h17.036a2.09,2.09,0,0,1,2.089,2.09v10.048a2.09,2.09,0,0,1-2.089,2.089h-1.65l1.4,2.509a.491.491,0,0,1-.666.669l-5.724-3.178h-10.4a2.09,2.09,0,0,1-2.089-2.089V222.568A2.09,2.09,0,0,1,702.756,220.478Z" transform="translate(-7.477 -2.506)" fill="#7d9c28"/>
    <path id="Caminho_26722" data-name="Caminho 26722" d="M705.587,204.606H684.035a2.644,2.644,0,0,0-2.644,2.644v12.712a2.644,2.644,0,0,0,2.644,2.643h2.087l-1.777,3.175a.621.621,0,0,0,.843.845l7.241-4.02h13.158a2.643,2.643,0,0,0,2.643-2.643V207.25A2.644,2.644,0,0,0,705.587,204.606Z" transform="translate(-4.433)" fill="#afd154"/>
  </g>
</svg>
