<svg xmlns="http://www.w3.org/2000/svg" width="98.014" height="96.418" viewBox="0 0 98.014 96.418">
  <g id="auto_feedback_icon" transform="translate(-545.035 -83.364)" opacity="0.8">
    <path id="Caminho_26797" data-name="Caminho 26797" d="M628.367,91.294a6.116,6.116,0,0,0-.121,3.253,4.083,4.083,0,0,1-.557,3.155c-.7.83-1.9,1.03-2.768,1.678a3.245,3.245,0,0,0-1.278,2.773c.05.731.327,1.554-.12,2.135a1.963,1.963,0,0,1-.964.573,18.868,18.868,0,0,0-2.311.853,3.793,3.793,0,0,0-1.778,1.644,5.071,5.071,0,0,0-.017,3.4,4.781,4.781,0,0,0,1.606,2.951,4.53,4.53,0,0,0,2.465.6,20.832,20.832,0,0,0,7.394-1.134,8.679,8.679,0,0,0,3.974-2.456c1.575-1.911,1.667-4.621,1.464-7.088a7.711,7.711,0,0,0-1.137-3.957,5.361,5.361,0,0,0-3.486-2c-1.356-.226-1.021-6.675-2.364-6.384" transform="translate(-28.888 -3.129)" fill="#fcd588"/>
    <path id="Caminho_26798" data-name="Caminho 26798" d="M651.924,98.071a9.043,9.043,0,0,0-.843-11.865" transform="translate(-41.891 -1.123)" fill="#fcd588"/>
    <path id="Caminho_26799" data-name="Caminho 26799" d="M595.243,197.994l-5.128,25.85H592.5l7.984-23.05Z" transform="translate(-17.808 -45.282)" fill="#ad9380"/>
    <path id="Caminho_26800" data-name="Caminho 26800" d="M662.151,195.726l6.765,25.167h2.306l-2.973-29.236Z" transform="translate(-46.264 -42.779)" fill="#ad9380"/>
    <path id="Caminho_26801" data-name="Caminho 26801" d="M588.118,158.057c6.741,7.359,17.127,10.916,27.079,10.178s19.383-5.512,26.592-12.412S654.081,140,657.33,130.568a28.641,28.641,0,0,0,1.934-9.967,12.606,12.606,0,0,0-3.836-9.151c-4.553-4.032-11.744-2.927-17.143-.128a35.063,35.063,0,0,0-16.329,18.126c-1.509,3.841-2.327,7.937-4,11.708s-4.451,7.348-8.382,8.6c-2.761.88-5.75.517-8.606.031s-5.761-1.09-8.627-.663-9.594,1.7-4.221,8.933" transform="translate(-16.221 -10.052)" fill="#dcebb4"/>
    <path id="Caminho_26802" data-name="Caminho 26802" d="M598.888,162.176s-29.693-8.362-35.545,1.381-8.891,39.106-8.891,39.106l6.571,2.108s9.729-32.942,13.3-34.037,26.737,2.558,26.737,2.558Z" transform="translate(-3.72 -29.814)" fill="#f2957e"/>
    <path id="Caminho_26803" data-name="Caminho 26803" d="M550.732,231.188s-6.843-.508-5.529.413,11.833,3.453,11.833,3.453l.288-1.963Z" transform="translate(0 -58.34)" fill="#474b51"/>
    <path id="Caminho_26804" data-name="Caminho 26804" d="M594.9,162.777l1.387-5.246c7.439.649,15.116,2.979,22.863,5.805Z" transform="translate(-19.699 -29.298)" fill="#4d6c8b"/>
    <path id="Caminho_26805" data-name="Caminho 26805" d="M616.662,118.786s-5.521-.836-7.428,8.684c-2.75,13.724-18.328,4.992-18.328,4.992l-5.058,3.173s8.237,9.847,20.637,5.559S616.662,118.786,616.662,118.786Z" transform="translate(-16.122 -13.985)" fill="#f6ba99"/>
    <path id="Caminho_26806" data-name="Caminho 26806" d="M647.993,135.2l.186,7.206.624,13.477c-4.985,2.335-11.868,1.722-18.772,2.277,2.22-6.453,3.312-13,1.532-19.783,0,0-2.43-1.522-1.146-3.045a10.357,10.357,0,0,0,2.059-3.626l14.954,1.4" transform="translate(-33.576 -19.097)" fill="#96a769"/>
    <g id="Grupo_12700" data-name="Grupo 12700" transform="translate(599.449 84.745)">
      <path id="Caminho_26807" data-name="Caminho 26807" d="M638.331,105.466a32.026,32.026,0,0,0-.149-4.064,3.572,3.572,0,0,1-3.149-3.314c-.157-2.972.083-9.821.083-9.821l5.478-2.621,5.292,4.583-.364,14.858Z" transform="translate(-634.979 -85.647)" fill="#f6ba99"/>
      <g id="Grupo_12694" data-name="Grupo 12694" transform="translate(0.319 6.748)">
        <path id="Caminho_26808" data-name="Caminho 26808" d="M636.12,97.995a.38.38,0,1,0,.384-.377A.38.38,0,0,0,636.12,97.995Z" transform="translate(-635.749 -97.124)" fill="#00143a"/>
        <g id="Grupo_12693" data-name="Grupo 12693">
          <path id="Caminho_26809" data-name="Caminho 26809" d="M635.513,97.255c.049.05.332-.187.741-.206s.715.181.759.127c.021-.024-.029-.116-.163-.209a1.01,1.01,0,0,0-1.2.063C635.53,97.137,635.489,97.232,635.513,97.255Z" transform="translate(-635.506 -96.801)" fill="#00143a"/>
        </g>
      </g>
      <g id="Grupo_12696" data-name="Grupo 12696" transform="translate(4.856 6.786)">
        <path id="Caminho_26810" data-name="Caminho 26810" d="M643.4,98.056a.38.38,0,1,0,.384-.377A.38.38,0,0,0,643.4,98.056Z" transform="translate(-643.163 -97.186)" fill="#00143a"/>
        <g id="Grupo_12695" data-name="Grupo 12695">
          <path id="Caminho_26811" data-name="Caminho 26811" d="M643.013,97.318c.049.05.332-.187.741-.205s.715.181.759.126c.021-.024-.029-.115-.163-.209a1.01,1.01,0,0,0-1.2.063C643.03,97.2,642.99,97.3,643.013,97.318Z" transform="translate(-643.007 -96.864)" fill="#00143a"/>
        </g>
      </g>
      <g id="Grupo_12697" data-name="Grupo 12697" transform="translate(2.315 7.114)">
        <path id="Caminho_26812" data-name="Caminho 26812" d="M639.848,100.977a2.944,2.944,0,0,1-.674.023.7.7,0,0,1-.176-.018.249.249,0,0,1-.169-.146.654.654,0,0,1,.044-.424l.276-.85c.2-.6.389-1.143.533-1.534a2.987,2.987,0,0,1,.263-.621,2.931,2.931,0,0,1-.16.655c-.118.4-.29.946-.49,1.548-.1.3-.2.58-.287.846a.587.587,0,0,0-.06.333c.024.08.129.1.232.1A2.961,2.961,0,0,1,639.848,100.977Z" transform="translate(-638.807 -97.407)" fill="#00143a"/>
      </g>
      <g id="Grupo_12698" data-name="Grupo 12698" transform="translate(5.32 10.285)" opacity="0.33">
        <path id="Caminho_26813" data-name="Caminho 26813" d="M643.774,103.266c.008.339.526.586,1.158.606s1.16-.2,1.181-.535-.5-.669-1.157-.688S643.765,102.93,643.774,103.266Z" transform="translate(-643.774 -102.647)" fill="#f2957e"/>
      </g>
      <path id="Caminho_26814" data-name="Caminho 26814" d="M641.516,103.936a5.714,5.714,0,0,1-2.039.683,1.133,1.133,0,0,0,1.354.4A.939.939,0,0,0,641.516,103.936Z" transform="translate(-636.756 -92.871)" fill="#f3f0eb"/>
      <path id="Caminho_26815" data-name="Caminho 26815" d="M640.273,110.844a7.416,7.416,0,0,0,3.947-1.3,3.834,3.834,0,0,1-3.888,2.025Z" transform="translate(-637.071 -95.089)" fill="#f2957e"/>
      <path id="Caminho_26816" data-name="Caminho 26816" d="M652.8,99.344a1.333,1.333,0,0,0,1.9-.828.938.938,0,0,0-.062-.714.967.967,0,0,0-.844-.425,2.871,2.871,0,0,0-.959.222" transform="translate(-642.021 -90.281)" fill="#f6ba99"/>
      <g id="Grupo_12699" data-name="Grupo 12699" transform="translate(6.139 6.542)">
        <path id="Caminho_26817" data-name="Caminho 26817" d="M645.6,96.461c.042,0,.062.2-.1.364s-.371.14-.365.1.139-.086.258-.207S645.553,96.459,645.6,96.461Z" transform="translate(-645.127 -96.461)" fill="#00143a"/>
      </g>
    </g>
    <path id="Caminho_26818" data-name="Caminho 26818" d="M653.159,170.473s.691,14.426-11.352,14.832l2.884-16.554Z" transform="translate(-38.228 -33.73)" fill="#3c5b7b"/>
    <path id="Caminho_26819" data-name="Caminho 26819" d="M609.4,168.782s-38.2-6.18-42,1.608-.356,40.548-.356,40.548l7.435-.645s1.3-30.668,3.063-31.92,32.711,6.065,35.244,5.712C615.624,183.69,625.463,172.51,609.4,168.782Z" transform="translate(-8.132 -32.824)" fill="#f6ba99"/>
    <path id="Caminho_26820" data-name="Caminho 26820" d="M565.542,238.406s-6.672,1.6-5.14,2.08,11.82-.286,11.82-.286l.247-2.772Z" transform="translate(-5.98 -60.86)" fill="#474b51"/>
    <path id="Caminho_26821" data-name="Caminho 26821" d="M587.171,138.391l-1.074-.917a12.094,12.094,0,0,1-1.836-1.505,3.455,3.455,0,0,1-.694-.95,5.291,5.291,0,0,1-.52-1.371.455.455,0,0,0-.827-.239,3.74,3.74,0,0,0,.685,2.836c.765,1.238-1.4.486-2.191.226s-3.284-.949-3.557-.768c-.4.264-.191.742.607.983s3.14,1.133,2.982,1.545-4.174-.972-4.174-.972-.811-.434-1.009.037c-.356.848,4.023,2,4.443,2.1.292.069.137.523-.172.432s-3.976-1.468-4.348-.607c-.285.659,3.594.979,4.194,1.686s-2.917-.541-3.163.1c-.092.239-.127.43,2,.855,2.175.436,8.258.656,8.258.656l.354-4.2" transform="translate(-12.024 -19.69)" fill="#f6ba99"/>
    <path id="Caminho_26822" data-name="Caminho 26822" d="M633.963,126.79l.75-8.529,2.315-.515,7.191-.378s4.391-.326,5.907,1.031-.046,11.031-.046,11.031Z" transform="translate(-35.129 -13.419)" fill="#96a769"/>
    <path id="Caminho_26823" data-name="Caminho 26823" d="M643.957,117.368s9.217-1.937,8.346,13.608c-.886,15.831-24.889,18.229-24.889,18.229l-.481-5.937s17.262-4.67,18.56-11.252S643.957,117.368,643.957,117.368Z" transform="translate(-32.352 -13.402)" fill="#f6ba99"/>
    <path id="Caminho_26824" data-name="Caminho 26824" d="M589.646,154.488l-9.089-19.506,1.173-.666,9.24,18.915,16.289-1.293.159,1.1Z" transform="translate(-14.032 -20.127)" fill="#b4cce9"/>
    <path id="Caminho_26825" data-name="Caminho 26825" d="M627.9,160.23" transform="translate(-32.736 -30.364)" fill="#f6ba99"/>
    <path id="Caminho_26826" data-name="Caminho 26826" d="M633.822,88.934s-.443-4.757,6.123-5.519,6.635,7.159,6.635,7.159l-3.571-.722-.779-2.046-.135,1.955-2.672-.229.18-1.434-.78,1.12Z" transform="translate(-35.071)" fill="#fcd588"/>
    <path id="Caminho_26827" data-name="Caminho 26827" d="M621.805,158.5a5.431,5.431,0,0,1-4.1-1.865c-1.439-1.92-1.958.079-.383,1.865a10.467,10.467,0,0,0,2.336,2.188s-8.774,2.212-6.94,2.327,10.239.991,10.239.991Z" transform="translate(-26.637 -28.636)" fill="#f6ba99"/>
    <path id="Caminho_26828" data-name="Caminho 26828" d="M593.317,180.026l-1.3-13.67s32.374-1.163,36.779,2.915,1.964,15.783-6.659,15.027S593.317,180.026,593.317,180.026Z" transform="translate(-18.56 -32.724)" fill="#4d6c8b"/>
    <g id="Grupo_12701" data-name="Grupo 12701" transform="translate(606.353 115.82)">
      <path id="Caminho_26829" data-name="Caminho 26829" d="M650.463,138.876c.025.022-.175.294-.659.512a2.425,2.425,0,0,1-3.327-1.542,1.2,1.2,0,0,1-.035-.834c.051,0,.055.315.24.762a2.4,2.4,0,0,0,3.045,1.411C650.187,139.038,650.431,138.837,650.463,138.876Z" transform="translate(-646.392 -137.013)" fill="#587116"/>
    </g>
    <path id="Caminho_26830" data-name="Caminho 26830" d="M662.151,195.726l.786,2.926,5.655-3.615-.344-3.38Z" transform="translate(-46.264 -42.779)" fill="#102d51" opacity="0.17"/>
    <path id="Caminho_26831" data-name="Caminho 26831" d="M598.04,197.994l-.845,3.162,5.124,2.4.958-2.767Z" transform="translate(-20.604 -45.282)" fill="#102d51" opacity="0.17"/>
    <g id="Grupo_12702" data-name="Grupo 12702" transform="translate(613.753 128.354)">
      <path id="Caminho_26832" data-name="Caminho 26832" d="M671.719,157.735c.038.069-.95.626-2.431,1.687l-.577.42c-.2.147-.4.313-.609.477-.426.324-.854.7-1.311,1.093a30.708,30.708,0,0,0-5.147,5.856c-.328.5-.649.976-.915,1.44-.135.23-.275.448-.4.666l-.343.626c-.862,1.6-1.287,2.656-1.36,2.627a2.682,2.682,0,0,1,.22-.77c.082-.244.192-.539.34-.873s.3-.723.511-1.133l.321-.648c.113-.224.247-.449.377-.687.255-.479.569-.966.892-1.483a27.24,27.24,0,0,1,5.222-5.941c.471-.387.914-.76,1.356-1.075.218-.16.425-.321.633-.462l.6-.4c.378-.262.744-.465,1.057-.652s.591-.336.823-.45A2.716,2.716,0,0,1,671.719,157.735Z" transform="translate(-658.624 -157.731)" fill="#d3bea7"/>
    </g>
    <g id="Grupo_12703" data-name="Grupo 12703" transform="translate(627.182 110.091)">
      <path id="Caminho_26833" data-name="Caminho 26833" d="M683.767,127.544a38.053,38.053,0,0,0-2.067,5.845,38.066,38.066,0,0,0-.62,6.17,5.549,5.549,0,0,1-.247-1.829,16.655,16.655,0,0,1,.047-2.007,17.984,17.984,0,0,1,1.071-4.792,16.7,16.7,0,0,1,.812-1.836A5.555,5.555,0,0,1,683.767,127.544Z" transform="translate(-680.821 -127.543)" fill="#d3bea7"/>
    </g>
    <g id="Grupo_12704" data-name="Grupo 12704" transform="translate(575.057 99.464)">
      <path id="Caminho_26834" data-name="Caminho 26834" d="M646.485,110.463a1.258,1.258,0,0,1,.272-.09,6.79,6.79,0,0,1,.817-.2,10.691,10.691,0,0,1,3.229-.137,12.244,12.244,0,0,1,2.3.472,11.788,11.788,0,0,1,2.545,1.152,9.975,9.975,0,0,1,2.442,2.092,10.3,10.3,0,0,1,1.781,3.137,14.8,14.8,0,0,1,.315,8.174,35.354,35.354,0,0,1-3.564,8.722c-1.555,2.925-3.239,5.972-5.159,9.03a73.781,73.781,0,0,1-6.584,9.028,49.253,49.253,0,0,1-8.179,7.624,37.122,37.122,0,0,1-9.158,4.959c-.776.3-1.574.511-2.347.756-.385.13-.783.2-1.171.3l-1.16.276c-.778.129-1.54.286-2.3.387l-1.131.131c-.373.046-.744.089-1.114.1a41.064,41.064,0,0,1-8.207-.245,45.472,45.472,0,0,1-6.633-1.36c-1.926-.521-3.538-1.119-4.849-1.613-1.3-.525-2.3-.95-2.964-1.277l-.756-.365a1.35,1.35,0,0,1-.25-.138,1.339,1.339,0,0,1,.27.1l.774.322c.673.3,1.684.7,2.99,1.194,1.316.467,2.931,1.037,4.852,1.532a46.23,46.23,0,0,0,6.606,1.286,41.245,41.245,0,0,0,8.137.188c.366-.016.733-.06,1.1-.108l1.118-.136c.749-.1,1.5-.262,2.27-.393l1.144-.278c.382-.1.776-.171,1.156-.3.762-.246,1.549-.452,2.315-.755a36.925,36.925,0,0,0,9.038-4.925,49.164,49.164,0,0,0,8.1-7.56,74.25,74.25,0,0,0,6.551-8.967c1.916-3.041,3.6-6.076,5.166-8.99a35.3,35.3,0,0,0,3.567-8.608,14.518,14.518,0,0,0-.25-7.981,10.036,10.036,0,0,0-1.7-3.058,9.74,9.74,0,0,0-2.353-2.061,11.664,11.664,0,0,0-2.476-1.162,12.309,12.309,0,0,0-2.251-.5,11.252,11.252,0,0,0-3.194.051c-.366.039-.635.123-.822.152A1.405,1.405,0,0,1,646.485,110.463Z" transform="translate(-594.66 -109.977)" fill="#d3bea7"/>
    </g>
  </g>
</svg>
