<svg xmlns="http://www.w3.org/2000/svg" width="18.261" height="18.261" viewBox="0 0 18.261 18.261">
  <path id="calendar_icon" d="M298.166,524.651H281.318a.7.7,0,0,0-.709.7V542.2a.708.708,0,0,0,.709.709h16.847a.7.7,0,0,0,.7-.709V525.35a.7.7,0,0,0-.7-.7Zm-.7,16.857H282.012V530.152h15.454v11.356Zm0-12.2H282.012v-3.246H283.4v1.046a.7.7,0,0,0,.7.7.712.712,0,0,0,.709-.7v-1.046h2.348v1.046a.7.7,0,0,0,1.4,0v-1.046h2.358v1.046a.7.7,0,0,0,1.4,0v-1.046h2.353v1.046a.7.7,0,0,0,1.409,0v-1.046h1.383v3.246Zm-13.433,7.4h0a1.2,1.2,0,0,0,1.684,0,1.177,1.177,0,0,0,0-1.689,1.182,1.182,0,0,0-1.684,0h-.005a1.2,1.2,0,0,0,0,1.689Zm.587-1.1h.005a.32.32,0,0,1,.25-.1.314.314,0,0,1,.25.1h0a.345.345,0,0,1,0,.5h0a.33.33,0,0,1-.25.1.338.338,0,0,1-.25-.1h-.005a.358.358,0,0,1,0-.5Zm9.136,1.1h0a1.18,1.18,0,0,0,.842.347,1.166,1.166,0,0,0,.847-.347h.01a1.2,1.2,0,0,0,0-1.689h-.01a1.17,1.17,0,0,0-.847-.353,1.184,1.184,0,0,0-.842.353h0a1.177,1.177,0,0,0,0,1.689Zm.592-1.1h.01a.28.28,0,0,1,.24-.1.29.29,0,0,1,.245.1h.01a.357.357,0,0,1,0,.5h-.01a.3.3,0,0,1-.245.1.293.293,0,0,1-.24-.1h-.01a.358.358,0,0,1,0-.5Zm-10.315,4.277h0a1.195,1.195,0,0,0,1.684,0h0a1.2,1.2,0,0,0,.357-.837,1.164,1.164,0,0,0-.357-.847,1.159,1.159,0,0,0-1.684,0h-.005a1.2,1.2,0,0,0-.347.847,1.231,1.231,0,0,0,.347.837Zm.587-1.087h0l.005-.01a.358.358,0,0,1,.25-.1.35.35,0,0,1,.25.1v.01a.311.311,0,0,1,.107.25.356.356,0,0,1-.107.25h0a.394.394,0,0,1-.25.1.405.405,0,0,1-.25-.1h-.005a.469.469,0,0,1-.1-.25.389.389,0,0,1,.1-.25Zm2.654,1.087h0a1.214,1.214,0,0,0,.842.347,1.236,1.236,0,0,0,.847-.347h0a1.208,1.208,0,0,0,.347-.837,1.177,1.177,0,0,0-.347-.847,1.205,1.205,0,0,0-.847-.363,1.184,1.184,0,0,0-.842.363h0a1.172,1.172,0,0,0-.342.847,1.2,1.2,0,0,0,.342.837Zm.592-1.087h0v-.01a.389.389,0,0,1,.25-.1.394.394,0,0,1,.261.1v.01a.358.358,0,0,1,.092.25.418.418,0,0,1-.092.25h0a.385.385,0,0,1-.51,0h0a.394.394,0,0,1-.1-.25.34.34,0,0,1,.1-.25Zm5.89-5.272h0a1.2,1.2,0,0,0,.842.347,1.2,1.2,0,0,0,.857-2.042h-.01a1.213,1.213,0,0,0-.847-.352,1.229,1.229,0,0,0-.842.352h0a1.183,1.183,0,0,0,0,1.694Zm.592-1.1h.01a.31.31,0,0,1,.24-.1.322.322,0,0,1,.245.1h.01a.406.406,0,0,1,.1.25.369.369,0,0,1-.112.255.353.353,0,0,1-.245.092.366.366,0,0,1-.25-.092.364.364,0,0,1,0-.505Zm-7.074,1.1h0a1.2,1.2,0,0,0,1.689,0,1.208,1.208,0,0,0,0-1.694,1.241,1.241,0,0,0-.847-.352,1.219,1.219,0,0,0-.842.352h0a1.22,1.22,0,0,0,0,1.694Zm.592-1.1h0a.39.39,0,0,1,.25-.1.332.332,0,0,1,.352.352.4.4,0,0,1-.092.255.415.415,0,0,1-.261.092.408.408,0,0,1-.25-.092.378.378,0,0,1-.1-.255.374.374,0,0,1,.1-.25Zm2.649,7.456h0a1.2,1.2,0,0,0,1.69,0h0a1.186,1.186,0,0,0,.347-.837,1.157,1.157,0,0,0-.347-.847h0a1.165,1.165,0,0,0-1.69,0,1.185,1.185,0,0,0-.357.847,1.218,1.218,0,0,0,.357.837Zm.587-1.087h0l.01-.01a.365.365,0,0,1,.245-.1.358.358,0,0,1,.25.1l.01.01a.382.382,0,0,1,.092.25.453.453,0,0,1-.092.25h-.01a.405.405,0,0,1-.25.1.415.415,0,0,1-.245-.1h-.01a.423.423,0,0,1-.1-.25.36.36,0,0,1,.1-.25Zm-.587-2.092h0a1.2,1.2,0,0,0,1.69,0h0a1.2,1.2,0,0,0,0-1.689h0a1.188,1.188,0,0,0-1.69,0,1.178,1.178,0,0,0,0,1.689Zm.587-1.1h.01a.324.324,0,0,1,.245-.1.32.32,0,0,1,.25.1h.01a.387.387,0,0,1,0,.5h-.01a.338.338,0,0,1-.25.1.343.343,0,0,1-.245-.1h-.01a.371.371,0,0,1,0-.5Zm-.587-2.082h0a1.2,1.2,0,0,0,1.69-1.694h0a1.189,1.189,0,0,0-1.69,0,1.213,1.213,0,0,0-.357.847,1.231,1.231,0,0,0,.352.847Zm.587-1.1h.01a.366.366,0,0,1,.245-.1.359.359,0,0,1,.25.1h.01a.427.427,0,0,1,.092.25.382.382,0,0,1-.1.255.376.376,0,0,1-.25.092.382.382,0,0,1-.245-.092.364.364,0,0,1-.107-.255.4.4,0,0,1,.1-.25Zm-3.828,4.277h0a1.171,1.171,0,0,0,.842.347,1.192,1.192,0,0,0,.847-.347,1.2,1.2,0,0,0-.847-2.042,1.175,1.175,0,0,0-.842.353h0a1.214,1.214,0,0,0,0,1.689Zm.592-1.1h0a.343.343,0,0,1,.25-.1.351.351,0,0,1,.261.1h0a.387.387,0,0,1,0,.5.371.371,0,0,1-.261.1.364.364,0,0,1-.25-.1h0a.371.371,0,0,1,0-.5Z" transform="translate(-280.609 -524.651)" fill="#dbdbdb"/>
</svg>
