<svg xmlns="http://www.w3.org/2000/svg" width="24.924" height="24.924" viewBox="0 0 24.924 24.924">
  <g id="change_picture_icon" transform="translate(0)">
    <g id="Grupo_52" data-name="Grupo 52" transform="translate(0)">
      <path id="Caminho_78" data-name="Caminho 78" d="M21.274,16.112a12.414,12.414,0,0,0-4.736-2.97,7.2,7.2,0,1,0-8.153,0A12.482,12.482,0,0,0,0,24.924H1.947a10.515,10.515,0,0,1,21.03,0h1.947A12.381,12.381,0,0,0,21.274,16.112Zm-8.812-3.65A5.257,5.257,0,1,1,17.72,7.2,5.263,5.263,0,0,1,12.462,12.462Z" transform="translate(0)" fill="#474b51"/>
    </g>
  </g>
</svg>
