<svg xmlns="http://www.w3.org/2000/svg" width="19.797" height="26.395" viewBox="0 0 19.797 26.395"><defs><style>.a{fill:#474c52;}</style></defs><g transform="translate(0 0)"><path class="a" d="M17.322,208.5H2.475A2.478,2.478,0,0,1,0,206.022V194.475A2.478,2.478,0,0,1,2.475,192H17.322a2.478,2.478,0,0,1,2.475,2.475v11.548A2.478,2.478,0,0,1,17.322,208.5ZM2.475,193.65a.826.826,0,0,0-.825.825v11.548a.826.826,0,0,0,.825.825H17.322a.826.826,0,0,0,.825-.825V194.475a.826.826,0,0,0-.825-.825Zm0,0" transform="translate(0 -182.102)"/><path class="a" d="M76.373,11.548a.825.825,0,0,1-.825-.825V6.6a4.949,4.949,0,0,0-9.9,0v4.124a.825.825,0,0,1-1.65,0V6.6a6.6,6.6,0,0,1,13.2,0v4.124A.825.825,0,0,1,76.373,11.548Zm0,0" transform="translate(-60.701)"/></g></svg>