<svg xmlns="http://www.w3.org/2000/svg" width="66.682" height="62.198" viewBox="0 0 66.682 62.198">
  <g id="clima_icon_blocked" transform="translate(-1171 -199)">
    <path id="path-1_10_" d="M347.738,178.2a1.587,1.587,0,1,1-1.587-1.587A1.587,1.587,0,0,1,347.738,178.2Z" transform="translate(844.095 31.923)" fill="#dbdbdb"/>
    <path id="path-2_10_" d="M159.819,178.2a1.587,1.587,0,1,1-1.587-1.587A1.587,1.587,0,0,1,159.819,178.2Z" transform="translate(1022.89 31.923)" fill="#dbdbdb"/>
    <path id="path-3_10_" d="M166.327,340.64h-2.2a5.038,5.038,0,0,1-5.062-5,.654.654,0,0,1,1.308,0,3.685,3.685,0,0,0,3.754,3.694h2.2a3.655,3.655,0,0,0,3.754-3.633.654.654,0,1,1,1.308,0A4.949,4.949,0,0,1,166.327,340.64Z" transform="translate(1020.591 -118.757)" fill="#dbdbdb"/>
    <path id="path-4_10_" d="M13.844,27.55A13.775,13.775,0,1,1,27.615,13.775,13.789,13.789,0,0,1,13.844,27.55Zm0-26.242A12.467,12.467,0,1,0,26.307,13.775,12.479,12.479,0,0,0,13.844,1.308Z" transform="translate(1171.86 199.962)" fill="#dbdbdb"/>
    <path id="path-1_21_" d="M347.74,178.2a1.588,1.588,0,1,1-1.588-1.588A1.588,1.588,0,0,1,347.74,178.2Z" transform="translate(844.086 64.593)" fill="#dbdbdb"/>
    <path id="path-2_21_" d="M159.821,178.2a1.588,1.588,0,1,1-1.588-1.588A1.588,1.588,0,0,1,159.821,178.2Z" transform="translate(1022.874 64.593)" fill="#dbdbdb"/>
    <path id="path-3_21_" d="M159.724,340.492a.654.654,0,0,1-.654-.654,5.1,5.1,0,0,1,5.065-5.123h2.206a5.086,5.086,0,0,1,5.065,5.1.654.654,0,1,1-1.308,0,3.776,3.776,0,0,0-3.757-3.786h-2.206a3.79,3.79,0,0,0-3.757,3.814A.655.655,0,0,1,159.724,340.492Z" transform="translate(1020.567 -85.825)" fill="#dbdbdb"/>
    <path id="path-4_21_" d="M13.855,27.572A13.786,13.786,0,1,1,27.637,13.786,13.8,13.8,0,0,1,13.855,27.572Zm0-26.262A12.477,12.477,0,1,0,26.328,13.786,12.489,12.489,0,0,0,13.855,1.309Z" transform="translate(1171.839 232.625)" fill="#dbdbdb"/>
    <path id="Caminho_87" data-name="Caminho 87" d="M99.1,7.664v2.567H89.149V7.664Zm-4.171,5.595H89.149v2.567h5.776Zm-5.776,8.162H99.1V18.854H89.149Zm5.776,3.029H89.149v2.567h5.776Zm-5.776,8.162H99.1V30.045H89.149ZM90.7,47.239a13,13,0,1,1-19.574-11.2V6.578a6.578,6.578,0,1,1,13.156,0V36.041A12.929,12.929,0,0,1,90.7,47.239Zm-2.567,0a10.381,10.381,0,0,0-5.716-9.293l-.7-.357V6.579a4.011,4.011,0,0,0-8.022,0V37.59l-.7.357a10.425,10.425,0,1,0,15.142,9.293Zm-2.138,0a8.29,8.29,0,1,1-10.424-8l.476-.127V23.28h3.315V39.111l.476.128A8.289,8.289,0,0,1,85.994,47.239Zm-7.88-5.526a1.659,1.659,0,0,0-1.981-1.25A6.815,6.815,0,0,0,70.8,47.147a1.656,1.656,0,1,0,3.312,0,3.562,3.562,0,0,1,2.756-3.453A1.664,1.664,0,0,0,78.115,41.714Z" transform="translate(1138.585 199.962)" fill="#dbdbdb"/>
    <path id="Caminho_103" data-name="Caminho 103" d="M90.7,47.239a13,13,0,1,1-19.574-11.2V6.578a6.578,6.578,0,1,1,13.156,0V36.041A12.929,12.929,0,0,1,90.7,47.239Zm-2.567,0a10.381,10.381,0,0,0-5.716-9.293l-.7-.357V6.579a4.011,4.011,0,0,0-8.022,0V37.59l-.7.357a10.425,10.425,0,1,0,15.142,9.293Z" transform="translate(1138.585 199.962)" fill="#dbdbdb"/>
    <g id="Elipse_29" data-name="Elipse 29" transform="translate(1171 199)" fill="none" stroke="#dbdbdb" stroke-width="2.5">
      <circle cx="14.709" cy="14.709" r="14.709" stroke="none"/>
      <circle cx="14.709" cy="14.709" r="13.459" fill="none"/>
    </g>
    <g id="Elipse_30" data-name="Elipse 30" transform="translate(1171 231.78)" fill="none" stroke="#dbdbdb" stroke-width="2.5">
      <circle cx="14.709" cy="14.709" r="14.709" stroke="none"/>
      <circle cx="14.709" cy="14.709" r="13.459" fill="none"/>
    </g>
  </g>
</svg>
