<svg xmlns="http://www.w3.org/2000/svg" width="79.503" height="87.49" viewBox="0 0 79.503 87.49">
  <g id="comp_icon" transform="translate(-8.988 0)">
    <g id="Grupo_12642" data-name="Grupo 12642" transform="translate(8.988 0.001)">
      <g id="Grupo_12641" data-name="Grupo 12641">
        <path id="Caminho_26762" data-name="Caminho 26762" d="M88.36,38.461a20.806,20.806,0,0,0-2.617-7.634c.463-7.581-1.041-13.29-4.469-16.973a12.622,12.622,0,0,0-7.381-3.912c-2.418-5.112-6.53-6.1-9.029-5.861C60.185-.276,55.858-.38,53.006.332a12.523,12.523,0,0,0-4.267,2.015A12.506,12.506,0,0,0,44.472.332c-2.852-.713-7.18-.609-11.858,3.75-2.5-.241-6.611.749-9.029,5.861A12.616,12.616,0,0,0,16.2,13.855c-3.43,3.683-4.932,9.392-4.469,16.973a20.816,20.816,0,0,0-2.617,7.634c-.515,4.129.271,9.952,6.727,14.676C15.1,57.554,15.8,65.157,22.858,68.9a9.921,9.921,0,0,0,.947,6.775,8.172,8.172,0,0,0,5.544,3.67c1.289,1.989,5.732,8.15,11.277,8.15h.106c2.972-.043,5.658-1.8,8.006-5.23,2.349,3.43,5.035,5.187,8.006,5.23,5.586.082,10.086-6.148,11.383-8.149a8.17,8.17,0,0,0,5.544-3.67,9.922,9.922,0,0,0,.947-6.775c7.054-3.738,7.763-11.341,7.014-15.758C88.09,48.413,88.877,42.591,88.36,38.461ZM79.1,51.206a1.517,1.517,0,0,0-.63,1.63c.1.412,2.422,10.128-6.212,13.828a1.516,1.516,0,0,0-.842,1.874c.011.032,1.033,3.279-.347,5.57a5.585,5.585,0,0,1-4.132,2.375,1.518,1.518,0,0,0-1.06.73c-1.186,2.024-5.107,7.245-9.031,7.245h-.068c-2.36-.036-4.609-1.984-6.684-5.788a1.61,1.61,0,0,0-1.389-.79,1.516,1.516,0,0,0-1.332.79c-2.075,3.8-4.324,5.752-6.684,5.788-3.928.063-7.905-5.209-9.1-7.245a1.52,1.52,0,0,0-1.06-.73A5.6,5.6,0,0,1,26.41,74.12c-1.4-2.3-.363-5.554-.354-5.583a1.517,1.517,0,0,0-.842-1.874C16.625,62.982,18.9,53.245,19,52.836a1.517,1.517,0,0,0-.63-1.63c-11.314-7.543-4.14-18.687-3.831-19.155a1.52,1.52,0,0,0,.251-.95c-.495-6.915.712-12.005,3.586-15.132a9.3,9.3,0,0,1,6.239-3.085,1.517,1.517,0,0,0,1.408-.953c1.7-4.242,4.425-4.848,5.843-4.848a4.064,4.064,0,0,1,.884.088,1.516,1.516,0,0,0,1.44-.4c3.086-3.085,6.258-4.27,9.428-3.525a9.372,9.372,0,0,1,4.016,2.109,1.517,1.517,0,0,0,1.072.444h.058a1.516,1.516,0,0,0,1.072-.444,9.354,9.354,0,0,1,3.9-2.082c3.208-.8,6.419.374,9.543,3.5a1.542,1.542,0,0,0,1.426.4c.453-.1,4.5-.852,6.741,4.757a1.53,1.53,0,0,0,1.4.953A9.293,9.293,0,0,1,79.1,15.97c2.873,3.127,4.08,8.218,3.586,15.132a1.521,1.521,0,0,0,.251.95,17.538,17.538,0,0,1,2.414,6.787C85.977,43.863,83.876,48.025,79.1,51.206Z" transform="translate(-8.988 -0.001)" fill="#dbdbdb"/>
      </g>
    </g>
    <g id="Grupo_12644" data-name="Grupo 12644" transform="translate(62.783 9.852)">
      <g id="Grupo_12643" data-name="Grupo 12643">
        <path id="Caminho_26763" data-name="Caminho 26763" d="M141.52,23.21a1.518,1.518,0,0,0-1.919-.959c-9.432,3.144-9.54,11.026-9.54,11.359a1.512,1.512,0,0,0,1.506,1.511h.011a1.522,1.522,0,0,0,1.516-1.5c0-.247.168-6.06,7.466-8.492A1.517,1.517,0,0,0,141.52,23.21Z" transform="translate(-130.061 -22.173)" fill="#dbdbdb"/>
      </g>
    </g>
    <g id="Grupo_12646" data-name="Grupo 12646" transform="translate(64.199 46.698)">
      <g id="Grupo_12645" data-name="Grupo 12645">
        <path id="Caminho_26764" data-name="Caminho 26764" d="M150.143,109.949a1.517,1.517,0,0,0-2.126-.287c-2.471,1.883-4.706,2.554-6.638,2-3.442-.991-5.176-5.525-5.193-5.571a1.516,1.516,0,0,0-2.844,1.054c.09.244,2.266,6,7.179,7.427a7.975,7.975,0,0,0,2.239.319,11.868,11.868,0,0,0,7.1-2.814A1.517,1.517,0,0,0,150.143,109.949Z" transform="translate(-133.248 -105.099)" fill="#dbdbdb"/>
      </g>
    </g>
    <g id="Grupo_12648" data-name="Grupo 12648" transform="translate(52.863 52.368)">
      <g id="Grupo_12647" data-name="Grupo 12647">
        <path id="Caminho_26765" data-name="Caminho 26765" d="M110.324,118.305a1.516,1.516,0,0,0-2.144,2.144c4.924,4.924,3.9,9.682,3.85,9.907a1.516,1.516,0,0,0,1.105,1.83,1.541,1.541,0,0,0,.368.045,1.517,1.517,0,0,0,1.47-1.149C115.041,130.817,116.528,124.51,110.324,118.305Z" transform="translate(-107.735 -117.861)" fill="#dbdbdb"/>
      </g>
    </g>
    <g id="Grupo_12650" data-name="Grupo 12650" transform="translate(56.185 23.88)">
      <g id="Grupo_12649" data-name="Grupo 12649">
        <path id="Caminho_26766" data-name="Caminho 26766" d="M138.009,68.464a1.519,1.519,0,0,0-1.941-.909c-.307.11-7.538,2.638-11.379-2.474a24.83,24.83,0,0,1-3.541-6.755c-.846-2.241-1.643-4.358-4.294-4.576a1.516,1.516,0,0,0-.249,3.022c.635.052.874.42,1.7,2.624a27.85,27.85,0,0,0,3.954,7.506,11.219,11.219,0,0,0,9.37,4.4,17.4,17.4,0,0,0,5.472-.9A1.515,1.515,0,0,0,138.009,68.464Z" transform="translate(-115.212 -53.745)" fill="#dbdbdb"/>
      </g>
    </g>
    <g id="Grupo_12652" data-name="Grupo 12652" transform="translate(47.194 2.767)">
      <g id="Grupo_12651" data-name="Grupo 12651">
        <path id="Caminho_26767" data-name="Caminho 26767" d="M96.492,6.226a1.517,1.517,0,0,0-1.516,1.516V82.853a1.516,1.516,0,0,0,3.033,0V7.742A1.517,1.517,0,0,0,96.492,6.226Z" transform="translate(-94.976 -6.226)" fill="#dbdbdb"/>
      </g>
    </g>
    <g id="Grupo_12654" data-name="Grupo 12654" transform="translate(51.795 14.337)">
      <g id="Grupo_12653" data-name="Grupo 12653">
        <path id="Caminho_26768" data-name="Caminho 26768" d="M113.336,33.762a1.5,1.5,0,0,0-1.539-1.495,1.517,1.517,0,0,0-1.495,1.539c0,.095.084,9.551-4.644,15.548a1.516,1.516,0,1,0,2.381,1.879C113.428,44.4,113.342,34.193,113.336,33.762Z" transform="translate(-105.332 -32.267)" fill="#dbdbdb"/>
      </g>
    </g>
    <g id="Grupo_12656" data-name="Grupo 12656" transform="translate(52.862 62.288)">
      <g id="Grupo_12655" data-name="Grupo 12655">
        <path id="Caminho_26769" data-name="Caminho 26769" d="M117.753,140.187c-6.685,0-9.812,9.15-9.942,9.54a1.516,1.516,0,0,0,.958,1.917,1.5,1.5,0,0,0,.481.079,1.518,1.518,0,0,0,1.439-1.035c.7-2.077,3.33-7.468,7.065-7.468a1.516,1.516,0,1,0,0-3.033Z" transform="translate(-107.733 -140.187)" fill="#dbdbdb"/>
      </g>
    </g>
    <g id="Grupo_12658" data-name="Grupo 12658" transform="translate(58.531 3.546)">
      <g id="Grupo_12657" data-name="Grupo 12657">
        <path id="Caminho_26770" data-name="Caminho 26770" d="M126.551,8.279a1.516,1.516,0,0,0-2.122.311l-3.639,4.889a1.516,1.516,0,1,0,2.433,1.81l3.639-4.889A1.517,1.517,0,0,0,126.551,8.279Z" transform="translate(-120.491 -7.979)" fill="#dbdbdb"/>
      </g>
    </g>
    <g id="Grupo_12660" data-name="Grupo 12660" transform="translate(27.476 13.648)">
      <g id="Grupo_12659" data-name="Grupo 12659">
        <path id="Caminho_26771" data-name="Caminho 26771" d="M56.664,30.715a6.066,6.066,0,1,0,6.066,6.066A6.073,6.073,0,0,0,56.664,30.715Zm0,9.1A3.033,3.033,0,1,1,59.7,36.781,3.036,3.036,0,0,1,56.664,39.815Z" transform="translate(-50.598 -30.715)" fill="#dbdbdb"/>
      </g>
    </g>
    <g id="Grupo_12662" data-name="Grupo 12662" transform="translate(16.859 33.363)">
      <g id="Grupo_12661" data-name="Grupo 12661" transform="translate(0)">
        <path id="Caminho_26772" data-name="Caminho 26772" d="M32.77,75.088a6.066,6.066,0,1,0,6.066,6.066A6.073,6.073,0,0,0,32.77,75.088Zm0,9.1A3.033,3.033,0,1,1,35.8,81.154,3.036,3.036,0,0,1,32.77,84.188Z" transform="translate(-26.704 -75.088)" fill="#dbdbdb"/>
      </g>
    </g>
    <g id="Grupo_12664" data-name="Grupo 12664" transform="translate(32.026 47.013)">
      <g id="Grupo_12663" data-name="Grupo 12663">
        <path id="Caminho_26773" data-name="Caminho 26773" d="M66.9,105.808a6.066,6.066,0,1,0,6.066,6.066A6.073,6.073,0,0,0,66.9,105.808Zm0,9.1a3.033,3.033,0,1,1,3.033-3.033A3.036,3.036,0,0,1,66.9,114.908Z" transform="translate(-60.838 -105.808)" fill="#dbdbdb"/>
      </g>
    </g>
    <g id="Grupo_12666" data-name="Grupo 12666" transform="translate(32.026 63.696)">
      <g id="Grupo_12665" data-name="Grupo 12665">
        <path id="Caminho_26774" data-name="Caminho 26774" d="M66.9,143.355a6.066,6.066,0,1,0,6.066,6.066A6.073,6.073,0,0,0,66.9,143.355Zm0,9.1a3.033,3.033,0,1,1,3.033-3.033A3.036,3.036,0,0,1,66.9,152.455Z" transform="translate(-60.838 -143.355)" fill="#dbdbdb"/>
      </g>
    </g>
    <g id="Grupo_12668" data-name="Grupo 12668" transform="translate(32.026 22.747)">
      <g id="Grupo_12667" data-name="Grupo 12667">
        <path id="Caminho_26775" data-name="Caminho 26775" d="M62.354,51.195a1.517,1.517,0,0,0-1.516,1.516V67.877a1.516,1.516,0,1,0,3.033,0V52.711A1.517,1.517,0,0,0,62.354,51.195Z" transform="translate(-60.838 -51.195)" fill="#dbdbdb"/>
      </g>
    </g>
    <g id="Grupo_12670" data-name="Grupo 12670" transform="translate(25.959 37.913)">
      <g id="Grupo_12669" data-name="Grupo 12669">
        <path id="Caminho_26776" data-name="Caminho 26776" d="M59.317,85.328H48.7a1.516,1.516,0,1,0,0,3.033H59.317a1.516,1.516,0,0,0,0-3.033Z" transform="translate(-47.184 -85.328)" fill="#dbdbdb"/>
      </g>
    </g>
    <g id="Grupo_12672" data-name="Grupo 12672" transform="translate(36.576 37.913)">
      <g id="Grupo_12671" data-name="Grupo 12671">
        <path id="Caminho_26777" data-name="Caminho 26777" d="M72.594,85.328a1.517,1.517,0,0,0-1.516,1.516v9.1a1.516,1.516,0,1,0,3.033,0v-9.1A1.517,1.517,0,0,0,72.594,85.328Z" transform="translate(-71.078 -85.328)" fill="#dbdbdb"/>
      </g>
    </g>
    <g id="Grupo_12674" data-name="Grupo 12674" transform="translate(36.576 56.112)">
      <g id="Grupo_12673" data-name="Grupo 12673">
        <path id="Caminho_26778" data-name="Caminho 26778" d="M72.594,126.288a1.517,1.517,0,0,0-1.516,1.516v7.583a1.516,1.516,0,0,0,3.033,0V127.8A1.517,1.517,0,0,0,72.594,126.288Z" transform="translate(-71.078 -126.288)" fill="#dbdbdb"/>
      </g>
    </g>
  </g>
</svg>
