<svg id="desemp_icon_blocked" xmlns="http://www.w3.org/2000/svg" xmlns:xlink="http://www.w3.org/1999/xlink" width="80.801" height="72.497" viewBox="0 0 80.801 72.497">
  <defs>
    <clipPath id="clip-path">
      <rect id="Retângulo_20" data-name="Retângulo 20" width="80.801" height="72.497" fill="#dbdbdb"/>
    </clipPath>
  </defs>
  <path id="Caminho_57" data-name="Caminho 57" d="M188.018,301.834a3.424,3.424,0,1,0,0,6.848,3.5,3.5,0,0,0,3.424-3.424,3.341,3.341,0,0,0-3.424-3.424Zm0,4.525a.983.983,0,1,1,.977-.982C189.118,305.866,188.629,306.359,188.018,306.359Zm0,0" transform="translate(-153.777 -256.263)" fill="#dbdbdb"/>
  <path id="Caminho_58" data-name="Caminho 58" d="M222.85,196.111a1.225,1.225,0,0,0-1.223-1.223H198.271a1.223,1.223,0,0,0,0,2.446h23.357a1.156,1.156,0,0,0,1.223-1.224Zm0,0" transform="translate(-164.152 -166.194)" fill="#dbdbdb"/>
  <path id="Caminho_59" data-name="Caminho 59" d="M203.4,141.062a1.155,1.155,0,0,0,1.223-1.223v-6.726a1.223,1.223,0,1,0-2.445,0v6.726a1.225,1.225,0,0,0,1.223,1.223Zm0,0" transform="translate(-168.423 -113.315)" fill="#dbdbdb"/>
  <path id="Caminho_60" data-name="Caminho 60" d="M229.033,155.708a1.155,1.155,0,0,0,1.223-1.223v-3.792a1.223,1.223,0,1,0-2.446,0v3.792A1.315,1.315,0,0,0,229.033,155.708Zm0,0" transform="translate(-189.779 -128.062)" fill="#dbdbdb"/>
  <path id="Caminho_61" data-name="Caminho 61" d="M255.406,116.043a1.155,1.155,0,0,0,1.223-1.223V103.081a1.223,1.223,0,1,0-2.445,0v11.74a1.225,1.225,0,0,0,1.223,1.223Zm0,0" transform="translate(-211.748 -88.099)" fill="#dbdbdb"/>
  <path id="Caminho_62" data-name="Caminho 62" d="M281.041,130.688a1.155,1.155,0,0,0,1.223-1.223v-8.8a1.223,1.223,0,1,0-2.445,0v8.8A1.225,1.225,0,0,0,281.041,130.688Zm0,0" transform="translate(-233.104 -102.863)" fill="#dbdbdb"/>
  <path id="Caminho_63" data-name="Caminho 63" d="M306.676,123.37a1.155,1.155,0,0,0,1.223-1.223V111.876a1.223,1.223,0,1,0-2.446,0v10.272a1.316,1.316,0,0,0,1.224,1.223Zm0,0" transform="translate(-254.459 -95.486)" fill="#dbdbdb"/>
  <g id="Grupo_8" data-name="Grupo 8" transform="translate(0 0)" clip-path="url(#clip-path)">
    <path id="Caminho_64" data-name="Caminho 64" d="M333.054,108.632a1.13,1.13,0,0,0,1.223-1.167V94.97a1.225,1.225,0,0,0-2.446,0v12.5a1.2,1.2,0,0,0,1.224,1.167Zm0,0" transform="translate(-276.43 -81.177)" fill="#dbdbdb"/>
  </g>
  <g id="Grupo_9" data-name="Grupo 9" transform="translate(0 0)" clip-path="url(#clip-path)">
    <path id="Caminho_65" data-name="Caminho 65" d="M79.61,77.57,69.338,61.807a1.42,1.42,0,0,0-.857-.584V19.89a3.825,3.825,0,0,0-3.791-3.737H3.791A3.908,3.908,0,0,0,0,19.89V67.879a3.825,3.825,0,0,0,3.791,3.736H23.848l-2.69,8.056H15.9a1.168,1.168,0,1,0,0,2.335H52.462a1.168,1.168,0,1,0,0-2.335H47.2l-2.69-8.056H58.331l8.683,13.428c1.957,2.919,5.992,4.436,10.272,1.985a6.655,6.655,0,0,0,2.322-9.458ZM2.446,19.89a1.328,1.328,0,0,1,1.345-1.283h60.9a1.352,1.352,0,0,1,1.345,1.4V58.421H62.366l-4.279-6.655a17.7,17.7,0,0,0,3.542-23.119C56,19.772,44.264,17.437,35.459,22.573a17.85,17.85,0,0,0-6.237,25.1,19.427,19.427,0,0,0,23.236,7.356L54.536,58.3H2.446ZM66.04,60.641v1.751l-.734.467L63.96,60.641Zm-9.665-7.357,6.971,10.742c-.611.349-.982.583-1.59.933L54.789,54.218Zm-2.2-1.635C46.47,56.2,36.2,54.1,31.309,46.511A15.463,15.463,0,0,1,36.686,24.68a17.024,17.024,0,0,1,22.865,5.138c4.892,7.356,2.447,17.165-5.38,21.835Zm-9.417,28.14H23.848l2.689-8.056H42.19Zm12.594-12.26a.958.958,0,0,0-.489.7,1.266,1.266,0,0,0,.122.93v.118H3.791a1.353,1.353,0,0,1-1.345-1.4V60.523H56.008l3.669,5.6Zm18.712,17.4c-2.936,1.752-5.627.7-6.849-1.167L59.677,68.933s3.18-1.868,8.438-4.9l9.538,14.827a4.39,4.39,0,0,1-1.589,6.074Zm0,0" transform="translate(0 -15.905)" fill="#dbdbdb"/>
  </g>
  <g id="Grupo_11" data-name="Grupo 11" transform="translate(7.236 12.802)">
    <path id="Caminho_66" data-name="Caminho 66" d="M53.646,164.238H49.392a6.091,6.091,0,0,0-6.074,6.049v4.846a.758.758,0,0,0,.757.756h14.88a.761.761,0,0,0,.749-.646v-4.955A6.074,6.074,0,0,0,53.646,164.238Z" transform="translate(-43.318 -152.945)" fill="#dbdbdb"/>
    <path id="Caminho_67" data-name="Caminho 67" d="M66.211,107.087a5.249,5.249,0,1,0-5.249-5.249,5.249,5.249,0,0,0,5.249,5.249Z" transform="translate(-58.02 -96.589)" fill="#dbdbdb"/>
    <path id="Caminho_68" data-name="Caminho 68" d="M73.145,112.5a3.859,3.859,0,1,0-3.86-3.86,3.859,3.859,0,0,0,3.86,3.86Z" transform="translate(-64.954 -103.411)" fill="#dbdbdb"/>
    <path id="Caminho_69" data-name="Caminho 69" d="M60.793,170.674H57.325a4.968,4.968,0,0,0-4.956,4.935v3.951a.618.618,0,0,0,.616.617h12.14a.625.625,0,0,0,.612-.527v-4.04A4.956,4.956,0,0,0,60.793,170.674Z" transform="translate(-50.861 -158.306)" fill="#dbdbdb"/>
  </g>
</svg>
