<svg xmlns="http://www.w3.org/2000/svg" width="66.179" height="87.737" viewBox="0 0 66.179 87.737">
  <g id="diario_feedback_icon" transform="translate(-613.453 -748.114)">
    <g id="Diario_de_Bordo_Preto" data-name="Diario de Bordo Preto" transform="translate(613.453 748.114)">
      <g id="like" transform="translate(14.788 34.87)">
        <path id="Caminho_81" data-name="Caminho 81" d="M56.523,35.941a6.567,6.567,0,0,0,1.537-4.389,6.743,6.743,0,0,0-1.437-3.8,5.909,5.909,0,0,0-1.4-6.8c-1.758-1.6-4.743-2.322-8.877-2.123a34.7,34.7,0,0,0-5.439.7h-.011c-.553.1-1.139.221-1.736.354-.044-.708.077-2.465,1.382-6.423C42.085,8.745,42,5.141,40.25,2.731A7.028,7.028,0,0,0,34.623,0a2.776,2.776,0,0,0-2.134.973C31.262,2.4,31.406,5.03,31.56,6.246c-1.459,3.914-5.55,13.51-9.01,16.174a1.183,1.183,0,0,0-.177.155,11.876,11.876,0,0,0-2.167,3.25,4.562,4.562,0,0,0-2.189-.553H11.274a4.6,4.6,0,0,0-4.6,4.6V47.836a4.6,4.6,0,0,0,4.6,4.6h6.744a4.589,4.589,0,0,0,2.653-.84l2.6.31a111.31,111.31,0,0,0,14.737.807c1.316.1,2.554.155,3.7.155A24.8,24.8,0,0,0,46.85,52.4c3.383-.719,5.693-2.156,6.865-4.267a6.767,6.767,0,0,0,.752-4.234,7.052,7.052,0,0,0,2.51-5.738A7.468,7.468,0,0,0,56.523,35.941ZM11.274,49.45A1.616,1.616,0,0,1,9.66,47.836V29.86a1.616,1.616,0,0,1,1.614-1.614h6.744a1.616,1.616,0,0,1,1.614,1.614V47.825a1.616,1.616,0,0,1-1.614,1.614H11.274Zm42.419-14.8a1.486,1.486,0,0,0-.2,1.8A4.6,4.6,0,0,1,54,38.3a4.424,4.424,0,0,1-2.078,3.825,1.506,1.506,0,0,0-.509,1.7,3.9,3.9,0,0,1-.3,2.852c-.741,1.327-2.388,2.277-4.886,2.808a29.125,29.125,0,0,1-8.059.243h-.155a109.125,109.125,0,0,1-14.372-.785h-.011l-1.117-.133a4.684,4.684,0,0,0,.1-.973V29.86a4.677,4.677,0,0,0-.21-1.371A9.24,9.24,0,0,1,24.463,24.7C29.427,20.762,34.28,7.484,34.49,6.91a1.4,1.4,0,0,0,.066-.741A6.909,6.909,0,0,1,34.7,2.963a3.966,3.966,0,0,1,3.118,1.492c1.128,1.559,1.083,4.345-.133,8.037-1.857,5.627-2.012,8.59-.542,9.894a2.41,2.41,0,0,0,2.41.431c.674-.155,1.316-.287,1.924-.387l.144-.033c3.394-.741,9.474-1.194,11.586.73,1.791,1.636.52,3.8.376,4.035a1.478,1.478,0,0,0,.265,1.924,4.188,4.188,0,0,1,1.227,2.576A4.106,4.106,0,0,1,53.693,34.647Z" transform="translate(-6.675 0)" fill="#bfbfbf"/>
      </g>
      <g id="chat" transform="translate(0 0)">
        <path id="Caminho_82" data-name="Caminho 82" d="M10.028,25.521H23.395a1.028,1.028,0,0,0,0-2.056H10.028a1.028,1.028,0,1,0,0,2.056Z" transform="translate(0.254 -1.873)" fill="#afd154"/>
        <path id="Caminho_83" data-name="Caminho 83" d="M36.761,29.465H10.028a1.028,1.028,0,1,0,0,2.056H36.761a1.028,1.028,0,1,0,0-2.056Z" transform="translate(0.254 -1.704)" fill="#afd154"/>
        <path id="Caminho_84" data-name="Caminho 84" d="M36.761,35.465H10.028a1.028,1.028,0,1,0,0,2.056H36.761a1.028,1.028,0,1,0,0-2.056Z" transform="translate(0.254 -1.535)" fill="#afd154"/>
        <path id="Caminho_85" data-name="Caminho 85" d="M55.6,2.537l-35.1-.072a6.1,6.1,0,0,0-6.1,6.1v5.268l-8.3.017a6.1,6.1,0,0,0-6.1,6.1V41.682a6.1,6.1,0,0,0,6.1,6.1h6.241V58.06a1.028,1.028,0,0,0,1.789.692L24.1,47.776l17.095-.07a6.1,6.1,0,0,0,6.1-6.1v-.116L52.7,47.443a1.028,1.028,0,0,0,1.789-.692V36.469h1.1a6.1,6.1,0,0,0,6.1-6.1V8.634A6.1,6.1,0,0,0,55.6,2.537ZM45.24,41.609a4.045,4.045,0,0,1-4.045,4.04l-17.551.072a1.029,1.029,0,0,0-.757.336L14.395,55.4V46.749a1.028,1.028,0,0,0-1.028-1.028H6.1a4.045,4.045,0,0,1-4.041-4.04V19.944A4.046,4.046,0,0,1,6.1,15.9l9.324-.02h0L41.2,15.83a4.045,4.045,0,0,1,4.041,4.041V41.609ZM59.635,30.371a4.044,4.044,0,0,1-4.041,4.04H53.465a1.028,1.028,0,0,0-1.028,1.028V44.09L47.3,38.435V19.872a6.1,6.1,0,0,0-6.1-6.1l-24.746.05V8.561A4.045,4.045,0,0,1,20.49,4.52l35.1.072h0a4.045,4.045,0,0,1,4.041,4.041V30.371Z" transform="translate(0 -2.465)" fill="#bfbfbf"/>
      </g>
      <g id="chat-2" data-name="chat" transform="translate(1 0)">
        <path id="Caminho_82-2" data-name="Caminho 82" d="M10.028,25.521H23.395a1.028,1.028,0,0,0,0-2.056H10.028a1.028,1.028,0,1,0,0,2.056Z" transform="translate(0.254 -1.873)" fill="#afd154"/>
        <path id="Caminho_83-2" data-name="Caminho 83" d="M36.761,29.465H10.028a1.028,1.028,0,1,0,0,2.056H36.761a1.028,1.028,0,1,0,0-2.056Z" transform="translate(0.254 -1.704)" fill="#afd154"/>
        <path id="Caminho_84-2" data-name="Caminho 84" d="M36.761,35.465H10.028a1.028,1.028,0,1,0,0,2.056H36.761a1.028,1.028,0,1,0,0-2.056Z" transform="translate(0.254 -1.535)" fill="#afd154"/>
        <path id="Caminho_85-2" data-name="Caminho 85" d="M55.6,2.537l-35.1-.072a6.1,6.1,0,0,0-6.1,6.1v5.268l-8.3.017a6.1,6.1,0,0,0-6.1,6.1V41.682a6.1,6.1,0,0,0,6.1,6.1h6.241V58.06a1.028,1.028,0,0,0,1.789.692L24.1,47.776l17.095-.07a6.1,6.1,0,0,0,6.1-6.1v-.116L52.7,47.443a1.028,1.028,0,0,0,1.789-.692V36.469h1.1a6.1,6.1,0,0,0,6.1-6.1V8.634A6.1,6.1,0,0,0,55.6,2.537ZM45.24,41.609a4.045,4.045,0,0,1-4.045,4.04l-17.551.072a1.029,1.029,0,0,0-.757.336L14.395,55.4V46.749a1.028,1.028,0,0,0-1.028-1.028H6.1a4.045,4.045,0,0,1-4.041-4.04V19.944A4.046,4.046,0,0,1,6.1,15.9l9.324-.02h0L41.2,15.83a4.045,4.045,0,0,1,4.041,4.041V41.609ZM59.635,30.371a4.044,4.044,0,0,1-4.041,4.04H53.465a1.028,1.028,0,0,0-1.028,1.028V44.09L47.3,38.435V19.872a6.1,6.1,0,0,0-6.1-6.1l-24.746.05V8.561A4.045,4.045,0,0,1,20.49,4.52l35.1.072h0a4.045,4.045,0,0,1,4.041,4.041V30.371Z" transform="translate(0 -2.465)" fill="#bfbfbf"/>
      </g>
      <path id="Caminho_86" data-name="Caminho 86" d="M3074,390.663l1.642-3.922.91-2.888,1.69-.62,1.683,3.508-.41,2.212Z" transform="translate(-3033.084 -344.664)" fill="#fff"/>
    </g>
    <path id="Caminho_191" data-name="Caminho 191" d="M1.028,2.056H14.395a1.028,1.028,0,0,0,0-2.056H1.028a1.028,1.028,0,1,0,0,2.056Z" transform="translate(635.447 829.325) rotate(-90)" fill="#afd154"/>
  </g>
</svg>
