<svg xmlns="http://www.w3.org/2000/svg" xmlns:xlink="http://www.w3.org/1999/xlink" width="97.862" height="133.7" viewBox="0 0 97.862 133.7">
  <defs>
    <linearGradient id="linear-gradient" x1="-23.125" y1="0.5" x2="-22.125" y2="0.5" gradientUnits="objectBoundingBox">
      <stop offset="0" stop-color="#afd154"/>
      <stop offset="1" stop-color="#b8d271"/>
    </linearGradient>
    <linearGradient id="linear-gradient-2" x1="-24.056" y1="0.5" x2="-23.056" y2="0.5" gradientUnits="objectBoundingBox">
      <stop offset="0" stop-color="#40d5e6"/>
      <stop offset="1" stop-color="#94b738"/>
    </linearGradient>
    <linearGradient id="linear-gradient-3" x1="-32.154" y1="0.5" x2="-31.154" y2="0.5" gradientUnits="objectBoundingBox">
      <stop offset="0" stop-color="#40d5e6"/>
      <stop offset="1" stop-color="#afd154"/>
    </linearGradient>
    <linearGradient id="linear-gradient-4" x1="-0.038" y1="0.5" x2="0.962" y2="0.5" gradientUnits="objectBoundingBox">
      <stop offset="0" stop-color="#ff9340"/>
      <stop offset="1" stop-color="#ffce45"/>
    </linearGradient>
    <linearGradient id="linear-gradient-5" x1="-0.038" y1="0.5" x2="0.962" y2="0.5" gradientUnits="objectBoundingBox">
      <stop offset="0" stop-color="#c97332"/>
      <stop offset="1" stop-color="#ffce45"/>
    </linearGradient>
  </defs>
  <g id="feedback_lider_icon" transform="translate(-229 -350)">
    <g id="Grupo_12841" data-name="Grupo 12841" transform="translate(260.803 350)" opacity="0.8">
      <g id="Grupo_12746" data-name="Grupo 12746" transform="translate(59.184 62.339)">
        <g id="Grupo_12745" data-name="Grupo 12745" transform="translate(0)">
          <g id="Grupo_12744" data-name="Grupo 12744">
            <path id="Caminho_26854" data-name="Caminho 26854" d="M1158.739,1440.045a4.409,4.409,0,0,0-.571,1.51,7.251,7.251,0,0,1-.7,1.784,16.968,16.968,0,0,0-.848,2.973,13.725,13.725,0,0,1,.4,1.99c-.068.431-.314,1.284.073,1.341s.825-.643.825-.643a.568.568,0,0,0,.291.548.958.958,0,0,0,.973.035s.234.436.529.495a1.2,1.2,0,0,0,.968-.131,1.172,1.172,0,0,0,.735.236.964.964,0,0,0,.815-.507s.727.147.938-.192a3.255,3.255,0,0,0,.261-1.008,11.739,11.739,0,0,0-.922-5.082,4.5,4.5,0,0,1,.24-3.948Z" transform="translate(-1156.622 -1439.446)" fill="#eea886"/>
          </g>
        </g>
      </g>
      <g id="Grupo_12748" data-name="Grupo 12748" transform="translate(60.378 67.964)">
        <g id="Grupo_12747" data-name="Grupo 12747" transform="translate(0 0)">
          <path id="Caminho_26855" data-name="Caminho 26855" d="M1156.4,1475.34s-.065-2.491.591-3.021.73.369.73.369-.089-.888.627-1.008.746.935.746.935a.693.693,0,0,1,.87-.544c.753.141.573,1.015.573,1.015s.719-.857,1.185-.034a3.67,3.67,0,0,1,.029,3.032s-.222.376-.938.192a.989.989,0,0,1-1.55.271s-1.1.6-1.5-.364A.908.908,0,0,1,1156.4,1475.34Z" transform="translate(-1156.4 -1471.67)" fill="#db9c7c"/>
        </g>
      </g>
      <path id="Caminho_26856" data-name="Caminho 26856" d="M1157.666,1209.8s4.263,14.21,5.7,19.451c.452,1.644,1.545,17.343,1.738,17.974s5.6,1.5,5.6,1.5-.655-19.639-.716-20.71-5.967-23-7.684-23.785c-1.287-.586-1.966-.1-3.587,1.1C1156.445,1207.023,1157.666,1209.8,1157.666,1209.8Z" transform="translate(-1104.814 -1182.74)" fill="#3f444b"/>
      <g id="Grupo_12749" data-name="Grupo 12749" transform="translate(1.041 0.769)">
        <rect id="Retângulo_2627" data-name="Retângulo 2627" width="11.663" height="0.866" transform="translate(9.759 7.112) rotate(-146.796)" fill="#4da8f2"/>
      </g>
      <path id="Caminho_26857" data-name="Caminho 26857" d="M1493.76,1093.641a2.546,2.546,0,0,0,.252.773s.32.381.53.666a2.347,2.347,0,0,1,.153.226,4.657,4.657,0,0,0,.806,1.253c.465.472,2.275,1.971,2.275,1.971l1.551-1.316,1.61-.722a30.3,30.3,0,0,0-1.284-4.409,1.577,1.577,0,0,0-.116-.133,5.946,5.946,0,0,0-1.009-.694c-.079-.065-.907-.662-1.2-.585a1,1,0,0,0-.744.621,2.383,2.383,0,0,0-1.1.709,1.483,1.483,0,0,0-.959.89S1493.792,1093.179,1493.76,1093.641Z" transform="translate(-1493.76 -1089.2)" fill="#efaa88"/>
      <g id="Grupo_12751" data-name="Grupo 12751" transform="translate(56.312 123.735)">
        <g id="Grupo_12750" data-name="Grupo 12750" transform="translate(0)">
          <path id="Caminho_26858" data-name="Caminho 26858" d="M1182.989,1791.557s.389,2.7.437,3.1,4.323-.239,4.323-.239l.346-3.211S1183.523,1791.176,1182.989,1791.557Z" transform="translate(-1182.989 -1791.209)" fill="#424773"/>
        </g>
      </g>
      <g id="Grupo_12753" data-name="Grupo 12753" transform="translate(49.285 126.66)">
        <g id="Grupo_12752" data-name="Grupo 12752" transform="translate(0)">
          <path id="Caminho_26859" data-name="Caminho 26859" d="M1186.579,1808.151a11.55,11.55,0,0,1-2.664,2.334c-1.31.708-3.368.989-4.143,1.722-.559.53-2.037,2.809,3.4,2.762s8.063.322,8.646-.552-.844-6.45-.844-6.45A11.52,11.52,0,0,1,1186.579,1808.151Z" transform="translate(-1179.161 -1807.968)" fill="#23272d"/>
        </g>
      </g>
      <g id="Grupo_12755" data-name="Grupo 12755" transform="translate(25.683 123.735)">
        <g id="Grupo_12754" data-name="Grupo 12754">
          <path id="Caminho_26860" data-name="Caminho 26860" d="M1358.477,1791.557s.388,2.7.437,3.1,4.323-.239,4.323-.239l.346-3.211S1359.011,1791.176,1358.477,1791.557Z" transform="translate(-1358.477 -1791.209)" fill="#424773"/>
        </g>
      </g>
      <g id="Grupo_12757" data-name="Grupo 12757" transform="translate(16.143 126.66)">
        <g id="Grupo_12756" data-name="Grupo 12756">
          <path id="Caminho_26861" data-name="Caminho 26861" d="M1364.579,1808.151a11.548,11.548,0,0,1-2.665,2.334c-1.31.708-6.13,1.291-6.905,2.024-.559.53-1.489,2.661,6.166,2.461,5.439-.142,8.064.322,8.647-.552s-.844-6.45-.844-6.45S1367.765,1808.463,1364.579,1808.151Z" transform="translate(-1354.648 -1807.968)" fill="#23272d"/>
        </g>
      </g>
      <g id="Grupo_12759" data-name="Grupo 12759" transform="translate(42.964 54.768)">
        <g id="Grupo_12758" data-name="Grupo 12758" transform="translate(0 0)">
          <path id="Caminho_26862" data-name="Caminho 26862" d="M1188.969,1396.065s4.017,6.382,3.717,12.15,1.456,12.066,2.06,18.093c.673,6.718,3.426,22.622,3.526,26.215s-.427,15.068-.427,15.068l-5.51.126s-4.628-27.8-5.827-30.641-7.143-23.062-7.342-25.332S1188.969,1396.065,1188.969,1396.065Z" transform="translate(-1179.161 -1396.065)" fill="#383d44"/>
        </g>
      </g>
      <g id="Grupo_12761" data-name="Grupo 12761" transform="translate(24.938 53.669)">
        <g id="Grupo_12760" data-name="Grupo 12760" transform="translate(0)">
          <path id="Caminho_26863" data-name="Caminho 26863" d="M1227.637,1391.731s-3.027,15.811-3.426,19.341-.666,17.086-.866,19.292-1.866,28.809-2.4,32.154h7.045s5.408-19.387,5.408-28.561,4.178-19.942,6.875-25.994,8.87-6.2,10.528-17.425C1250.8,1390.539,1229.881,1388.169,1227.637,1391.731Z" transform="translate(-1220.947 -1389.766)" fill="#383d44"/>
        </g>
      </g>
      <g id="Grupo_12763" data-name="Grupo 12763" transform="translate(36.467 0.621)">
        <g id="Grupo_12762" data-name="Grupo 12762" transform="translate(0 0)">
          <path id="Caminho_26864" data-name="Caminho 26864" d="M1261.2,1086.328s-5.391-2.014-7.877,2.09-2.246,12.32.471,13.33,6.8.482,8.191-2.086,2.647-6.281,2.587-8.761S1262.616,1087.045,1261.2,1086.328Z" transform="translate(-1251.598 -1085.834)" fill="#eea886"/>
        </g>
      </g>
      <g id="Grupo_12765" data-name="Grupo 12765" transform="translate(39.089 11.606)">
        <g id="Grupo_12764" data-name="Grupo 12764" transform="translate(0)">
          <path id="Caminho_26865" data-name="Caminho 26865" d="M1260.557,1153.891a4.664,4.664,0,0,1-.146,2.173c-.371.717,6.985.736,6.985.736a48.486,48.486,0,0,1,1.729-7.2C1270.257,1146.309,1260.557,1153.891,1260.557,1153.891Z" transform="translate(-1260.398 -1148.774)" fill="#eea886"/>
        </g>
      </g>
      <g id="Grupo_12767" data-name="Grupo 12767" transform="translate(36.699)">
        <g id="Grupo_12766" data-name="Grupo 12766" transform="translate(0)">
          <path id="Caminho_26866" data-name="Caminho 26866" d="M1260.146,1094.712s-.508.837-2.58.513-4.6-3.082-5.466-3.385-.873-.811-.873-.811l-.542.791-.919.058s.838-2.466-.426-3.472,1.312-7.983,7.958-5.66c0,0,5.1,1.407,4.919,4.31S1261.288,1093.267,1260.146,1094.712Z" transform="translate(-1249.029 -1082.276)" fill="#d88a51"/>
        </g>
      </g>
      <g id="Grupo_12769" data-name="Grupo 12769" transform="translate(38.665 16.795)">
        <g id="Grupo_12768" data-name="Grupo 12768" transform="translate(0 0)">
          <path id="Caminho_26867" data-name="Caminho 26867" d="M1266.02,1180.514s.023-1.37.644-1.5,6.854-.731,7.617-.431v1.6S1272.813,1181.082,1266.02,1180.514Z" transform="translate(-1266.02 -1178.499)" fill="#e2d2ca"/>
        </g>
      </g>
      <g id="Grupo_12771" data-name="Grupo 12771" transform="translate(38.871 6.639)">
        <g id="Grupo_12770" data-name="Grupo 12770">
          <path id="Caminho_26868" data-name="Caminho 26868" d="M1300.3,1121.373c.116-.487,1.354-1.878,1.828-.388s-.716,3.494-1.38,3.322S1300.007,1122.607,1300.3,1121.373Z" transform="translate(-1300.139 -1120.315)" fill="#eea886"/>
        </g>
      </g>
      <g id="Grupo_12773" data-name="Grupo 12773" transform="translate(2.697 6.608)">
        <g id="Grupo_12772" data-name="Grupo 12772">
          <path id="Caminho_26869" data-name="Caminho 26869" d="M1225.046,1134.414c4.274-.563,10.31-2.075,10.31-2.075l8.261-.337s7.582,1.669,10.568,3.018c.283.128.284,6.764,1.062,8.5l-2.476,5.223s-1.43,10.345-1.727,14.947c-.136,2.112,2.949,19.807,2.949,19.807a57.029,57.029,0,0,1-8.945,1.595c-5.638.621-19.725-.224-19.814-.891s2.728-24.8,2.853-26.046c.191-1.918-.661-12.11-.661-12.11-1.3-1.01-12.732-6.315-15.85-9.08-.834-.74-4.357-4.17-5.358-5.354a96.1,96.1,0,0,1-6.806-8.564c-.4-.441,3.943-2.783,4.329-2.912.338-.112,5.039,6.127,6.884,8.125a51.729,51.729,0,0,0,4.242,3.378S1222.372,1134.567,1225.046,1134.414Z" transform="translate(-1199.388 -1120.137)" fill="#474b51"/>
        </g>
      </g>
      <g id="Grupo_12775" data-name="Grupo 12775" transform="translate(47.604 1.599)">
        <g id="Grupo_12774" data-name="Grupo 12774" transform="translate(0)">
          <path id="Caminho_26870" data-name="Caminho 26870" d="M1244.265,1091.439s6.874.538.211,10.837Z" transform="translate(-1244.265 -1091.439)" fill="#d88a51"/>
        </g>
      </g>
      <path id="Caminho_26871" data-name="Caminho 26871" d="M1526.763,1086.766l-.564-.86,1.038.136Z" transform="translate(-1525.722 -1085.272)" fill="#dfe1e8"/>
    </g>
    <g id="Grupo_12842" data-name="Grupo 12842" transform="translate(-17.748 -649.16)">
      <path id="Caminho_26846" data-name="Caminho 26846" d="M416.025,1038.8c-2.77-1.325-5.527,7.494-5.527,7.494-4.708,6.222-11.288-2.055-10.645,7.245,1.126,16.274-18.732,5.118-9.571,22.109s-8.089,9.607-2.4,23.307-1.686,30.04,6.881,23.326c0,0,7.543-16.541,15.322-21.658s-4.66-11.19-2.226-18.141c3.535-10.1,12.052-9.7,5.911-20.549S425.442,1043.3,416.025,1038.8Z" transform="translate(-119.465 0)" fill="url(#linear-gradient)"/>
      <g id="Grupo_12739" data-name="Grupo 12739" transform="translate(272.236 1055.913)">
        <path id="Caminho_26847" data-name="Caminho 26847" d="M421.171,1216.631c3.713-2.611,8.059-20.81,8.318-31.649.133-5.552,1.774-7.866,3.222-9.907,1.384-1.951,2.58-3.636,1.883-7.5-1.331-7.393,2.168-10.584,2.2-10.616l-.4-.462c-.156.136-3.8,3.428-2.4,11.186.651,3.615-.422,5.126-1.78,7.04-1.425,2.008-3.2,4.507-3.335,10.247-.278,11.633-4.721,28.815-8.058,31.162Z" transform="translate(-420.818 -1156.494)" fill="#fff"/>
      </g>
      <g id="Grupo_12740" data-name="Grupo 12740" transform="translate(246.748 1080.947)">
        <path id="Caminho_26848" data-name="Caminho 26848" d="M264.806,1357.255c-.35-.795-.713-1.616-1.124-2.483-2.121-4.478-4-5.215-7.113-6.437-.761-.3-1.623-.637-2.569-1.062-4.459-2-3.6-4.958-2.834-7.563.106-.365.213-.728.3-1.088.392-1.532-.361-2.3-1.5-3.465a13.007,13.007,0,0,1-2.716-3.642c-.89-1.861-.436-2.858.1-3.368,1.131-1.072,3.74-.875,6.2.47h0a8.966,8.966,0,0,1,2.062,1.775,10.216,10.216,0,0,0,8.466,3.714c2.818.013,4.361.4,5.161,1.3.907,1.019.736,2.546.5,4.658-.082.731-.175,1.559-.231,2.453a14.31,14.31,0,0,0,2.846,9.225c1.883,2.242,4.2,6.892,3.2,9.755a3.426,3.426,0,0,1-2.789,2.244,7.922,7.922,0,0,1-1.57.17C267.744,1363.912,266.478,1361.046,264.806,1357.255Zm-11.544-28.1c-2.2-1.2-4.558-1.443-5.486-.563-.705.668-.373,1.814.031,2.657a12.314,12.314,0,0,0,2.6,3.477c1.193,1.218,2.136,2.18,1.658,4.047-.094.366-.2.736-.31,1.108-.758,2.595-1.475,5.046,2.5,6.831.933.419,1.788.755,2.542,1.051,3.143,1.233,5.219,2.048,7.444,6.745.414.874.778,1.7,1.131,2.5,1.921,4.354,3.081,6.981,7.28,6.133a2.85,2.85,0,0,0,2.331-1.845c.882-2.523-1.228-6.939-3.092-9.158a14.667,14.667,0,0,1-2.988-9.658c.057-.91.151-1.746.234-2.483.219-1.954.377-3.366-.348-4.181-.663-.745-2.114-1.083-4.7-1.095-5.2-.024-7.257-2.175-8.907-3.9a8.4,8.4,0,0,0-1.912-1.66Z" transform="translate(-246.748 -1327.459)" fill="url(#linear-gradient-2)"/>
      </g>
      <g id="Grupo_12741" data-name="Grupo 12741" transform="translate(251.511 1085.851)">
        <path id="Caminho_26849" data-name="Caminho 26849" d="M300.47,1396.046l.613-.032c-.03-.576-.8-14.157-6.257-18.132a21.823,21.823,0,0,1-8.767-12.192c-1.059-3.707-6.446-4.7-6.675-4.738l-.107.6c.052.009,5.239.965,6.191,4.3a22.408,22.408,0,0,0,9,12.52C299.684,1382.182,300.463,1395.908,300.47,1396.046Z" transform="translate(-279.278 -1360.952)" fill="url(#linear-gradient-3)"/>
      </g>
      <path id="Caminho_26850" data-name="Caminho 26850" d="M312.984,1132.282c3.876-1.329,3.071,6.141,4.708,11.668s18.219,2.411,11.259,16.251,8.8,4.629,4.094,16.706-.409,24.995-5.527,21.709-2.875-18.495-8.2-20.3-6.191-3.915-.921-8.828-13.809-9.79-9.1-19.711S308.506,1133.818,312.984,1132.282Z" transform="translate(-52.748 -79.781)" fill="#dcebb4"/>
      <g id="Grupo_12742" data-name="Grupo 12742" transform="translate(262.185 1069.826)">
        <path id="Caminho_26851" data-name="Caminho 26851" d="M362.384,1299.945c.487-2.068,4.65-20.263.766-22.463-3.423-1.938-3.339-9.479-2.8-16.6.473-6.3-7.622-9.248-7.967-9.371l-.205.579c.08.028,8,2.912,7.559,8.746-.548,7.312-.607,15.071,3.115,17.179,2.949,1.67.234,16.294-1.061,21.787Z" transform="translate(-352.173 -1251.513)" fill="#fff"/>
      </g>
      <path id="Caminho_26852" data-name="Caminho 26852" d="M385.17,1538.029l-5.534,20.994H367.27l-5.534-20.994Z" transform="translate(-98.151 -426.25)" fill="url(#linear-gradient-4)"/>
      <path id="Caminho_26853" data-name="Caminho 26853" d="M385.17,1538.029s-12.182,2.287-12.182,20.994H367.27l-5.534-20.994Z" transform="translate(-98.151 -426.25)" fill="url(#linear-gradient-5)"/>
    </g>
  </g>
</svg>
