<svg xmlns="http://www.w3.org/2000/svg" width="97.882" height="126.678" viewBox="0 0 97.882 126.678">
  <g id="feedback_colaborador_icon" transform="translate(-222.231 -348.723)" opacity="0.85">
    <g id="Grupo_13505" data-name="Grupo 13505" transform="translate(-668.342 310.238)">
      <g id="Grupo_13471" data-name="Grupo 13471" transform="translate(957.903 38.484)">
        <g id="Grupo_13470" data-name="Grupo 13470" transform="translate(0 0)">
          <g id="Grupo_13469" data-name="Grupo 13469">
            <path id="Caminho_50984" data-name="Caminho 50984" d="M993.874,39.394s4.144,2.027,3.12,7.542-1.479,6.258-.332,8.413,2.5,11.347,1.467,13.09-12.769-7.657-14.4-15.543S984.764,41.5,985.7,40.2,990.215,37.537,993.874,39.394Z" transform="translate(-983.216 -38.484)" fill="#fddfa4"/>
          </g>
        </g>
      </g>
      <g id="Grupo_13472" data-name="Grupo 13472" transform="translate(969.709 59.305)">
        <path id="Caminho_50985" data-name="Caminho 50985" d="M1034.033,128.107a5.76,5.76,0,0,1,3.294,2.171c.824,1.213.891,3.908,1.01,4.415s1.693,6.25,1.693,6.25l-4.395,2.945Z" transform="translate(-1034.033 -128.107)" fill="#285173"/>
      </g>
      <g id="Grupo_13473" data-name="Grupo 13473" transform="translate(980.377 151.391)">
        <path id="Caminho_50986" data-name="Caminho 50986" d="M1085.521,530.6s2.868,3.86,2.474,4.473-3.409.7-5.245,0-1.879-5.224-2.71-7.168c-.348-.813.4-3.216,1.442-3.39a4.408,4.408,0,0,1,2.184.338S1082.582,527.592,1085.521,530.6Z" transform="translate(-1079.954 -524.48)" fill="#1d3b54"/>
      </g>
      <g id="Grupo_13475" data-name="Grupo 13475" transform="translate(981.242 151.335)">
        <g id="Grupo_13474" data-name="Grupo 13474">
          <path id="Caminho_50987" data-name="Caminho 50987" d="M1086.542,524.64a18.235,18.235,0,0,1,.824,3.214c.183,1.3,2.043,4.066,1.955,4.416s-2.448.666-3.409-.235-1.58-3.523-1.792-5.091a12.61,12.61,0,0,0-.446-2.182S1085.624,523.678,1086.542,524.64Z" transform="translate(-1083.674 -524.241)" fill="#eea886"/>
        </g>
      </g>
      <g id="Grupo_13476" data-name="Grupo 13476" transform="translate(955.314 151.393)">
        <path id="Caminho_50988" data-name="Caminho 50988" d="M977.74,530.673s2.764,3.8,2.371,4.408-3.409.7-5.245,0-1.879-5.224-2.71-7.168c-.348-.813.4-3.216,1.442-3.39a4.7,4.7,0,0,1,2.273.375S974.8,527.663,977.74,530.673Z" transform="translate(-972.07 -524.489)" fill="#1d3b54"/>
      </g>
      <g id="Grupo_13478" data-name="Grupo 13478" transform="translate(956.608 151.25)">
        <g id="Grupo_13477" data-name="Grupo 13477">
          <path id="Caminho_50989" data-name="Caminho 50989" d="M980.15,524.424a25.87,25.87,0,0,0,.568,3.059c.35,1.267,2.229,4.152,2.141,4.5s-2.447.666-3.409-.235-1.7-3.511-1.792-5.091a8.409,8.409,0,0,1,.218-2.61A2.135,2.135,0,0,1,980.15,524.424Z" transform="translate(-977.642 -523.872)" fill="#eea886"/>
        </g>
      </g>
      <g id="Grupo_13480" data-name="Grupo 13480" transform="translate(952.424 80.606)">
        <g id="Grupo_13479" data-name="Grupo 13479">
          <path id="Caminho_50990" data-name="Caminho 50990" d="M980.135,228.139s2.46,11.448,3.026,14.33,2.147,16.841,2.317,19.215,2.567,11.317,2.454,12.165,3.556,17.876,3.556,17.876a2.206,2.206,0,0,1-2.574.091c-.679-.472-8.049-15.943-8.049-20.181,0-5.859-4.332-13.507-4.892-14.818-5.193-12.177-4.17-15.9-4.849-16.691s-.737.489-1.133,2.24-1.242,16.9-1.751,18.819-.114,8.42-.4,11.7-1.523,18.1-1.523,18.1a1.347,1.347,0,0,1-2.309.039c-.29-.315-2.327-16.516-2.384-20.416s-.117-9.277-.226-10.964c-1.047-16.159-3.62-18.467.432-29.9C969.424,208.333,980.135,228.139,980.135,228.139Z" transform="translate(-959.63 -219.794)" fill="#eea886"/>
        </g>
      </g>
      <g id="Grupo_13481" data-name="Grupo 13481" transform="translate(951.656 85.751)">
        <path id="Caminho_50991" data-name="Caminho 50991" d="M961.074,241.942s-7.01,9.811-3.992,30.683c0,0,16.628,2.261,25.536-2.616,0,0-3.683-21.519-5.018-24.868S961.074,241.942,961.074,241.942Z" transform="translate(-956.327 -241.941)" fill="#505461"/>
      </g>
      <g id="Grupo_13482" data-name="Grupo 13482" transform="translate(980.387 154.477)">
        <path id="Caminho_50992" data-name="Caminho 50992" d="M1080,537.767v4.042h.524v-3.124Z" transform="translate(-1079.996 -537.767)" fill="#1d3b54"/>
      </g>
      <g id="Grupo_13483" data-name="Grupo 13483" transform="translate(955.324 154.477)">
        <path id="Caminho_50993" data-name="Caminho 50993" d="M972.112,537.767v4.042h.525v-3.124Z" transform="translate(-972.112 -537.767)" fill="#1d3b54"/>
      </g>
      <g id="Grupo_13484" data-name="Grupo 13484" transform="translate(952.983 57.737)">
        <path id="Caminho_50994" data-name="Caminho 50994" d="M974.866,121.491a27,27,0,0,0,3.479,1.4c.9.18,4.376,4.7,4.986,6.35s0,4.125-1.255,7.031-.072,3.874-.646,6.78a67.619,67.619,0,0,0-.969,10.672c.108,1.614-14.509,1.919-17.845-1.022,0,0,3.353-5.022,3.783-5.739s.072-4.628-.323-5.632-3.021-9.546-3.021-9.546-2.148-6.56-.208-8.067c1.686-1.309,6.281-1.776,7.106-2.063A14.089,14.089,0,0,1,974.866,121.491Z" transform="translate(-962.037 -121.356)" fill="#eddad3"/>
      </g>
      <g id="Grupo_13485" data-name="Grupo 13485" transform="translate(966.561 56.953)">
        <path id="Caminho_50995" data-name="Caminho 50995" d="M1020.56,124.659l1.569-1.838-1.363-4.838A31.946,31.946,0,0,0,1020.56,124.659Z" transform="translate(-1020.485 -117.983)" fill="#d6c5be"/>
      </g>
      <g id="Grupo_13486" data-name="Grupo 13486" transform="translate(960.901 51.356)">
        <path id="Caminho_50996" data-name="Caminho 50996" d="M1002.262,97.426s-.071.648-.155,1.543c-.036.4-.076.843-.113,1.3a29.587,29.587,0,0,0-.141,3.435s-2.684,2.69-5.736-3.138a8,8,0,0,0,.317-5.677C995.469,91.618,1002.262,97.426,1002.262,97.426Z" transform="translate(-996.118 -93.891)" fill="#eea886"/>
      </g>
      <g id="Grupo_13487" data-name="Grupo 13487" transform="translate(963.548 61.172)">
        <path id="Caminho_50997" data-name="Caminho 50997" d="M1010.6,136.143V138.6l-3.089-2.308Z" transform="translate(-1007.514 -136.143)" fill="#eea886"/>
      </g>
      <g id="Grupo_13488" data-name="Grupo 13488" transform="translate(959.637 57.737)">
        <path id="Caminho_50998" data-name="Caminho 50998" d="M997.679,127.248l-1.282-1.587-4.32-4.305-1.4,1.346Z" transform="translate(-990.68 -121.355)" fill="#d6c5be"/>
      </g>
      <g id="Grupo_13489" data-name="Grupo 13489" transform="translate(951.654 58.149)">
        <path id="Caminho_50999" data-name="Caminho 50999" d="M965.1,123.128s3.625,5.5,3.8,7.923-1.347,20.534-2.565,26.356-10.015-.657-10.015-.657,5.912-9.569,3.643-17.23-3.094-10.725-3.094-10.725.781-4.267,3.547-4.867C962.837,123.4,965.1,123.128,965.1,123.128Z" transform="translate(-956.315 -123.128)" fill="#5d606e"/>
      </g>
      <g id="Grupo_13490" data-name="Grupo 13490" transform="translate(967.728 58.721)">
        <path id="Caminho_51000" data-name="Caminho 51000" d="M1032.293,133.227s.654,2.313-1.893,7.427c0,0,.041,6.545.112,8.59s1.517,9.4,1.517,9.4l-3.481,1.853a.711.711,0,0,1-1.065-.7c.714-5.884,3.034-28.2-1.979-34.2l2.012.593A16.285,16.285,0,0,1,1032.293,133.227Z" transform="translate(-1025.505 -125.593)" fill="#5d606e"/>
      </g>
      <g id="Grupo_13491" data-name="Grupo 13491" transform="translate(966.843 56.953)">
        <path id="Caminho_51001" data-name="Caminho 51001" d="M1023.061,122.821l1.978.546-3.34-5.385Z" transform="translate(-1021.698 -117.983)" fill="#fae6de"/>
      </g>
      <g id="Grupo_13492" data-name="Grupo 13492" transform="translate(959.839 57.737)">
        <path id="Caminho_51002" data-name="Caminho 51002" d="M997.064,125.661l-1.806,2.367-3.709-6.182,1.2-.491Z" transform="translate(-991.549 -121.355)" fill="#fae6de"/>
      </g>
      <rect id="Retângulo_3278" data-name="Retângulo 3278" width="0.654" height="7.734" transform="translate(967.97 71.616) rotate(-38.345)" fill="#7f9939"/>
      <path id="Caminho_51003" data-name="Caminho 51003" d="M1022.764,199.256a1.4,1.4,0,0,0,.76-.219c.52-.392.708-1.359,1.626-1.288s1.344,2.951,1.115,3.5-1.506.818-3.391.442S1022.764,199.256,1022.764,199.256Z" transform="translate(-55.091 -122.262)" fill="#eea886"/>
      <path id="Caminho_51004" data-name="Caminho 51004" d="M1033.021,194.338a28.713,28.713,0,0,1,2.845-.78c1.337-.289,2.935-.384,3.09-.152.173.258-1.3.481-2.613.853-1.206.342-.919.468-.919.468s-.079-.04,1.3-.169c1.481-.138,3.006-.135,3.156.161.073.144.022.241-.511.377.32-.015.366.068.378.2.064.667-2.1,1.2-2.954,1.408.66-.158,1.158-.206.92.241-.272.511-3.354,1.129-4.441,1.453C1032.084,198.748,1033.021,194.338,1033.021,194.338Z" transform="translate(-63.278 -118.831)" fill="#eea886"/>
      <path id="Caminho_51005" data-name="Caminho 51005" d="M956.261,126.822c-.908-.294-3.574.651-4.025,3.385s-.631,5.768-1.052,7.24-1.492,7.995-.591,8.535a10.209,10.209,0,0,0,5,1.035c2.472,0,12.058.43,12.058.43l.6-3.405s-3.641-.188-5.527-.474c-1.679-.255-4.007-.969-6.746-1.27a45.92,45.92,0,0,1,1-5.182C957.4,135.976,960.347,128.144,956.261,126.822Z" transform="translate(0 -67.776)" fill="#5d606e"/>
      <g id="Grupo_13493" data-name="Grupo 13493" transform="translate(968.513 65.002)">
        <path id="Caminho_51006" data-name="Caminho 51006" d="M1028.887,169.867l9.656-1.915,7.161-15.323-10.307,1.083Z" transform="translate(-1028.887 -152.628)" fill="#afd154"/>
      </g>
      <g id="Grupo_13495" data-name="Grupo 13495" transform="translate(978.479 72.939)">
        <g id="Grupo_13494" data-name="Grupo 13494">
          <path id="Caminho_51007" data-name="Caminho 51007" d="M1072.678,191.577a7.846,7.846,0,0,0,1-1.18,17.557,17.557,0,0,0,1.873-3.48,5.242,5.242,0,0,0-2.847.153c-.415.374.409.52.409.52s-1.252.129-1.163.483.844.256.844.256-1.008.193-.855.5.637.307.637.307-.893.112-.783.451,1.524.659,1.335.941A6.625,6.625,0,0,0,1072.678,191.577Z" transform="translate(-1071.784 -186.79)" fill="#eea886"/>
        </g>
      </g>
      <g id="Grupo_13498" data-name="Grupo 13498" transform="translate(960.023 39.83)">
        <g id="Grupo_13497" data-name="Grupo 13497">
          <g id="Grupo_13496" data-name="Grupo 13496">
            <path id="Caminho_51008" data-name="Caminho 51008" d="M1000.276,44.452s6.018,1.891,2.751,12.276-11.485-1.2-10.625-7.531S1000.276,44.452,1000.276,44.452Z" transform="translate(-992.339 -44.276)" fill="#eea987"/>
          </g>
        </g>
      </g>
      <g id="Grupo_13501" data-name="Grupo 13501" transform="translate(959.548 38.996)">
        <g id="Grupo_13500" data-name="Grupo 13500" transform="translate(0 0)">
          <g id="Grupo_13499" data-name="Grupo 13499">
            <path id="Caminho_51009" data-name="Caminho 51009" d="M1002.075,47.756a13.575,13.575,0,0,1-7.994,3.3s-1.923,2.255-2.071,3.14c0,0-4.465-7.61,1.023-12.172S1004.092,45.876,1002.075,47.756Z" transform="translate(-990.297 -40.686)" fill="#fddfa4"/>
          </g>
        </g>
      </g>
      <g id="Grupo_13504" data-name="Grupo 13504" transform="translate(961.304 47.495)">
        <g id="Grupo_13503" data-name="Grupo 13503" transform="translate(0)">
          <g id="Grupo_13502" data-name="Grupo 13502">
            <path id="Caminho_51010" data-name="Caminho 51010" d="M999.941,79.347c-.039-.756-.5-2.476-1.628-1.994s.069,3.984.814,3.769C999.127,81.121,1000.033,81.135,999.941,79.347Z" transform="translate(-997.853 -77.269)" fill="#eea987"/>
          </g>
        </g>
      </g>
      <path id="Caminho_51011" data-name="Caminho 51011" d="M1008.215,105.936c-.036.4-.076.843-.113,1.3h0c-3.479-1.718-4.012-4.2-4.028-4.272C1006.552,106.17,1008.215,105.936,1008.215,105.936Z" transform="translate(-41.325 -49.502)" fill="#a77860"/>
    </g>
    <g id="Grupo_13539" data-name="Grupo 13539" transform="translate(-964.815 320.923)">
      <g id="Grupo_13506" data-name="Grupo 13506" transform="translate(1206.035 147.538)">
        <path id="Caminho_51012" data-name="Caminho 51012" d="M1275.735,542.751a6.444,6.444,0,0,1-3.275,2.479c-1.911.44-3.8,1.141-3.81,2.348s5.528,1.926,7.716.71c3.265-1.815,3.6-1.268,3.959-2.176s-.435-3.334-.411-3.622C1279.943,542.133,1275.735,542.751,1275.735,542.751Z" transform="translate(-1268.651 -542.379)" fill="#353a3d"/>
      </g>
      <g id="Grupo_13507" data-name="Grupo 13507" transform="translate(1213.116 146.312)">
        <path id="Caminho_51013" data-name="Caminho 51013" d="M1299.3,537.7a8.68,8.68,0,0,0-.211,1.006c.037.021,4.308.53,4.179-.261-.1-.641-.254-1.338-.254-1.338Z" transform="translate(-1299.081 -537.107)" fill="#81807e"/>
      </g>
      <g id="Grupo_13508" data-name="Grupo 13508" transform="translate(1221.693 147.269)">
        <path id="Caminho_51014" data-name="Caminho 51014" d="M1341.741,541.728a6,6,0,0,1-2.633,2.615c-1.775.71-3.2,1.526-3.167,2.7s4.341,2.367,7.475.111c1.98-1.425,2.607-1.432,2.925-2.33s-.552-3.23-.54-3.512C1345.816,540.964,1341.741,541.728,1341.741,541.728Z" transform="translate(-1335.941 -541.222)" fill="#353a3d"/>
      </g>
      <g id="Grupo_13509" data-name="Grupo 13509" transform="translate(1227.445 146.004)">
        <path id="Caminho_51015" data-name="Caminho 51015" d="M1360.66,536.542a9.621,9.621,0,0,0,.049,1.013c.037.019,4.165.359,4.06-.415a6.353,6.353,0,0,0-.4-1.356Z" transform="translate(-1360.66 -535.784)" fill="#81807e"/>
      </g>
      <g id="Grupo_13510" data-name="Grupo 13510" transform="translate(1206.509 82.645)">
        <path id="Caminho_51016" data-name="Caminho 51016" d="M1276.487,268.031s-3.835,16.917-4.711,22.07c-.746,4.386-1.34,8.953-.983,12.119.442,3.92,5.991,24.235,5.759,25.384s5.807.184,5.807.184-4.22-22.661-3.378-26.879c.625-3.123,6.095-23.874,6.934-22.81s1.878,19.584,2.5,22.658,2.527,27.365,2.527,27.365,4.262.629,5.4-.335c0,0,.518-20.742.123-26.5-.151-2.2,2.573-26.337-.92-36.055C1293.7,260.092,1276.487,268.031,1276.487,268.031Z" transform="translate(-1270.687 -263.498)" fill="#627b95"/>
      </g>
      <g id="Grupo_13511" data-name="Grupo 13511" transform="translate(1210.689 47.864)">
        <path id="Caminho_51017" data-name="Caminho 51017" d="M1313.708,117.4l-8.167-3.374-6.988.589h0l-1.444.66-8.457,4.381,2.206,16.115c.748,2.886-.577,8.494-.726,11.48a5.582,5.582,0,0,0,.681,3.464h0l18.2-2.559h0s.806-5.72.868-8.811Z" transform="translate(-1288.651 -114.025)" fill="#f3f3f3"/>
      </g>
      <g id="Grupo_13512" data-name="Grupo 13512" transform="translate(1212.309 81.994)">
        <path id="Caminho_51018" data-name="Caminho 51018" d="M1296.154,263.258s-.419.5-.54,2.625c0,0,17.235-2.011,19.057-2.8,0,0,.071-2.34-.316-2.38C1313.931,260.654,1296.154,263.258,1296.154,263.258Z" transform="translate(-1295.614 -260.699)" fill="#495055"/>
      </g>
      <g id="Grupo_13513" data-name="Grupo 13513" transform="translate(1220.508 41.106)">
        <path id="Caminho_51019" data-name="Caminho 51019" d="M1337.888,91.157c-.054,2.7-5.291,4.185-5.291,4.185s-2.191-2.746-1.667-3.009c.206-.1.289-.513.315-.973a9.531,9.531,0,0,0-.03-1.227c-.015-.191-.03-.314-.03-.314s.748-.79,1.7-1.73c1.663-1.645,3.95-3.752,3.954-2.914a.746.746,0,0,1-.019.159C1336.417,87.22,1337.888,91.157,1337.888,91.157Z" transform="translate(-1330.849 -84.984)" fill="#eea886"/>
      </g>
      <g id="Grupo_13514" data-name="Grupo 13514" transform="translate(1227.113 82.31)">
        <path id="Caminho_51020" data-name="Caminho 51020" d="M1359.233,262.157s.376,2.372.409,2.99l.8-.159s-.219-2.51-.349-2.931Z" transform="translate(-1359.233 -262.058)" fill="#353a3d"/>
      </g>
      <g id="Grupo_13515" data-name="Grupo 13515" transform="translate(1213.978 84.163)">
        <path id="Caminho_51021" data-name="Caminho 51021" d="M1303.1,270.136s-.3,2.156-.309,2.971l.844-.11s.173-2.693.269-2.974Z" transform="translate(-1302.787 -270.023)" fill="#353a3d"/>
      </g>
      <g id="Grupo_13516" data-name="Grupo 13516" transform="translate(1220.353 43.316)">
        <path id="Caminho_51022" data-name="Caminho 51022" d="M1335.362,94.48h0c-.01.016-.232.348-.611.825a10.973,10.973,0,0,1-4.015,3.34,9.534,9.534,0,0,0-.03-1.227,2.727,2.727,0,0,1-.52-.063,16.178,16.178,0,0,1,1.139-1.667l1.051-.314Z" transform="translate(-1330.185 -94.48)" fill="#a77860"/>
      </g>
      <g id="Grupo_13517" data-name="Grupo 13517" transform="translate(1216.822 32.243)">
        <path id="Caminho_51023" data-name="Caminho 51023" d="M1324.721,55.984c-.453.986-.884,1.7-1.005,1.983h0a3.505,3.505,0,0,1-.611.825,6.038,6.038,0,0,1-4.045,2.113,2.728,2.728,0,0,1-.52-.063,2.474,2.474,0,0,1-1.8-1.245,14.163,14.163,0,0,1-.9-11.628s8.933-2.526,10.331.163C1327.147,50.019,1325.785,53.668,1324.721,55.984Z" transform="translate(-1315.007 -46.894)" fill="#eea886"/>
      </g>
      <g id="Grupo_13518" data-name="Grupo 13518" transform="translate(1216.558 27.8)">
        <path id="Caminho_51024" data-name="Caminho 51024" d="M1314.966,33.319s-.83-.046-1.035-1.619c-.2-1.554.207-1.985.207-1.985a36.942,36.942,0,0,1,5.013-1.745c1.324-.2,4.581-.393,5.345.479,0,0,1.854-.431,2.36,2.648.8,4.885-2.731,9.628-2.731,9.628s.03-3.191-.674-3.614-1.311.583-1.311.583l-1.44.258s2.187-4.721-.436-4.9S1316.468,33.593,1314.966,33.319Z" transform="translate(-1313.875 -27.8)" fill="#d6d6d6"/>
      </g>
      <g id="Grupo_13519" data-name="Grupo 13519" transform="translate(1224.816 35.076)">
        <path id="Caminho_51025" data-name="Caminho 51025" d="M1349.408,60.415c.137-1.406,2.68-1.943,2.51-.469s-1.422,2.889-2,2.84S1349.3,61.486,1349.408,60.415Z" transform="translate(-1349.362 -59.068)" fill="#eea886"/>
      </g>
      <g id="Grupo_13520" data-name="Grupo 13520" transform="translate(1222.616 48.531)">
        <path id="Caminho_51026" data-name="Caminho 51026" d="M1359.8,140.643c0-.029,0-.061,0-.093a79.58,79.58,0,0,0-2.765-15.747c-.827-2.651-1.018-4.5-1.338-4.732-.555-.4-5.491-1.858-7.585-2.679-.944-.372-.911-.356-1.288-.5a33.961,33.961,0,0,0-2.323,2.966c-2.162,3.076-4.98,8.056-4.548,12.655.138,1.476.31,3.6.6,5.974.025.2.051.408.076.615.07.548.146,1.106.229,1.672q.075.509.157,1.026c.573,3.565,2.368,6,3.962,8.9l.041.074.023.042.1.187c.054.1.109.2.163.307.031.059.062.118.093.178.305.585.6,1.184.893,1.785.188.388.371.777.551,1.165.018.04.037.08.056.121l.67,1.557.438,1.018.307.715.254.593c.181.422.339.791.448,1.05.082.193.137.324.155.368.548,1.372.944,2.431,1.127,2.927.073.2.112.307.112.307l5.513-3.043c1.047-.524.5-3.346.106-4.448a25.263,25.263,0,0,0-1.306-2.914c-.213-.415-.435-.836-.662-1.26,1.725-3.014,3.473-6.123,4.581-8.236A12.579,12.579,0,0,0,1359.8,140.643Zm-8.766-8.627a.131.131,0,0,1,0-.019c0-.009,0-.017.007-.025s.007-.027.011-.041,0-.013.005-.02a.016.016,0,0,1,0-.005.022.022,0,0,0,0-.006s2.682,4.192,2.48,7.833a17.226,17.226,0,0,1-1.415,3.836s0,0,0,0c-.3.669-.631,1.391-.985,2.146-.013-.031-.026-.063-.039-.094a9.512,9.512,0,0,1-.846-3.452S1350.486,134.181,1351.036,132.016Z" transform="translate(-1339.909 -116.892)" fill="#7089a2"/>
      </g>
      <g id="Grupo_13521" data-name="Grupo 13521" transform="translate(1190.829 49.149)">
        <path id="Caminho_51027" data-name="Caminho 51027" d="M1204.426,136.609l12.484,2.719,5.951-15.562c.132-.1,1.838-1.022,2.967-1.56,1.176-.56,2.664-1.251,3.984-1.86.631-.292,1.225-.564,1.726-.795l.042.033a73.585,73.585,0,0,0-1.69,8.578,0,0,0,0,1,0,0q-.048.309-.1.629c0,.024-.008.05-.011.074-.021.142-.044.285-.065.431,0,.017-.005.034-.008.051-.015.1-.029.2-.043.3q-.054.363-.108.739c-.425,2.981-1.022,8.055-1.6,13.177v0c-.453,4.037-1.486,8.18-1.814,11.271,0,0,0,0,0,.006a21.428,21.428,0,0,1-.429,2.324c-.023.1-.048.207-.073.313-.923,3.9-2.716,9.425-2.716,9.425l-.522-.482-1.547-1.428a1.253,1.253,0,0,1-.347-1.294c.858-2.767,3.773-12.561,4.307-19.446a.018.018,0,0,0,0-.006,22.881,22.881,0,0,0-.832-6.133c-.007.017-.013.033-.018.05-.307.854-.647,1.782-.99,2.686h0c-.92,2.426-1.862,4.675-2.253,4.818-.872.321-17.311-4.174-17.424-4.819Z" transform="translate(-1203.303 -119.55)" fill="#7089a2"/>
      </g>
      <g id="Grupo_13522" data-name="Grupo 13522" transform="translate(1222.616 48.53)">
        <path id="Caminho_51028" data-name="Caminho 51028" d="M1345.371,123.6l-2.548,1.437,1.089,1.11-2.9,15.649c-.591-3.668-.86-7.152-1.06-9.288-.667-7.11,6.43-15.13,6.871-15.622.341.129.709.272,1.089.423Z" transform="translate(-1339.909 -116.89)" fill="#627b95"/>
      </g>
      <g id="Grupo_13523" data-name="Grupo 13523" transform="translate(1214.895 49.113)">
        <path id="Caminho_51029" data-name="Caminho 51029" d="M1310.979,119.393a82.439,82.439,0,0,0-2.061,10.87c-.425,2.981-1.022,8.055-1.6,13.176l-.593-14.656,1.213-1.315-1.079-1.348,2.309-5.9c.631-.292,1.225-.564,1.726-.795Z" transform="translate(-1306.729 -119.393)" fill="#627b95"/>
      </g>
      <g id="Grupo_13524" data-name="Grupo 13524" transform="translate(1222.256 47.279)">
        <path id="Caminho_51030" data-name="Caminho 51030" d="M1345.766,112.795l-2.113-1.283s-.059,1.158-5.291,4.185l1.486,4.184Z" transform="translate(-1338.362 -111.512)" fill="#f7f7f7"/>
      </g>
      <g id="Grupo_13525" data-name="Grupo 13525" transform="translate(1219.145 47.863)">
        <path id="Caminho_51031" data-name="Caminho 51031" d="M1326.713,114.02a9.841,9.841,0,0,0,1.391,3.6l-2.9,3.78-.211-6.131Z" transform="translate(-1324.993 -114.02)" fill="#f7f7f7"/>
      </g>
      <g id="Grupo_13526" data-name="Grupo 13526" transform="translate(1220.5 51.464)">
        <path id="Caminho_51032" data-name="Caminho 51032" d="M1332.579,129.495a9.874,9.874,0,0,1,.359,2.877,2.743,2.743,0,0,1-2.124-.112A9.887,9.887,0,0,1,1332.579,129.495Z" transform="translate(-1330.815 -129.495)" fill="#323657"/>
      </g>
      <g id="Grupo_13528" data-name="Grupo 13528" transform="translate(1219.216 77.341)">
        <g id="Grupo_13527" data-name="Grupo 13527">
          <path id="Caminho_51033" data-name="Caminho 51033" d="M1325.44,247.245a42.533,42.533,0,0,1,0-6.54l.269.017a43.553,43.553,0,0,0,0,6.47Z" transform="translate(-1325.296 -240.705)" fill="#ad9f99"/>
        </g>
      </g>
      <g id="Grupo_13529" data-name="Grupo 13529" transform="translate(1218.185 83.15)">
        <path id="Caminho_51034" data-name="Caminho 51034" d="M1324.24,265.667s-2.536.3-3.375.512l.11,2.843,3.321-.354Z" transform="translate(-1320.866 -265.667)" fill="#69737a"/>
      </g>
      <g id="Grupo_13530" data-name="Grupo 13530" transform="translate(1218.586 53.711)">
        <path id="Caminho_51035" data-name="Caminho 51035" d="M1325.01,139.469a39.91,39.91,0,0,0-2.367,15.137c.478,8.289,1.263,11.295,1.263,11.295l1.744,2.187.769-2.688a65.932,65.932,0,0,1-.829-20.852c.274-1.863.68-5.395.68-5.395Z" transform="translate(-1322.592 -139.154)" fill="#323657"/>
      </g>
      <g id="Grupo_13531" data-name="Grupo 13531" transform="translate(1226.798 87.748)">
        <path id="Caminho_51036" data-name="Caminho 51036" d="M1360.587,285.437s-.607,1.214-1.214,1.416a5.258,5.258,0,0,0-1.491,1.189l4.273,2.251a11.7,11.7,0,0,0,1.189-3.641C1363.394,285.235,1360.587,285.437,1360.587,285.437Z" transform="translate(-1357.881 -285.427)" fill="#eea886"/>
      </g>
      <g id="Grupo_13532" data-name="Grupo 13532" transform="translate(1228.815 87.871)">
        <path id="Caminho_51037" data-name="Caminho 51037" d="M1366.831,285.958l-.283.569a19.553,19.553,0,0,0,3.446,2.111l.251-.758Z" transform="translate(-1366.548 -285.958)" fill="#decbc4"/>
      </g>
      <g id="Grupo_13533" data-name="Grupo 13533" transform="translate(1228.815 74.211)">
        <path id="Caminho_51038" data-name="Caminho 51038" d="M1366.548,240.937a20.833,20.833,0,0,0,3.748,2.457l5.765-10.369-2.987-5.775S1366.683,239.925,1366.548,240.937Z" transform="translate(-1366.548 -227.251)" fill="#7089a2"/>
      </g>
      <g id="Grupo_13534" data-name="Grupo 13534" transform="translate(1210.421 59.322)">
        <path id="Caminho_51039" data-name="Caminho 51039" d="M1288.675,168.031c-.094,1.918-.08,3.622-.08,3.622h0c0,.009,0,.061-.007.147,0-.032-.008-.064-.012-.1-.307.854-.647,1.782-.99,2.686a28.919,28.919,0,0,1-.077-2.927c.137-5.378,1.829-8.2,1.829-8.2A18.276,18.276,0,0,0,1288.675,168.031Z" transform="translate(-1287.5 -163.265)" fill="#5a748f"/>
      </g>
      <g id="Grupo_13535" data-name="Grupo 13535" transform="translate(1232.811 83.073)">
        <path id="Caminho_51040" data-name="Caminho 51040" d="M1388.336,266.6l-4.615,5.574,3.953-6.833C1387.9,265.76,1388.124,266.18,1388.336,266.6Z" transform="translate(-1383.721 -265.336)" fill="#5a748f"/>
      </g>
      <g id="Grupo_13536" data-name="Grupo 13536" transform="translate(1187.046 55.072)">
        <path id="Caminho_51041" data-name="Caminho 51041" d="M1203.912,167.274h-10.655a1.582,1.582,0,0,1-1.537-1.21l-4.628-19.108a1.582,1.582,0,0,1,1.538-1.954h10.655a1.582,1.582,0,0,1,1.538,1.21l4.628,19.108A1.582,1.582,0,0,1,1203.912,167.274Z" transform="translate(-1187.046 -145.002)" fill="#d6d6d6"/>
      </g>
      <g id="Grupo_13538" data-name="Grupo 13538" transform="translate(1189.031 65.237)">
        <g id="Grupo_13537" data-name="Grupo 13537" transform="translate(0)">
          <path id="Caminho_51042" data-name="Caminho 51042" d="M1197.425,195.481c.521-.483,1.527-.763,2.388-1.338a.676.676,0,0,0,.142-1.169c.885-.3.79-.708.677-.983-.153-.372-1.12-.266-1.12-.266a9.533,9.533,0,0,0,1.223-.349c.357-.158.236-.779-.312-.976a9.786,9.786,0,0,0-2.783.354s.365-.178,1.466-.731,1.344-1.056.694-1.3c-.452-.168-1.339.184-3.043,1.329-1.283.862-1.178.974-1.178.974S1196.8,196.058,1197.425,195.481Z" transform="translate(-1195.576 -188.686)" fill="#eea886"/>
        </g>
      </g>
    </g>
  </g>
</svg>
