<svg xmlns="http://www.w3.org/2000/svg" width="111.381" height="123.125" viewBox="0 0 111.381 123.125">
  <g id="feedback_liderados_icon" transform="translate(163.187 -18.143)" opacity="0.85">
    <g id="Grupo_12807" data-name="Grupo 12807" transform="translate(-163.187 18.143)">
      <g id="Grupo_12791" data-name="Grupo 12791" transform="translate(46.232 112.942)">
        <path id="Caminho_26891" data-name="Caminho 26891" d="M1882.288,1787.923s.353,2.472.4,2.844,3.925-.219,3.925-.219l.314-2.943S1882.773,1787.574,1882.288,1787.923Z" transform="translate(-1882.288 -1787.604)" fill="#5c544d"/>
      </g>
      <g id="Grupo_12792" data-name="Grupo 12792" transform="translate(39.853 115.623)">
        <path id="Caminho_26892" data-name="Caminho 26892" d="M1848.771,1804.688a10.512,10.512,0,0,1-2.419,2.139c-1.189.65-3.058.907-3.761,1.579-.508.485-1.849,2.574,3.09,2.532s7.321.295,7.85-.506-.766-5.912-.766-5.912A10.364,10.364,0,0,1,1848.771,1804.688Z" transform="translate(-1842.036 -1804.521)" fill="#3c4145"/>
      </g>
      <g id="Grupo_12793" data-name="Grupo 12793" transform="translate(18.426 112.942)">
        <path id="Caminho_26893" data-name="Caminho 26893" d="M1706.83,1787.923s.353,2.472.4,2.844,3.925-.219,3.925-.219l.314-2.943S1707.315,1787.574,1706.83,1787.923Z" transform="translate(-1706.83 -1787.604)" fill="#5c544d"/>
      </g>
      <g id="Grupo_12794" data-name="Grupo 12794" transform="translate(9.766 115.623)">
        <path id="Caminho_26894" data-name="Caminho 26894" d="M1661.2,1804.688a10.51,10.51,0,0,1-2.419,2.139c-1.189.65-5.566,1.183-6.269,1.855-.508.485-1.352,2.439,5.6,2.256,4.938-.13,7.321.295,7.85-.506s-.766-5.912-.766-5.912A9.4,9.4,0,0,1,1661.2,1804.688Z" transform="translate(-1652.183 -1804.521)" fill="#3c4145"/>
      </g>
      <g id="Grupo_12795" data-name="Grupo 12795" transform="translate(34.115 49.431)">
        <path id="Caminho_26895" data-name="Caminho 26895" d="M1816.568,1386.85a36.56,36.56,0,0,1,1.793,11.422c-.272,5.287,1.068,11.073,1.616,16.6.61,6.157,3.11,20.734,3.2,24.028s-.388,13.811-.388,13.811l-5,.115s-4.2-25.484-5.29-28.084-6.485-21.138-6.666-23.218S1816.568,1386.85,1816.568,1386.85Z" transform="translate(-1805.829 -1386.85)" fill="#373b4b"/>
      </g>
      <g id="Grupo_12796" data-name="Grupo 12796" transform="translate(17.75 48.723)">
        <path id="Caminho_26896" data-name="Caminho 26896" d="M1708.637,1384.18s-2.748,14.491-3.111,17.727-.6,15.66-.786,17.683-1.209,26.466-2.176,29.471h6.4s4.909-17.77,4.909-26.177,3.793-18.278,6.241-23.825,8.053-5.678,9.558-15.97C1729.668,1383.088,1710.675,1380.916,1708.637,1384.18Z" transform="translate(-1702.564 -1382.38)" fill="#373b4b"/>
      </g>
      <g id="Grupo_12797" data-name="Grupo 12797" transform="translate(27.842 0.536)">
        <path id="Caminho_26897" data-name="Caminho 26897" d="M1775.223,1078.786s-5.041-1.883-7.366,1.955-2.1,11.521.44,12.465,6.358.451,7.659-1.951,2.476-5.873,2.419-8.193A5.055,5.055,0,0,0,1775.223,1078.786Z" transform="translate(-1766.244 -1078.324)" fill="#eea886"/>
      </g>
      <g id="Grupo_12798" data-name="Grupo 12798" transform="translate(30.597 10.537)">
        <path id="Caminho_26898" data-name="Caminho 26898" d="M1783.77,1146.072a4.233,4.233,0,0,1-.133,1.973c-.337.651,6.341.668,6.341.668a44.023,44.023,0,0,1,1.57-6.532C1792.576,1139.189,1783.77,1146.072,1783.77,1146.072Z" transform="translate(-1783.625 -1141.427)" fill="#eea886"/>
      </g>
      <g id="Grupo_12799" data-name="Grupo 12799" transform="translate(28.427)">
        <path id="Caminho_26899" data-name="Caminho 26899" d="M1780.028,1086.229s-.461.76-2.342.465-4.176-2.8-4.962-3.073-.793-.736-.793-.736l-.491.718-.834.053s.761-2.239-.387-3.152,1.191-7.247,7.225-5.138c0,0,4.634,1.277,4.465,3.913S1781.065,1084.916,1780.028,1086.229Z" transform="translate(-1769.935 -1074.939)" fill="#fccca2"/>
      </g>
      <g id="Grupo_12800" data-name="Grupo 12800" transform="translate(30.212 15.247)">
        <path id="Caminho_26900" data-name="Caminho 26900" d="M1781.2,1172.976s.021-1.244.585-1.363,6.223-.663,6.915-.391v1.449S1787.368,1173.491,1781.2,1172.976Z" transform="translate(-1781.202 -1171.146)" fill="#e2d2ca"/>
      </g>
      <g id="Grupo_12801" data-name="Grupo 12801" transform="translate(30.399 6.027)">
        <path id="Caminho_26901" data-name="Caminho 26901" d="M1782.527,1113.932c.106-.442,1.23-1.705,1.66-.353s-.65,3.172-1.253,3.016S1782.26,1115.053,1782.527,1113.932Z" transform="translate(-1782.379 -1112.972)" fill="#eea886"/>
      </g>
      <g id="Grupo_12802" data-name="Grupo 12802" transform="translate(9.222 16.771)">
        <path id="Caminho_26902" data-name="Caminho 26902" d="M1669.741,1181.069s-3.1,1.116-6.7,2.643a7.543,7.543,0,0,0-4.581,6.109c-.238,2.423-2.818,15.283-3.3,16.372s-6.2,18.569-6.406,18.932,4.669,2.385,4.992,2.223,5.54-15.944,6.064-17.112c0,0,3-9.464,3.084-10.874,0,0,.086,4.021.247,5.149s-2.671,23.041-2.59,23.646,12.87,1.373,17.988.808a62.648,62.648,0,0,0,9.249-1.742s-4.028-17.293-3.9-19.211c.27-4.177,1.666-12.045,1.666-12.045l4.174,7.868-5.342,13.744,1.224,4.177s9.927-15,10.25-16.372-.487-3.116-1.011-4.244-3.965-9.717-4.772-10.927-2.168-6.051-5.46-7.4a51.478,51.478,0,0,0-7.373-2.05Z" transform="translate(-1648.75 -1180.764)" fill="#464a5a"/>
      </g>
      <g id="Grupo_12803" data-name="Grupo 12803" transform="translate(0 46.741)">
        <rect id="Retângulo_2630" data-name="Retângulo 2630" width="24.143" height="16.843" transform="translate(4.184 0) rotate(14.382)" fill="#d6d6d6"/>
      </g>
      <g id="Grupo_12804" data-name="Grupo 12804" transform="translate(6.235 64.698)">
        <path id="Caminho_26903" data-name="Caminho 26903" d="M1630.863,1483.184s-.668,1.08-.912,1.388.6.5.962.189S1630.863,1483.184,1630.863,1483.184Z" transform="translate(-1629.907 -1483.184)" fill="#c98462"/>
      </g>
      <g id="Grupo_12805" data-name="Grupo 12805" transform="translate(7.138 60.767)">
        <path id="Caminho_26904" data-name="Caminho 26904" d="M1640.526,1466a2.6,2.6,0,0,0,.48-.676s.117-.492.222-.838a2.389,2.389,0,0,1,.092-.263,4.751,4.751,0,0,0,.535-1.421c.1-.667.394-3.659.394-3.659l-1.811-.456-1.455-.307s-3.144,3.136-3.312,3.746a1.7,1.7,0,0,0-.038.176,6.084,6.084,0,0,0,.046,1.248c-.005.1.01,1.144.252,1.339a1.017,1.017,0,0,0,.961.231,2.426,2.426,0,0,0,1.25.47,1.509,1.509,0,0,0,1.311.244S1640.128,1466.254,1640.526,1466Z" transform="translate(-1635.603 -1458.38)" fill="#de9d7d"/>
      </g>
      <g id="Grupo_12806" data-name="Grupo 12806" transform="translate(9.228 47.564)">
        <path id="Caminho_26905" data-name="Caminho 26905" d="M1658.694,1376.967s-4.151,12.571-4.913,13.89a13.689,13.689,0,0,1-4.992-2.223l4.557-13.567Z" transform="translate(-1648.789 -1375.067)" fill="#464a5a"/>
      </g>
    </g>
    <g id="Grupo_12829" data-name="Grupo 12829" transform="translate(-102.344 21.726)">
      <g id="Grupo_12809" data-name="Grupo 12809" transform="translate(45.613 57.418)">
        <g id="Grupo_12808" data-name="Grupo 12808">
          <path id="Caminho_26906" data-name="Caminho 26906" d="M2263.682,1463.324s-.168-2.9-.935-3.345-.323.447-.323.447.43,2.1.526,2.952A4.361,4.361,0,0,0,2263.682,1463.324Z" transform="translate(-2262.296 -1459.853)" fill="#1d3b54"/>
        </g>
      </g>
      <path id="Caminho_26907" data-name="Caminho 26907" d="M2142.256,1097.557s7.2-.6,7,6.973-1.4,8.711,0,14.061-7.017-3.038-7.017-3.038Z" transform="translate(-2115.656 -1097.546)" fill="#434343"/>
      <path id="Caminho_26908" data-name="Caminho 26908" d="M2007.971,1209.023s-10.2,6.362-11.059,5.685c-1.206-.946-4.482-9.017-4.482-9.017l-2.566,1.221s3.061,13.956,7.184,12.928,13.589-6.881,13.589-6.881Z" transform="translate(-1987.425 -1188.552)" fill="#eea987"/>
      <path id="Caminho_26909" data-name="Caminho 26909" d="M2112.772,1386.7a33.161,33.161,0,0,1,3.586,5.613c.936,2.235,2.495,7.133,2.287,10.927s-1.455,10.914-1.091,12.526.727,4.937,1.117,6.081,1.949,4.47,2.1,7.9-2.183,18.5-2.079,19.905-2.65.572-2.65.572-.936-13.617-1.456-15.956-1.143-10.291-1.611-10.862a26.59,26.59,0,0,1-1.549-7.432c.2-.935-5.1-14.968-5.416-17.774s-8.129-11.5-8.129-11.5A24.3,24.3,0,0,1,2112.772,1386.7Z" transform="translate(-2078.329 -1339.895)" fill="#eea987"/>
      <path id="Caminho_26910" data-name="Caminho 26910" d="M2074.227,1382.05a16.014,16.014,0,0,1-.291,1.936c-.156.52-3.742,13.773-4.106,18.866a100.559,100.559,0,0,1-1.455,10.5,22.522,22.522,0,0,0,.468,5.662c.312.936-1.559,23.024-1.716,23.544s1.248.676,2.235.52,5.977-16.215,5.665-18.918-.624-8.465.26-10.807,8.835-19.285,8.887-20.325S2087.615,1374.086,2074.227,1382.05Z" transform="translate(-2052.434 -1335.249)" fill="#eea987"/>
      <path id="Caminho_26911" data-name="Caminho 26911" d="M2199.41,1779.806a11.1,11.1,0,0,1-.536,2.284c-.279.489-1.048,2.983-1.4,3.448s-1.118,3.961,0,4.381,3.751,1.119,4.637-.28a5.75,5.75,0,0,0,.862-3.868c-.139-1.072-1.2-5.991-1.189-6.478S2199.41,1779.806,2199.41,1779.806Z" transform="translate(-2161.643 -1671.138)" fill="#eea987"/>
      <path id="Caminho_26912" data-name="Caminho 26912" d="M2196.121,1813.3s-.12,2.716,1.93,2.716,2.959-2.472,2.959-2.472.7,1.213,0,3.8-3.612,2.05-4.264,1.957S2193,1818.388,2196.121,1813.3Z" transform="translate(-2159.842 -1699.866)" fill="#4f611a"/>
      <path id="Caminho_26913" data-name="Caminho 26913" d="M2020.3,1767.846s-1.449,2.593-2.31,3.118c-1.073.655-3.155,2.755-3.882,2.852s-3.342.561-2.837,2.037c.414,1.209,6.649,1.036,7.352.43s2.806-2.782,3.655-2.733.533,3.137.533,3.137h.921s.322-3.006.361-3.522c.115-1.53-.976-2.655-1.024-3.528s-.1-1.524-.1-1.524Z" transform="translate(-2005.39 -1661.617)" fill="#4f611a"/>
      <path id="Caminho_26914" data-name="Caminho 26914" d="M2030.832,1772.9a4.969,4.969,0,0,0,3.637-.2c1.582-.909,4.618-2.29,5.691-2.3,0,0-.585-1.791-.6-1.991s-.076-1.143-.076-1.143l-2.654-.425a22.953,22.953,0,0,1-2.48,3.122A43.085,43.085,0,0,0,2030.832,1772.9Z" transform="translate(-2021.901 -1660.775)" fill="#eea987"/>
      <path id="Caminho_26915" data-name="Caminho 26915" d="M2079.187,1389.523s-.74,3.079-1.014,3.976-2.024,14.805-2.456,23.5a68.15,68.15,0,0,0,24.908,3.313s.351-15.982-.975-20.5-3.725-8.752-5.535-10.057C2092.505,1388.6,2079.187,1389.523,2079.187,1389.523Z" transform="translate(-2059.673 -1342.956)" fill="#5d751a"/>
      <g id="Grupo_12811" data-name="Grupo 12811" transform="translate(42.209 52.414)">
        <g id="Grupo_12810" data-name="Grupo 12810">
          <path id="Caminho_26916" data-name="Caminho 26916" d="M2242.055,1430.236a21.292,21.292,0,0,1-.607,2.549c-.393,1.251-.755,1.65-.6,2.367.119.541.731.948.886.774s.229-2.278,1.1-2.268-.261,2.606.258,2.415,2.517-1.285,2.392-2.346-.925-1.827-.874-3.411a3.41,3.41,0,0,0-.4-2.038Z" transform="translate(-2240.813 -1428.279)" fill="#eea987"/>
        </g>
      </g>
      <g id="Grupo_12813" data-name="Grupo 12813" transform="translate(1.747 16.261)">
        <g id="Grupo_12812" data-name="Grupo 12812">
          <path id="Caminho_26917" data-name="Caminho 26917" d="M1985.5,1201.631s1.217,1.581,1.967,1.749,1.566-1.62,1.566-1.62l-.443-1.607Z" transform="translate(-1985.499 -1200.153)" fill="#eea886"/>
        </g>
      </g>
      <g id="Grupo_12815" data-name="Grupo 12815" transform="translate(0 11.232)">
        <g id="Grupo_12814" data-name="Grupo 12814">
          <path id="Caminho_26918" data-name="Caminho 26918" d="M1979.227,1174.4s.583-1.824.663-2.106a3.465,3.465,0,0,0-.722-1.893,16.762,16.762,0,0,0-1.356-1.825c-.115-.114-.178-.243-.559-.072a1.582,1.582,0,0,0-.606.525.962.962,0,0,0-.814.448.838.838,0,0,0-.729.581s-.521.03-.628.452a6.348,6.348,0,0,1,.261,1.094,13.368,13.368,0,0,0,1.486,3.325S1977.474,1176,1979.227,1174.4Z" transform="translate(-1974.476 -1168.419)" fill="#eea886"/>
        </g>
      </g>
      <g id="Grupo_12817" data-name="Grupo 12817" transform="translate(0.809 14.563)">
        <g id="Grupo_12816" data-name="Grupo 12816">
          <path id="Caminho_26919" data-name="Caminho 26919" d="M1982.186,1189.716a4.719,4.719,0,0,0-.7,1.022c-.073.294-1.905-.8-1.905-.8S1981.279,1188.977,1982.186,1189.716Z" transform="translate(-1979.58 -1189.437)" fill="#cf8c6c"/>
        </g>
      </g>
      <g id="Grupo_12819" data-name="Grupo 12819" transform="translate(0 11.342)">
        <g id="Grupo_12818" data-name="Grupo 12818">
          <path id="Caminho_26920" data-name="Caminho 26920" d="M1977.908,1169.341s1.014,2.149.674,2.334a.607.607,0,0,1-.577.048l-.053,1.077a.62.62,0,0,1-1.065.014s-.342.69-.869-.038c0,0-.428.354-.732.06a7.963,7.963,0,0,1-.809-1.745s.031-.354.628-.452a.824.824,0,0,1,.729-.581,1.245,1.245,0,0,1,.946-.591.937.937,0,0,1,1.033-.31A1.175,1.175,0,0,1,1977.908,1169.341Z" transform="translate(-1974.476 -1169.111)" fill="#db9c7c"/>
        </g>
      </g>
      <g id="Grupo_12821" data-name="Grupo 12821" transform="translate(2.6 13.605)">
        <g id="Grupo_12820" data-name="Grupo 12820">
          <path id="Caminho_26921" data-name="Caminho 26921" d="M1993.678,1184.822a8.1,8.1,0,0,0-2.161-1.376c-.211-.067-.427-.093-.568.077s-.074.591.435,1.087a5.986,5.986,0,0,1,.94,1.369S1993,1186.334,1993.678,1184.822Z" transform="translate(-1990.885 -1183.394)" fill="#eea886"/>
        </g>
      </g>
      <g id="Grupo_12822" data-name="Grupo 12822" transform="translate(2.303 11.234)">
        <path id="Caminho_26922" data-name="Caminho 26922" d="M1989.009,1168.9a19.945,19.945,0,0,1,1.241,2.5c-.014.262.822-.184.819-.409a18.872,18.872,0,0,0-1.027-2.4A.644.644,0,0,0,1989.009,1168.9Z" transform="translate(-1989.009 -1168.433)" fill="#eea886"/>
      </g>
      <g id="Grupo_12823" data-name="Grupo 12823" transform="translate(1.087 8.218)">
        <path id="Caminho_26923" data-name="Caminho 26923" d="M1983.843,1153s-2-3.732-2.3-3.6c-.428.2-.313,1.231,1.374,4.017C1984.562,1156.128,1983.843,1153,1983.843,1153Z" transform="translate(-1981.337 -1149.399)" fill="#eea886"/>
      </g>
      <path id="Caminho_26924" data-name="Caminho 26924" d="M2078.8,1229.1l-4.117-5.463s7.36-5.7,9.632-2.076C2084.318,1221.558,2084.479,1227.53,2078.8,1229.1Z" transform="translate(-2058.805 -1200.89)" fill="#f6f6f6"/>
      <path id="Caminho_26925" data-name="Caminho 26925" d="M2085.032,1224.011a15.113,15.113,0,0,0,1.209,4.015c.156.662,0,2.183.195,3.7a93.7,93.7,0,0,1,.585,10.836c-.195,2.066,14.18,1.133,15.271.509,0,0-2.422-4.329-2.486-6.122-.023-.616-.39-2.534.624-3.937.535-.741,1.527-3.1,2.518-4.822h0c.385-.669.786-1.336,1.067-1.832h0a6.935,6.935,0,0,0,.57-1.415s.639-7.952-1.115-8.849a8.938,8.938,0,0,0-4.4-1.13,12.448,12.448,0,0,1-2.845-.429l-4.015.429a23.214,23.214,0,0,1-3.586.975c-1.014.078-2.3,2.261-2.183,3.664S2084.915,1222.179,2085.032,1224.011Z" transform="translate(-2067.506 -1195.998)" fill="#f6f6f6"/>
      <g id="Grupo_12825" data-name="Grupo 12825" transform="translate(43.052 57.693)">
        <g id="Grupo_12824" data-name="Grupo 12824">
          <path id="Caminho_26926" data-name="Caminho 26926" d="M2247.231,1461.6s-1.161.3-1.092,4.224l1.315-.22a13.533,13.533,0,0,1,.368-3.353S2247.756,1461.484,2247.231,1461.6Z" transform="translate(-2246.136 -1461.589)" fill="#1d3b54"/>
        </g>
      </g>
      <g id="Grupo_12827" data-name="Grupo 12827" transform="translate(39.327 59.911)">
        <g id="Grupo_12826" data-name="Grupo 12826">
          <path id="Caminho_26927" data-name="Caminho 26927" d="M2222.63,1478.488l10.238-2.9-.03,12.609-10.189,6.106Z" transform="translate(-2222.63 -1475.584)" fill="#364048"/>
        </g>
      </g>
      <g id="Grupo_12828" data-name="Grupo 12828" transform="translate(39.346 59.911)">
        <path id="Caminho_26928" data-name="Caminho 26928" d="M2222.75,1494.3l1.283.237,9.91-6.163-.123-12.731-.851-.058Z" transform="translate(-2222.75 -1475.584)" fill="#31383d"/>
      </g>
      <path id="Caminho_26929" data-name="Caminho 26929" d="M2184.5,1219.775a5.472,5.472,0,0,1,4.63,2.8c1.442,2.807,1.6,5.769,1.949,6.822s1.268,7.244,1.619,8.141a70.392,70.392,0,0,1,2.942,10.414,68.471,68.471,0,0,1,.613,6.91l-2.558-.081s-2.539-9.333-3.414-11.554c-.748-1.9-1.035-5.215-1.463-6.384s-3.079-9.394-3.625-9.979S2181.783,1220.293,2184.5,1219.775Z" transform="translate(-2150.247 -1200.404)" fill="#eea886"/>
      <path id="Caminho_26930" data-name="Caminho 26930" d="M2182.436,1231.122l6.5-2.047s-1.991-9.583-7.541-9.327C2176.938,1219.954,2182.436,1231.122,2182.436,1231.122Z" transform="translate(-2147.135 -1200.377)" fill="#f6f6f6"/>
      <path id="Caminho_26931" data-name="Caminho 26931" d="M2105.965,1102.087a6.117,6.117,0,0,0-7.023,4.839,14.966,14.966,0,0,0,.193,2.341c.2,1.042-1.046,3.909-.827,4.082a6.546,6.546,0,0,0,1.171.472s.675,3.364,1.817,3.467a9.5,9.5,0,0,0,8.046-4.1C2111.834,1109.386,2113.169,1103.266,2105.965,1102.087Z" transform="translate(-2078.66 -1101.308)" fill="#eea886"/>
      <path id="Caminho_26932" data-name="Caminho 26932" d="M2127.546,1174.035s.088.471.17,1.164c.042.354.082.766.108,1.2a8.053,8.053,0,0,1-.378,3.491s2.236,1.385,4.632-1.946c0,0-.234-4.157,1.142-6.354S2127.546,1174.035,2127.546,1174.035Z" transform="translate(-2103.204 -1159.359)" fill="#eea886"/>
      <path id="Caminho_26933" data-name="Caminho 26933" d="M2102.449,1103.182a16.233,16.233,0,0,0,5.53,3.05c2.844.731,4.35,3.926,4.35,3.926s5.032-5.019,2-9.891S2102.454,1097.568,2102.449,1103.182Z" transform="translate(-2082.168 -1097.564)" fill="#434343"/>
      <path id="Caminho_26934" data-name="Caminho 26934" d="M2129.146,1188.548c.042.354.083.766.108,1.2a12.57,12.57,0,0,0,3.892-2.886A14.286,14.286,0,0,1,2129.146,1188.548Z" transform="translate(-2104.635 -1172.71)" fill="#a77860"/>
      <path id="Caminho_26935" data-name="Caminho 26935" d="M2140.643,1150.016s2.909,7.823,2.561,9.706a10.248,10.248,0,0,1,4.282.574S2146.16,1146.338,2140.643,1150.016Z" transform="translate(-2114.309 -1141.181)" fill="#434343"/>
      <path id="Caminho_26936" data-name="Caminho 26936" d="M2129.27,1214.063s-.958,5.867-4.505,5.2-.857-4.962-.857-4.962S2125.293,1213.062,2129.27,1214.063Z" transform="translate(-2099.403 -1195.27)" fill="#eea886"/>
    </g>
  </g>
</svg>
