<svg xmlns="http://www.w3.org/2000/svg" width="21.724" height="21.726" viewBox="0 0 21.724 21.726">
  <path id="filter_icon" d="M21.376,0H1.349A.849.849,0,0,0,.5.849a8.288,8.288,0,0,0,2.78,6.19L7,10.342A3.024,3.024,0,0,1,8.01,12.6v8.276a.849.849,0,0,0,1.319.706l5.007-3.338a.849.849,0,0,0,.378-.706V12.6a3.024,3.024,0,0,1,1.014-2.258l3.717-3.3a8.288,8.288,0,0,0,2.78-6.19A.849.849,0,0,0,21.376,0ZM18.317,5.77,14.6,9.073A4.723,4.723,0,0,0,13.017,12.6v4.484L9.707,19.29V12.6A4.723,4.723,0,0,0,8.124,9.073L4.407,5.77A6.592,6.592,0,0,1,2.252,1.7h18.22A6.591,6.591,0,0,1,18.317,5.77Zm0,0" transform="translate(-0.5 0)" fill="#474b51"/>
</svg>
