<svg xmlns="http://www.w3.org/2000/svg" width="14.958" height="21.502" viewBox="0 0 14.958 21.502">
  <g id="lock-icon" transform="translate(-54.954)">
    <g id="_x32_37._Locked" transform="translate(54.954)">
      <g id="Grupo_12565" data-name="Grupo 12565" transform="translate(0)">
        <path id="Caminho_26759" data-name="Caminho 26759" d="M68.043,8.414v-2.8a5.609,5.609,0,0,0-11.219,0v2.8a1.87,1.87,0,0,0-1.87,1.87v9.349a1.87,1.87,0,0,0,1.87,1.87H68.043a1.87,1.87,0,0,0,1.87-1.87V10.283A1.87,1.87,0,0,0,68.043,8.414Zm-9.349-2.8a3.74,3.74,0,0,1,7.479,0v2.8H58.694Zm9.349,14.023H56.824V10.284H68.043v9.349Zm-6.544-4v1.194a.935.935,0,0,0,1.87,0V15.634a1.87,1.87,0,1,0-1.87,0Z" transform="translate(-54.954)" fill="#bfbfbf"/>
      </g>
    </g>
  </g>
</svg>
