<svg xmlns="http://www.w3.org/2000/svg" width="25.685" height="25.685" viewBox="0 0 25.685 25.685">
  <g id="logout_icon" transform="translate(0 0)">
    <path id="Caminho_45683" data-name="Caminho 45683" d="M288.3,209.613H278.135a.8.8,0,0,1,0-1.605H288.3a.8.8,0,1,1,0,1.605Zm0,0" transform="translate(-263.42 -197.574)" fill="#474c52"/>
    <path id="Caminho_45684" data-name="Caminho 45684" d="M400.806,137.6a.8.8,0,0,1-.567-1.371l3.446-3.446-3.446-3.446a.8.8,0,1,1,1.136-1.135l4.013,4.013a.8.8,0,0,1,0,1.135l-4.013,4.013A.8.8,0,0,1,400.806,137.6Zm0,0" transform="translate(-379.938 -121.551)" fill="#474c52"/>
    <path id="Caminho_45685" data-name="Caminho 45685" d="M8.561,25.692a2.205,2.205,0,0,1-.664-.1L1.457,23.447A2.16,2.16,0,0,1,0,21.412V2.148A2.143,2.143,0,0,1,2.14.008a2.207,2.207,0,0,1,.664.1l6.44,2.146A2.16,2.16,0,0,1,10.7,4.289V23.552a2.142,2.142,0,0,1-2.14,2.14ZM2.14,1.613a.537.537,0,0,0-.535.535V21.412a.556.556,0,0,0,.371.516l6.41,2.136a.581.581,0,0,0,.175.024.537.537,0,0,0,.535-.535V4.289a.556.556,0,0,0-.371-.516L2.315,1.637a.581.581,0,0,0-.174-.024Zm0,0" transform="translate(0 -0.008)" fill="#474c52"/>
    <path id="Caminho_45686" data-name="Caminho 45686" d="M41.65,8.57a.8.8,0,0,1-.8-.8V2.951A1.34,1.34,0,0,0,39.51,1.613H27.471a.8.8,0,1,1,0-1.605H39.51a2.945,2.945,0,0,1,2.943,2.943V7.767A.8.8,0,0,1,41.65,8.57Zm0,0" transform="translate(-25.33 -0.008)" fill="#474c52"/>
    <path id="Caminho_45687" data-name="Caminho 45687" d="M186.416,285.9h-4.281a.8.8,0,1,1,0-1.605h4.281a1.339,1.339,0,0,0,1.338-1.338v-4.816a.8.8,0,0,1,1.605,0v4.816A2.945,2.945,0,0,1,186.416,285.9Zm0,0" transform="translate(-172.236 -263.428)" fill="#474c52"/>
  </g>
</svg>
