<svg xmlns="http://www.w3.org/2000/svg" width="19.226" height="16.561" viewBox="0 0 19.226 16.561"><defs><style>.a{fill:#fff;}</style></defs><path class="a" d="M0,42.267a.932.932,0,0,0,.667.843L7.711,45.24l.259,4.855a.481.481,0,0,0,.325.424.441.441,0,0,0,.157.027.477.477,0,0,0,.361-.161l2.49-2.757,3.529,2.443a.926.926,0,0,0,.533.169.947.947,0,0,0,.922-.753l2.929-14.929a.479.479,0,0,0-.651-.537l-18,7.325A.946.946,0,0,0,0,42.267ZM8.864,48.89,8.7,45.828l1.8,1.247Zm6.486.373L8.927,44.816,17.934,36.1Zm1.6-13.545L8.04,44.334,1.005,42.208Z" transform="translate(0 -33.985)"/></svg>