<svg xmlns="http://www.w3.org/2000/svg" width="130.176" height="101.33" viewBox="0 0 130.176 101.33">
  <g id="recebidos_icon" opacity="0.6">
    <g id="Grupo_12553" data-name="Grupo 12553" transform="translate(58.767 80.504)">
      <g id="Grupo_12552" data-name="Grupo 12552" transform="translate(0)">
        <g id="Grupo_12551" data-name="Grupo 12551" transform="translate(11.144)">
          <rect id="Retângulo_2554" data-name="Retângulo 2554" width="2.39" height="14.407" transform="translate(0)" fill="#334865"/>
        </g>
        <path id="Caminho_26723" data-name="Caminho 26723" d="M243.565,347.5h0a1.2,1.2,0,0,0,1.2-1.2v-5.223h-2.39v5.223A1.2,1.2,0,0,0,243.565,347.5Z" transform="translate(-231.226 -326.675)" fill="#334865"/>
        <path id="Caminho_26724" data-name="Caminho 26724" d="M243.262,346.93h0a1.194,1.194,0,0,0,1.689.066l10.985-7.586-1.622-1.755-10.985,7.586A1.2,1.2,0,0,0,243.262,346.93Z" transform="translate(-242.944 -326.488)" fill="#334865"/>
        <path id="Caminho_26725" data-name="Caminho 26725" d="M243.258,346.93h0a1.194,1.194,0,0,1-1.689.066l-10.986-7.586,1.623-1.755,10.986,7.586A1.2,1.2,0,0,1,243.258,346.93Z" transform="translate(-218.897 -326.488)" fill="#334865"/>
      </g>
    </g>
    <path id="Caminho_26726" data-name="Caminho 26726" d="M228.285,319H257a2.881,2.881,0,0,0,2.881-2.881h0A2.881,2.881,0,0,0,257,313.234H228.285a2.881,2.881,0,0,0-2.881,2.881h0A2.881,2.881,0,0,0,228.285,319Z" transform="translate(-171.534 -244.654)" fill="#0073e9"/>
    <path id="Caminho_26727" data-name="Caminho 26727" d="M216.2,263.7l7.557,26.931a2.881,2.881,0,0,0,2.47,3.241h0a2.881,2.881,0,0,0,3.241-2.469l3.212-23.748a2.882,2.882,0,0,0-2.469-3.241h0C228.632,264.2,216.412,262.119,216.2,263.7Z" transform="translate(-135.656 -241.923)" fill="#0073e9"/>
    <path id="Caminho_26728" data-name="Caminho 26728" d="M264,298.2s-18.685,2.075-24.138,2.977c-4.84.8-6.481,3.193-4.5,7.455,2.106,4.525,16.82,28.965,16.82,28.965h4.745s-2.2-14.073-5.1-19.423a33.3,33.3,0,0,0-6.332-8.383h22.7l6.727-10.648Z" transform="translate(-195.226 -243.835)" fill="#042244"/>
    <path id="Caminho_26729" data-name="Caminho 26729" d="M277.373,299.474c.429,2.08,2.045,7.307-.064,11.028-3.5,6.175-30.01,3.8-36.285,4.091A37.969,37.969,0,0,1,239,323.707c-1.414,3.54-8.167,13.947-8.167,13.947h-4.725s7.142-27.919,9.223-30.857,28.334-7.6,28.334-7.6Z" transform="translate(-190.691 -243.889)" fill="#204164"/>
    <path id="Caminho_26730" data-name="Caminho 26730" d="M270.749,265.536c-1.882.464-4.143-.7-6.044,5.749-1.6,5.443-5.212,18.138-5.212,18.138s-10.715,1.082-14.254,1.867-2.851,1.716-2.851,1.716h22.48l5.1-18.338Z" transform="translate(-198.414 -242.055)" fill="#fc6f51"/>
    <path id="Caminho_26731" data-name="Caminho 26731" d="M251.014,290.563a1.015,1.015,0,0,1,.292-.754,2.187,2.187,0,0,1,1.524-.414c0-.157-.008-.315-.008-.476h9.1c0,2.964-.715,5.368-4.549,5.368a4.273,4.273,0,0,1-3.5-1.3C251.4,292.907,251.014,291.446,251.014,290.563Zm2.406,1.738a6.147,6.147,0,0,1-.555-2.258,1.823,1.823,0,0,0-1.1.227.378.378,0,0,0-.1.293C251.662,291.586,252.242,292.157,253.42,292.3Z" transform="translate(-197.792 -243.329)" fill="#f8d571"/>
    <path id="Caminho_26732" data-name="Caminho 26732" d="M222.4,241.556c-.1-.521,4.851-.85,5.374-.782a11.943,11.943,0,0,1,5.165,2.048c2.9,2.045,3.768,5.975,3.12,9.512-.217,1.188-.67,2.406-.339,3.568.678,2.388,3.314,2.679,4.443,5.659a8.019,8.019,0,0,1,.265,4.4,4.677,4.677,0,0,1-2.554,3.428,5,5,0,0,1-2.038.34,8.162,8.162,0,0,1-5.3-2.1c-1.729-1.571-2.207-3.692-3.1-5.723a30.089,30.089,0,0,1-1.3-4.143c-.956-3.462-1.757-6.968-2.524-10.476C223.182,245.386,222.775,243.473,222.4,241.556Z" transform="translate(-149.42 -240.706)" fill="#042047"/>
    <path id="Caminho_26733" data-name="Caminho 26733" d="M240.73,264.793s5.655,2.091,6.526,4.189-3.429,15.256-3.429,19.623a49.925,49.925,0,0,0,.988,8.995s-13.73.668-17.9-1.218a51.844,51.844,0,0,1-2.2-20.507c.7-5.759,5.756-10.372,5.756-10.372l1.929-.594Z" transform="translate(-158.133 -242.015)" fill="#fdfeff"/>
    <rect id="Retângulo_2555" data-name="Retângulo 2555" width="99.594" height="2.741" transform="translate(0 50.958)" fill="#7d9c28"/>
    <rect id="Retângulo_2556" data-name="Retângulo 2556" width="22.129" height="2.741" transform="translate(79.909 50.958)" fill="#afd154"/>
    <g id="Grupo_12554" data-name="Grupo 12554" transform="translate(91.437 53.699)">
      <path id="Caminho_26734" data-name="Caminho 26734" d="M219.152,345.126H221.2l.733-47.63h-3.512Z" transform="translate(-218.418 -297.495)" fill="#7d9c28"/>
      <path id="Caminho_26735" data-name="Caminho 26735" d="M218.467,300.66l-.049-3.165h3.512l-.049,3.165Z" transform="translate(-218.418 -297.495)" fill="#5d751b"/>
    </g>
    <g id="Grupo_12555" data-name="Grupo 12555" transform="translate(21.98 53.699)">
      <path id="Caminho_26736" data-name="Caminho 26736" d="M292.61,345.126h2.046l.733-47.63h-3.512Z" transform="translate(-291.876 -297.495)" fill="#7d9c28"/>
      <path id="Caminho_26737" data-name="Caminho 26737" d="M291.925,300.66l-.049-3.165h3.512l-.049,3.165Z" transform="translate(-291.876 -297.495)" fill="#5d751b"/>
    </g>
    <g id="Grupo_12556" data-name="Grupo 12556" transform="translate(2.677 53.699)">
      <path id="Caminho_26738" data-name="Caminho 26738" d="M313.025,345.126h2.046l.733-47.63h-3.512Z" transform="translate(-312.292 -297.495)" fill="#7d9c28"/>
      <path id="Caminho_26739" data-name="Caminho 26739" d="M312.34,300.66l-.049-3.165H315.8l-.049,3.165Z" transform="translate(-312.292 -297.495)" fill="#5d751b"/>
    </g>
    <g id="Grupo_12557" data-name="Grupo 12557" transform="translate(2.677 17.876)">
      <path id="Caminho_26740" data-name="Caminho 26740" d="M278.277,259.608h35.448v27.734H278.277s-4.157-2.455-4.157-13.867S278.277,259.608,278.277,259.608Z" transform="translate(-274.12 -259.608)" fill="#4f5f79"/>
      <path id="Caminho_26741" data-name="Caminho 26741" d="M279.274,259.608v27.734s-5.154-2.455-5.154-13.867S279.274,259.608,279.274,259.608Z" transform="translate(-239.67 -259.608)" fill="#9cb0c9"/>
      <path id="Caminho_26742" data-name="Caminho 26742" d="M294.693,293.805s1.434-9.607,4.71-13.742h6.031s-1.723,8.01-.689,13.742Z" transform="translate(-285.282 -260.722)" fill="#9cb0c9"/>
      <path id="Caminho_26743" data-name="Caminho 26743" d="M293.734,271.429a3.377,3.377,0,1,0,3.377-3.377A3.377,3.377,0,0,0,293.734,271.429Z" transform="translate(-279.429 -260.068)" fill="#203854"/>
      <path id="Caminho_26744" data-name="Caminho 26744" d="M299.225,293.236H287.562v1.287h12.59v-.643C300.152,293.524,299.737,293.236,299.225,293.236Z" transform="translate(-273.257 -261.44)" fill="#9cb0c9"/>
    </g>
    <path id="Caminho_26745" data-name="Caminho 26745" d="M231.431,245.487c-1.359,5.806-1.267,10.32.637,13.183,1.478,2.223,4.413,1.791,4.413,1.791l.193,3.291s-2.4,3.262-.666,4.472,5.216.451,7.107-2.069l1.891-2.52a3.288,3.288,0,0,1-2.329-1.344c-.682-.989-.1-5.1-.1-5.1s1.866,1.36,3.094-1.287c.7-1.512-.058-4.165-1.873-3.5a7.024,7.024,0,0,0-4.549-8.074C233.368,242.076,231.431,245.487,231.431,245.487Z" transform="translate(-162.41 -240.858)" fill="#fc6f51"/>
    <path id="Caminho_26746" data-name="Caminho 26746" d="M238.635,244.077s3.107.131,3.215,1.975.591,5.928,4.016,6.194c0,0,1.872-5.862-.759-8.814a4.663,4.663,0,0,0-4.685-1.67s-3.967-2.69-6.808.5-.857,7.212-.857,7.212C232.845,248.722,233.949,243.423,238.635,244.077Z" transform="translate(-164.481 -240.703)" fill="#042047"/>
    <path id="Caminho_26747" data-name="Caminho 26747" d="M235.705,261.271a6.274,6.274,0,0,0,4.111-2.647c.378-.762.995.739-.755,2.452a4.842,4.842,0,0,1-3.271,1.642Z" transform="translate(-161.635 -241.668)" fill="#042047"/>
    <path id="Caminho_26748" data-name="Caminho 26748" d="M234.448,252.882s-.1,2.954-.783,2.834c-1.267-.223-.825-3.332-.825-3.332Z" transform="translate(-153.064 -241.339)" fill="#042047"/>
    <path id="Caminho_26749" data-name="Caminho 26749" d="M246.278,268.048c3.359-.454,4.17,1.409,4.786,5.883s1.925,15.091,2.071,16.69-1.207,2.525-6.857,2.525H220.953s-.392-1.258,4.138-2.148c4.04-.793,7.9-1.515,7.9-1.515l12.439-2.353s-.764-7.933-1.328-12.329S244.229,268.325,246.278,268.048Z" transform="translate(-160.585 -242.189)" fill="#fc6f51"/>
    <path id="Caminho_26750" data-name="Caminho 26750" d="M260.742,288.124a2.128,2.128,0,0,0,.567-2.1c-.284-1.42-1.845-2.361-1.7-3.913s1.255-2.546.876-4.391a9.562,9.562,0,0,0-2.222-3.762h-5.518s2.464,2.839,2.535,4.259-.985,2.839-.776,4.4,2.554,2.413,2.554,3.981a2.317,2.317,0,0,1-.713,1.522Z" transform="translate(-198.872 -242.514)" fill="#fdfeff"/>
    <path id="Caminho_26751" data-name="Caminho 26751" d="M288.791,339.87s1.139,2.945.948,3.807-.948,3.758-.948,3.758h-2.4v-2.855l-2.322,2.855h-8.5s-1.349-1.857,2.822-2.855a8.583,8.583,0,0,0,5.679-4.709Z" transform="translate(-248.65 -246.105)" fill="#042244"/>
    <path id="Caminho_26752" data-name="Caminho 26752" d="M266.006,339.87s1.14,2.945.948,3.807-.948,3.758-.948,3.758h-2.4v-2.855l-2.322,2.855h-8.5s-1.349-1.857,2.823-2.855a8.586,8.586,0,0,0,5.679-4.709Z" transform="translate(-204.321 -246.105)" fill="#042244"/>
    <path id="Retângulo_2557" data-name="Retângulo 2557" d="M0,0H5.554a0,0,0,0,1,0,0V4.952a1.21,1.21,0,0,1-1.21,1.21H1.21A1.21,1.21,0,0,1,0,4.952V0A0,0,0,0,1,0,0Z" transform="translate(68.33 74.342)" fill="#0f437d"/>
    <g id="Grupo_12558" data-name="Grupo 12558" transform="translate(105.989 24.695)">
      <path id="Caminho_26753" data-name="Caminho 26753" d="M197.722,317.556a8.571,8.571,0,0,1-6.533-6.921c-1.275-6.055-5.258-4.939-6.851-10.038s2.231-7.708.637-10.865-.319-7.458,3.186-6.344,2.763,5.215,7.33,6.344,5.907,6.986,5.409,12.14c-.532,5.507,6.466,7.788,4.114,15.684Z" transform="translate(-183.941 -267.713)" fill="#cee398"/>
      <path id="Caminho_26754" data-name="Caminho 26754" d="M204.172,317.573a8.571,8.571,0,0,1-6.533-6.921c-1.275-6.055-5.258-4.939-6.851-10.039s2.23-7.707.637-10.864c-1.18-2.338-.783-5.3.924-6.227,3.862,6.661,12.21,22.191,13.5,34.051Z" transform="translate(-190.391 -267.73)" fill="#afd154"/>
      <path id="Caminho_26755" data-name="Caminho 26755" d="M195.615,346.326h-7.221a5.133,5.133,0,0,1-5.082-4.409l-2.15-22.382h14.453Z" transform="translate(-171.429 -269.692)" fill="#f8d571"/>
      <path id="Caminho_26756" data-name="Caminho 26756" d="M187.771,316.663a10.367,10.367,0,0,1-5.855-4.592c-2.174-3.679.837-7.86,2.927-12.376s2.005-6.072-.377-9.727-3.7-8.839-.534-12.852-.249-7.188,1.377-9.2,5.635-1.241,7.227,2.138v46.607Z" transform="translate(-168.349 -266.82)" fill="#afd154"/>
      <path id="Caminho_26757" data-name="Caminho 26757" d="M187.387,270.057v46.607c0-15.621,0-36.884-6.225-49.515C183.068,266.248,186.063,267.245,187.387,270.057Z" transform="translate(-163.201 -266.821)" fill="#cee398"/>
    </g>
  </g>
</svg>
